<svg width="320" height="95" viewBox="0 0 320 95" fill="none" xmlns="http://www.w3.org/2000/svg">
<path fill-rule="evenodd" clip-rule="evenodd" d="M10.961 48.0027L13.3495 43.478L15.6454 48.0027H10.961ZM66.7847 52.1364C67.9027 51.9314 68.9136 51.3382 69.6411 50.4602C70.3686 49.5822 70.7666 48.4753 70.7655 47.3324C70.7704 46.7653 70.6632 46.2029 70.4503 45.6778C70.2373 45.1526 69.9227 44.6753 69.5248 44.2734C69.127 43.8715 68.6536 43.5531 68.1324 43.3367C67.6112 43.1202 67.0524 43.0101 66.4884 43.0125H61.3782V52.155L66.7847 52.1364ZM4.75842 53.9984L11.9609 40.9643H14.553L21.9591 54.1288H18.9597L16.96 50.1068H9.66498L7.66533 53.9984H4.75842ZM37.475 48.4124C37.475 48.4124 38.6229 54.2964 30.4206 54.2964C22.2184 54.2964 23.2367 48.5055 23.2367 48.4124V40.9643H26.014V48.4124C26.014 48.4124 25.7548 52.2854 30.4391 52.2854C35.1235 52.2854 34.7347 48.4682 34.7347 48.3751V40.9643H37.512V48.4124H37.475ZM40.9188 54.166V41.1319H43.9183L52.602 50.6654V40.9643H55.1941V54.2405H52.1946L43.7146 44.9304V54.2405H40.9188V54.166ZM66.8402 54.166C66.9513 54.166 73.5243 53.5515 73.5243 47.3138C73.5243 41.076 66.4884 41.076 66.6551 41.076H58.5824V54.2405L66.8402 54.166ZM76.3386 54.166V41.076H89.2993V42.9381H79.1714V46.5504H88.8734V48.4124H79.1714V52.1364H89.6511V54.1288H76.3756L76.3386 54.166Z" fill="#213A8F"/>
<path d="M94.4281 47.5C94.4317 38.1083 91.6658 28.9264 86.4801 21.1157C81.2943 13.305 73.9218 7.21628 65.2949 3.61967C56.668 0.023064 47.1742 -0.919883 38.0144 0.910094C28.8546 2.74007 20.4401 7.26076 13.8352 13.9004C7.23038 20.5401 2.73185 29.0004 0.908581 38.2114C-0.914684 47.4224 0.0192298 56.9703 3.5922 65.6474C7.16518 74.3246 13.2167 81.7413 20.9814 86.9594C28.7461 92.1776 37.8752 94.9628 47.214 94.9628C59.7283 94.948 71.726 89.9433 80.5766 81.0461C89.4273 72.1488 94.4085 60.0851 94.4281 47.5ZM3.44386 36.3279C4.66995 31.5235 6.66478 26.9515 9.35025 22.7911C11.7746 24.0101 14.2951 25.0252 16.886 25.8262C15.3502 29.1929 14.1711 32.7129 13.3681 36.3279H3.44386ZM17.497 26.0682C20.2954 26.9264 23.1387 27.6289 26.014 28.1723C25.2191 30.8406 24.6006 33.5589 24.1625 36.3093H24.5143H14.0346C14.823 32.7814 15.9837 29.3483 17.497 26.0682ZM33.6794 6.51707C34.9362 6.90818 36.2163 7.21913 37.512 7.44808C34.9131 10.26 32.6739 13.3876 30.8465 16.7582C28.5876 16.3299 26.4214 15.8085 24.3847 15.2127C27.0876 11.9142 30.213 8.99028 33.6794 6.51707ZM23.7181 14.8961C21.795 14.3329 19.9089 13.6488 18.071 12.8479C21.8118 9.63898 26.0531 7.07222 30.6243 5.2509C31.3752 5.62671 32.1481 5.95627 32.9387 6.23777C29.5075 8.71286 26.4084 11.623 23.7181 14.8961ZM60.6006 6.55431C64.0396 9.01186 67.1509 11.903 69.8583 15.1568C67.7575 15.7998 65.6255 16.3343 63.4705 16.7582C61.6197 13.4444 59.3684 10.3736 56.7679 7.61566C58.0666 7.34398 59.3467 6.98948 60.6006 6.55431ZM61.3412 6.31225C62.1867 6.01799 63.015 5.67608 63.8223 5.28814C68.3861 7.10468 72.6211 9.66511 76.3571 12.8665C74.4745 13.6608 72.5453 14.3386 70.5803 14.8961C67.8787 11.6489 64.7736 8.76402 61.3412 6.31225ZM39.4561 18.4712C41.8631 18.676 44.3442 18.7878 46.8622 18.7878V29.4571C43.5665 29.4571 40.3078 29.2895 37.1232 29.0288C37.6832 25.4645 38.4623 21.9386 39.4561 18.4712ZM36.4752 28.973C33.1239 28.6564 29.9022 28.2282 26.8287 27.6509C27.9378 24.0887 29.3953 20.6458 31.1798 17.3726C33.6238 17.8195 36.1789 18.1733 38.7896 18.4153C37.8113 21.8855 37.0384 25.4109 36.4752 28.973ZM47.4918 18.7878C49.9728 18.7878 52.4354 18.676 54.8979 18.4898C55.9 21.95 56.6853 25.4699 57.2493 29.0288C54.0832 29.3081 50.8245 29.4385 47.5288 29.4571L47.4918 18.7878ZM55.5459 18.434C58.1566 18.1919 60.7117 17.8567 63.1742 17.3912C64.9619 20.6693 66.4195 24.1187 67.5253 27.6882C64.4518 28.2468 61.2116 28.6751 57.8789 28.973C57.3188 25.4148 56.5397 21.895 55.5459 18.434ZM63.8223 17.2795C66.0811 16.7582 68.2845 16.3113 70.3582 15.6968C72.7896 18.7098 74.8648 21.9966 76.5423 25.491C73.7768 26.3454 70.9638 27.0355 68.1178 27.5578C67.0148 23.9962 65.5635 20.5533 63.7852 17.2795H63.8223ZM56.0273 7.69014C58.6528 10.4173 60.9293 13.4635 62.8039 16.7582C60.3969 17.205 57.8974 17.5402 55.3978 17.7636C54.451 14.4803 53.2116 11.2895 51.6947 8.23013C53.1204 8.13703 54.6202 7.95083 56.0273 7.69014ZM50.9171 8.32323C52.4372 11.3812 53.6767 14.5722 54.6202 17.8567C52.2687 18.0429 49.8617 18.1547 47.4362 18.1547V8.45357C48.6397 8.43495 49.7877 8.39771 50.9171 8.32323ZM46.8437 18.1547C44.4182 18.1547 41.9927 18.0429 39.6228 17.8381C40.5694 14.5547 41.8088 11.3639 43.3258 8.30461C44.4553 8.30461 45.6217 8.43495 46.7882 8.45357L46.8437 18.1547ZM38.9747 17.7823C36.4196 17.5588 33.9201 17.2237 31.5686 16.7768C33.4341 13.4639 35.7044 10.3988 38.3267 7.6529C39.796 7.9331 41.2794 8.13202 42.7704 8.24875C41.2328 11.31 39.9628 14.4998 38.9747 17.7823ZM30.5132 17.2609C28.741 20.5352 27.2959 23.9782 26.1992 27.5392C23.3486 27.002 20.5299 26.3058 17.7562 25.4538C19.4271 21.9598 21.4962 18.673 23.9218 15.6596C26.014 16.274 28.2173 16.7582 30.5132 17.2609ZM26.6435 28.2654C29.7356 28.8426 32.9943 29.3081 36.3641 29.6061C36.0308 31.8032 35.7531 34.0377 35.5494 36.3466H24.7735C25.2108 33.6127 25.8357 30.9125 26.6435 28.2654ZM37.0121 29.6619C40.2153 29.9226 43.511 30.0902 46.8437 30.0902V36.3466H36.1789C36.4011 34.0563 36.6788 31.8219 37.0306 29.6619H37.0121ZM47.4918 30.0902C50.8245 30.0902 54.1017 29.9412 57.3049 29.6619C57.6567 31.8405 57.9159 34.0749 58.1381 36.3466H47.4918V30.0902ZM58.7861 36.3466C58.5639 34.0563 58.2862 31.8032 57.9529 29.6061C61.3227 29.3081 64.5814 28.8613 67.6734 28.3026C68.4597 30.9417 69.0781 33.6285 69.525 36.3466H58.7861ZM70.1915 36.3466C69.7533 33.5839 69.1348 30.8533 68.34 28.1723C71.2028 27.6275 74.0338 26.9251 76.82 26.0682C78.3288 29.3565 79.4893 32.7953 80.2824 36.3279L70.1915 36.3466ZM80.9304 36.3466C80.1364 32.7494 78.9633 29.2476 77.431 25.9007C80.0845 25.0752 82.6718 24.0482 85.1704 22.8283C87.8605 26.9772 89.85 31.5449 91.0583 36.3466H80.9304ZM84.6335 22.2883C82.1935 23.496 79.6611 24.5047 77.0607 25.3048C75.4028 21.8061 73.3462 18.5131 70.9321 15.492C72.9301 14.8917 74.8902 14.1704 76.8015 13.332C79.8309 15.9672 82.4961 18.9981 84.726 22.3442L84.6335 22.2883ZM62.952 4.95298C57.9382 6.96137 52.5725 7.93038 47.177 7.80186C41.8064 7.91933 36.4671 6.95053 31.476 4.95298C41.6285 1.15678 52.7996 1.15678 62.952 4.95298ZM17.534 13.3134C19.4014 14.1458 21.3184 14.8609 23.2738 15.4547C20.8597 18.4758 18.8031 21.7689 17.1452 25.2676C14.6007 24.469 12.1241 23.4665 9.73907 22.2697C11.9428 18.959 14.5628 15.9486 17.534 13.3134ZM2.07373 47.5C2.07291 44.4544 2.37686 41.4164 2.98098 38.432H91.4471C92.0512 41.4164 92.3552 44.4544 92.3543 47.5C92.3512 50.5137 92.0535 53.5198 91.4656 56.4749H2.96247C2.36601 53.5211 2.06825 50.5141 2.07373 47.5ZM60.9894 88.4643C59.6716 88.0622 58.3296 87.745 56.9716 87.5147C59.5485 84.6933 61.7743 81.5669 63.6001 78.2047C65.896 78.6515 68.0993 79.1915 70.1915 79.806C67.5183 83.1102 64.4244 86.0464 60.9894 88.5388V88.4643ZM70.8581 80.0667C72.7451 80.6479 74.5993 81.3316 76.4127 82.1149C72.6661 85.3159 68.4262 87.8818 63.8593 89.7119C63.1799 89.3675 62.4814 89.0629 61.7671 88.7995C65.1501 86.2841 68.2045 83.3501 70.8581 80.0667ZM33.3276 88.4457C29.9105 85.9801 26.8347 83.0685 24.181 79.7874C26.3436 79.1468 28.5374 78.6185 30.7539 78.2047C32.5856 81.5119 34.8115 84.582 37.3824 87.3471C36.0111 87.6353 34.6573 88.0021 33.3276 88.4457ZM32.587 88.6878C31.8093 88.9857 31.0687 89.3023 30.3836 89.6374C25.8424 87.8041 21.6325 85.2311 17.9228 82.0218C19.7329 81.2302 21.5876 80.5463 23.4774 79.9736C26.1199 83.2683 29.1828 86.1983 32.587 88.6878ZM13.3125 58.5604C14.0882 62.1639 15.2491 65.6724 16.7749 69.0249C14.1972 69.8312 11.6843 70.8334 9.25767 72.0228C6.60205 67.8845 4.63813 63.3369 3.44386 58.5604H13.3125ZM13.9791 58.5604H24.0699C24.5168 61.3152 25.1352 64.0391 25.9214 66.716C23.039 67.2855 20.1895 68.0127 17.3859 68.8946C15.8709 65.5883 14.7282 62.122 13.9791 58.5604ZM37.0306 65.8595C40.2153 65.5988 43.4739 65.4499 46.7882 65.4499V76.1006C44.2886 76.1006 41.7891 76.2123 39.3821 76.4171C38.3959 72.9466 37.6108 69.4215 37.0306 65.8595ZM38.7155 76.473C36.0678 76.715 33.5127 77.0502 31.0317 77.5157C29.2655 74.2343 27.8267 70.7852 26.7361 67.2188C29.8097 66.6602 33.0498 66.2133 36.4011 65.9154C36.9737 69.4804 37.7652 73.0063 38.7711 76.473H38.7155ZM47.4362 65.4499C50.7505 65.4499 54.0277 65.6174 57.1938 65.8967C56.6416 69.4548 55.8686 72.9747 54.8794 76.4357C52.4107 76.2371 49.942 76.1254 47.4733 76.1006L47.4362 65.4499ZM57.8418 65.9526C61.1931 66.2505 64.4333 66.716 67.5068 67.2746C66.4163 70.841 64.9774 74.2902 63.2113 77.5716C60.7302 77.1061 58.1751 76.7337 55.5274 76.4916C56.5335 73.0313 57.325 69.5115 57.8974 65.9526H57.8418ZM57.9344 65.3195C58.2677 63.1223 58.5454 60.8693 58.7491 58.5604H69.5435C69.0966 61.2969 68.4782 64.0022 67.692 66.6602C64.6369 66.0829 61.3782 65.6174 57.9899 65.3195H57.9344ZM57.3049 65.3195C54.0832 65.0402 50.7875 64.8912 47.4362 64.8726V58.5604H58.101C57.9529 60.8507 57.6937 63.0851 57.3975 65.2636L57.3049 65.3195ZM46.7882 64.8726C43.4369 64.8726 40.1412 65.0216 36.938 65.2823C36.6048 63.1223 36.327 60.8879 36.1234 58.6163H46.8437L46.7882 64.8726ZM35.4753 58.6163C35.6975 60.9065 35.9567 63.1596 36.29 65.3381C32.9202 65.636 29.6615 66.0829 26.5324 66.6602C25.7481 64.0206 25.1297 61.334 24.6809 58.6163H35.4753ZM26.0881 67.3863C27.1867 70.9498 28.6252 74.3982 30.3836 77.6833C28.0507 78.1302 25.8104 78.6702 23.6811 79.3032C21.2889 76.2673 19.2454 72.9692 17.5896 69.4718C20.3998 68.6013 23.2555 67.8864 26.1436 67.3305L26.0881 67.3863ZM38.0675 87.2913C35.5022 84.5097 33.2883 81.4202 31.476 78.0929C33.9015 77.6647 36.4196 77.3295 38.9932 77.1061C39.9466 80.3872 41.1857 83.5774 42.6963 86.6396C41.1624 86.7556 39.6357 86.9545 38.123 87.2354L38.0675 87.2913ZM43.2703 86.6396C41.7484 83.5824 40.5089 80.3912 39.5672 77.1061C41.9557 76.9199 44.3812 76.8081 46.8252 76.7895V86.5092C45.6588 86.4534 44.4367 86.5092 43.3258 86.5837L43.2703 86.6396ZM47.4362 76.8081C49.8988 76.8081 52.3243 76.9199 54.7127 77.1247C53.7741 80.4108 52.5344 83.6023 51.0097 86.6582C49.8432 86.6582 48.6582 86.5279 47.4547 86.5092L47.4362 76.8081ZM55.3608 77.1805C57.9344 77.4226 60.4525 77.7578 62.878 78.2047C61.0319 81.5215 58.7802 84.5929 56.1754 87.3471C54.7498 87.0678 53.2315 86.863 51.6762 86.7141C53.2056 83.6365 54.4573 80.4272 55.4163 77.1247L55.3608 77.1805ZM63.8593 77.7392C65.6194 74.4572 67.0521 71.0081 68.1363 67.4422C71.0437 68.0017 73.918 68.7228 76.7459 69.6021C75.0613 73.0884 72.9932 76.3737 70.5803 79.3963C68.5066 78.7074 66.2663 78.2047 63.9148 77.6833L63.8593 77.7392ZM68.3215 66.8464C69.1145 64.146 69.733 61.3969 70.173 58.6163H80.5971C79.7921 62.1586 78.6127 65.6043 77.0792 68.8946C74.2217 68.0233 71.3161 67.3207 68.377 66.7905L68.3215 66.8464ZM81.2822 58.6163H90.9472C89.7755 63.4292 87.8238 68.0152 85.1704 72.1903C82.7834 70.9877 80.3073 69.973 77.7643 69.1553C79.3302 65.7647 80.5222 62.2119 81.3192 58.5604L81.2822 58.6163ZM9.59094 72.6186C11.982 71.4457 14.4578 70.456 16.9971 69.658C18.6288 73.1604 20.6607 76.4598 23.0516 79.4894C21.1251 80.0685 19.2334 80.7585 17.3859 81.5563C14.4168 78.9259 11.797 75.922 9.59094 72.6186ZM31.1798 90.0098C36.2112 87.9931 41.5955 87.0178 47.0104 87.1423C52.466 87.0024 57.892 87.9911 62.952 90.0471C52.6925 93.9568 41.3652 93.9568 31.1057 90.0471L31.1798 90.0098ZM76.8941 81.7425C75.0895 80.9112 73.2342 80.196 71.3395 79.6012C73.7325 76.5717 75.7876 73.2873 77.468 69.807C79.9758 70.6001 82.4155 71.5964 84.7631 72.7862C82.5326 76.0818 79.8877 79.0734 76.8941 81.6866V81.7425Z" fill="#213A8F"/>
<path d="M146.956 71.7248H137.013L133.051 61.3348H114.795L111.092 71.7248H101.371L119.053 26.0682H128.755L146.956 71.7248ZM130.07 53.6446L123.812 36.6817L117.665 53.6446H130.07Z" fill="#213A8F"/>
<path d="M150.807 26.0682H160.065V50.833C159.983 53.3831 160.101 55.9357 160.417 58.4673C160.756 60.2677 161.753 61.8752 163.212 62.9733C164.989 64.1942 167.118 64.7899 169.267 64.6678C171.354 64.8272 173.432 64.262 175.155 63.0664C176.424 62.1066 177.279 60.6938 177.543 59.119C177.879 56.5453 178.015 53.9493 177.951 51.3544V26.0682H187.208V50.0882C187.328 53.976 187.08 57.8666 186.468 61.7072C186.049 63.8204 185.106 65.7931 183.727 67.4422C182.269 69.0999 180.433 70.3776 178.376 71.1662C175.58 72.194 172.613 72.6682 169.637 72.5627C166.281 72.7263 162.925 72.2135 159.769 71.0545C157.64 70.1782 155.754 68.7985 154.269 67.0325C153.047 65.5585 152.167 63.828 151.696 61.9678C151.002 58.1423 150.704 54.2548 150.807 50.3675V26.0682Z" fill="#213A8F"/>
<path d="M195.966 71.7248V26.0682H204.89L223.406 56.6052V26.0682H231.941V71.7248H222.684L204.372 41.9326V71.7248H195.966Z" fill="#213A8F"/>
<path d="M240.699 26.0682H257.363C260.271 25.9733 263.178 26.2676 266.009 26.9434C268.628 27.6992 270.996 29.1532 272.86 31.1515C274.833 33.2854 276.318 35.8275 277.211 38.5996C278.279 42.0961 278.779 45.7427 278.692 49.3993C278.76 52.6998 278.291 55.9893 277.304 59.1376C276.328 62.1083 274.68 64.8108 272.49 67.0325C270.66 68.762 268.453 70.0373 266.046 70.7566C263.4 71.4837 260.66 71.81 257.918 71.7248H240.699V26.0682ZM249.957 33.7956V64.0347H256.807C258.67 64.0987 260.533 63.9488 262.362 63.5878C263.73 63.2844 265.003 62.6446 266.065 61.7258C267.237 60.4913 268.066 58.9699 268.472 57.3128C269.168 54.577 269.48 51.7566 269.398 48.9338C269.491 46.1903 269.179 43.448 268.472 40.7968C267.973 39.1279 267.077 37.6067 265.861 36.3652C264.672 35.2702 263.205 34.5289 261.621 34.2238C259.129 33.8406 256.606 33.691 254.086 33.777L249.957 33.7956Z" fill="#213A8F"/>
<path d="M285.45 71.7248V26.0682H319.13V33.7956H294.616V43.9436H317.426V51.5778H294.616V64.0347H320V71.7248H285.45Z" fill="#213A8F"/>
</svg>
