<svg width="207" height="194" viewBox="0 0 207 194" fill="none" xmlns="http://www.w3.org/2000/svg">
<mask id="mask0_115_687" style="mask-type:luminance" maskUnits="userSpaceOnUse" x="0" y="0" width="207" height="194">
<path d="M0 194H206.973V0.663071H0V194Z" fill="white"/>
</mask>
<g mask="url(#mask0_115_687)">
<path fill-rule="evenodd" clip-rule="evenodd" d="M103.648 170.357C143.948 170.355 176.499 137.834 176.499 97.7193C176.499 57.6041 143.883 25.0811 103.646 25.0837C63.4113 25.0837 30.7944 57.6041 30.7944 97.7193C30.7944 137.837 63.414 170.357 103.648 170.357Z" fill="white"/>
<path fill-rule="evenodd" clip-rule="evenodd" d="M103.649 170.189C63.5081 170.189 30.9642 137.744 30.9642 97.7222C30.9642 57.698 63.5055 25.253 103.646 25.2504C143.789 25.2504 176.33 57.6954 176.33 97.7196C176.333 137.741 143.792 170.189 103.649 170.189ZM194.638 103.633V103.506C194.609 102.168 193.624 101.815 192.196 101.365C189.718 100.58 186.16 100.178 185.115 98.273C185.134 95.6591 185.024 93.0686 184.795 90.5067C185.558 88.4177 189.17 87.685 191.62 86.6586C193.134 86.0194 194.127 85.5517 193.796 83.8836L192.086 75.5899C191.729 73.9295 190.63 73.888 188.985 73.901C186.369 73.9165 182.83 74.6415 181.264 73.1137C180.479 70.6739 179.585 68.2782 178.579 65.9372C178.579 63.6766 181.845 61.8448 183.877 60.091C185.123 59.0179 185.921 58.267 185.092 56.7834L180.894 49.4224C180.039 47.9517 178.981 48.2531 177.422 48.7702C174.9 49.6068 171.697 51.4283 169.742 50.3578C168.286 48.3441 166.74 46.3953 165.106 44.522C164.27 42.3524 166.868 39.5462 168.283 37.2077C169.135 35.8073 169.662 34.8459 168.413 33.6897L162.138 27.9812C160.869 26.8483 159.957 27.4589 158.633 28.4307C156.488 30.0079 154.002 32.7387 151.808 32.3074C149.809 30.8445 147.74 29.4648 145.6 28.1813C144.138 26.378 145.738 22.9119 146.361 20.2513C146.734 18.6559 146.937 17.5802 145.392 16.8657L137.655 13.3709C136.096 12.6824 135.419 13.545 134.462 14.878C132.909 17.0423 131.387 20.4149 129.156 20.6696C126.837 19.9083 124.465 19.2483 122.05 18.6923C120.033 17.4659 120.489 13.6282 120.254 10.8792C120.116 9.24744 119.975 8.16135 118.284 7.95609L109.843 7.0181C109.728 7.00771 109.619 6.99992 109.517 6.99992H109.447C108.084 7.01811 107.73 8.00285 107.271 9.43451C106.463 11.9809 106.064 15.673 104.006 16.5876C101.53 16.5721 99.0751 16.6656 96.6462 16.8708C94.3634 16.307 93.6102 12.5317 92.5418 9.99576C91.9033 8.48615 91.4342 7.49619 89.7637 7.82097L81.4427 9.52547C79.7749 9.87883 79.7358 10.9753 79.7462 12.6148C79.7619 15.2755 80.5176 18.8949 78.8654 20.4071C76.4705 21.1684 74.1172 22.0363 71.8187 23.0106C69.5202 23.073 67.6647 19.7784 65.89 17.7335C64.8137 16.4941 64.0606 15.6938 62.5726 16.5227L55.1897 20.7086C53.7147 21.5608 54.017 22.6157 54.5356 24.1695C55.3695 26.6716 57.1833 29.8442 56.1409 31.7955C54.0848 33.2661 52.0938 34.8303 50.181 36.4854C48.0206 37.213 45.2504 34.6718 42.9388 33.2791C41.5342 32.4295 40.57 31.9046 39.4103 33.1492L33.6849 39.4059C32.5486 40.6687 33.1611 41.5781 34.1357 42.898C35.6837 44.9923 38.3366 47.4113 38.0395 49.5679C36.4968 51.6439 35.053 53.7979 33.7083 56.0246C31.8554 57.2511 28.5119 55.7336 25.932 55.1334C24.3319 54.7593 23.253 54.5566 22.5363 56.0974L19.0312 63.8118C18.3406 65.3655 19.2058 66.0411 20.5427 66.9947C22.6354 68.4913 25.8512 69.9567 26.3046 72.0536C25.4759 74.5271 24.7645 77.0605 24.1729 79.6458C22.7683 81.3399 19.1537 80.9372 16.5321 81.158C14.8929 81.2957 13.8036 81.436 13.6003 83.1223L12.6569 91.5382C12.4823 93.2271 13.5143 93.6065 15.0805 94.1002C17.5171 94.8718 20.9988 95.2746 22.1063 97.0986C22.0777 99.7904 22.1819 102.461 22.4164 105.099C21.5408 107.079 18.0462 107.804 15.6564 108.807C14.1423 109.443 13.1494 109.913 13.4778 111.579L15.19 119.873C15.547 121.533 16.6441 121.575 18.2885 121.562C20.8033 121.546 24.1703 120.876 25.8199 122.177C26.6408 124.781 27.5946 127.335 28.6657 129.827C28.392 131.952 25.3378 133.698 23.3937 135.374C22.1506 136.445 21.3506 137.196 22.1819 138.682L26.3776 146.04C27.235 147.511 28.2904 147.209 29.8514 146.692C32.2307 145.905 35.2146 144.234 37.1874 144.949C38.777 147.178 40.4814 149.322 42.2873 151.38C42.6626 153.479 40.3094 156.07 38.9855 158.255C38.1359 159.658 37.6095 160.617 38.8578 161.773L45.1331 167.479C46.3996 168.614 47.3117 168.004 48.6356 167.032C50.637 165.561 52.9355 163.085 55.0177 163.111C57.2407 164.761 59.5548 166.299 61.9523 167.72C62.8931 169.607 61.4832 172.756 60.9073 175.211C60.5347 176.807 60.3288 177.882 61.8768 178.597L69.614 182.092C71.1698 182.78 71.8474 181.918 72.8064 180.585C74.2475 178.576 75.6626 175.528 77.6406 174.897C80.257 175.773 82.9386 176.521 85.6801 177.131C87.1656 178.636 86.7981 182.068 87.0118 184.583C87.1499 186.218 87.2906 187.304 88.9819 187.506L97.4228 188.447C99.1194 188.621 99.4972 187.592 99.9924 186.031C100.746 183.666 101.144 180.314 102.846 179.117C105.647 179.145 108.423 179.031 111.164 178.779C113.046 179.748 113.76 183.128 114.745 185.456C115.381 186.966 115.853 187.956 117.523 187.629L125.844 185.922C127.509 185.566 127.548 184.472 127.538 182.832C127.52 180.353 126.863 177.046 128.106 175.38C130.751 174.546 133.344 173.58 135.877 172.488C137.983 172.8 139.721 175.817 141.389 177.739C142.463 178.981 143.218 179.777 144.706 178.95L152.089 174.762C153.564 173.912 153.262 172.857 152.743 171.301C151.949 168.921 150.265 165.93 151.003 163.963C153.215 162.389 155.344 160.702 157.387 158.912C159.501 158.486 162.128 160.861 164.338 162.191C165.745 163.041 166.709 163.566 167.866 162.321L173.592 156.064C174.73 154.799 174.115 153.89 173.141 152.572C171.64 150.538 169.091 148.197 169.216 146.09C170.813 143.933 172.309 141.691 173.693 139.37C175.569 138.287 178.819 139.747 181.344 140.334C182.945 140.708 184.026 140.911 184.74 139.37L188.248 131.656C188.938 130.102 188.071 129.427 186.736 128.473C184.654 126.984 181.464 125.529 180.98 123.453C181.806 120.964 182.517 118.418 183.106 115.819C184.511 114.125 188.123 114.528 190.744 114.307C192.384 114.169 193.473 114.029 193.676 112.343L194.619 103.927C194.63 103.823 194.635 103.724 194.638 103.633Z" fill="#EEB600"/>
<path fill-rule="evenodd" clip-rule="evenodd" d="M103.648 164.419C140.653 164.417 170.544 134.554 170.544 97.7183C170.544 60.8822 140.591 31.0199 103.645 31.0199C66.7024 31.0225 36.7489 60.8848 36.7515 97.7209C36.7515 134.557 66.7024 164.419 103.648 164.419Z" fill="#193273"/>
<path d="M103.648 164.81C66.4899 164.81 36.3599 134.769 36.3599 97.721C36.3599 60.6729 66.4874 30.6296 103.643 30.627C140.801 30.627 170.936 60.6678 170.936 97.7159C170.936 134.764 140.866 164.807 103.648 164.81ZM103.648 164.028C140.441 164.026 170.152 134.34 170.152 97.7159C170.152 61.0919 140.376 31.4136 103.643 31.4136C66.9127 31.4162 37.1437 61.0969 37.1437 97.721C37.1437 134.345 66.9152 164.028 103.648 164.028Z" fill="#193273"/>
<path fill-rule="evenodd" clip-rule="evenodd" d="M99.6928 32.8107V35.1647H86.436L99.6928 32.8107Z" fill="#EEB600"/>
<path fill-rule="evenodd" clip-rule="evenodd" d="M41.1381 79.8789C47.7131 79.8789 71.9412 79.8789 75.7981 79.8789C80.2231 79.8789 78.8784 81.56 79.2407 83.2125C79.7306 85.4678 75.5036 85.2314 74.9121 84.6441C73.5335 83.267 72.5536 82.8799 72.5536 82.8799H40.3745L41.1381 79.8789Z" fill="#EEB600"/>
<path fill-rule="evenodd" clip-rule="evenodd" d="M42.6568 75.188H78.8466V77.5421H41.8594L42.6568 75.188Z" fill="#EEB600"/>
<path fill-rule="evenodd" clip-rule="evenodd" d="M44.6869 70.46L78.4531 70.4574V72.8114L43.707 72.814L44.6869 70.46Z" fill="#EEB600"/>
<path fill-rule="evenodd" clip-rule="evenodd" d="M47.0748 65.7542L78.6779 65.7516V68.1056L45.8604 68.1082L47.0748 65.7542Z" fill="#EEB600"/>
<path fill-rule="evenodd" clip-rule="evenodd" d="M50.0994 61.0483L79.305 61.0457V63.3997L48.5645 63.4023L50.0994 61.0483Z" fill="#EEB600"/>
<path fill-rule="evenodd" clip-rule="evenodd" d="M53.6064 56.3425L78.4548 56.3399V58.694L51.8213 58.6966L53.6064 56.3425Z" fill="#EEB600"/>
<path fill-rule="evenodd" clip-rule="evenodd" d="M57.9311 51.6362L78.4535 51.6336V53.9876L55.6509 53.9902L57.9311 51.6362Z" fill="#EEB600"/>
<path fill-rule="evenodd" clip-rule="evenodd" d="M63.296 46.9295H100.062V49.281L60.4424 49.2836L63.296 46.9295Z" fill="#EEB600"/>
<path fill-rule="evenodd" clip-rule="evenodd" d="M70.0828 42.2236H100.023V44.5751L66.4136 44.5777L70.0828 42.2236Z" fill="#EEB600"/>
<path fill-rule="evenodd" clip-rule="evenodd" d="M79.5215 37.5175H99.9396V39.869L74.2417 39.8716L79.5215 37.5175Z" fill="#EEB600"/>
<path fill-rule="evenodd" clip-rule="evenodd" d="M106.97 32.8107V35.1647H120.706L106.97 32.8107Z" fill="#EEB600"/>
<path fill-rule="evenodd" clip-rule="evenodd" d="M166.118 79.8789C159.543 79.8789 136.918 79.8789 133.061 79.8789C128.636 79.8789 129.981 81.56 129.619 83.2125C129.129 85.4678 133.356 85.2314 133.947 84.6441C135.328 83.267 136.306 82.8799 136.306 82.8799H166.859L166.118 79.8789Z" fill="#EEB600"/>
<path fill-rule="evenodd" clip-rule="evenodd" d="M164.532 75.188H129.59V77.5421H165.353L164.532 75.188Z" fill="#EEB600"/>
<path fill-rule="evenodd" clip-rule="evenodd" d="M162.568 70.46L129.537 70.4574V72.8114L163.593 72.814L162.568 70.46Z" fill="#EEB600"/>
<path fill-rule="evenodd" clip-rule="evenodd" d="M160.158 65.7542L129.537 65.7516V68.1056L161.419 68.1082L160.158 65.7542Z" fill="#EEB600"/>
<path fill-rule="evenodd" clip-rule="evenodd" d="M157.176 61.0483L128.379 61.0457V63.3997L158.755 63.4023L157.176 61.0483Z" fill="#EEB600"/>
<path fill-rule="evenodd" clip-rule="evenodd" d="M153.583 56.3425L129.714 56.3399V58.694L155.433 58.6966L153.583 56.3425Z" fill="#EEB600"/>
<path fill-rule="evenodd" clip-rule="evenodd" d="M149.302 51.6362L129.583 51.6336V53.9876L151.562 53.9902L149.302 51.6362Z" fill="#EEB600"/>
<path fill-rule="evenodd" clip-rule="evenodd" d="M144.015 46.9295H108.388L114.669 49.281L146.746 49.2836L144.015 46.9295Z" fill="#EEB600"/>
<path fill-rule="evenodd" clip-rule="evenodd" d="M137.196 42.2236H106.93V44.5751L140.798 44.5777L137.196 42.2236Z" fill="#EEB600"/>
<path fill-rule="evenodd" clip-rule="evenodd" d="M127.639 37.5175H106.768V39.869L132.924 39.8716L127.639 37.5175Z" fill="#EEB600"/>
<path fill-rule="evenodd" clip-rule="evenodd" d="M61.3892 87.4465C61.3892 87.4465 61.5847 85.464 62.9633 85.464C64.3392 85.464 66.9661 85.438 68.4411 85.438C69.0822 85.438 70.6067 86.2694 70.2601 88.6235C70.2601 88.6235 70.2627 116.76 70.2627 118.429C70.2601 120.094 71.6387 119.361 71.6387 119.361C71.6387 119.361 77.0462 114.996 82.6517 119.016C83.6889 119.759 84.257 120.499 84.5202 120.879C85.9457 122.939 87.4702 120.536 87.4702 120.536C89.1407 118.821 94.5795 115.321 100.941 120.78C100.941 120.78 104.089 122.841 103.792 128.232L103.779 147.693C103.779 147.693 103.891 150.728 102.072 150.728C99.2573 150.728 95.6323 150.718 95.6323 150.718C95.6323 150.718 93.7768 150.783 93.9723 148.036L93.9514 130.586C93.9514 130.586 94.2537 127.382 90.3864 127.382C88.4683 127.382 87.1758 129.669 87.1758 130.389C87.1758 130.389 87.1966 146.794 87.1966 148.101C87.1966 149.933 86.2558 150.736 84.8799 150.736C83.1104 150.736 82.2582 150.759 79.7017 150.759C77.9322 150.759 77.7159 149.671 77.7159 148.101C77.7159 145.355 77.6977 131.763 77.6977 131.763C77.6977 131.763 78.0756 127.676 73.7365 127.78C71.967 127.78 71.0471 128.952 70.4139 132.155L70.4086 148.104C70.3435 149.016 70.2445 149.629 70.1298 149.803C69.0822 151.37 65.3452 150.585 63.904 149.148C63.4532 148.701 62.4837 148.613 61.3032 146.914L61.3892 87.4465Z" fill="#EEB600"/>
<path fill-rule="evenodd" clip-rule="evenodd" d="M144.207 85.9428H137.814C136.094 85.9428 136.243 87.8058 136.243 87.8058L136.269 118.596C136.269 118.596 136.099 120.612 133.981 119.929C131.526 118.549 128.696 117.754 125.673 117.754C116.304 117.754 108.708 125.328 108.708 134.669C108.71 144.012 116.307 151.586 125.675 151.586C128.808 151.586 134.226 149.326 134.226 149.326C134.226 149.326 135.635 150.443 136.803 151.334C138.202 152.402 141.877 150.807 145.51 147.125L145.682 87.8058C145.682 87.8058 145.83 85.9428 144.207 85.9428Z" fill="#EEB600"/>
<path fill-rule="evenodd" clip-rule="evenodd" d="M127.811 125.944C122.896 125.944 118.912 129.917 118.912 134.82C118.912 139.72 122.896 143.69 127.811 143.69C132.726 143.69 136.713 139.718 136.713 134.82C136.711 129.917 132.726 125.944 127.811 125.944Z" fill="#193273"/>
<path fill-rule="evenodd" clip-rule="evenodd" d="M76.0493 113.738V116.092H99.0318C97.3301 115.51 95.743 114.699 94.2576 113.738H76.0493Z" fill="#EEB600"/>
<path fill-rule="evenodd" clip-rule="evenodd" d="M89.3149 109.032H76.0503V111.386H91.7255C90.8785 110.643 90.0759 109.856 89.3149 109.032Z" fill="#EEB600"/>
<path fill-rule="evenodd" clip-rule="evenodd" d="M76.0493 104.326V106.68H86.7288C86.119 105.906 85.5404 105.119 84.9958 104.326H76.0493Z" fill="#EEB600"/>
<path fill-rule="evenodd" clip-rule="evenodd" d="M76.0493 99.6199V101.974H83.4765C82.9917 101.176 82.5409 100.389 82.1213 99.6199H76.0493Z" fill="#EEB600"/>
<path fill-rule="evenodd" clip-rule="evenodd" d="M76.0493 94.9139V97.268H80.9043C80.4952 96.4314 80.1329 95.6467 79.8124 94.9139H76.0493Z" fill="#EEB600"/>
<path fill-rule="evenodd" clip-rule="evenodd" d="M75.6558 90.2082V92.5623H78.8325C78.2618 91.102 77.9855 90.2108 77.9855 90.2108L75.6558 90.2082Z" fill="#EEB600"/>
<path fill-rule="evenodd" clip-rule="evenodd" d="M131.127 113.738V116.092H107.563C109.31 115.51 110.936 114.699 112.458 113.738H131.127Z" fill="#EEB600"/>
<path fill-rule="evenodd" clip-rule="evenodd" d="M117.861 109.032H131.126V111.386H115.451C116.298 110.643 117.1 109.856 117.861 109.032Z" fill="#EEB600"/>
<path fill-rule="evenodd" clip-rule="evenodd" d="M131.127 104.326V106.68H120.046C120.68 105.906 121.279 105.119 121.845 104.326H131.127Z" fill="#EEB600"/>
<path fill-rule="evenodd" clip-rule="evenodd" d="M131.127 99.6199V101.974H123.7C124.184 101.176 124.635 100.389 125.055 99.6199H131.127Z" fill="#EEB600"/>
<path fill-rule="evenodd" clip-rule="evenodd" d="M131.127 94.9139V97.268H126.272C126.681 96.4314 127.043 95.6467 127.364 94.9139H131.127Z" fill="#EEB600"/>
<path fill-rule="evenodd" clip-rule="evenodd" d="M131.52 90.2082V92.5623H127.945C128.586 91.102 128.901 90.2108 128.901 90.2108L131.52 90.2082Z" fill="#EEB600"/>
<path fill-rule="evenodd" clip-rule="evenodd" d="M103.443 53.68L129.978 68.1005C129.978 68.1005 131.474 81.9988 128.534 91.7684C125.204 102.842 115.137 115.813 103.443 117.24V53.68Z" fill="#EEB600"/>
<path fill-rule="evenodd" clip-rule="evenodd" d="M103.613 53.68L77.1103 68.1421C77.1103 68.1421 75.5831 81.9988 78.5201 91.7684C81.8532 102.842 91.9176 115.813 103.613 117.24V53.68Z" fill="#193273"/>
<path d="M104.006 117.684L103.568 117.628C97.5908 116.899 92.0794 113.239 87.6417 108.386C83.2039 103.534 79.8297 97.4839 78.144 91.8832C75.1668 81.98 76.7188 68.0976 76.7188 68.0976L76.7442 67.8946L104.006 53.0203V53.68V117.684ZM103.222 116.694V54.3398L77.4925 68.3818C77.4572 68.7121 76.0357 82.1362 78.8973 91.6548C80.5446 97.1281 83.8702 103.1 88.2219 107.859C92.458 112.49 97.6736 115.869 103.222 116.694Z" fill="#193273"/>
<path fill-rule="evenodd" clip-rule="evenodd" d="M91.2809 81.0399L88.3439 81.0348L88.3517 76.2747L91.2887 76.2539L91.2809 81.0399ZM91.7682 73.6166H80.5571L80.5337 76.2591L84.4896 76.2565L84.4584 81.1984C84.4584 81.1984 80.7708 80.9542 81.3442 83.2901C81.6751 84.6438 81.9071 88.1489 85.0473 88.7985C86.4963 89.0973 87.338 88.5049 87.7055 87.6266L87.7028 83.5707L90.5877 83.5525V91.5267H93.8921L93.9026 76.2331H95.8493V91.5475L99.4117 91.5527V76.2331H101.095V73.6166H91.7682Z" fill="#EEB600"/>
<path fill-rule="evenodd" clip-rule="evenodd" d="M120.498 80.321C119.841 82.0203 117.782 80.9758 114.204 80.9758C112.369 80.9758 112.242 82.9349 114.728 82.9349C118.4 82.9349 121.597 83.8313 121.256 87.2559C121.021 89.6021 120.344 90.3115 118.574 91.291C116.946 92.1926 112.521 92.0835 110.008 90.7792C108.116 89.7944 107.124 88.1653 107.124 88.1653L108.961 86.3335C108.961 86.3335 112.63 90.3868 115.254 88.9474C117.42 87.7599 116.695 85.6813 113.68 85.5488C108.179 85.3123 106.985 84.1405 108.062 80.0586C108.718 77.5746 115.385 78.4918 115.385 78.4918L115.33 76.1377H107.517V73.5238H128.235V76.1377H126.551V91.4573L122.989 91.4313V76.1377H120.461L120.498 80.321Z" fill="#193273"/>
<path fill-rule="evenodd" clip-rule="evenodd" d="M126.889 69.978C126.871 69.9936 121.158 76.0814 115.514 69.4713V68.8191C115.514 68.8191 115.907 67.772 116.694 67.772C117.481 67.772 120.001 71.4382 124.197 69.0868C124.288 69.0348 124.377 68.988 124.46 68.9413C124.497 68.9231 124.533 68.9023 124.57 68.8841C124.658 68.8373 124.89 68.7931 124.971 68.7516L126.889 69.978Z" fill="#193273"/>
<path fill-rule="evenodd" clip-rule="evenodd" d="M78.4936 66.9515L78.4989 58.7097L75.7495 57.0286V49.2155H99.6024V32.8099H107.139V46.929L113.167 49.4962L113.026 58.9462L103.444 53.6794L78.4936 66.9515Z" fill="#EEB600"/>
<path fill-rule="evenodd" clip-rule="evenodd" d="M103.739 53.7706V45.5028L113.168 49.6705H133.151V58.5047L129.818 59.2452V68.0431L103.739 53.7706Z" fill="#193273"/>
<path d="M130.212 68.7058L103.348 54.0041V53.7707V44.8999L113.253 49.2795H133.546V58.8201L130.212 59.561V68.7058ZM129.423 67.3813V58.9317L132.757 58.1908V50.061H113.085L104.131 46.1026V53.5372L129.423 67.3813Z" fill="#193273"/>
</g>
</svg>
