<svg width="219" height="151" viewBox="0 0 219 151" fill="none" xmlns="http://www.w3.org/2000/svg">
<path fill-rule="evenodd" clip-rule="evenodd" d="M122.452 64.1878C119.898 65.9932 116.54 66.2647 113.939 65.0912C113.939 65.0912 113.23 64.8204 112.569 64.0983C111.999 63.4191 97.622 47.9345 97.622 47.9345L97.5754 47.8886C102.022 48.6566 106.893 46.6256 109.4 42.9232C111.905 39.4013 111.812 34.3899 109.447 30.868C106.61 27.0309 101.075 25.7672 96.4405 26.3532C88.4008 27.4371 82.631 34.2545 80.8351 41.3893C78.9889 49.5142 80.3146 57.1899 83.201 64.4135C83.8612 65.9495 84.7603 67.5292 85.8486 68.8817C77.3816 65.362 69.909 58.8605 65.9845 50.1461C61.6335 40.7553 61.7281 28.8822 66.8836 19.356C70.95 11.997 78.1379 5.17957 87.0301 2.28954C96.3458 -1.36704 108.879 -0.599761 117.961 4.27616C128.979 9.51315 137.303 22.5627 137.35 34.2101C137.729 46.2645 132.146 57.1899 122.452 64.1878Z" fill="#BFA161"/>
<path fill-rule="evenodd" clip-rule="evenodd" d="M91.5222 68.7485C87.4084 64.503 84.0969 58.9959 86.6048 53.2625C88.8258 48.883 90.8124 44.4126 91.7588 39.3554C92.1373 44.639 95.4962 49.3344 97.102 54.3916C97.7172 56.8288 97.7652 59.3577 96.7723 61.8852C95.6847 64.6391 93.9339 66.9861 91.8527 69.1081L91.5222 68.7485Z" fill="#BFA161"/>
<path fill-rule="evenodd" clip-rule="evenodd" d="M39.6305 116.457H28.6782C26.2519 112.823 24.06 109.684 22.0909 107.039C20.0306 104.262 17.9061 101.533 15.719 98.855H11.5601V111.18C11.5601 111.815 11.6678 112.375 11.8739 112.861C12.0791 113.336 12.529 113.712 13.2242 113.963C13.5664 114.094 14.1648 114.215 15.0252 114.318C15.8864 114.431 16.6115 114.496 17.2084 114.514V116.458H0V114.514C0.460075 114.476 1.12689 114.412 1.99754 114.318C2.86819 114.235 3.47531 114.112 3.81746 113.963C4.38673 113.729 4.80604 113.384 5.06082 112.927C5.32362 112.468 5.45247 111.889 5.45247 111.18V83.0902C5.45247 82.4452 5.35492 81.8854 5.15764 81.3904C4.97347 80.8946 4.52213 80.5205 3.81818 80.2679C3.33845 80.1004 2.71313 79.9519 1.94877 79.8194C1.30441 79.6968 0.653857 79.6094 0 79.5574L0 77.6144H18.7837C20.5061 77.6144 22.12 77.784 23.6283 78.1196C25.1338 78.456 26.506 78.9976 27.7304 79.7445C28.8946 80.4535 29.8685 81.4355 30.568 82.6054C31.2742 83.7825 31.6345 85.202 31.6345 86.8662C31.6345 88.3614 31.3906 89.6885 30.9102 90.8358C30.4367 91.9747 29.7144 92.9933 28.7962 93.8168C27.935 94.6008 26.8962 95.2851 25.6936 95.8544C24.4902 96.4338 23.1581 96.9201 21.7109 97.3205C23.3926 99.446 25.0597 101.583 26.712 103.732C28.0427 105.459 29.6661 107.571 31.6039 110.047C32.4462 111.15 33.1996 111.953 33.8868 112.476C34.5617 112.99 35.2358 113.422 35.9026 113.747C36.4012 113.981 37.0171 114.169 37.7705 114.298C38.5145 114.42 39.1318 114.495 39.6305 114.514V116.457ZM24.5485 87.4915C24.5485 85.1372 23.8424 83.278 22.425 81.8956C21.0149 80.5212 19.0079 79.8311 16.4338 79.8311H11.5601V96.4993H15.3193C17.9517 96.4993 20.1552 95.6964 21.9045 94.0788C23.6684 92.4635 24.5492 90.2665 24.5492 87.4908L24.5485 87.4915ZM65.5781 110.104C64.3945 112.263 62.8075 113.973 60.8231 115.253C58.8343 116.532 56.5448 117.168 53.97 117.168C51.6885 117.168 49.7026 116.784 47.9905 116.018C46.2768 115.253 44.8668 114.215 43.7624 112.898C42.6559 111.589 41.8231 110.048 41.2764 108.3C40.7363 106.544 40.4647 104.694 40.4647 102.741C40.4647 100.994 40.7574 99.2751 41.3339 97.5826C41.9053 95.9176 42.7784 94.3721 43.9095 93.0233C44.9956 91.7333 46.3453 90.6865 47.9606 89.893C49.5752 89.0981 51.3872 88.6992 53.3942 88.6992C55.4579 88.6992 57.2291 89.0057 58.6981 89.6324C60.1759 90.2476 61.3712 91.0986 62.2819 92.173C63.1606 93.2016 63.8157 94.4064 64.2474 95.7896C64.6784 97.1814 64.8938 98.6869 64.8938 100.303V102.116H46.1705C46.1705 103.881 46.3453 105.489 46.6969 106.926C47.0485 108.375 47.6083 109.636 48.3807 110.741C49.1254 111.795 50.0943 112.627 51.2991 113.244C52.5024 113.85 53.9416 114.16 55.6057 114.16C57.307 114.16 58.7767 113.775 60.0077 113.02C61.2336 112.263 62.426 110.899 63.5719 108.926L65.5781 110.104ZM59.2463 99.816C59.2463 98.7895 59.1589 97.6961 58.9718 96.527C58.7855 95.3601 58.5008 94.3882 58.1012 93.6035C57.6732 92.7808 57.051 92.0749 56.2886 91.547C55.5278 91.0156 54.5378 90.7535 53.3345 90.7535C51.3275 90.7535 49.6641 91.547 48.3319 93.1449C47.0019 94.7428 46.2863 96.9667 46.1698 99.816H59.2463ZM81.5621 116.457H68.2476V114.717C68.6727 114.68 69.1262 114.636 69.6089 114.591C70.0115 114.565 70.4105 114.498 70.7998 114.393C71.3189 114.239 71.7054 113.958 71.9609 113.563C72.2157 113.165 72.3577 112.65 72.349 112.02L71.9144 83.1943C71.9107 82.8682 71.7615 81.9276 71.5817 81.2797C71.5001 80.9856 71.4121 80.7498 71.3283 80.6588C71.2403 80.562 71.2104 80.4637 71.0867 80.3581C70.6084 79.9497 71.2024 80.5168 70.7554 80.1376C70.4606 79.8864 70.877 80.0429 69.9925 79.8682C69.1153 79.6957 67.6463 80.083 67.1076 80.0473L67.0595 78.1473L76.989 77.6304L77.4607 78.0163L77.4993 111.704C77.4993 112.317 77.6172 112.82 77.8582 113.219C78.0977 113.613 78.4828 113.923 79.0208 114.13C79.4063 114.302 79.8079 114.435 80.2197 114.527C80.6179 114.618 81.07 114.68 81.5621 114.717V116.457ZM98.6722 116.457H85.1153V114.669L86.4628 114.558C86.9301 114.522 87.3269 114.449 87.6668 114.335C88.2019 114.179 88.6001 113.891 88.8512 113.484C89.1031 113.076 89.2407 112.547 89.2407 111.899V95.3695C89.2407 94.7872 89.0944 94.2579 88.8221 93.7753C88.5498 93.2948 88.1618 92.8959 87.6668 92.572C87.3087 92.3499 86.7933 92.1643 86.1053 92.0165C85.4895 91.87 84.8629 91.7736 84.2315 91.7282V89.9687L94.1319 89.366L94.5286 89.7467V111.575C94.5286 112.206 94.6546 112.732 94.9072 113.15C95.1598 113.558 95.5682 113.871 96.1207 114.067C96.5371 114.235 96.9462 114.364 97.3437 114.465C97.7803 114.568 98.2246 114.637 98.6722 114.669V116.457ZM95.0914 78.8141C95.0914 79.842 94.7419 80.7403 94.0242 81.5098C93.3151 82.2778 92.4423 82.6672 91.3933 82.6672C90.4324 82.6672 89.5879 82.2974 88.8796 81.5651C88.172 80.8335 87.8117 79.9891 87.8117 79.0536C87.8117 78.0534 88.172 77.1915 88.8796 76.4504C89.5887 75.7093 90.4331 75.3388 91.3933 75.3388C92.4816 75.3388 93.3639 75.681 94.0525 76.3776C94.7419 77.0801 95.0914 77.8867 95.0914 78.8141ZM128.915 115.962C128.014 116.27 127.231 116.523 126.556 116.719C125.872 116.906 125.108 117.008 124.247 117.008C122.749 117.008 121.565 116.672 120.674 116.01C119.783 115.337 119.216 114.364 118.97 113.094H118.795C117.552 114.401 116.221 115.41 114.792 116.103C113.371 116.794 111.658 117.14 109.653 117.14C107.529 117.14 105.787 116.522 104.417 115.281C103.046 114.038 102.361 112.413 102.361 110.412C102.361 109.366 102.518 108.441 102.821 107.619C103.131 106.795 103.6 106.039 104.201 105.395C104.681 104.853 105.306 104.367 106.09 103.936C106.802 103.54 107.541 103.197 108.302 102.908C109.163 102.602 110.906 102.022 113.529 101.18C116.163 100.339 117.933 99.6864 118.854 99.2096V96.4993C118.854 96.2657 118.805 95.8078 118.696 95.1359C118.59 94.4615 118.361 93.8123 118.022 93.2198C117.639 92.5385 117.1 91.9495 116.396 91.4545C115.702 90.9479 114.713 90.6974 113.431 90.6974C112.55 90.6974 111.738 90.8365 110.984 91.1269C110.23 91.4079 109.692 91.705 109.389 92.0151C109.389 92.379 109.477 92.9105 109.665 93.6304C109.847 94.3402 109.937 94.9946 109.937 95.6032C109.937 96.2373 109.633 96.8175 109.036 97.3496C108.43 97.8832 107.598 98.1445 106.52 98.1445C105.571 98.1445 104.867 97.817 104.417 97.1727C103.965 96.527 103.742 95.7983 103.742 94.9946C103.742 94.1531 104.055 93.3509 104.671 92.5843C105.298 91.8192 106.1 91.1357 107.1 90.538C107.96 90.0241 108.996 89.5946 110.22 89.2299C111.443 88.8746 112.638 88.6985 113.804 88.6985C115.408 88.6985 116.808 88.8106 118.013 89.0144C119.184 89.2154 120.295 89.6791 121.261 90.3706C122.24 91.0425 122.974 91.9576 123.484 93.1158C123.992 94.2769 124.248 95.7714 124.248 97.5927C124.248 100.208 124.217 102.518 124.158 104.535C124.1 106.554 124.071 108.758 124.071 111.15C124.071 111.861 124.197 112.421 124.462 112.841C124.717 113.263 125.117 113.617 125.646 113.916C125.94 114.075 126.391 114.169 127.006 114.187C127.632 114.205 128.269 114.215 128.915 114.215V115.962ZM118.913 101.508C117.287 101.965 115.858 102.413 114.634 102.852C113.411 103.293 112.276 103.834 111.229 104.498C110.269 105.116 109.515 105.853 108.957 106.702C108.409 107.544 108.125 108.553 108.125 109.721C108.125 111.235 108.547 112.355 109.378 113.065C110.212 113.775 111.268 114.131 112.539 114.131C113.901 114.131 115.094 113.813 116.132 113.188C117.161 112.562 118.031 111.815 118.735 110.955L118.913 101.508ZM162.947 116.457H149.098V114.655C149.538 114.618 150.027 114.581 150.546 114.543C151.076 114.506 151.504 114.431 151.858 114.319C152.386 114.161 152.787 113.87 153.043 113.46C153.305 113.048 153.434 112.516 153.434 111.862V97.9771C153.434 96.0611 152.954 94.5855 152.013 93.5474C151.065 92.5101 149.909 91.9874 148.559 91.9874C147.542 91.9874 146.612 92.1366 145.769 92.4351C144.938 92.7343 144.184 93.1077 143.538 93.5474C142.911 93.9675 142.403 94.4166 142.03 94.9029C141.659 95.3885 141.386 95.7721 141.219 96.0604V111.589C141.219 112.207 141.345 112.721 141.621 113.123C141.886 113.524 142.285 113.833 142.824 114.048C143.24 114.237 143.676 114.375 144.125 114.46C144.595 114.551 145.075 114.618 145.574 114.655V116.458H131.724V114.655C132.164 114.618 132.615 114.581 133.084 114.543C133.499 114.515 133.909 114.44 134.307 114.319C134.837 114.161 135.237 113.87 135.493 113.46C135.758 113.048 135.885 112.516 135.885 111.862V95.1912C135.885 94.5651 135.747 93.9951 135.463 93.4819C135.192 92.9646 134.795 92.5244 134.308 92.2022C133.946 91.9874 133.514 91.8287 133.015 91.7253C132.486 91.6207 131.949 91.5521 131.41 91.52V89.7453L140.816 89.1381L141.219 89.5203V93.3232H141.355C141.815 92.8937 142.393 92.3608 143.077 91.7537C143.763 91.1459 144.42 90.6414 145.026 90.2599C145.741 89.8202 146.583 89.4548 147.551 89.1643C148.531 88.8753 149.626 88.7261 150.851 88.7261C153.561 88.7261 155.577 89.5385 156.888 91.1459C158.2 92.7634 158.844 94.9124 158.844 97.5927V111.637C158.844 112.281 158.965 112.796 159.2 113.189C159.424 113.582 159.815 113.889 160.373 114.104C160.832 114.291 161.224 114.413 161.558 114.486C161.891 114.56 162.361 114.618 162.948 114.655L162.947 116.457ZM179.498 117.168C175.407 117.168 172.206 115.869 169.888 113.28C167.576 110.693 166.423 107.216 166.423 102.852C166.423 100.957 166.736 99.1819 167.352 97.5272C167.978 95.8751 168.897 94.3494 170.064 93.0233C171.189 91.7333 172.607 90.6865 174.311 89.893C176.005 89.0981 177.863 88.6992 179.87 88.6992C182.64 88.6992 184.902 89.3332 186.634 90.6035C188.377 91.8738 189.247 93.6028 189.247 95.7896C189.247 96.7046 189.022 97.5076 188.562 98.2101C188.102 98.9184 187.347 99.2656 186.29 99.2656C185.165 99.2656 184.294 98.9934 183.668 98.4423C183.051 97.9014 182.739 97.2848 182.739 96.6107C182.739 95.7896 182.856 94.948 183.081 94.0788C183.316 93.2111 183.442 92.5763 183.481 92.173C183.14 91.6125 182.631 91.2303 181.946 91.0425C181.271 90.846 180.536 90.7528 179.752 90.7528C178.848 90.7512 177.954 90.9423 177.13 91.3133C176.298 91.6875 175.495 92.3798 174.712 93.3785C173.999 94.2951 173.431 95.5282 172.989 97.0781C172.551 98.6301 172.324 100.479 172.324 102.63C172.324 106.029 173.116 108.795 174.693 110.944C176.268 113.085 178.345 114.16 180.898 114.16C182.757 114.16 184.313 113.729 185.568 112.871C186.811 112.01 187.973 110.729 189.043 109.01L190.882 110.16C189.619 112.318 187.955 114.02 185.891 115.281C183.824 116.542 181.691 117.168 179.499 117.168H179.498ZM218.208 110.104C217.025 112.263 215.439 113.973 213.453 115.253C211.466 116.532 209.175 117.168 206.602 117.168C204.321 117.168 202.334 116.784 200.621 116.018C198.907 115.253 197.498 114.215 196.392 112.898C195.287 111.589 194.455 110.048 193.906 108.3C193.368 106.544 193.092 104.694 193.092 102.741C193.092 100.994 193.386 99.2751 193.965 97.5826C194.537 95.918 195.409 94.3726 196.539 93.0233C197.626 91.7333 198.975 90.6865 200.591 89.893C202.207 89.0981 204.018 88.6992 206.023 88.6992C208.089 88.6992 209.86 89.0057 211.327 89.6324C212.806 90.2476 214.001 91.0986 214.91 92.173C215.791 93.2016 216.446 94.4064 216.877 95.7896C217.309 97.1814 217.524 98.6869 217.524 100.303V102.116H198.799C198.799 103.881 198.975 105.489 199.328 106.926C199.68 108.375 200.24 109.636 201.013 110.741C201.757 111.795 202.726 112.627 203.927 113.244C205.131 113.85 206.571 114.16 208.235 114.16C209.94 114.16 211.407 113.775 212.64 113.02C213.863 112.263 215.058 110.899 216.203 108.926L218.208 110.104ZM211.876 99.816C211.876 98.7895 211.789 97.6961 211.602 96.527C211.415 95.3601 211.132 94.3882 210.732 93.6035C210.304 92.7815 209.683 92.0758 208.922 91.547C208.157 91.0156 207.17 90.7535 205.965 90.7535C203.957 90.7535 202.295 91.547 200.963 93.1449C199.631 94.7428 198.918 96.9667 198.799 99.816H211.876Z" fill="#1F1917"/>
<path d="M7.97688 150.682H0.0107422V149.881C0.236412 149.863 0.558901 149.842 0.984761 149.811C1.40989 149.784 1.70763 149.738 1.88162 149.677C2.15315 149.58 2.35261 149.446 2.48146 149.276C2.60449 149.107 2.66491 148.871 2.66491 148.571V136.973C2.66491 136.712 2.62196 136.49 2.52805 136.315C2.43851 136.137 2.22158 135.99 1.88162 135.868C1.63047 135.779 1.32108 135.694 0.942539 135.614C0.63528 135.547 0.324025 135.501 0.0107422 135.475V134.674H7.97688V135.475C7.71699 135.482 7.41125 135.51 7.05236 135.56C6.69566 135.606 6.38482 135.672 6.11692 135.745C5.80317 135.837 5.58988 135.983 5.48432 136.184C5.37367 136.388 5.32271 136.615 5.32271 136.861V148.448C5.32271 148.694 5.38095 148.914 5.50107 149.107C5.61972 149.299 5.82865 149.453 6.11692 149.564C6.29164 149.627 6.577 149.691 6.97301 149.762C7.36466 149.835 7.6988 149.872 7.97761 149.88L7.97688 150.682ZM24.0482 150.682H18.0323V149.938C18.2237 149.924 18.4356 149.907 18.6612 149.891C18.8913 149.877 19.0784 149.845 19.2305 149.8C19.462 149.734 19.6353 149.615 19.7459 149.446C19.8609 149.277 19.917 149.056 19.917 148.788V143.064C19.917 142.275 19.7081 141.667 19.3004 141.24C18.8869 140.812 18.3861 140.597 17.7993 140.597C17.3553 140.597 16.9513 140.658 16.5865 140.782C16.2247 140.904 15.8972 141.058 15.6162 141.24C15.3454 141.413 15.1233 141.598 14.9632 141.798C14.8353 141.949 14.7174 142.108 14.6101 142.275V148.675C14.6101 148.93 14.664 149.142 14.7834 149.308C14.8977 149.473 15.0724 149.599 15.306 149.688C15.4808 149.765 15.6671 149.819 15.8717 149.858C16.077 149.895 16.2844 149.923 16.5021 149.938V150.683H10.4847V149.938C10.6755 149.924 10.8705 149.907 11.0751 149.891C11.2789 149.877 11.4536 149.845 11.6065 149.8C11.8366 149.734 12.012 149.615 12.1205 149.446C12.2369 149.277 12.2915 149.056 12.2915 148.788V141.917C12.2915 141.659 12.2318 141.424 12.1081 141.212C11.9886 140.997 11.8162 140.816 11.6072 140.686C11.45 140.597 11.2629 140.53 11.0453 140.489C10.8276 140.447 10.5939 140.419 10.3486 140.404V139.671L14.4347 139.422L14.6094 139.58V141.147H14.6676C14.8678 140.97 15.119 140.75 15.4174 140.501C15.7152 140.249 15.9991 140.042 16.2633 139.884C16.6088 139.688 16.9776 139.537 17.3611 139.433C17.8282 139.308 18.3102 139.248 18.7937 139.254C19.9709 139.254 20.8481 139.588 21.4166 140.249C21.9873 140.916 22.2683 141.803 22.2683 142.906V148.694C22.2683 148.961 22.3193 149.172 22.4212 149.334C22.5195 149.496 22.6891 149.623 22.9308 149.711C23.131 149.789 23.3006 149.837 23.4462 149.869C23.5903 149.9 23.7949 149.923 24.0482 149.938V150.682ZM39.6303 150.478L35.3448 150.727L35.157 150.569V149.529L35.0587 149.508C34.6248 149.948 34.0941 150.302 33.4557 150.583C32.8224 150.862 32.1672 151 31.4946 151C30.7979 150.999 30.1089 150.855 29.4708 150.575C28.8276 150.3 28.2483 149.895 27.7696 149.385C27.2645 148.842 26.869 148.207 26.6048 147.514C26.3195 146.783 26.1753 145.978 26.1753 145.099C26.172 144.313 26.328 143.533 26.6339 142.809C26.9341 142.102 27.366 141.459 27.9064 140.913C28.4124 140.409 29.0326 140.008 29.7693 139.705C30.4823 139.409 31.2466 139.256 32.0187 139.255C32.5923 139.255 33.1536 139.32 33.7076 139.452C34.2594 139.585 34.7355 139.751 35.1315 139.955V136.086C35.1315 135.769 35.0754 135.48 34.9568 135.223C34.8583 134.981 34.6894 134.774 34.4719 134.629C34.239 134.487 33.9274 134.384 33.5321 134.317C33.1089 134.253 32.6832 134.207 32.256 134.179V133.479L37.2753 133.221L37.461 133.39V148.392C37.461 148.657 37.5163 148.881 37.632 149.066C37.7412 149.248 37.9079 149.405 38.1249 149.532C38.2821 149.626 38.5078 149.678 38.8092 149.701C39.1076 149.722 39.3792 149.74 39.6303 149.748V150.48V150.478ZM35.1315 148.524V142.018C35.0519 141.794 34.9433 141.582 34.8083 141.386C34.6523 141.153 34.4629 140.944 34.2463 140.765C33.9898 140.567 33.7043 140.409 33.3997 140.297C33.0772 140.174 32.6986 140.112 32.2691 140.112C31.7675 140.112 31.3082 140.227 30.8918 140.461C30.471 140.692 30.1012 141.029 29.778 141.464C29.4664 141.887 29.2248 142.422 29.0457 143.072C28.8681 143.723 28.7778 144.442 28.7778 145.233C28.7778 145.864 28.8469 146.439 28.978 146.955C29.109 147.471 29.3347 147.949 29.6499 148.39C29.9391 148.811 30.3221 149.159 30.7688 149.407C31.2187 149.661 31.7544 149.793 32.3805 149.793C33.0429 149.793 33.5962 149.658 34.0301 149.395C34.4363 149.158 34.807 148.865 35.1315 148.524ZM54.6119 150.478L50.6088 150.727L50.4231 150.569V149.157H50.3503C50.1509 149.346 49.9259 149.548 49.6733 149.762C49.4104 149.988 49.1227 150.183 48.8158 150.344C48.4714 150.535 48.1081 150.689 47.7319 150.805C47.381 150.912 46.8881 150.962 46.2512 150.962C45.1614 150.962 44.3337 150.643 43.7637 150.001C43.1981 149.356 42.912 148.422 42.912 147.196V141.871C42.912 141.6 42.8538 141.374 42.7424 141.19C42.6189 140.992 42.4499 140.827 42.2495 140.708C42.0763 140.612 41.888 140.546 41.6926 140.513C41.4578 140.47 41.2205 140.441 40.9822 140.427V139.692L45.0777 139.422L45.2655 139.58V147.308C45.2655 148.114 45.4642 148.718 45.8639 149.126C46.2643 149.529 46.7404 149.734 47.298 149.734C47.7515 149.734 48.1606 149.669 48.5166 149.54C48.8733 149.415 49.1725 149.265 49.4142 149.091C49.6399 148.934 49.8349 148.764 50.006 148.591C50.1771 148.414 50.3081 148.248 50.3969 148.098V141.791C50.3969 141.544 50.3431 141.325 50.2222 141.132C50.1019 140.933 49.9363 140.766 49.7389 140.643C49.5896 140.55 49.369 140.496 49.0706 140.477C48.7405 140.457 48.4102 140.44 48.0798 140.426V139.691L52.5408 139.422L52.7279 139.58V148.414C52.7279 148.671 52.7883 148.887 52.9019 149.069C53.0198 149.249 53.1836 149.404 53.3903 149.529C53.5403 149.615 53.7179 149.668 53.9225 149.696C54.1314 149.717 54.36 149.738 54.6111 149.746L54.6119 150.478ZM64.8427 145.233C65.1819 145.502 65.4469 145.814 65.6296 146.168C65.8116 146.523 65.9012 146.955 65.9012 147.466C65.9012 148.497 65.4768 149.337 64.6258 149.992C63.7762 150.648 62.6697 150.975 61.3179 150.975C60.6023 150.975 59.9435 150.859 59.3429 150.624C58.7402 150.393 58.3107 150.177 58.05 149.981L57.8055 150.716H56.87L56.7455 146.846H57.6045C57.673 147.139 57.8127 147.482 58.0297 147.87C58.2422 148.263 58.5065 148.618 58.8122 148.934C59.1362 149.265 59.5271 149.54 59.9777 149.769C60.4334 149.993 60.9393 150.107 61.5042 150.107C62.305 150.107 62.9151 149.942 63.3496 149.615C63.7791 149.288 63.9946 148.822 63.9946 148.208C63.9946 147.894 63.9291 147.625 63.793 147.393C63.6388 147.149 63.4322 146.942 63.188 146.788C62.8688 146.596 62.5295 146.44 62.1762 146.322C61.7758 146.184 61.3354 146.045 60.8447 145.911C60.4038 145.787 59.9692 145.641 59.5424 145.475C59.0634 145.291 58.655 145.075 58.315 144.825C57.9535 144.567 57.6482 144.238 57.4174 143.859C57.1838 143.473 57.0702 143.023 57.0702 142.503C57.0702 141.593 57.4437 140.821 58.1913 140.188C58.9396 139.556 59.9391 139.242 61.1941 139.242C61.6746 139.242 62.1667 139.299 62.6697 139.411C63.172 139.526 63.5797 139.662 63.8985 139.819L64.1824 139.229H65.0822L65.2678 142.807H64.4088C64.2341 142.01 63.8556 141.363 63.2776 140.863C62.7039 140.361 61.9978 140.112 61.1687 140.112C60.4873 140.112 59.9522 140.265 59.5599 140.573C59.1675 140.881 58.9731 141.255 58.9731 141.69C58.9731 142.029 59.0372 142.311 59.1689 142.538C59.2978 142.76 59.4892 142.953 59.7477 143.11C59.9988 143.261 60.3082 143.403 60.6867 143.535C61.066 143.666 61.5341 143.815 62.0917 143.98C62.6399 144.139 63.1545 144.325 63.6386 144.533C64.1286 144.744 64.5282 144.979 64.8427 145.233ZM75.9631 150.196C75.4215 150.4 74.9112 150.569 74.4315 150.708C73.9459 150.848 73.3599 150.919 72.6625 150.919C71.6332 150.919 70.9074 150.683 70.4895 150.211C70.068 149.742 69.8598 149.08 69.8598 148.221V140.686H67.6395V139.603H69.9064V136.141H72.1777V139.603H75.7032V140.686H72.1995V146.904C72.1995 147.37 72.2199 147.759 72.2578 148.071C72.292 148.382 72.3822 148.656 72.5264 148.887C72.6574 149.107 72.8576 149.273 73.1219 149.383C73.389 149.496 73.7465 149.553 74.1942 149.553C74.4016 149.553 74.7074 149.538 75.107 149.503C75.5118 149.468 75.7957 149.426 75.9631 149.372V150.196ZM87.2051 140.99C87.2051 141.374 87.0995 141.713 86.895 142.014C86.6861 142.311 86.3679 142.456 85.9341 142.456C85.4696 142.456 85.1129 142.349 84.8712 142.129C84.6237 141.914 84.5014 141.67 84.5014 141.409C84.5014 141.244 84.5182 141.092 84.5444 140.959C84.5735 140.821 84.6026 140.686 84.6245 140.55C84.2365 140.55 83.7778 140.692 83.2552 140.977C82.7217 141.274 82.2654 141.693 81.923 142.198V148.675C81.923 148.938 81.979 149.152 82.0904 149.315C82.2047 149.481 82.3794 149.607 82.6218 149.688C82.8293 149.765 83.0965 149.819 83.4255 149.858C83.7531 149.895 84.037 149.923 84.275 149.938V150.683H77.7983V149.938C77.9898 149.924 78.1841 149.907 78.3902 149.891C78.594 149.877 78.7687 149.845 78.9216 149.8C79.1516 149.734 79.3249 149.615 79.4362 149.446C79.5505 149.277 79.6066 149.056 79.6066 148.788V141.917C79.6066 141.682 79.5454 141.456 79.4246 141.228C79.3038 141.001 79.1334 140.82 78.9209 140.686C78.7456 140.59 78.5557 140.523 78.3589 140.489C78.129 140.445 77.8965 140.417 77.6629 140.404V139.671L81.7497 139.422L81.923 139.58V141.147H81.9827C82.4974 140.538 83.0717 140.076 83.705 139.761C84.3347 139.446 84.9135 139.288 85.4369 139.288C85.9603 139.288 86.3847 139.441 86.713 139.749C87.0384 140.057 87.2051 140.474 87.2051 140.99ZM94.8335 150.682H88.8933V149.938C89.084 149.924 89.2791 149.907 89.4829 149.891C89.6889 149.877 89.8615 149.845 90.0107 149.8C90.2458 149.734 90.4198 149.615 90.5297 149.446C90.6411 149.277 90.7001 149.056 90.7001 148.788V141.917C90.7001 141.675 90.636 141.456 90.5181 141.255C90.392 141.049 90.2179 140.877 90.0107 140.754C89.8542 140.662 89.6278 140.584 89.3271 140.522C89.0563 140.462 88.7813 140.422 88.5045 140.404V139.671L92.8432 139.422L93.0179 139.58V148.652C93.0179 148.914 93.074 149.134 93.1824 149.307C93.2945 149.477 93.4729 149.607 93.7146 149.688C93.898 149.758 94.0764 149.812 94.2504 149.853C94.4251 149.891 94.6165 149.923 94.8335 149.938V150.682ZM93.2654 135.036C93.2654 135.462 93.1125 135.837 92.7973 136.156C92.6494 136.312 92.4703 136.436 92.2718 136.519C92.0732 136.602 91.8594 136.642 91.6442 136.638C91.4392 136.639 91.236 136.599 91.0467 136.52C90.8574 136.441 90.6858 136.326 90.5421 136.179C90.2327 135.876 90.0755 135.525 90.0755 135.135C90.0755 134.721 90.2327 134.362 90.5421 134.055C90.8544 133.746 91.2242 133.591 91.6442 133.591C92.1203 133.591 92.5083 133.735 92.809 134.024C93.1118 134.315 93.2654 134.651 93.2654 135.036M107.87 148.063C107.373 148.934 106.663 149.664 105.805 150.184C104.941 150.712 103.945 150.975 102.828 150.975C101.838 150.975 100.973 150.817 100.229 150.501C99.4852 150.184 98.8737 149.758 98.391 149.214C97.9051 148.663 97.5378 148.018 97.3122 147.319C97.0748 146.579 96.9556 145.807 96.9591 145.03C96.9591 144.309 97.0858 143.599 97.3377 142.903C97.5877 142.211 97.9672 141.574 98.4558 141.025C98.9283 140.493 99.515 140.062 100.216 139.733C100.919 139.406 101.705 139.241 102.578 139.241C103.474 139.241 104.245 139.368 104.883 139.626C105.524 139.88 106.043 140.23 106.438 140.674C106.821 141.096 107.106 141.593 107.294 142.165C107.481 142.737 107.574 143.358 107.574 144.025V144.771H99.4386C99.4386 145.499 99.515 146.16 99.6686 146.754C99.8208 147.351 100.063 147.87 100.399 148.325C100.731 148.768 101.166 149.122 101.667 149.356C102.19 149.607 102.816 149.734 103.538 149.734C104.278 149.734 104.916 149.576 105.451 149.265C105.984 148.953 106.503 148.39 107 147.578L107.87 148.063ZM105.119 143.823C105.119 143.401 105.081 142.949 105.001 142.468C104.919 141.987 104.797 141.586 104.622 141.261C104.433 140.919 104.163 140.629 103.836 140.415C103.505 140.196 103.075 140.088 102.551 140.088C101.68 140.088 100.956 140.415 100.379 141.074C99.8011 141.732 99.4888 142.649 99.4386 143.823H105.119ZM118.016 145.233C118.358 145.502 118.621 145.814 118.804 146.168C118.987 146.523 119.076 146.955 119.076 147.466C119.076 148.497 118.651 149.337 117.8 149.992C116.951 150.648 115.845 150.975 114.491 150.975C113.778 150.975 113.118 150.859 112.519 150.624C111.915 150.393 111.485 150.177 111.226 149.981L110.98 150.716H110.044L109.921 146.846H110.78C110.847 147.139 110.989 147.482 111.205 147.87C111.418 148.263 111.68 148.618 111.987 148.934C112.311 149.265 112.701 149.54 113.152 149.769C113.607 149.993 114.113 150.107 114.679 150.107C115.479 150.107 116.091 149.942 116.524 149.615C116.955 149.288 117.171 148.822 117.171 148.208C117.171 147.894 117.103 147.625 116.967 147.393C116.814 147.149 116.607 146.942 116.363 146.788C116.044 146.596 115.705 146.44 115.351 146.322C114.951 146.184 114.508 146.045 114.02 145.911C113.58 145.787 113.145 145.642 112.719 145.475C112.237 145.291 111.83 145.075 111.489 144.825C111.128 144.566 110.823 144.238 110.592 143.859C110.358 143.473 110.243 143.023 110.243 142.503C110.243 141.593 110.617 140.821 111.366 140.188C112.115 139.556 113.113 139.242 114.368 139.242C114.849 139.242 115.342 139.299 115.845 139.411C116.346 139.526 116.755 139.662 117.073 139.819L117.358 139.229H118.256L118.443 142.807H117.583C117.408 142.01 117.03 141.363 116.451 140.863C115.878 140.361 115.171 140.112 114.344 140.112C113.662 140.112 113.126 140.265 112.735 140.573C112.344 140.881 112.148 141.255 112.148 141.69C112.148 142.029 112.212 142.311 112.344 142.538C112.472 142.76 112.664 142.953 112.923 143.11C113.174 143.261 113.483 143.403 113.862 143.535C114.24 143.666 114.709 143.815 115.266 143.98C115.815 144.139 116.329 144.325 116.814 144.533C117.304 144.744 117.703 144.979 118.016 145.233ZM141.606 145.922L141.233 150.683H127.416V149.88C127.615 149.863 127.904 149.837 128.283 149.8C128.661 149.764 128.926 149.714 129.074 149.655C129.322 149.556 129.504 149.414 129.614 149.226C129.729 149.037 129.783 148.799 129.783 148.505V137.043C129.783 136.788 129.738 136.561 129.639 136.366C129.547 136.168 129.355 136.01 129.074 135.892C128.882 135.802 128.615 135.714 128.27 135.625C127.99 135.552 127.704 135.502 127.417 135.475V134.674H134.878V135.475C134.645 135.482 134.347 135.518 133.978 135.587C133.607 135.656 133.339 135.714 133.174 135.767C132.889 135.857 132.698 136.01 132.591 136.23C132.489 136.449 132.438 136.68 132.438 136.931V147.682C132.438 148.177 132.464 148.563 132.519 148.837C132.573 149.112 132.698 149.322 132.897 149.477C133.09 149.612 133.373 149.699 133.752 149.738C134.131 149.781 134.657 149.8 135.339 149.8C135.648 149.8 135.967 149.797 136.3 149.782C136.617 149.767 136.934 149.736 137.248 149.69C137.52 149.648 137.789 149.586 138.051 149.505C138.295 149.423 138.477 149.323 138.59 149.203C138.931 148.858 139.327 148.333 139.782 147.633C140.233 146.929 140.548 146.359 140.722 145.924H141.606V145.922ZM149.073 150.682H143.133V149.938C143.324 149.924 143.52 149.907 143.724 149.891C143.928 149.877 144.103 149.845 144.251 149.8C144.485 149.734 144.659 149.615 144.769 149.446C144.88 149.277 144.939 149.056 144.939 148.788V141.917C144.939 141.675 144.877 141.456 144.757 141.255C144.632 141.049 144.458 140.877 144.251 140.754C144.093 140.662 143.869 140.584 143.566 140.522C143.295 140.462 143.021 140.423 142.745 140.404V139.671L147.083 139.422L147.258 139.58V148.652C147.258 148.914 147.313 149.134 147.423 149.307C147.534 149.477 147.712 149.607 147.955 149.688C148.138 149.758 148.316 149.812 148.49 149.853C148.664 149.891 148.856 149.923 149.074 149.938L149.073 150.682ZM147.504 135.036C147.504 135.462 147.351 135.837 147.036 136.156C146.726 136.476 146.344 136.638 145.884 136.638C145.462 136.638 145.092 136.484 144.782 136.179C144.472 135.876 144.315 135.525 144.315 135.135C144.315 134.721 144.472 134.362 144.782 134.055C144.925 133.907 145.096 133.789 145.285 133.71C145.475 133.63 145.679 133.59 145.884 133.591C146.36 133.591 146.747 133.735 147.049 134.024C147.351 134.315 147.504 134.651 147.504 135.036M172.24 150.682H166.249V149.938C166.44 149.924 166.631 149.907 166.826 149.891C167.023 149.877 167.196 149.845 167.345 149.8C167.58 149.734 167.749 149.615 167.861 149.446C167.974 149.277 168.031 149.056 168.031 148.788V143.045C168.031 142.259 167.835 141.658 167.44 141.231C167.044 140.808 166.551 140.596 165.964 140.596C165.555 140.596 165.173 140.653 164.817 140.765C164.46 140.876 164.131 141.036 163.833 141.239C163.609 141.389 163.406 141.569 163.23 141.773C163.063 141.967 162.944 142.125 162.859 142.255V148.674C162.859 148.937 162.91 149.152 163.008 149.322C163.11 149.491 163.28 149.623 163.519 149.71C163.71 149.78 163.885 149.831 164.037 149.864C164.19 149.896 164.39 149.923 164.642 149.937V150.682H158.773V149.937C158.964 149.923 159.151 149.906 159.33 149.891C159.508 149.876 159.67 149.845 159.819 149.799C160.053 149.733 160.222 149.615 160.338 149.445C160.447 149.276 160.504 149.056 160.504 148.787V143.045C160.504 142.259 160.307 141.658 159.911 141.231C159.517 140.808 159.028 140.596 158.437 140.596C158.027 140.596 157.649 140.653 157.292 140.769C156.936 140.889 156.604 141.046 156.305 141.25C156.064 141.416 155.865 141.599 155.698 141.809C155.533 142.017 155.405 142.17 155.324 142.275V148.652C155.324 148.906 155.378 149.122 155.499 149.295C155.613 149.468 155.786 149.599 156.023 149.687C156.196 149.764 156.374 149.818 156.556 149.857C156.74 149.894 156.944 149.923 157.166 149.937V150.682H151.198V149.937C151.39 149.923 151.585 149.906 151.79 149.891C151.993 149.876 152.168 149.845 152.321 149.799C152.55 149.733 152.724 149.615 152.836 149.445C152.95 149.276 153.006 149.056 153.006 148.787V141.87C153.009 141.64 152.946 141.414 152.823 141.219C152.693 141.021 152.522 140.854 152.321 140.73C152.136 140.631 151.939 140.558 151.734 140.511C151.497 140.453 151.255 140.417 151.011 140.403V139.671L155.123 139.422L155.298 139.579V141.17H155.381C155.591 140.981 155.846 140.76 156.144 140.503C156.442 140.249 156.722 140.042 156.978 139.883C157.27 139.703 157.633 139.551 158.07 139.433C158.531 139.31 159.006 139.249 159.483 139.253C160.281 139.253 160.966 139.449 161.54 139.834C162.11 140.222 162.522 140.689 162.775 141.239C163.071 140.973 163.335 140.742 163.565 140.546C163.789 140.346 164.092 140.134 164.466 139.906C164.813 139.696 165.189 139.537 165.581 139.433C166.047 139.309 166.527 139.248 167.009 139.253C168.047 139.253 168.867 139.559 169.476 140.177C170.08 140.796 170.386 141.742 170.386 143.022V148.674C170.386 148.937 170.432 149.152 170.534 149.322C170.632 149.491 170.802 149.623 171.045 149.71C171.237 149.78 171.424 149.831 171.611 149.864C171.798 149.896 172.01 149.923 172.24 149.937L172.24 150.682ZM180.255 150.682H174.315V149.938C174.506 149.924 174.702 149.907 174.906 149.891C175.11 149.877 175.285 149.845 175.434 149.8C175.668 149.734 175.842 149.615 175.951 149.446C176.063 149.277 176.123 149.056 176.123 148.788V141.917C176.123 141.675 176.059 141.456 175.938 141.255C175.813 141.049 175.64 140.877 175.434 140.754C175.276 140.662 175.051 140.584 174.75 140.522C174.479 140.462 174.204 140.422 173.928 140.404V139.671L178.266 139.422L178.44 139.58V148.652C178.44 148.914 178.496 149.134 178.606 149.307C178.717 149.477 178.895 149.607 179.137 149.688C179.32 149.758 179.498 149.812 179.674 149.853C179.848 149.891 180.039 149.923 180.255 149.938V150.682ZM178.687 135.036C178.687 135.462 178.534 135.837 178.218 136.156C178.07 136.312 177.892 136.436 177.693 136.519C177.495 136.602 177.282 136.643 177.067 136.638C176.862 136.639 176.659 136.599 176.47 136.52C176.28 136.442 176.109 136.326 175.965 136.179C175.654 135.876 175.498 135.525 175.498 135.135C175.498 134.721 175.654 134.362 175.965 134.055C176.108 133.907 176.279 133.79 176.468 133.71C176.658 133.63 176.861 133.59 177.067 133.591C177.544 133.591 177.93 133.735 178.231 134.024C178.535 134.315 178.687 134.651 178.687 135.036M189.968 150.196C189.428 150.4 188.919 150.569 188.438 150.708C187.953 150.848 187.365 150.919 186.669 150.919C185.639 150.919 184.912 150.683 184.496 150.211C184.075 149.742 183.866 149.08 183.866 148.221V140.686H181.646V139.603H183.913V136.141H186.183V139.603H189.709V140.686H186.205V146.904C186.205 147.37 186.227 147.759 186.264 148.071C186.299 148.382 186.388 148.656 186.533 148.887C186.664 149.107 186.864 149.273 187.126 149.383C187.396 149.496 187.753 149.553 188.2 149.553C188.408 149.553 188.713 149.538 189.113 149.503C189.518 149.468 189.803 149.426 189.968 149.372V150.196ZM202.717 148.063C202.219 148.935 201.508 149.664 200.649 150.184C199.787 150.712 198.792 150.975 197.673 150.975C196.682 150.975 195.82 150.817 195.076 150.501C194.33 150.184 193.718 149.758 193.238 149.214C192.75 148.664 192.382 148.018 192.157 147.319C191.92 146.579 191.802 145.807 191.805 145.03C191.805 144.309 191.933 143.599 192.183 142.903C192.434 142.212 192.814 141.575 193.302 141.025C193.774 140.493 194.362 140.062 195.064 139.733C195.763 139.406 196.551 139.241 197.422 139.241C198.32 139.241 199.089 139.368 199.728 139.626C200.37 139.88 200.889 140.23 201.283 140.674C201.667 141.096 201.95 141.593 202.139 142.165C202.326 142.737 202.42 143.358 202.42 144.025V144.771H194.282C194.282 145.499 194.362 146.16 194.514 146.754C194.667 147.351 194.909 147.87 195.245 148.325C195.576 148.767 196.011 149.121 196.511 149.356C197.034 149.607 197.66 149.734 198.383 149.734C199.123 149.734 199.763 149.576 200.298 149.265C200.829 148.953 201.347 148.39 201.845 147.578L202.717 148.063ZM199.965 143.823C199.965 143.401 199.928 142.949 199.846 142.468C199.766 141.987 199.642 141.586 199.468 141.261C199.278 140.919 199.009 140.629 198.682 140.415C198.35 140.196 197.92 140.088 197.397 140.088C196.524 140.088 195.802 140.415 195.223 141.074C194.646 141.732 194.335 142.649 194.282 143.823H199.965ZM218.208 150.478L213.921 150.727L213.734 150.569V149.529L213.638 149.508C213.203 149.948 212.672 150.302 212.033 150.583C211.4 150.862 210.745 151 210.073 151C209.375 151 208.7 150.857 208.048 150.575C207.405 150.3 206.826 149.895 206.348 149.385C205.843 148.842 205.447 148.207 205.183 147.514C204.897 146.783 204.753 145.978 204.753 145.099C204.753 144.295 204.906 143.533 205.213 142.809C205.513 142.102 205.944 141.459 206.484 140.913C206.989 140.409 207.611 140.008 208.346 139.705C209.06 139.409 209.824 139.256 210.597 139.255C211.171 139.255 211.731 139.32 212.284 139.452C212.838 139.585 213.314 139.751 213.708 139.955V136.086C213.708 135.769 213.653 135.48 213.535 135.223C213.42 134.961 213.258 134.764 213.05 134.629C212.816 134.487 212.506 134.384 212.11 134.317C211.687 134.253 211.262 134.207 210.835 134.179V133.479L215.852 133.221L216.039 133.39V148.392C216.039 148.657 216.094 148.881 216.211 149.066C216.319 149.248 216.485 149.405 216.702 149.532C216.86 149.626 217.085 149.678 217.388 149.701C217.685 149.722 217.958 149.74 218.208 149.748V150.48V150.478ZM213.708 148.524V142.018C213.646 141.821 213.535 141.612 213.386 141.386C213.23 141.153 213.041 140.944 212.824 140.765C212.568 140.567 212.282 140.409 211.977 140.297C211.655 140.174 211.276 140.112 210.847 140.112C210.344 140.112 209.886 140.227 209.47 140.461C209.048 140.692 208.678 141.029 208.355 141.464C208.044 141.887 207.801 142.422 207.624 143.072C207.445 143.723 207.354 144.442 207.354 145.233C207.354 145.864 207.424 146.439 207.556 146.955C207.686 147.471 207.913 147.949 208.227 148.39C208.516 148.811 208.899 149.159 209.345 149.407C209.797 149.661 210.333 149.793 210.957 149.793C211.62 149.793 212.174 149.658 212.608 149.395C213.014 149.158 213.384 148.865 213.708 148.524Z" fill="#1F1917"/>
</svg>
