<svg width="71" height="69" viewBox="0 0 71 69" fill="none" xmlns="http://www.w3.org/2000/svg">
<path d="M40.8609 2.66541H29.258C26.4039 2.66541 23.6218 3.56885 21.312 5.24642L11.9237 12.0663C9.61385 13.7439 7.89496 16.1093 7.01307 18.8251L3.42802 29.8604C2.54613 32.5743 2.54613 35.5002 3.42802 38.2141L7.01307 49.2495C7.89496 51.9634 9.61385 54.3307 11.9237 56.0083L21.312 62.8281C23.6218 64.5057 26.4021 65.4091 29.258 65.4091H40.8609C43.7149 65.4091 46.4971 64.5057 48.8069 62.8281L58.1952 56.0083C60.505 54.3307 62.2239 51.9652 63.1058 49.2495L66.6908 38.2141C67.5727 35.5002 67.5727 32.5743 66.6908 29.8604L63.1058 18.8251C62.2239 16.1111 60.505 13.7439 58.1952 12.0663L48.8069 5.24642C46.4971 3.56885 43.7167 2.66541 40.8609 2.66541Z" fill="url(#paint0_linear_260_841)"/>
<path d="M41.4786 68.0782H28.64C25.6045 68.0782 22.702 67.1352 20.2449 65.3499L9.85798 57.8026C7.40269 56.0173 5.60837 53.5494 4.669 50.6613L0.70318 38.4531C-0.234393 35.5667 -0.234393 32.5133 0.70318 29.6269L4.6708 17.4151C5.60837 14.527 7.40269 12.0591 9.85798 10.2738L20.2449 2.7283C22.702 0.942961 25.6045 0 28.64 0H41.4786C44.514 0 47.4166 0.942961 49.8737 2.7283L60.2606 10.2756C62.7159 12.0591 64.5102 14.5288 65.4496 17.4169L69.4172 29.6269C70.3548 32.5133 70.3548 35.5667 69.4172 38.4531L65.4496 50.6631C64.512 53.5512 62.7177 56.0191 60.2606 57.8044L49.8737 65.3517C47.4184 67.1352 44.514 68.08 41.4786 68.08V68.0782ZM28.64 0.738204C25.7608 0.738204 23.0074 1.63267 20.6796 3.32461L10.2926 10.8719C7.96308 12.5638 6.26216 14.906 5.37308 17.6433L1.40366 29.8533C0.514587 32.5923 0.514587 35.4859 1.40366 38.225L5.37129 50.435C6.26036 53.1722 7.96129 55.5144 10.2908 57.2063L20.6778 64.7536C23.0074 66.4455 25.759 67.34 28.6382 67.34H41.4768C44.356 67.34 47.1094 66.4455 49.4372 64.7536L59.8241 57.2063C62.1537 55.5144 63.8546 53.1722 64.7437 50.435L68.7113 38.225C69.6004 35.4859 69.6004 32.5923 68.7113 29.8533L64.7437 17.6433C63.8546 14.9042 62.1537 12.5638 59.8241 10.8719L49.4372 3.32461C47.1076 1.63267 44.356 0.738204 41.4768 0.738204H28.6382H28.64Z" fill="#3366CC"/>
<path d="M22.3499 8.4382L14.6392 14.0403C12.3294 15.7179 10.6105 18.0833 9.72863 20.7991L6.783 29.8623C5.90111 32.5762 5.90111 35.5021 6.783 38.216L9.72863 47.2792C10.6105 49.9931 12.3294 52.3604 14.6392 54.038L22.3499 59.6401C24.6597 61.3177 27.4401 62.2211 30.296 62.2211H39.8262C42.6802 62.2211 45.4624 61.3177 47.7722 59.6401L55.4829 54.038C57.7927 52.3604 59.5116 49.9949 60.3935 47.2792L63.3391 38.216C64.221 35.5021 64.221 32.5762 63.3391 29.8623L60.3935 20.7991C59.5116 18.0851 57.7927 15.7179 55.4829 14.0403L47.7722 8.4382C45.4624 6.76062 42.682 5.85718 39.8262 5.85718H30.296C27.4419 5.85718 24.6597 6.76062 22.3499 8.4382Z" fill="url(#paint1_linear_260_841)"/>
<path d="M38.8979 24.4685V28.7056H44.2934C45.1124 28.7056 45.777 29.3701 45.777 30.1891V35.3979C45.777 36.2169 45.1124 36.8815 44.2934 36.8815H38.8979V51.051C38.8979 51.8701 38.2333 52.5346 37.4143 52.5346H32.4049C31.5859 52.5346 30.9213 51.8701 30.9213 51.051V36.8815H25.8239C25.0031 36.8815 24.3403 36.2169 24.3403 35.3979V30.1891C24.3403 29.3701 25.0049 28.7056 25.8239 28.7056H30.9213V23.8201C30.9213 19.2508 34.6267 15.5454 39.196 15.5454H44.2934C45.1124 15.5454 45.777 16.21 45.777 17.029V21.3415C45.777 22.1605 45.1124 22.8251 44.2934 22.8251H40.5413C39.6343 22.8251 38.8961 23.5615 38.8961 24.4703L38.8979 24.4685Z" fill="white"/>
<defs>
<linearGradient id="paint0_linear_260_841" x1="11.4225" y1="1.64521" x2="40.1389" y2="41.0017" gradientUnits="userSpaceOnUse">
<stop stop-color="#333CCC"/>
<stop offset="1" stop-color="#4F5BD5"/>
</linearGradient>
<linearGradient id="paint1_linear_260_841" x1="66.3692" y1="4.78669" x2="35.4939" y2="33.6341" gradientUnits="userSpaceOnUse">
<stop stop-color="#333CCC"/>
<stop offset="1" stop-color="#4F6DD5"/>
</linearGradient>
</defs>
</svg>
