<svg width="71" height="69" viewBox="0 0 71 69" fill="none" xmlns="http://www.w3.org/2000/svg">
<path d="M40.8628 2.66541H29.2599C26.4059 2.66541 23.6237 3.56885 21.3139 5.24642L11.9256 12.0663C9.6158 13.7439 7.89692 16.1093 7.01502 18.8251L3.42997 29.8604C2.54808 32.5743 2.54808 35.5002 3.42997 38.2141L7.01502 49.2495C7.89692 51.9634 9.6158 54.3307 11.9256 56.0083L21.3139 62.8281C23.6237 64.5057 26.4041 65.4091 29.2599 65.4091H40.8628C43.7169 65.4091 46.499 64.5057 48.8089 62.8281L58.1972 56.0083C60.507 54.3307 62.2258 51.9652 63.1077 49.2495L66.6928 38.2141C67.5747 35.5002 67.5747 32.5743 66.6928 29.8604L63.1077 18.8251C62.2258 16.1111 60.507 13.7439 58.1972 12.0663L48.8089 5.24642C46.499 3.56885 43.7187 2.66541 40.8628 2.66541Z" fill="url(#paint0_linear_260_864)"/>
<path d="M41.4804 68.0782H28.6418C25.6063 68.0782 22.7038 67.1352 20.2467 65.3499L9.85978 57.8026C7.40269 56.0173 5.61017 53.5494 4.6708 50.6613L0.70318 38.4531C-0.234393 35.5649 -0.234393 32.5133 0.70318 29.6269L4.6708 17.4151C5.60837 14.5288 7.40269 12.0591 9.85978 10.2738L20.2449 2.7283C22.702 0.942961 25.6045 0 28.64 0H41.4786C44.514 0 47.4166 0.942961 49.8737 2.7283L60.2606 10.2756C62.7177 12.0609 64.5102 14.5288 65.4496 17.4169L69.4172 29.6269C70.3548 32.5151 70.3548 35.5667 69.4172 38.4531L65.4496 50.6631C64.512 53.5494 62.7177 56.0191 60.2606 57.8044L49.8737 65.3517C47.4166 67.1352 44.514 68.08 41.4786 68.08L41.4804 68.0782ZM28.64 0.738204C25.7608 0.738204 23.0074 1.63267 20.6796 3.32461L10.2926 10.8719C7.96308 12.5638 6.26216 14.906 5.37308 17.6433L1.40366 29.8533C0.514587 32.5905 0.514587 35.4859 1.40366 38.225L5.37129 50.435C6.26036 53.1722 7.96129 55.5144 10.2908 57.2063L20.6778 64.7536C23.0074 66.4455 25.7608 67.34 28.6382 67.34H41.4768C44.356 67.34 47.1094 66.4455 49.4372 64.7536L59.8241 57.2063C62.1537 55.5144 63.8546 53.1722 64.7437 50.435L68.7113 38.225C69.6004 35.4877 69.6004 32.5923 68.7113 29.8533L64.7437 17.6433C63.8546 14.906 62.1537 12.5638 59.8241 10.8719L49.4372 3.32461C47.1076 1.63267 44.3542 0.738204 41.4768 0.738204H28.6382H28.64Z" fill="url(#paint1_linear_260_864)"/>
<path d="M22.3499 8.4382L14.6392 14.0403C12.3294 15.7179 10.6105 18.0833 9.72863 20.7991L6.783 29.8623C5.90111 32.5762 5.90111 35.5021 6.783 38.216L9.72863 47.2792C10.6105 49.9931 12.3294 52.3604 14.6392 54.038L22.3499 59.6401C24.6597 61.3177 27.4401 62.2211 30.296 62.2211H39.8262C42.6802 62.2211 45.4624 61.3177 47.7722 59.6401L55.4829 54.038C57.7927 52.3604 59.5116 49.9949 60.3935 47.2792L63.3391 38.216C64.221 35.5021 64.221 32.5762 63.3391 29.8623L60.3935 20.7991C59.5116 18.0851 57.7927 15.7179 55.4829 14.0403L47.7722 8.4382C45.4624 6.76062 42.682 5.85718 39.8262 5.85718H30.296C27.4419 5.85718 24.6597 6.76062 22.3499 8.4382Z" fill="url(#paint2_linear_260_864)"/>
<path d="M25.9547 26.3131H19.1133V48.2922H25.9547V26.3131Z" fill="white"/>
<path d="M51.3915 33.1365C51.3825 32.4271 51.2675 31.1267 50.5419 29.7293C49.396 27.5254 47.5029 26.5789 46.8922 26.3041C44.4638 25.2138 42.2061 25.7293 41.2344 26.0383C38.6408 26.8627 37.2812 28.7288 36.886 29.3198C36.8555 28.3175 36.8267 27.3153 36.7962 26.3131H30.2422V48.2921H37.071C37.177 43.8342 37.2955 39.3762 37.3871 34.9165C37.4213 33.2317 39.1833 31.8487 40.7872 31.7894C42.1594 31.7894 43.3969 32.5043 44.092 33.6933C44.6596 34.6614 44.6165 35.6511 44.6273 36.7377C44.6417 38.022 44.6524 39.3062 44.6632 40.5886C44.6848 43.1571 44.6991 45.7237 44.7207 48.2921H51.5477C51.4956 43.2397 51.4435 38.189 51.3915 33.1365Z" fill="white"/>
<path d="M22.535 15.3909C20.3473 15.3909 18.5728 17.1654 18.5728 19.3531C18.5728 21.5408 20.3473 23.3153 22.535 23.3153C24.7227 23.3153 26.4972 21.5408 26.4972 19.3531C26.4972 17.1654 24.7227 15.3909 22.535 15.3909Z" fill="white"/>
<defs>
<linearGradient id="paint0_linear_260_864" x1="13.7433" y1="60.6548" x2="46.3194" y2="19.9818" gradientUnits="userSpaceOnUse">
<stop stop-color="#46ABDB"/>
<stop offset="0.65" stop-color="#1964CC"/>
<stop offset="1" stop-color="#003DC4"/>
</linearGradient>
<linearGradient id="paint1_linear_260_864" x1="-0.000898058" y1="34.04" x2="70.1213" y2="34.04" gradientUnits="userSpaceOnUse">
<stop stop-color="#46ABDB"/>
<stop offset="0.65" stop-color="#1964CC"/>
<stop offset="1" stop-color="#003DC4"/>
</linearGradient>
<linearGradient id="paint2_linear_260_864" x1="51.7093" y1="70.4491" x2="20.4514" y2="2.09431" gradientUnits="userSpaceOnUse">
<stop stop-color="#46ABDB"/>
<stop offset="0.65" stop-color="#1964CC"/>
<stop offset="1" stop-color="#003DC4"/>
</linearGradient>
</defs>
</svg>
