<svg width="31" height="32" viewBox="0 0 31 32" fill="none" xmlns="http://www.w3.org/2000/svg">
<path d="M28.9761 31.1605C28.4905 31.1605 28.0236 30.9682 27.6809 30.6237L20.3531 23.2959C19.6494 22.5688 19.6697 21.4089 20.3988 20.7056C21.1095 20.0203 22.2343 20.0203 22.9434 20.7056L30.2713 28.0334C30.9858 28.7495 30.9858 29.9091 30.2713 30.6237C29.927 30.9682 29.4617 31.1605 28.9761 31.1605Z" fill="#FFB800"/>
<path d="M12.8235 26.0002C5.7413 26.0002 0 20.259 0 13.1768C0 6.09475 5.7413 0.353516 12.8235 0.353516C19.9057 0.353516 25.647 6.09475 25.647 13.1768C25.6396 20.2554 19.9021 25.9931 12.8235 26.0002ZM12.8235 4.01742C7.76552 4.01742 3.66394 8.11894 3.66394 13.1768C3.66394 18.2348 7.76552 22.3363 12.8235 22.3363C17.8815 22.3363 21.983 18.2348 21.983 13.1768C21.9776 8.12087 17.8795 4.02289 12.8235 4.01742Z" fill="#FFB800"/>
</svg>
