<svg width="71" height="69" viewBox="0 0 71 69" fill="none" xmlns="http://www.w3.org/2000/svg">
<path d="M40.8613 2.66541H29.2587C26.4048 2.66541 23.6227 3.56883 21.3129 5.24636L11.9249 12.066C9.61513 13.7436 7.89629 16.109 7.01442 18.8246L3.42947 29.8597C2.5476 32.5736 2.5476 35.4993 3.42947 38.2132L7.01442 49.2483C7.89629 51.9621 9.61513 54.3293 11.9249 56.0069L21.3129 62.8265C23.6227 64.5041 26.403 65.4075 29.2587 65.4075H40.8613C43.7153 65.4075 46.4974 64.5041 48.8072 62.8265L58.1952 56.0069C60.505 54.3293 62.2238 51.9639 63.1057 49.2483L66.6906 38.2132C67.5725 35.4993 67.5725 32.5736 66.6906 29.8597L63.1057 18.8246C62.2238 16.1108 60.505 13.7436 58.1952 12.066L48.8072 5.24636C46.4974 3.56883 43.7171 2.66541 40.8613 2.66541Z" fill="url(#paint0_linear_260_848)"/>
<path d="M41.4793 68.0764H28.641C25.6057 68.0764 22.7032 67.1335 20.2462 65.3482L9.85952 57.8011C7.40429 56.0158 5.61002 53.548 4.67068 50.6599L0.703161 38.452C-0.234387 35.564 -0.234387 32.5124 0.703161 29.6262L4.67068 17.4147C5.60823 14.5284 7.4025 12.0588 9.85952 10.2735L20.2444 2.72823C22.7014 0.942936 25.6039 0 28.6392 0H41.4775C44.5129 0 47.4153 0.942936 49.8723 2.72823L60.259 10.2753C62.7142 12.0606 64.5085 14.5284 65.4479 17.4165L69.4154 29.6262C70.3529 32.5142 70.3529 35.5658 69.4154 38.452L65.4479 50.6635C64.5103 53.5498 62.716 56.0194 60.2608 57.8047L49.8741 65.3518C47.4189 67.1353 44.5147 68.08 41.4793 68.08V68.0764ZM28.6392 0.738185C25.7601 0.738185 23.0067 1.63263 20.679 3.32452L10.2924 10.8716C7.96287 12.5635 6.26199 14.9056 5.37294 17.6428L1.40363 29.8525C0.514574 32.5897 0.514574 35.4849 1.40363 38.2221L5.37114 50.4336C6.2602 53.1708 7.96108 55.5129 10.2906 57.2048L20.6772 64.7519C23.0067 66.4438 25.7583 67.3382 28.6374 67.3382H41.4757C44.3548 67.3382 47.1082 66.4438 49.4359 64.7519L59.8226 57.2048C62.1521 55.5129 63.853 53.1708 64.742 50.4336L68.7095 38.2221C69.5986 35.4849 69.5986 32.5897 68.7095 29.8525L64.742 17.6428C63.853 14.9038 62.1521 12.5635 59.8226 10.8716L49.4359 3.32452C47.1064 1.63263 44.3548 0.738185 41.4757 0.738185H28.6374H28.6392Z" fill="#FF2D22"/>
<path d="M22.3495 8.43788L14.639 14.0398C12.3292 15.7174 10.6104 18.0828 9.72854 20.7984L6.78298 29.8614C5.90111 32.5753 5.90111 35.5011 6.78298 38.2149L9.72854 47.2779C10.6104 49.9917 12.3292 52.359 14.639 54.0365L22.3495 59.6384C24.6593 61.316 27.4396 62.2194 30.2953 62.2194H39.8253C42.6792 62.2194 45.4613 61.316 47.7711 59.6384L55.4816 54.0365C57.7913 52.359 59.5102 49.9935 60.3921 47.2779L63.3376 38.2149C64.2195 35.5011 64.2195 32.5753 63.3376 29.8614L60.3921 20.7984C59.5102 18.0846 57.7913 15.7174 55.4816 14.0398L47.7711 8.43788C45.4613 6.76036 42.681 5.85693 39.8253 5.85693H30.2953C27.4414 5.85693 24.6593 6.76036 22.3495 8.43788Z" fill="url(#paint1_linear_260_848)"/>
<path d="M45.402 20.5686H24.7166C20.1331 20.5686 16.417 24.2847 16.417 28.8682V39.21C16.417 43.7936 20.1331 47.5096 24.7166 47.5096H45.402C49.9855 47.5096 53.7016 43.7936 53.7016 39.21V28.8682C53.7016 24.2847 49.9855 20.5686 45.402 20.5686ZM40.4699 34.9533L30.1982 39.6734C29.7636 39.8728 29.2679 39.5549 29.2679 39.0771V28.9994C29.2679 28.5054 29.7905 28.1875 30.227 28.4174L40.4987 33.7751C40.9836 34.0283 40.9657 34.7252 40.4699 34.9533Z" fill="white"/>
<defs>
<linearGradient id="paint0_linear_260_848" x1="1.82199" y1="72.9258" x2="49.4609" y2="17.1884" gradientUnits="userSpaceOnUse">
<stop stop-color="#AA2500"/>
<stop offset="1" stop-color="#FF2D22"/>
</linearGradient>
<linearGradient id="paint1_linear_260_848" x1="74.2487" y1="3.53641" x2="34.3293" y2="34.6066" gradientUnits="userSpaceOnUse">
<stop stop-color="#AA2500"/>
<stop offset="1" stop-color="#FF2D22"/>
</linearGradient>
</defs>
</svg>
