<svg width="193" height="159" viewBox="0 0 193 159" fill="none" xmlns="http://www.w3.org/2000/svg">
<path d="M14.7902 4.62167H178.485C183.726 4.62167 188.015 8.9446 188.015 14.2285V144.771C188.015 150.053 183.724 154.378 178.485 154.378H14.7902C9.5486 154.378 5.26025 150.055 5.26025 144.771V14.2285C5.26025 8.9446 9.5486 4.62167 14.7902 4.62167Z" fill="white" stroke="#2C3F7E" stroke-width="8.72731" stroke-miterlimit="2.613"/>
<path d="M188.006 37.3993V144.771C188.006 150.05 183.713 154.377 178.477 154.377H14.7831C9.54697 154.377 5.25195 150.054 5.25195 144.771V37.3993H188.006Z" fill="#2C3F7E"/>
<path d="M34.1803 74.6806L68.3878 74.7558C70.5611 75.0236 71.7393 77.1145 71.1174 79.0104L65.8624 94.9905C65.4071 95.8246 64.4073 96.433 63.1564 96.9452C64.3252 98.0705 64.3745 99.4049 63.7924 100.854C61.6566 106.392 59.8682 111.048 57.7324 116.586C57.3287 117.934 55.3666 119.518 53.4961 119.367L19.1665 119.402C18.6994 119.09 18.7628 118.232 19.4082 116.722C24.4378 101.308 29.4417 86.2534 34.1803 74.6806ZM40.0877 99.9265L35.3326 113.698C35.4429 114.121 36.2081 114.323 37.628 114.307C39.3319 114.732 40.6791 114.025 41.5076 111.661L44.8427 102.847C45.2792 100.587 44.6056 99.7244 42.7116 99.8161L40.0877 99.9265ZM47.009 79.4239L42.2539 93.198C42.3643 93.6209 43.1294 93.8206 44.5493 93.8041C46.2556 94.2293 47.6004 93.5222 48.4313 91.1588L51.764 82.3441C52.2005 80.0864 51.527 79.2218 49.6329 79.3158L47.009 79.4239ZM95.6506 46.6343L75.9006 74.1849H78.4424L64.1609 119.377L73.218 119.381L64.8204 146.443L83.7419 120.039L81.1461 120.037L88.1778 99.3674L93.6158 99.8561L87.8492 119.386L95.9956 119.379L87.3798 147.592L108.026 120.074L105.177 120.009L120.205 74.7841H110.556L118.886 47.2218L118.402 47.2875L99.9034 73.0009L98.9857 74.0863L101.786 74.1639L95.3971 94.3328L89.8676 94.0674L95.9276 74.7606L86.8869 74.7888L95.6506 46.6343ZM126.65 74.7652L152.908 74.8403C152.76 76.6235 152.293 78.0613 151.512 79.1537L142.389 79.3769L137.315 94.3233L145.994 94.6217C145.928 96.4518 145.442 98.0916 144.668 99.6023L135.522 99.6446L130.311 114.006L139.094 114.697C139.213 116.386 138.77 118.007 137.866 119.574L112.387 119.421C111.624 119.334 111.216 118.871 111.584 117.577C116.408 103.006 121.296 88.5346 126.65 74.7652ZM157.17 74.744L174.397 75.2115L161.716 114.199L170.386 114.452C170.473 116.43 169.868 118.12 168.743 119.59L142.631 119.438L142.483 117.072L157.17 74.744Z" fill="white"/>
<path fill-rule="evenodd" clip-rule="evenodd" d="M21.5848 12.726H39.4478L40.3796 9.49096C40.7809 8.57707 41.6094 8.03907 42.8651 7.87697L49.7254 7.99679C50.805 8.01558 51.4175 9.24428 51.1711 10.1417L50.4576 12.726H54.7198L54.1917 15.0354H49.8216L44.3507 34.8895L40.1684 34.765L45.651 15.0354H42.9589L37.3825 34.7674L33.1297 34.6875L34.1178 31.2504H26.9712C25.6592 31.2504 24.8307 29.8009 25.3353 28.0953L28.0907 18.7708C28.4991 17.3918 29.9213 17.0957 31.8341 17.0558L38.0913 16.9219L38.3025 16.9242H38.3048L38.7836 15.0354H21.0098L21.5848 12.726ZM60.0569 14.2061L57.508 23.3755C57.1325 24.7217 57.109 25.9175 57.7075 26.9982L61.9556 34.6546L66.6285 34.6593L61.7209 26.0584C61.3618 25.4265 61.2397 25.0623 61.5566 23.8477L64.1524 13.9053L63.859 15.0354H68.7572L68.8182 14.8098L66.5909 23.009C66.4642 23.4789 66.3069 23.8336 65.7155 23.9229L64.5584 23.9393L63.7393 26.2722L67.7409 26.3403C69.1233 26.3638 70.21 25.4899 70.6184 23.9652L72.9982 15.0354H88.6809L84.9069 28.7296L80.7175 28.7085C79.6426 28.7014 79.9454 27.5831 80.0674 27.1978L82.6374 19.0739L84.4704 19.0903L85.2097 16.8068L75.4485 16.6823L74.789 19.0057L77.9645 19.0339L75.5682 27.6419C75.1105 29.2887 75.5917 31.0155 77.1477 31.0366L84.1559 31.1306L84.3061 30.9098L83.2734 34.6593L87.4346 34.7956L93.1871 14.5021L93.0346 15.0354H96.6865L97.217 12.726H57.9798L57.4165 15.0354H59.8269L60.0569 14.2061ZM158.992 34.6969L163.248 19.7058C163.118 19.4192 162.933 19.0974 162.651 19.0974H161.553C160.865 19.0974 160.426 19.2783 160.333 19.6729L158.758 26.2534H154.669L156.15 20.5046C156.256 20.0958 156.575 19.2054 155.887 19.1725L154.411 19.0974C153.86 19.0692 153.63 19.3652 153.561 19.6213L149.475 34.6852L145.213 34.7415L149.579 19.0198C149.935 17.7324 150.966 16.8209 152.083 16.8209H157.76C158.708 16.8561 159.068 17.3659 159.157 18.0919C159.692 17.279 160.279 16.64 161.07 16.6916H162.795C163.332 16.6916 163.804 16.788 164.024 16.9736L165.034 13.4167L164.574 15.0354H147.731L145.349 23.9652C144.943 25.4899 143.857 26.3638 142.474 26.3403L138.473 26.2722L139.289 23.9393L140.449 23.9229C141.04 23.8336 141.195 23.4789 141.324 23.009L143.551 14.8098L143.49 15.0354H138.59L138.886 13.9053L136.29 23.8477C135.973 25.0623 136.093 25.4265 136.454 26.0584L141.362 34.6593L136.687 34.6546L132.441 26.9982C131.84 25.9175 131.866 24.7217 132.239 23.3755L134.788 14.2061L134.558 15.0354H131.809L132.373 12.726H172.251L171.638 15.0354H168.749L169.124 13.6916L163.217 34.7768L158.992 34.6969ZM104.415 35.3148L105.593 31.7367C104.211 29.9207 104.704 27.8651 107.032 27.4539C109.487 27.0193 110.111 27.7805 110.283 28.6732L111.815 28.7226C112.174 28.732 112.435 28.4054 112.569 27.9614L113.008 25.8023C113.116 25.2667 113.17 24.8015 112.641 24.7945L108.391 24.724C107.1 24.7029 106.706 23.789 106.95 22.6942L107.804 18.8836C108.072 17.6972 109.097 16.8303 110.473 16.8467L115.033 16.9031C115.693 16.9101 115.693 16.4097 115.822 15.9399L116.068 15.0354H99.8902L100.453 12.726H116.699L117.481 9.8645C117.753 8.87544 118.521 7.79239 119.945 7.80414L127.108 7.87462C128.648 8.38443 128.643 9.65776 127.937 11.3681L123.804 11.4691L124.163 10.1182L121.931 10.0783L121.18 12.726H129.134L128.606 15.0354H120.527L119.37 19.1185L112.785 19.0316C112.207 19.0245 111.778 19.2148 111.679 19.6283L111.247 21.4561C111.123 21.98 111.191 22.4052 111.649 22.4052L116.354 22.4029C117.326 22.4029 117.828 24.0263 117.434 25.4241L116.432 28.9575C116.077 30.2097 114.857 31.3773 113.592 31.3397L109.698 31.2246L108.626 35.3453L104.415 35.3148ZM43.6114 12.726L44.2334 10.527C44.3179 10.1441 44.3906 10.0595 44.8717 10.0806L46.7001 10.13C46.9512 10.1699 46.9606 10.3767 46.8972 10.5505L46.0007 13.7785L46.2917 12.726H43.6114ZM33.1273 28.8165H30.5386C29.7829 28.8165 29.4684 28.5017 29.7383 27.4751L31.0831 22.3723L30.6395 20.9768L33.1273 28.8165ZM33.9488 19.3346L37.359 19.2595L35.8921 24.5713L33.9488 19.3346Z" fill="#2C3F7E"/>
</svg>
