<svg width="624" height="96" viewBox="0 0 624 96" fill="none" xmlns="http://www.w3.org/2000/svg">
<path d="M141.1 54.8H154V95.2H161.1V54.8H174V48.4H147.5L141.1 54.8ZM75.3 69.4V95.2L169.9 0L75.3 69.4ZM212 70.2C213.7 68 214.6 65.4 214.6 62.2C214.6 58.2 213.3 54.9 210.6 52.4C208 49.9 204.4 48.6 200.1 48.6H182V95.3H189.1V75.6H198L207.8 95.3H216.1L205.3 74.6C208 73.8 210.2 72.3 212 70.2ZM189 69.5V54.9H199.5C201.9 54.9 203.8 55.6 205.2 56.9C206.7 58.2 207.4 60 207.4 62.3C207.4 64.6 206.7 66.4 205.2 67.7C203.7 69 201.8 69.6 199.4 69.6H189V69.5ZM0 95.2L67.2 27.6L0 69.4V95.2ZM284 95.2H313.9V88.8H291.1V74.8H310.5V68.5H291.1V54.9H313.9V48.5H284V95.2ZM365.5 48.5V54.9H378.3V95.3H385.4V54.9H398.2V48.5H365.5ZM350.3 81.3L342 68.7L328.7 48.5H322.2V95.2H329.3V62.3L336.7 73.5L350.9 95.2H357.4V48.5H350.3V81.3ZM271.4 52.9C268.5 50 264.4 48.5 259.3 48.5H242.9V95.2H259.3C264.4 95.2 268.4 93.7 271.4 90.8C273.4 88.8 274.7 86.3 275.3 83.4C275.9 80.5 276.2 76.5 276.2 71.5C276.2 66.6 275.9 62.7 275.4 60C274.7 57.3 273.4 54.9 271.4 52.9ZM268.6 80.7C268.3 82.8 267.6 84.5 266.5 85.7C264.6 87.8 261.9 88.8 258.6 88.8H250V54.8H258.6C262 54.8 264.6 55.9 266.5 57.9C267.6 59.1 268.3 60.7 268.6 62.7C268.9 64.6 269 67.6 269 71.5C269 75.5 268.9 78.5 268.6 80.7ZM224.9 95.2H232V48.5H224.9V95.2Z" fill="#067262"/>
<path d="M551.6 79C551.6 82.1 550.7 84.5 549 86.3C547.3 88.1 544.9 89 542.1 89C539.2 89 536.9 88.1 535.2 86.3C533.5 84.5 532.6 82.1 532.6 79V48.5H525.6V79.4C525.6 81.7 526 83.9 526.8 85.8C527.6 87.8 528.8 89.4 530.3 90.9C531.8 92.3 533.6 93.4 535.6 94.2C537.6 95 539.8 95.3 542.1 95.3C544.4 95.3 546.6 94.9 548.6 94.2C550.6 93.5 552.4 92.4 553.9 90.9C555.4 89.5 556.5 87.8 557.4 85.8C558.2 83.8 558.7 81.7 558.7 79.4V48.5H551.7V79M419.3 75.9H432V78.5C432 81.5 431.2 83.9 429.7 85.7C427.8 87.9 425.3 88.9 422.2 88.9C420.9 88.9 419.6 88.6 418.4 88.1C417.2 87.6 416.2 86.9 415.4 86.1C414.8 85.5 414.3 84.8 414 84.1C413.7 83.4 413.4 82.6 413.2 81.5C413 80.5 412.8 79.2 412.8 77.7C412.7 76.2 412.7 74.2 412.7 71.8C412.7 69.4 412.7 67.4 412.8 65.9C412.9 64.4 413 63.1 413.2 62.1C413.4 61.1 413.7 60.2 414 59.5C414.4 58.8 414.8 58.1 415.4 57.5C416.2 56.6 417.2 55.9 418.4 55.4C419.6 54.9 420.8 54.7 422.2 54.7C424.7 54.7 426.8 55.4 428.5 56.8C430.2 58.2 431.3 60.2 431.9 62.7H438.9C438.2 58.5 436.4 55.1 433.5 52.4C430.6 49.7 426.8 48.4 422.2 48.4C417.4 48.4 413.4 50 410.1 53.3C409 54.4 408.2 55.5 407.6 56.7C407 57.9 406.5 59.2 406.3 60.6C406 62 405.9 63.5 405.8 65.1C405.7 66.7 405.7 68.9 405.7 71.8C405.7 74.7 405.7 76.9 405.8 78.5C405.9 80.1 406 81.6 406.3 83C406.6 84.4 407 85.7 407.6 86.9C408.2 88.1 409.1 89.2 410.1 90.3C413.4 93.6 417.4 95.2 422.2 95.2C424.7 95.2 427 94.8 429.1 93.9C431.2 93.1 433.1 91.7 434.8 89.9C436.3 88.3 437.4 86.5 438 84.5C438.6 82.5 438.9 80 438.9 77V70H425.1L419.3 75.9ZM37.7 95.2L118.8 13.7L37.7 69.4V95.2ZM597.3 56.9C596.6 55.2 595.6 53.7 594.3 52.4C591.6 49.8 588 48.5 583.6 48.5H566.2V95.2H573.2V76.4H583.7C588.1 76.4 591.7 75.1 594.4 72.4C595.7 71.2 596.7 69.7 597.4 68C598.1 66.3 598.4 64.5 598.4 62.5C598.3 60.4 597.9 58.6 597.3 56.9ZM589.1 68C587.6 69.4 585.6 70 583.2 70H573.1V54.7H583.2C585.6 54.7 587.6 55.4 589.1 56.8C590.6 58.2 591.3 60.1 591.3 62.4C591.3 64.8 590.6 66.6 589.1 68ZM517.4 60.6C517.1 59.2 516.7 57.9 516.1 56.7C515.5 55.5 514.7 54.4 513.7 53.4C510.4 50.1 506.4 48.5 501.6 48.5C496.8 48.5 492.8 50.1 489.5 53.4C488.4 54.5 487.6 55.6 487 56.8C486.4 58 486 59.3 485.7 60.7C485.4 62.1 485.2 63.6 485.2 65.2C485.1 66.8 485.1 69 485.1 71.9C485.1 74.8 485.1 77 485.2 78.6C485.3 80.2 485.4 81.7 485.7 83.1C486 84.5 486.4 85.8 487 87C487.6 88.2 488.5 89.3 489.6 90.4C492.9 93.7 496.9 95.3 501.7 95.3C506.5 95.3 510.6 93.7 513.8 90.4C514.8 89.4 515.6 88.3 516.2 87.1C516.8 86 517.2 84.7 517.5 83.2C517.8 81.8 517.9 80.3 518 78.6C518.1 77 518.1 74.7 518.1 71.9C518.1 69.1 518.1 66.8 518 65.2C517.9 63.5 517.7 62 517.4 60.6ZM511 77.7C510.9 79.3 510.8 80.5 510.6 81.5C510.4 82.5 510.1 83.4 509.7 84.1C509.3 84.8 508.9 85.5 508.3 86.1C507.5 87 506.5 87.6 505.3 88.2C504.1 88.7 502.8 89 501.5 89C500.2 89 498.9 88.7 497.7 88.2C496.5 87.7 495.5 87 494.7 86.1C494.1 85.5 493.6 84.8 493.3 84.1C493 83.4 492.7 82.5 492.5 81.5C492.3 80.5 492.2 79.2 492.1 77.7C492 76.2 492 74.2 492 71.8C492 69.4 492 67.5 492.1 65.9C492.2 64.3 492.3 63.1 492.5 62.1C492.7 61.1 492.9 60.2 493.3 59.5C493.7 58.8 494.1 58.1 494.7 57.5C495.5 56.6 496.5 55.9 497.7 55.4C498.9 54.9 500.2 54.7 501.5 54.7C502.8 54.7 504.1 55 505.3 55.4C506.5 55.9 507.5 56.6 508.3 57.5C508.9 58.1 509.4 58.8 509.7 59.5C510 60.2 510.3 61 510.5 62.1C510.7 63.1 510.8 64.4 510.9 65.9C511 67.4 511 69.4 511 71.7C511.1 74.2 511 76.2 511 77.7ZM475.8 69.8C477.5 67.7 478.4 65 478.4 61.9C478.4 57.9 477.1 54.7 474.5 52.2C471.9 49.7 468.4 48.5 464.1 48.5H446.3V95.2H453.3V75.1H462L472.1 95.2H480.2L469.2 74.1C471.9 73.4 474.1 71.9 475.8 69.8ZM453.2 69.1V54.7H463.5C465.8 54.7 467.7 55.4 469.1 56.6C470.5 57.9 471.3 59.7 471.3 61.9C471.3 64.1 470.6 65.9 469.2 67.1C467.8 68.4 465.9 69 463.5 69H453.2V69.1Z" fill="#FCB717"/>
<path d="M598.9 39.3H602.8V51.4H604.9V39.3H608.8V37.4H598.9V39.3ZM621.5 37.3L617.5 46L613.4 37.3H611.3V51.3H613.4V41.9L616.7 48.7H618.3L621.5 41.9V51.3H623.6V37.3H621.5Z" fill="#231815"/>
</svg>
