<svg width="159" height="151" viewBox="0 0 159 151" fill="none" xmlns="http://www.w3.org/2000/svg">
<path fill-rule="evenodd" clip-rule="evenodd" d="M88.1708 42.5662L92.336 41.7915L91.6555 46.6842C88.7894 49.1509 82.8715 53.5543 77.7783 53.5543H77.0773C70.1696 53.5543 63.8805 47.4385 63.8805 40.5072V37.0823C63.8805 30.8442 71.0356 23.8721 77.0773 24.7284L88.8718 26.135L91.8411 17.9194C88.212 17.0632 84.5211 15.1061 80.5414 15.1061C66.6848 15.1061 54.1479 23.9333 54.1479 36.3892V39.8141C54.1479 52.1681 64.0867 62.4631 76.3556 62.4631H79.8197C86.1088 62.4631 87.9852 60.0167 92.3154 59.0382V62.4631H102.027V32.2712H90.9132C89.3461 32.2712 89.3873 32.8216 88.1295 33.6371C86.8717 32.8013 86.913 32.2712 85.3458 32.2712H78.3969V47.3773H86.0263L88.1089 42.5662" fill="#F58220"/>
<path fill-rule="evenodd" clip-rule="evenodd" d="M108.316 107.761C115.677 107.761 129.616 100.137 132.606 96.1002L100.707 92.9403C95.7792 92.8384 85.0775 95.0809 83.3042 97.4864C89.1396 99.0358 93.078 107.781 108.296 107.781" fill="#F58220"/>
<path fill-rule="evenodd" clip-rule="evenodd" d="M80.5413 151H82.6239L82.5208 122.174L82.6239 118.056H86.088V115.997H74.2935V118.056C77.0359 118.056 79.8402 118.158 79.8402 120.808V140.705C75.84 139.278 58.7667 115.997 56.2304 115.997H48.6011V118.749L53.4674 119.34L54.3128 126.965L54.1478 146.882C50.1888 147.799 48.9104 146.535 48.6011 150.307H61.0967C63.0762 150.307 62.3752 150.083 63.1793 148.941L56.9934 146.678L56.0655 124.233L80.5619 151" fill="#F58220"/>
<path fill-rule="evenodd" clip-rule="evenodd" d="M26.3937 96.1002C29.4042 100.157 43.3432 107.761 50.6839 107.761C65.9014 107.761 69.8398 99.0154 75.6752 97.466C73.9019 95.0809 63.2002 92.818 58.3133 93.348L26.373 96.1002" fill="#F58220"/>
<path fill-rule="evenodd" clip-rule="evenodd" d="M17.3619 129.044C17.3619 123.744 23.7334 117.383 29.8575 117.383H32.6412C39.4458 117.383 39.0746 123.886 43.0543 124.926V117.383C39.2602 116.507 36.2909 114.631 31.2597 114.631H29.1771C19.7744 114.631 10.4336 123.214 10.4336 132.469V133.835C10.4336 143.396 19.1764 150.307 29.1771 150.307C36.2291 150.307 43.7553 149.39 43.7553 142.071V135.894H48.6216V133.835H31.2391C31.9401 136.424 34.2702 136.322 37.4869 136.587C37.8581 138.136 38.188 138.157 38.188 140.012V142.071C38.188 146.169 35.3837 147.555 31.2391 147.555H29.8575C23.2798 147.555 17.3619 140.909 17.3619 134.508V129.024" fill="#F58220"/>
<path fill-rule="evenodd" clip-rule="evenodd" d="M109.698 133.162L111.636 138.32L112.481 137.953V126.965C112.481 125.069 111.945 125.314 110.399 124.906C110.337 127.393 110.11 130.39 107.615 130.39H98.5837V120.095C98.5837 118.505 99.0579 118.036 100.666 118.036H108.997C110.873 118.036 110.914 118.362 112.461 118.729L113.327 123.499H115.925V117.343C115.925 113.449 98.0269 115.977 93.7174 115.977H88.8511V118.036L92.9957 118.831V145.496C93.0163 150.042 89.346 144.578 88.8511 150.307L95.0783 149.471L104.13 149.634C102.811 144.721 98.5837 149.002 98.5837 144.823V133.162H109.698Z" fill="#F58220"/>
<path fill-rule="evenodd" clip-rule="evenodd" d="M124.276 131.796C124.276 125.171 129.019 117.383 135.39 117.383H136.091C144.937 117.383 142.422 123.173 147.205 123.56V118.749C147.205 116.16 140.916 114.631 138.174 114.631H135.39C126.647 114.631 118.028 123.479 118.028 131.796V134.548C118.028 142.377 126.091 150.327 133.988 150.327H137.452L146.504 149.084L148.051 140.766C143.886 141.785 144.525 147.596 136.751 147.596H133.967C126.771 147.596 124.256 139.278 124.256 131.817" fill="#F58220"/>
<path fill-rule="evenodd" clip-rule="evenodd" d="M128.441 92.6549C139.514 92.6549 144.69 84.1335 148.566 76.876C144.525 77.9361 144.298 78.9147 138.236 79.6893C135.164 80.097 130.607 80.5048 127.307 81.2591C120.42 82.8084 114.585 88.1292 110.378 89.23C112.11 91.5744 119.327 92.6549 123.575 92.6549H128.441Z" fill="#F58220"/>
<path fill-rule="evenodd" clip-rule="evenodd" d="M10.4131 76.876C14.2896 84.1335 19.4858 92.6549 30.5381 92.6549H35.4044C39.6521 92.6549 46.8691 91.5744 48.6011 89.23C44.106 88.0476 38.1881 82.4822 31.0948 81.1367C27.5688 80.4844 23.4861 80.0155 20.1044 79.6486C14.6608 79.037 14.0422 77.8342 10.4131 76.876Z" fill="#F58220"/>
<path fill-rule="evenodd" clip-rule="evenodd" d="M85.4077 92.6549C93.0165 92.6549 100.048 88.8019 103.986 84.949C108.234 80.7698 108.399 71.8611 109.017 64.5221C92.0267 68.4362 95.4084 83.2977 85.4077 92.6549Z" fill="#F58220"/>
<path fill-rule="evenodd" clip-rule="evenodd" d="M73.5922 92.6549C63.6122 83.2977 66.9732 68.4362 49.9824 64.5221C51.1165 73.2269 50.168 80.2602 55.3436 85.2955C59.0346 88.8835 66.4165 92.6549 73.5716 92.6549" fill="#F58220"/>
<path fill-rule="evenodd" clip-rule="evenodd" d="M130.524 75.5102C150.01 75.5102 158.299 69.8429 158.299 50.8022C155.928 52.5146 155.206 55.1445 151.597 57.2238C148.731 58.8751 145.865 60.2002 143.308 62.0757C138.628 65.4598 133.184 70.5564 130.545 75.5306" fill="#F58220"/>
<path fill-rule="evenodd" clip-rule="evenodd" d="M7.40264 57.2035C3.79416 55.1445 3.07246 52.5147 0.701172 50.7818C0.701172 69.8021 8.96975 75.4898 28.4762 75.4898C25.8162 70.5156 20.3932 65.4191 15.7125 62.035C13.135 60.1798 10.2894 58.8343 7.42326 57.1831" fill="#F58220"/>
<path fill-rule="evenodd" clip-rule="evenodd" d="M0 37.7551V42.5662C3.1136 46.99 1.95889 47.3366 6.76332 51.6788C8.37168 53.1262 15.1969 57.1627 17.3619 57.6723C15.8979 51.4749 14.6607 45.3795 11.7946 40.5276C8.06238 34.1875 6.22721 34.1875 3.58786 25.2584L0 37.7755" fill="#F58220"/>
<path fill-rule="evenodd" clip-rule="evenodd" d="M159 42.5662V37.7551L155.412 25.238C152.773 34.1671 150.938 34.1671 147.206 40.5072C144.339 45.3795 143.102 51.4546 141.638 57.6519C143.824 57.1423 150.628 53.1058 152.237 51.6584C157.041 47.3366 155.887 46.9696 159 42.5458" fill="#F58220"/>
<path fill-rule="evenodd" clip-rule="evenodd" d="M36.1055 73.4512C36.1055 79.1797 44.5184 85.6625 50.6837 85.8052C44.8483 80.7902 47.9 78.8739 47.9 70.6991C47.9 65.7249 43.4255 57.9781 39.5696 56.9792C39.5696 64.1755 36.1055 67.4577 36.1055 72.7581V73.4512Z" fill="#F58220"/>
<path fill-rule="evenodd" clip-rule="evenodd" d="M108.316 85.8052C115.265 85.6625 122.895 79.0778 122.895 72.0853C122.895 67.8858 119.431 63.829 119.431 56.9792C115.327 58.0597 111.1 65.9491 111.1 71.3922C111.1 79.2205 114.152 80.7902 108.316 85.8052Z" fill="#F58220"/>
<path fill-rule="evenodd" clip-rule="evenodd" d="M122.193 52.1681C122.193 60.241 127.74 66.7442 127.74 74.1239C129.761 72.7784 134.689 65.6841 134.689 62.4631V59.0382C134.689 55.4502 125.369 46.0726 122.894 43.2593C122.523 44.8087 122.193 44.8291 122.193 46.6842V52.1681Z" fill="#F58220"/>
<path fill-rule="evenodd" clip-rule="evenodd" d="M31.2389 74.1239C31.2389 66.7238 36.7857 60.2206 36.7857 52.1681V46.6842C36.7857 44.8291 36.4558 44.7883 36.0846 43.2593C33.6102 46.0726 24.29 55.4706 24.29 59.0382V62.4631C24.29 65.6841 29.1976 72.7988 31.2389 74.1239Z" fill="#F58220"/>
<path fill-rule="evenodd" clip-rule="evenodd" d="M20.8261 56.9792C22.6819 54.8794 22.8057 52.7797 24.8058 50.6187C26.5585 48.7228 28.1875 47.3366 30.0432 45.5018C34.992 40.5684 34.724 39.5083 34.724 30.2122C31.033 32.8828 31.3423 34.2691 25.6924 37.062C22.7438 38.5094 18.7642 41.0576 18.7642 45.2979V48.0501C18.7642 51.9642 20.5375 53.2893 20.8468 56.9792" fill="#F58220"/>
<path fill-rule="evenodd" clip-rule="evenodd" d="M134.524 50.9653C136.195 52.9427 136.421 55.0017 138.153 56.9792C138.463 53.2893 140.236 51.9846 140.236 48.0501V45.2979C140.236 40.6295 136.277 38.489 132.834 36.8377C127.493 34.2487 127.575 32.5974 124.276 30.2122C124.276 39.8752 124.132 40.7722 129.308 45.828C130.998 47.4997 133.081 49.2529 134.524 50.9653Z" fill="#F58220"/>
<path fill-rule="evenodd" clip-rule="evenodd" d="M139.555 21.9558C139.555 15.9419 140.009 8.3583 136.916 5.34115C136.751 5.17806 122.998 0.856205 122.193 0.672729C122.193 12.0482 133.081 14.5965 139.555 21.9558Z" fill="#F58220"/>
<path fill-rule="evenodd" clip-rule="evenodd" d="M36.8063 0H36.1052C28.8264 9.82611 19.4443 -7.1963 19.4443 21.9559C26.2077 14.2499 36.8063 12.2521 36.8063 0Z" fill="#F58220"/>
<path fill-rule="evenodd" clip-rule="evenodd" d="M6.94873 18.531V19.8968C6.94873 24.1168 11.7119 33.0867 14.5781 35.003C15.3616 31.6596 16.6607 28.9687 16.6607 24.708C16.6607 21.2627 13.877 17.6951 13.877 13.0471C13.877 10.4581 14.3307 11.7424 14.5781 8.92911C9.83552 9.31644 6.94873 13.4548 6.94873 18.531Z" fill="#F58220"/>
<path fill-rule="evenodd" clip-rule="evenodd" d="M145.102 13.0471C145.102 17.9194 142.318 21.2219 142.318 26.0942C142.318 30.9665 143.617 31.7208 144.401 35.0233C148.092 32.577 151.35 26.0942 151.35 19.9172V15.7992C151.35 12.0278 148.03 9.2349 144.401 8.92911C144.628 11.7424 145.102 10.4581 145.102 13.0471Z" fill="#F58220"/>
<path fill-rule="evenodd" clip-rule="evenodd" d="M140.236 35.6961C140.236 18.7756 136.586 23.7498 122.874 20.59C122.998 25.8292 126.153 27.9698 129.905 29.4376C136.153 31.8635 135.823 32.7809 140.236 35.6961Z" fill="#F58220"/>
<path fill-rule="evenodd" clip-rule="evenodd" d="M18.7437 35.6961C22.8264 32.9847 22.9089 31.7819 28.5587 29.621C32.7239 28.0309 35.9819 26.0534 36.1056 20.6104C22.4552 23.7498 18.7437 18.9795 18.7437 35.7165" fill="#F58220"/>
</svg>
