<svg width="207" height="194" viewBox="0 0 207 194" fill="none" xmlns="http://www.w3.org/2000/svg">
<mask id="mask0_343_3010" style="mask-type:luminance" maskUnits="userSpaceOnUse" x="0" y="0" width="207" height="194">
<path d="M0 193.337H206.973V-1.52588e-05H0V193.337Z" fill="white"/>
</mask>
<g mask="url(#mask0_343_3010)">
<path fill-rule="evenodd" clip-rule="evenodd" d="M103.648 169.694C143.948 169.692 176.499 137.171 176.499 97.0562C176.499 56.941 143.883 24.4181 103.646 24.4207C63.4113 24.4207 30.7944 56.941 30.7944 97.0562C30.7944 137.174 63.414 169.694 103.648 169.694Z" fill="white"/>
<path fill-rule="evenodd" clip-rule="evenodd" d="M103.649 169.526C63.5081 169.526 30.9642 137.081 30.9642 97.0591C30.9642 57.0349 63.5055 24.5899 103.646 24.5873C143.789 24.5873 176.33 57.0323 176.33 97.0565C176.333 137.078 143.792 169.526 103.649 169.526ZM194.638 102.97V102.843C194.609 101.505 193.624 101.151 192.196 100.702C189.718 99.9172 186.16 99.5145 185.115 97.6099C185.134 94.9961 185.024 92.4055 184.795 89.8436C185.558 87.7546 189.17 87.0219 191.62 85.9955C193.134 85.3564 194.127 84.8887 193.796 83.2206L192.086 74.9268C191.729 73.2665 190.63 73.2249 188.985 73.2379C186.369 73.2535 182.83 73.9784 181.264 72.4506C180.479 70.0108 179.585 67.6152 178.579 65.2741C178.579 63.0136 181.845 61.1818 183.877 59.4279C185.123 58.3548 185.921 57.6039 185.092 56.1203L180.894 48.7593C180.039 47.2886 178.981 47.59 177.422 48.1071C174.9 48.9438 171.697 50.7652 169.742 49.6947C168.286 47.681 166.74 45.7323 165.106 43.8589C164.27 41.6893 166.868 38.8831 168.283 36.5447C169.135 35.1442 169.662 34.1828 168.413 33.0266L162.138 27.3181C160.869 26.1852 159.957 26.7959 158.633 27.7676C156.488 29.3448 154.002 32.0756 151.808 31.6443C149.809 30.1814 147.74 28.8017 145.6 27.5182C144.138 25.715 145.738 22.2488 146.361 19.5882C146.734 17.9928 146.937 16.9171 145.392 16.2026L137.655 12.7079C136.096 12.0193 135.419 12.8819 134.462 14.2149C132.909 16.3793 131.387 19.7519 129.156 20.0065C126.837 19.2452 124.465 18.5852 122.05 18.0292C120.033 16.8028 120.489 12.9651 120.254 10.2161C120.116 8.58435 119.975 7.49826 118.284 7.293L109.843 6.35501C109.728 6.34462 109.619 6.33684 109.517 6.33684H109.447C108.084 6.35503 107.73 7.33977 107.271 8.77142C106.463 11.3178 106.064 15.0099 104.006 15.9245C101.53 15.909 99.0751 16.0025 96.6462 16.2078C94.3634 15.6439 93.6102 11.8686 92.5418 9.33267C91.9033 7.82306 91.4342 6.8331 89.7637 7.15788L81.4427 8.86238C79.7749 9.21574 79.7358 10.3122 79.7462 11.9518C79.7619 14.6124 80.5176 18.2318 78.8654 19.744C76.4705 20.5054 74.1172 21.3732 71.8187 22.3475C69.5202 22.4099 67.6647 19.1153 65.89 17.0704C64.8137 15.831 64.0606 15.0307 62.5726 15.8596L55.1897 20.0455C53.7147 20.8977 54.017 21.9526 54.5356 23.5064C55.3695 26.0086 57.1833 29.1811 56.1409 31.1324C54.0848 32.603 52.0938 34.1672 50.181 35.8223C48.0206 36.5499 45.2504 34.0087 42.9388 32.616C41.5342 31.7664 40.57 31.2415 39.4103 32.4861L33.6849 38.7428C32.5486 40.0056 33.1611 40.915 34.1357 42.2349C35.6837 44.3292 38.3366 46.7482 38.0395 48.9048C36.4968 50.9808 35.053 53.1348 33.7083 55.3616C31.8554 56.588 28.5119 55.0706 25.932 54.4704C24.3319 54.0962 23.253 53.8935 22.5363 55.4343L19.0312 63.1487C18.3406 64.7025 19.2058 65.378 20.5427 66.3316C22.6354 67.8282 25.8512 69.2936 26.3046 71.3905C25.4759 73.8641 24.7645 76.3974 24.1729 78.9827C22.7683 80.6768 19.1537 80.2741 16.5321 80.4949C14.8929 80.6326 13.8036 80.7729 13.6003 82.4592L12.6569 90.8751C12.4823 92.564 13.5143 92.9434 15.0805 93.4371C17.5171 94.2088 20.9988 94.6115 22.1063 96.4355C22.0777 99.1273 22.1819 101.798 22.4164 104.436C21.5408 106.416 18.0462 107.141 15.6564 108.143C14.1423 108.78 13.1494 109.25 13.4778 110.916L15.19 119.21C15.547 120.87 16.6441 120.912 18.2885 120.899C20.8033 120.883 24.1703 120.213 25.8199 121.514C26.6408 124.118 27.5946 126.672 28.6657 129.164C28.392 131.289 25.3378 133.035 23.3937 134.711C22.1506 135.782 21.3506 136.532 22.1819 138.019L26.3776 145.377C27.235 146.848 28.2904 146.546 29.8514 146.029C32.2307 145.242 35.2146 143.571 37.1874 144.286C38.777 146.515 40.4814 148.659 42.2873 150.717C42.6626 152.816 40.3094 155.407 38.9855 157.592C38.1359 158.995 37.6095 159.954 38.8578 161.11L45.1331 166.816C46.3996 167.951 47.3117 167.341 48.6356 166.369C50.637 164.898 52.9355 162.422 55.0177 162.448C57.2407 164.098 59.5548 165.636 61.9523 167.057C62.8931 168.944 61.4832 172.093 60.9073 174.548C60.5347 176.144 60.3288 177.219 61.8768 177.934L69.614 181.429C71.1698 182.117 71.8474 181.254 72.8064 179.922C74.2475 177.913 75.6626 174.865 77.6406 174.234C80.257 175.109 82.9386 175.858 85.6801 176.468C87.1656 177.973 86.7981 181.405 87.0118 183.92C87.1499 185.555 87.2906 186.641 88.9819 186.843L97.4228 187.784C99.1194 187.958 99.4972 186.929 99.9924 185.368C100.746 183.003 101.144 179.651 102.846 178.453C105.647 178.482 108.423 178.368 111.164 178.116C113.046 179.085 113.76 182.465 114.745 184.793C115.381 186.303 115.853 187.293 117.523 186.966L125.844 185.258C127.509 184.902 127.548 183.809 127.538 182.169C127.52 179.69 126.863 176.383 128.106 174.717C130.751 173.883 133.344 172.916 135.877 171.825C137.983 172.137 139.721 175.154 141.389 177.076C142.463 178.318 143.218 179.113 144.706 178.287L152.089 174.099C153.564 173.249 153.262 172.194 152.743 170.638C151.949 168.258 150.265 165.267 151.003 163.3C153.215 161.726 155.344 160.039 157.387 158.249C159.501 157.823 162.128 160.198 164.338 161.528C165.745 162.378 166.709 162.903 167.866 161.658L173.592 155.401C174.73 154.136 174.115 153.227 173.141 151.909C171.64 149.875 169.091 147.534 169.216 145.426C170.813 143.27 172.309 141.028 173.693 138.707C175.569 137.624 178.819 139.084 181.344 139.671C182.945 140.045 184.026 140.248 184.74 138.707L188.248 130.993C188.938 129.439 188.071 128.764 186.736 127.81C184.654 126.321 181.464 124.866 180.98 122.79C181.806 120.301 182.517 117.755 183.106 115.156C184.511 113.462 188.123 113.865 190.744 113.644C192.384 113.506 193.473 113.366 193.676 111.68L194.619 103.264C194.63 103.16 194.635 103.061 194.638 102.97Z" fill="#EEB600"/>
<path fill-rule="evenodd" clip-rule="evenodd" d="M103.648 163.756C140.653 163.754 170.544 133.891 170.544 97.0552C170.544 60.2191 140.591 30.3568 103.645 30.3568C66.7024 30.3594 36.7489 60.2217 36.7515 97.0578C36.7515 133.894 66.7024 163.756 103.648 163.756Z" fill="#193273"/>
<path d="M103.648 164.147C66.4899 164.147 36.3599 134.106 36.3599 97.0579C36.3599 60.0098 66.4874 29.9665 103.643 29.9639C140.801 29.9639 170.936 60.0047 170.936 97.0529C170.936 134.101 140.866 164.144 103.648 164.147ZM103.648 163.365C140.441 163.363 170.152 133.677 170.152 97.0529C170.152 60.4288 140.376 30.7505 103.643 30.7505C66.9127 30.7531 37.1437 60.4339 37.1437 97.0579C37.1437 133.682 66.9152 163.365 103.648 163.365Z" fill="#193273"/>
<path fill-rule="evenodd" clip-rule="evenodd" d="M99.6928 32.1476V34.5016H86.436L99.6928 32.1476Z" fill="#EEB600"/>
<path fill-rule="evenodd" clip-rule="evenodd" d="M41.1381 79.2158C47.7131 79.2158 71.9412 79.2158 75.7981 79.2158C80.2231 79.2158 78.8784 80.8969 79.2407 82.5494C79.7306 84.8047 75.5036 84.5683 74.9121 83.9811C73.5335 82.604 72.5536 82.2168 72.5536 82.2168H40.3745L41.1381 79.2158Z" fill="#EEB600"/>
<path fill-rule="evenodd" clip-rule="evenodd" d="M42.6568 74.5249H78.8466V76.879H41.8594L42.6568 74.5249Z" fill="#EEB600"/>
<path fill-rule="evenodd" clip-rule="evenodd" d="M44.6869 69.7969L78.4531 69.7943V72.1483L43.707 72.1509L44.6869 69.7969Z" fill="#EEB600"/>
<path fill-rule="evenodd" clip-rule="evenodd" d="M47.0748 65.0911L78.6779 65.0885V67.4426L45.8604 67.4452L47.0748 65.0911Z" fill="#EEB600"/>
<path fill-rule="evenodd" clip-rule="evenodd" d="M50.0994 60.3852L79.305 60.3826V62.7367L48.5645 62.7393L50.0994 60.3852Z" fill="#EEB600"/>
<path fill-rule="evenodd" clip-rule="evenodd" d="M53.6064 55.6794L78.4548 55.6768V58.0309L51.8213 58.0335L53.6064 55.6794Z" fill="#EEB600"/>
<path fill-rule="evenodd" clip-rule="evenodd" d="M57.9311 50.9731L78.4535 50.9705V53.3246L55.6509 53.3271L57.9311 50.9731Z" fill="#EEB600"/>
<path fill-rule="evenodd" clip-rule="evenodd" d="M63.296 46.2665H100.062V48.6179L60.4424 48.6205L63.296 46.2665Z" fill="#EEB600"/>
<path fill-rule="evenodd" clip-rule="evenodd" d="M70.0828 41.5606H100.023V43.912L66.4136 43.9146L70.0828 41.5606Z" fill="#EEB600"/>
<path fill-rule="evenodd" clip-rule="evenodd" d="M79.5215 36.8544H99.9396V39.2059L74.2417 39.2085L79.5215 36.8544Z" fill="#EEB600"/>
<path fill-rule="evenodd" clip-rule="evenodd" d="M106.97 32.1476V34.5016H120.706L106.97 32.1476Z" fill="#EEB600"/>
<path fill-rule="evenodd" clip-rule="evenodd" d="M166.118 79.2158C159.543 79.2158 136.918 79.2158 133.061 79.2158C128.636 79.2158 129.981 80.8969 129.619 82.5494C129.129 84.8047 133.356 84.5683 133.947 83.9811C135.328 82.604 136.306 82.2168 136.306 82.2168H166.859L166.118 79.2158Z" fill="#EEB600"/>
<path fill-rule="evenodd" clip-rule="evenodd" d="M164.532 74.5249H129.59V76.879H165.353L164.532 74.5249Z" fill="#EEB600"/>
<path fill-rule="evenodd" clip-rule="evenodd" d="M162.568 69.7969L129.537 69.7943V72.1483L163.593 72.1509L162.568 69.7969Z" fill="#EEB600"/>
<path fill-rule="evenodd" clip-rule="evenodd" d="M160.158 65.0911L129.537 65.0885V67.4426L161.419 67.4452L160.158 65.0911Z" fill="#EEB600"/>
<path fill-rule="evenodd" clip-rule="evenodd" d="M157.176 60.3852L128.379 60.3826V62.7367L158.755 62.7393L157.176 60.3852Z" fill="#EEB600"/>
<path fill-rule="evenodd" clip-rule="evenodd" d="M153.583 55.6794L129.714 55.6768V58.0309L155.433 58.0335L153.583 55.6794Z" fill="#EEB600"/>
<path fill-rule="evenodd" clip-rule="evenodd" d="M149.302 50.9731L129.583 50.9705V53.3246L151.562 53.3271L149.302 50.9731Z" fill="#EEB600"/>
<path fill-rule="evenodd" clip-rule="evenodd" d="M144.015 46.2665H108.388L114.669 48.6179L146.746 48.6205L144.015 46.2665Z" fill="#EEB600"/>
<path fill-rule="evenodd" clip-rule="evenodd" d="M137.196 41.5606H106.93V43.912L140.798 43.9146L137.196 41.5606Z" fill="#EEB600"/>
<path fill-rule="evenodd" clip-rule="evenodd" d="M127.639 36.8544H106.768V39.2059L132.924 39.2085L127.639 36.8544Z" fill="#EEB600"/>
<path fill-rule="evenodd" clip-rule="evenodd" d="M61.3892 86.7834C61.3892 86.7834 61.5847 84.8009 62.9633 84.8009C64.3392 84.8009 66.9661 84.7749 68.4411 84.7749C69.0822 84.7749 70.6067 85.6063 70.2601 87.9604C70.2601 87.9604 70.2627 116.097 70.2627 117.766C70.2601 119.431 71.6387 118.698 71.6387 118.698C71.6387 118.698 77.0462 114.333 82.6517 118.353C83.6889 119.096 84.257 119.836 84.5202 120.216C85.9457 122.276 87.4702 119.873 87.4702 119.873C89.1407 118.158 94.5795 114.658 100.941 120.117C100.941 120.117 104.089 122.177 103.792 127.569L103.779 147.03C103.779 147.03 103.891 150.065 102.072 150.065C99.2573 150.065 95.6323 150.055 95.6323 150.055C95.6323 150.055 93.7768 150.12 93.9723 147.373L93.9514 129.923C93.9514 129.923 94.2537 126.719 90.3864 126.719C88.4683 126.719 87.1758 129.006 87.1758 129.725C87.1758 129.725 87.1966 146.131 87.1966 147.438C87.1966 149.27 86.2558 150.073 84.8799 150.073C83.1104 150.073 82.2582 150.096 79.7017 150.096C77.9322 150.096 77.7159 149.007 77.7159 147.438C77.7159 144.692 77.6977 131.1 77.6977 131.1C77.6977 131.1 78.0756 127.013 73.7365 127.117C71.967 127.117 71.0471 128.289 70.4139 131.492L70.4086 147.441C70.3435 148.353 70.2445 148.966 70.1298 149.14C69.0822 150.707 65.3452 149.922 63.904 148.485C63.4532 148.038 62.4837 147.95 61.3032 146.251L61.3892 86.7834Z" fill="#EEB600"/>
<path fill-rule="evenodd" clip-rule="evenodd" d="M144.207 85.2797H137.814C136.094 85.2797 136.243 87.1427 136.243 87.1427L136.269 117.933C136.269 117.933 136.099 119.949 133.981 119.266C131.526 117.886 128.696 117.091 125.673 117.091C116.304 117.091 108.708 124.665 108.708 134.006C108.71 143.349 116.307 150.923 125.675 150.923C128.808 150.923 134.226 148.663 134.226 148.663C134.226 148.663 135.635 149.78 136.803 150.671C138.202 151.739 141.877 150.144 145.51 146.462L145.682 87.1427C145.682 87.1427 145.83 85.2797 144.207 85.2797Z" fill="#EEB600"/>
<path fill-rule="evenodd" clip-rule="evenodd" d="M127.811 125.281C122.896 125.281 118.912 129.254 118.912 134.157C118.912 139.057 122.896 143.027 127.811 143.027C132.726 143.027 136.713 139.054 136.713 134.157C136.711 129.254 132.726 125.281 127.811 125.281Z" fill="#193273"/>
<path fill-rule="evenodd" clip-rule="evenodd" d="M76.0493 113.075V115.429H99.0318C97.3301 114.847 95.743 114.036 94.2576 113.075H76.0493Z" fill="#EEB600"/>
<path fill-rule="evenodd" clip-rule="evenodd" d="M89.3149 108.369H76.0503V110.723H91.7255C90.8785 109.98 90.0759 109.193 89.3149 108.369Z" fill="#EEB600"/>
<path fill-rule="evenodd" clip-rule="evenodd" d="M76.0493 103.663V106.017H86.7288C86.119 105.243 85.5404 104.456 84.9958 103.663H76.0493Z" fill="#EEB600"/>
<path fill-rule="evenodd" clip-rule="evenodd" d="M76.0493 98.9569V101.311H83.4765C82.9917 100.513 82.5409 99.7259 82.1213 98.9569H76.0493Z" fill="#EEB600"/>
<path fill-rule="evenodd" clip-rule="evenodd" d="M76.0493 94.2509V96.6049H80.9043C80.4952 95.7683 80.1329 94.9836 79.8124 94.2509H76.0493Z" fill="#EEB600"/>
<path fill-rule="evenodd" clip-rule="evenodd" d="M75.6558 89.5451V91.8992H78.8325C78.2618 90.4389 77.9855 89.5477 77.9855 89.5477L75.6558 89.5451Z" fill="#EEB600"/>
<path fill-rule="evenodd" clip-rule="evenodd" d="M131.127 113.075V115.429H107.563C109.31 114.847 110.936 114.036 112.458 113.075H131.127Z" fill="#EEB600"/>
<path fill-rule="evenodd" clip-rule="evenodd" d="M117.861 108.369H131.126V110.723H115.451C116.298 109.98 117.1 109.193 117.861 108.369Z" fill="#EEB600"/>
<path fill-rule="evenodd" clip-rule="evenodd" d="M131.127 103.663V106.017H120.046C120.68 105.243 121.279 104.456 121.845 103.663H131.127Z" fill="#EEB600"/>
<path fill-rule="evenodd" clip-rule="evenodd" d="M131.127 98.9569V101.311H123.7C124.184 100.513 124.635 99.7259 125.055 98.9569H131.127Z" fill="#EEB600"/>
<path fill-rule="evenodd" clip-rule="evenodd" d="M131.127 94.2509V96.6049H126.272C126.681 95.7683 127.043 94.9836 127.364 94.2509H131.127Z" fill="#EEB600"/>
<path fill-rule="evenodd" clip-rule="evenodd" d="M131.52 89.5451V91.8992H127.945C128.586 90.4389 128.901 89.5477 128.901 89.5477L131.52 89.5451Z" fill="#EEB600"/>
<path fill-rule="evenodd" clip-rule="evenodd" d="M103.443 53.0169L129.978 67.4374C129.978 67.4374 131.474 81.3358 128.534 91.1054C125.204 102.179 115.137 115.15 103.443 116.577V53.0169Z" fill="#EEB600"/>
<path fill-rule="evenodd" clip-rule="evenodd" d="M103.613 53.0169L77.1103 67.479C77.1103 67.479 75.5831 81.3358 78.5201 91.1054C81.8532 102.179 91.9176 115.15 103.613 116.577V53.0169Z" fill="#193273"/>
<path d="M104.006 117.02L103.568 116.965C97.5908 116.236 92.0794 112.576 87.6417 107.723C83.2039 102.871 79.8297 96.8208 78.144 91.2201C75.1668 81.3169 76.7188 67.4345 76.7188 67.4345L76.7442 67.2315L104.006 52.3572V53.017V117.02ZM103.222 116.031V53.6767L77.4925 67.7187C77.4572 68.049 76.0357 81.4731 78.8973 90.9917C80.5446 96.465 83.8702 102.437 88.2219 107.196C92.458 111.827 97.6736 115.206 103.222 116.031Z" fill="#193273"/>
<path fill-rule="evenodd" clip-rule="evenodd" d="M91.2809 80.3769L88.3439 80.3717L88.3517 75.6116L91.2887 75.5908L91.2809 80.3769ZM91.7682 72.9535H80.5571L80.5337 75.596L84.4896 75.5934L84.4584 80.5354C84.4584 80.5354 80.7708 80.2911 81.3442 82.627C81.6751 83.9807 81.9071 87.4858 85.0473 88.1354C86.4963 88.4342 87.338 87.8418 87.7055 86.9636L87.7028 82.9076L90.5877 82.8894V90.8636H93.8921L93.9026 75.57H95.8493V90.8844L99.4117 90.8896V75.57H101.095V72.9535H91.7682Z" fill="#EEB600"/>
<path fill-rule="evenodd" clip-rule="evenodd" d="M120.498 79.6579C119.841 81.3572 117.782 80.3127 114.204 80.3127C112.369 80.3127 112.242 82.2718 114.728 82.2718C118.4 82.2718 121.597 83.1682 121.256 86.5928C121.021 88.939 120.344 89.6484 118.574 90.6279C116.946 91.5296 112.521 91.4204 110.008 90.1161C108.116 89.1313 107.124 87.5022 107.124 87.5022L108.961 85.6704C108.961 85.6704 112.63 89.7237 115.254 88.2843C117.42 87.0969 116.695 85.0182 113.68 84.8857C108.179 84.6493 106.985 83.4774 108.062 79.3955C108.718 76.9115 115.385 77.8287 115.385 77.8287L115.33 75.4747H107.517V72.8608H128.235V75.4747H126.551V90.7942L122.989 90.7683V75.4747H120.461L120.498 79.6579Z" fill="#193273"/>
<path fill-rule="evenodd" clip-rule="evenodd" d="M126.889 69.3149C126.871 69.3305 121.158 75.4183 115.514 68.8082V68.156C115.514 68.156 115.907 67.1089 116.694 67.1089C117.481 67.1089 120.001 70.7751 124.197 68.4237C124.288 68.3717 124.377 68.3249 124.46 68.2782C124.497 68.26 124.533 68.2392 124.57 68.221C124.658 68.1742 124.89 68.1301 124.971 68.0885L126.889 69.3149Z" fill="#193273"/>
<path fill-rule="evenodd" clip-rule="evenodd" d="M78.4936 66.2885L78.4989 58.0466L75.7495 56.3655V48.5524H99.6024V32.1468H107.139V46.2659L113.167 48.8331L113.026 58.2831L103.444 53.0163L78.4936 66.2885Z" fill="#EEB600"/>
<path fill-rule="evenodd" clip-rule="evenodd" d="M103.739 53.1075V44.8397L113.168 49.0074H133.151V57.8416L129.818 58.5821V67.38L103.739 53.1075Z" fill="#193273"/>
<path d="M130.212 68.0427L103.348 53.341V53.1076V44.2368L113.253 48.6164H133.546V58.157L130.212 58.8979V68.0427ZM129.423 66.7182V58.2686L132.757 57.5277V49.3979H113.085L104.131 45.4395V52.8741L129.423 66.7182Z" fill="#193273"/>
</g>
</svg>
