<svg width="179" height="192" viewBox="0 0 179 192" fill="none" xmlns="http://www.w3.org/2000/svg">
<path d="M126.12 71.3981C125.998 71.3978 125.876 71.3889 125.756 71.3715C124.25 71.1487 123.452 69.6018 123.462 68.2588C123.471 67.3175 123.775 66.4687 124.062 65.6482C124.141 65.4254 124.219 65.2042 124.293 64.9814C124.647 63.8832 124.664 63.0674 124.341 62.4869L123.966 61.8154L124.656 61.4718C127.798 59.9041 131.185 58.8889 134.671 58.4706L137.28 58.1568L132.245 62.1151C132.004 62.2783 131.795 62.484 131.629 62.7222C131.407 63.1207 131.55 63.6855 131.715 64.3413C131.804 64.6682 131.874 64.9997 131.926 65.3344C132.11 66.7009 131.613 68.1788 130.586 69.288C129.72 70.2293 128.502 70.9118 127.065 71.2663C126.756 71.3472 126.439 71.3914 126.12 71.3981ZM125.924 62.4947C126.145 63.3137 126.069 64.2848 125.696 65.4364C125.621 65.6702 125.539 65.9071 125.455 66.1408C125.193 66.8798 124.943 67.5763 124.939 68.2698C124.939 68.9883 125.348 69.823 125.975 69.9155C126.226 69.9348 126.479 69.9077 126.72 69.8355C127.525 69.6363 128.663 69.208 129.508 68.2886C130.238 67.5042 130.598 66.4656 130.473 65.529C130.428 65.2494 130.368 64.9723 130.294 64.699C130.082 63.8628 129.844 62.9152 130.346 62.0084C130.602 61.5947 130.94 61.2376 131.338 60.9588L132.033 60.4113C129.926 60.8775 127.877 61.5763 125.924 62.4947Z" fill="#272525"/>
<path d="M137.092 81.5268H134.879V171.571H137.092V81.5268Z" fill="#0093B7"/>
<path d="M128.449 0.804886H126.237V45.86H128.449V0.804886Z" fill="#0093B7"/>
<path d="M132.433 0.804886H130.22V45.86H132.433V0.804886Z" fill="#0093B7"/>
<path d="M138.185 0.804886H135.972V45.86H138.185V0.804886Z" fill="#0093B7"/>
<path d="M141.724 0.804886H139.512V45.86H141.724V0.804886Z" fill="#0093B7"/>
<path d="M145.265 0.804886H143.053V45.86H145.265V0.804886Z" fill="#0093B7"/>
<path d="M150.84 83.5774L154.734 89.4199V38.0673L150.84 43.9114V83.5774Z" fill="#233865"/>
<path d="M156.759 89.2724H154.72V38.1269H156.759C157.44 38.1278 158.093 38.399 158.574 38.8812C159.056 39.3633 159.326 40.0169 159.326 40.6983V86.6994C159.326 87.381 159.056 88.0347 158.574 88.5171C158.093 88.9995 157.44 89.2712 156.759 89.2724Z" fill="#1B3266"/>
<path d="M148.672 43.9114H123.805C122.608 43.9114 121.637 44.8828 121.637 46.0811V81.4076C121.637 82.6059 122.608 83.5774 123.805 83.5774H148.672C149.87 83.5774 150.841 82.6059 150.841 81.4076V46.0811C150.841 44.8828 149.87 43.9114 148.672 43.9114Z" fill="#1B3266"/>
<path d="M148.09 45.9462H124.386C123.694 45.9462 123.133 46.5074 123.133 47.1997V80.2905C123.133 80.9829 123.694 81.5441 124.386 81.5441H148.09C148.782 81.5441 149.343 80.9829 149.343 80.2905V47.1997C149.343 46.5074 148.782 45.9462 148.09 45.9462Z" fill="#233865"/>
<path d="M129.748 54.4605H125.586V67.7897H129.748V54.4605Z" fill="#B3DEE5"/>
<path d="M135.521 54.4605H131.359V67.7897H135.521V54.4605Z" fill="#B3DEE5"/>
<path d="M141.294 54.4605H137.132V67.7897H141.294V54.4605Z" fill="#B3DEE5"/>
<path d="M147.066 54.4605H142.904V67.7897H147.066V54.4605Z" fill="#B3DEE5"/>
<path d="M129.304 49.382C129.304 49.6511 129.224 49.914 129.075 50.1377C128.925 50.3614 128.713 50.5358 128.464 50.6387C128.216 50.7417 127.943 50.7686 127.679 50.7161C127.415 50.6636 127.173 50.5341 126.983 50.3439C126.793 50.1536 126.663 49.9113 126.611 49.6474C126.558 49.3835 126.585 49.11 126.688 48.8615C126.791 48.613 126.965 48.4005 127.189 48.2511C127.412 48.1016 127.675 48.0218 127.944 48.0218C128.305 48.0218 128.65 48.1651 128.905 48.4202C129.16 48.6753 129.304 49.0213 129.304 49.382Z" fill="#1B3266"/>
<path d="M135.193 49.382C135.193 49.6511 135.113 49.914 134.964 50.1377C134.814 50.3614 134.602 50.5358 134.354 50.6387C134.105 50.7417 133.832 50.7686 133.568 50.7161C133.304 50.6636 133.062 50.5341 132.872 50.3439C132.682 50.1536 132.552 49.9113 132.5 49.6474C132.447 49.3835 132.474 49.11 132.577 48.8615C132.68 48.613 132.854 48.4005 133.078 48.2511C133.301 48.1016 133.564 48.0218 133.833 48.0218C134.194 48.0218 134.54 48.1651 134.795 48.4202C135.05 48.6753 135.193 49.0213 135.193 49.382Z" fill="#1B3266"/>
<path d="M141.085 49.382C141.085 49.6511 141.005 49.914 140.856 50.1377C140.706 50.3614 140.494 50.5358 140.246 50.6387C139.997 50.7417 139.724 50.7686 139.46 50.7161C139.196 50.6636 138.954 50.5341 138.764 50.3439C138.574 50.1536 138.444 49.9113 138.392 49.6474C138.339 49.3835 138.366 49.11 138.469 48.8615C138.572 48.613 138.746 48.4005 138.97 48.2511C139.194 48.1016 139.456 48.0218 139.725 48.0218C140.086 48.0218 140.432 48.1651 140.687 48.4202C140.942 48.6753 141.085 49.0213 141.085 49.382Z" fill="#1B3266"/>
<path d="M146.975 49.382C146.975 49.6511 146.895 49.914 146.746 50.1377C146.597 50.3614 146.384 50.5358 146.136 50.6387C145.887 50.7417 145.614 50.7686 145.35 50.7161C145.086 50.6636 144.844 50.5341 144.654 50.3439C144.464 50.1536 144.334 49.9113 144.282 49.6474C144.23 49.3835 144.256 49.11 144.359 48.8615C144.462 48.613 144.637 48.4005 144.86 48.2511C145.084 48.1016 145.347 48.0218 145.615 48.0218C145.976 48.0218 146.322 48.1651 146.577 48.4202C146.832 48.6753 146.975 49.0213 146.975 49.382Z" fill="#1B3266"/>
<path d="M162.926 158.369H118.517V186.659H162.926V158.369Z" fill="#233865"/>
<path d="M159.377 168.074H120.2V168.902H159.377V168.074Z" fill="#0093B7"/>
<path d="M142.271 166.419H137.949V171.94H142.271V166.419Z" fill="#0093B7"/>
<path d="M165.808 152.785C165.686 151.276 165.563 149.767 165.438 148.259C164.118 148.433 162.772 147.773 161.867 146.701C160.963 145.63 160.486 144.191 160.351 142.745C160.194 141.085 160.48 139.36 161.256 137.923C162.032 136.486 163.316 135.361 164.797 134.957V134.288L164.16 132.788L162.354 133.439C161.762 133.654 161.157 133.874 160.663 134.293C160.297 134.633 159.977 135.019 159.71 135.441L155.759 141.11C155.471 141.526 155.171 141.963 155.099 142.478L155.005 151.596C154.947 151.99 154.909 152.381 154.883 152.785H165.808Z" fill="#274375"/>
<path d="M177.126 152.785C177.099 152.387 177.06 151.99 177.003 151.596L176.908 142.478C176.836 141.963 176.538 141.526 176.248 141.11L172.297 135.441C172.03 135.019 171.71 134.633 171.344 134.293C170.851 133.874 170.246 133.654 169.653 133.439L167.847 132.788L167.21 134.288V134.957C168.691 135.361 169.975 136.486 170.751 137.923C171.527 139.36 171.813 141.085 171.658 142.745C171.521 144.193 171.04 145.63 170.14 146.701C169.239 147.773 167.889 148.427 166.569 148.259C166.445 149.768 166.322 151.277 166.199 152.785H177.126Z" fill="#274375"/>
<path d="M177.306 150.67H154.604C153.668 150.67 152.91 151.429 152.91 152.365V189.684C152.91 190.62 153.668 191.378 154.604 191.378H177.306C178.242 191.378 179 190.62 179 189.684V152.365C179 151.429 178.242 150.67 177.306 150.67Z" fill="#274375"/>
<path d="M175.216 154.246H156.815V163.628H175.216V154.246Z" fill="#233865"/>
<path d="M173.914 155.308H158.117V162.566H173.914V155.308Z" fill="#0093B7"/>
<path d="M176.079 171.77C176.079 172.768 175.783 173.744 175.229 174.574C174.674 175.403 173.887 176.05 172.965 176.432C172.043 176.814 171.029 176.914 170.051 176.719C169.073 176.524 168.174 176.043 167.469 175.338C166.764 174.632 166.283 173.733 166.089 172.754C165.894 171.775 165.995 170.76 166.377 169.838C166.758 168.917 167.405 168.129 168.235 167.574C169.064 167.02 170.039 166.725 171.037 166.725C171.699 166.725 172.355 166.855 172.967 167.109C173.579 167.362 174.135 167.734 174.603 168.202C175.071 168.671 175.443 169.227 175.696 169.839C175.949 170.452 176.079 171.108 176.079 171.77Z" fill="#F7F4F2"/>
<path d="M167.32 185.046C168.591 185.046 169.621 184.016 169.621 182.745C169.621 181.474 168.591 180.443 167.32 180.443C166.049 180.443 165.02 181.474 165.02 182.745C165.02 184.016 166.049 185.046 167.32 185.046Z" fill="#233865"/>
<path d="M173.69 185.046C174.961 185.046 175.991 184.016 175.991 182.745C175.991 181.474 174.961 180.443 173.69 180.443C172.42 180.443 171.39 181.474 171.39 182.745C171.39 184.016 172.42 185.046 173.69 185.046Z" fill="#233865"/>
<path d="M160.311 169.335C160.436 169.51 160.487 169.727 160.453 169.94C160.418 170.152 160.301 170.342 160.127 170.468L158.123 171.912C158.036 171.974 157.939 172.018 157.835 172.043C157.731 172.067 157.624 172.071 157.518 172.054C157.413 172.037 157.313 171.999 157.222 171.943C157.131 171.886 157.053 171.813 156.991 171.726C156.928 171.64 156.884 171.542 156.859 171.438C156.835 171.335 156.831 171.227 156.848 171.122C156.865 171.017 156.902 170.916 156.958 170.825C157.014 170.735 157.088 170.656 157.174 170.594L159.178 169.15C159.265 169.088 159.363 169.043 159.466 169.019C159.57 168.995 159.678 168.991 159.783 169.008C159.888 169.025 159.989 169.063 160.079 169.119C160.17 169.175 160.248 169.249 160.311 169.335Z" fill="#F7F4F2"/>
<path d="M160.311 173.644C160.436 173.818 160.487 174.036 160.453 174.248C160.418 174.46 160.301 174.65 160.127 174.776L158.123 176.22C158.036 176.282 157.939 176.327 157.835 176.351C157.731 176.375 157.624 176.379 157.518 176.362C157.413 176.345 157.313 176.307 157.222 176.251C157.131 176.195 157.053 176.121 156.991 176.035C156.928 175.948 156.884 175.85 156.859 175.747C156.835 175.643 156.831 175.535 156.848 175.43C156.865 175.325 156.902 175.224 156.958 175.134C157.014 175.043 157.088 174.964 157.174 174.902L159.178 173.458C159.265 173.396 159.363 173.352 159.466 173.327C159.57 173.303 159.678 173.299 159.783 173.316C159.888 173.333 159.989 173.371 160.079 173.427C160.17 173.484 160.248 173.557 160.311 173.644Z" fill="#F7F4F2"/>
<path d="M160.311 177.952C160.436 178.126 160.487 178.344 160.453 178.556C160.418 178.768 160.301 178.958 160.127 179.085L158.123 180.528C158.036 180.59 157.939 180.635 157.835 180.659C157.731 180.684 157.624 180.687 157.518 180.67C157.413 180.653 157.313 180.615 157.222 180.559C157.131 180.503 157.053 180.429 156.991 180.343C156.928 180.256 156.884 180.158 156.859 180.055C156.835 179.951 156.831 179.844 156.848 179.738C156.865 179.633 156.902 179.532 156.958 179.442C157.014 179.351 157.088 179.272 157.174 179.21L159.178 177.767C159.265 177.704 159.363 177.66 159.466 177.635C159.57 177.611 159.678 177.607 159.783 177.624C159.888 177.642 159.989 177.679 160.079 177.736C160.17 177.792 160.248 177.865 160.311 177.952Z" fill="#F7F4F2"/>
<path d="M160.311 182.26C160.436 182.435 160.487 182.652 160.453 182.864C160.419 183.077 160.301 183.267 160.127 183.393L158.123 184.836C157.948 184.962 157.731 185.013 157.519 184.978C157.307 184.944 157.117 184.827 156.991 184.652C156.865 184.478 156.813 184.26 156.848 184.047C156.882 183.835 157 183.644 157.174 183.518L159.178 182.075C159.265 182.013 159.363 181.968 159.467 181.943C159.57 181.919 159.678 181.915 159.783 181.933C159.888 181.95 159.989 181.988 160.079 182.044C160.17 182.1 160.249 182.173 160.311 182.26Z" fill="#F7F4F2"/>
<path d="M40.9794 140.423C40.5984 139.307 41.0563 137.456 41.2319 136.289C41.4342 134.949 41.5455 134.092 41.4436 132.905C43.1215 132.843 45.8862 132.941 47.5594 132.881C47.2568 133.956 47.9891 135.093 48.9473 135.683C49.9054 136.273 51.0486 136.458 52.1416 136.736C53.2347 137.013 54.3653 137.435 55.0396 138.33C55.2893 138.636 55.4339 139.014 55.452 139.409C55.4504 139.749 55.4194 140.088 55.3595 140.423H40.9794Z" fill="#233865"/>
<path d="M40.4698 61.6444C42.4017 66.1455 45.3922 70.0944 48.0064 74.2362C50.6205 78.3781 55.1996 89.2253 55.5038 94.1202C55.7704 98.5131 54.4061 102.802 53.3084 107.057C51.2901 114.853 48.8234 125.631 48.5254 133.678L41.3401 134.593C40.5936 124.436 41.1613 111.282 43.8162 101.448C44.0044 100.75 44.2114 100.021 44.053 99.3148C43.9307 98.7672 43.6014 98.2934 43.2783 97.8353C37.9466 90.2498 30.3206 76.3574 24.981 68.7703C29.9596 65.7815 34.7701 62.5212 39.3909 59.004L40.4698 61.6444Z" fill="#077F93"/>
<path d="M26.116 30.0315C24.7502 30.044 23.2526 30.1883 22.2834 31.1595C21.3143 32.1306 21.1606 33.6038 21.4398 34.9107C21.673 35.9618 22.1527 36.9425 22.8392 37.7717C23.5258 38.601 24.3995 39.2551 25.3884 39.6801C26.9707 40.3421 28.7349 40.3704 30.4489 40.3892C32.0735 40.4065 33.7499 40.3453 35.4372 40.27C36.0959 37.3801 36.3625 34.2737 36.3985 30.9508C32.9784 30.4927 29.5613 30.0001 26.116 30.0315Z" fill="#061C44"/>
<path d="M55.7501 15.0173C55.5472 14.992 55.3515 14.9262 55.1745 14.8238C54.9975 14.7214 54.8429 14.5845 54.7198 14.4212C54.138 13.7246 53.9639 12.7393 54.1521 11.8513C54.425 10.557 55.38 9.47447 56.4542 8.77319C56.6753 8.63783 56.911 8.52783 57.1567 8.44529C58.6663 7.89668 60.2671 7.64316 61.8722 7.6985C61.9851 8.07817 61.7875 8.50334 61.4755 8.74808C61.3661 8.8333 61.2452 8.9025 61.1164 8.95361C61.5868 8.95361 62.0573 8.97557 62.5277 9.01479C62.6136 9.01419 62.6975 9.04053 62.7676 9.0901C62.8978 9.20463 62.8335 9.41956 62.741 9.56076C62.6733 9.67158 62.595 9.7756 62.5073 9.8714H62.5559C62.6312 10.3421 62.2564 10.7782 61.8205 10.9696C61.3845 11.161 60.8984 11.1563 60.4279 11.2081C59.5331 11.3097 58.6691 11.596 57.8906 12.049C57.6704 12.1778 57.5018 12.3793 57.414 12.619C57.3261 12.8586 57.3244 13.1214 57.4092 13.3622C57.4854 13.5295 57.5152 13.7143 57.4955 13.8971C57.45 14.1246 57.2587 14.2894 57.0783 14.4337C56.691 14.7349 56.2456 15.0487 55.7501 15.0173Z" fill="#233865"/>
<path d="M60.0903 11.2442C59.6981 11.2199 59.306 11.2943 58.9498 11.4607C58.5937 11.627 58.285 11.88 58.0517 12.1965C57.8243 12.5103 57.6801 12.8821 57.4762 13.2163C57.2723 13.5504 56.9869 13.8595 56.6106 13.9505C56.4294 13.9816 56.2435 13.9694 56.068 13.9148C55.8925 13.8603 55.7323 13.765 55.6007 13.6367C55.6007 13.2947 55.5724 12.948 55.5803 12.6044C55.6191 11.9367 55.7242 11.2745 55.8939 10.6276C56.0037 10.135 56.2076 9.41017 56.678 9.25642C57.1184 9.1015 57.5393 8.89618 57.9325 8.64455C58.3936 8.3747 58.9785 8.45629 59.4286 8.17389C59.8786 7.89149 60.2236 7.32983 59.9963 6.84505C58.5771 6.97683 58.4281 6.92192 57.1155 7.49143C56.7392 7.65616 55.1192 8.2539 54.8119 8.52532C54.1768 9.08698 53.9008 9.93731 53.4005 10.626C53.1198 11.0073 52.7623 11.3415 52.5741 11.776C52.3859 12.2106 52.3263 12.6468 52.3326 13.4469C52.2338 14.986 52.1256 16.4278 51.6944 17.9527H51.6473C51.2616 18.894 50.9009 19.8134 50.5386 20.7296C50.5308 20.7422 50.5261 20.7563 50.5182 20.7689C49.2135 24.0635 47.8963 27.2013 45.3825 29.8433C44.8446 30.4081 44.2675 30.9713 43.5446 31.2662C42.6962 31.6145 41.7428 31.5549 40.8301 31.4718C39.3529 31.3353 37.8819 31.1454 36.411 30.9493C36.3749 34.2722 36.1083 37.3817 35.4497 40.2685C38.5766 40.1288 41.749 39.9217 44.7568 39.9547C46.1321 39.9688 47.5999 39.9547 48.7446 39.1954C49.7796 38.5082 50.3614 37.3268 50.8413 36.1815C51.8371 33.8047 52.6964 31.6569 53.457 29.1937C54.3979 26.1501 54.5453 25.5681 55.3905 21.5784C55.4501 21.2991 55.9567 19.7742 55.9363 19.4902C55.9363 19.4604 55.9174 19.4353 55.9127 19.4055C56.275 18.6367 56.6498 17.97 57.0105 17.6484C57.506 17.2106 58.0502 16.7902 58.3356 16.1956C58.6351 15.568 58.6037 14.8212 58.8844 14.1843C59.2247 13.4092 59.9649 12.9025 60.5467 12.2875C60.6925 12.1306 60.8384 11.9423 60.8148 11.7305C60.7678 11.4183 60.4024 11.2677 60.0903 11.2442Z" fill="#D39D81"/>
<path d="M14.2026 22.3202L14.3258 22.2797L14.2026 22.3202Z" fill="#D39D81"/>
<path d="M31.7204 190.857L29.5343 190.561L43.7059 85.5651H23.2789L9.06504 190.857L6.87744 190.561L21.3501 83.3577H46.2306L31.7204 190.857Z" fill="#233865"/>
<path d="M36.6177 147.459H13.7256V149.666H36.6177V147.459Z" fill="#233865"/>
<path d="M40.2769 119.6H17.3848V121.808H40.2769V119.6Z" fill="#233865"/>
<path d="M43.6983 93.5099H20.8062V95.7173H43.6983V93.5099Z" fill="#233865"/>
<path d="M33.0791 173.314H10.187V175.522H33.0791V173.314Z" fill="#233865"/>
<path d="M61.8859 186.268L47.6783 85.5651H27.2514L41.4166 185.961L39.2306 186.268L24.7109 83.3577H49.5946L64.072 185.961L61.8859 186.268Z" fill="#233865"/>
<path d="M55.7525 140.272H32.8604V142.479H55.7525V140.272Z" fill="#233865"/>
<path d="M53.1983 113.984H30.3062V116.191H53.1983V113.984Z" fill="#233865"/>
<path d="M50.1446 93.0722H27.2524V95.2796H50.1446V93.0722Z" fill="#233865"/>
<path d="M60.7652 169.423H37.873V171.631H60.7652V169.423Z" fill="#233865"/>
<path d="M22.2822 139.034C22.3486 139.906 22.6073 140.752 23.0395 141.511C23.4717 142.271 24.0667 142.925 24.7819 143.427C25.6647 144.037 26.7123 144.403 27.5183 145.112C28.3244 145.821 28.8215 147.086 28.2114 147.969L18.5813 148.014C18.3048 147.012 17.7738 146.098 17.0398 145.361C16.2667 144.588 15.2317 143.949 14.9432 142.894C14.7221 142.087 15.0012 141.237 15.2788 140.446L16.1522 137.974C16.251 137.693 16.3749 137.382 16.6446 137.257C16.8783 137.147 17.1527 137.208 17.4021 137.274C19.0839 137.695 20.7189 138.284 22.2822 139.034Z" fill="#233865"/>
<path d="M35.6897 69.3398C39.1328 78.0923 41.2859 87.299 42.0815 96.6712C42.3952 100.314 42.483 104.058 41.4041 107.551C40.2029 111.452 37.6405 114.756 35.3274 118.118C30.5729 125.031 26.7117 132.519 23.8359 140.402C21.4021 140.088 17.9333 138.19 15.4995 137.878C18.0337 128.085 20.5929 121.508 24.8066 114.908C27.3157 110.965 29.4327 109.5 29.5519 104.825C29.624 101.982 28.5043 99.2599 27.405 96.6383L17.6291 73.331C22.8542 72.2704 29.7416 68.4267 34.1748 65.4646L35.6897 69.3398Z" fill="#0093B7"/>
<path d="M20.8972 87.4745C21.2406 86.5771 22.0513 85.9511 22.8621 85.4349C25.764 83.5937 29.1063 82.5644 32.5408 82.454C34.6717 86.8328 35.9819 91.5654 36.4064 96.4171C33.0922 98.7997 29.4069 100.617 25.4997 101.797C23.749 98.2151 22.2844 94.5005 21.1198 90.6875C20.7999 89.6411 20.5051 88.4974 20.8972 87.4745Z" fill="#233865"/>
<path d="M31.4023 83.9382C32.1903 84.0367 32.9339 84.3577 33.546 84.8639C35.4718 80.069 36.2245 74.8831 35.7415 69.7383L34.6171 69.8057C34.4856 74.6823 33.3932 79.485 31.4023 83.9382Z" fill="#233865"/>
<path d="M30.4868 87.2171C30.4868 87.413 30.4288 87.6045 30.32 87.7673C30.2112 87.9301 30.0565 88.057 29.8756 88.1319C29.6947 88.2068 29.4957 88.2263 29.3037 88.188C29.1117 88.1496 28.9354 88.0552 28.7971 87.9166C28.6588 87.778 28.5646 87.6014 28.5266 87.4093C28.4886 87.2172 28.5085 87.0181 28.5836 86.8372C28.6587 86.6563 28.7858 86.5018 28.9487 86.3933C29.1117 86.2847 29.3031 86.2269 29.4989 86.2272C29.6288 86.2272 29.7574 86.2528 29.8773 86.3026C29.9973 86.3523 30.1063 86.4253 30.198 86.5172C30.2898 86.6092 30.3625 86.7183 30.4121 86.8384C30.4616 86.9585 30.487 87.0872 30.4868 87.2171Z" fill="#1B3266"/>
<path d="M24.3941 89.1328C24.3941 89.3286 24.336 89.52 24.2273 89.6828C24.1186 89.8456 23.964 89.9725 23.7832 90.0474C23.6024 90.1223 23.4035 90.1419 23.2115 90.1037C23.0196 90.0655 22.8432 89.9712 22.7049 89.8328C22.5665 89.6943 22.4722 89.5179 22.4341 89.3259C22.3959 89.1339 22.4155 88.9348 22.4904 88.7539C22.5653 88.573 22.6921 88.4184 22.8548 88.3097C23.0175 88.2009 23.2088 88.1428 23.4046 88.1428C23.5346 88.1426 23.6633 88.1681 23.7835 88.2177C23.9036 88.2674 24.0128 88.3403 24.1047 88.4323C24.1966 88.5243 24.2695 88.6335 24.3192 88.7537C24.3688 88.8739 24.3943 89.0027 24.3941 89.1328Z" fill="#1B3266"/>
<path d="M39.177 69.903C40.165 68.8047 42.2052 66.4122 42.3463 64.9359C42.4231 64.1248 42.1346 63.3278 41.8507 62.5622C40.1258 57.9026 38.6109 55.9729 36.8781 51.3164C35.3397 47.1793 33.5677 40.2872 31.4161 36.4325C30.171 34.2015 28.6154 31.9816 26.3008 30.9053C24.43 30.0346 22.2439 30.0189 20.2461 30.5335C18.2482 31.0481 16.4151 32.0584 14.6854 33.1817C10.0059 36.2285 5.89264 40.2103 3.03857 45.0142C10.7634 55.3281 16.0277 70.1336 20.3182 82.2783C25.4697 84.0197 33.7512 75.9745 39.177 69.903Z" fill="#1B3266"/>
<path d="M11.7767 45.7988C13.6068 47.967 14.3171 50.9039 14.2967 53.7404C14.2764 56.577 13.5895 59.3586 12.9058 62.1151L9.03711 54.4496C10.9567 51.9874 11.9289 48.9176 11.7767 45.7988Z" fill="#061C44"/>
<path d="M22.929 31.4403C22.1763 30.6888 21.0316 30.4896 19.9683 30.5131C17.856 30.557 15.8095 31.3211 13.9873 32.3958C11.9487 33.5897 10.1328 35.1962 8.8955 37.2028C8.51257 37.7805 8.24621 38.4275 8.11141 39.1074C8.00164 39.7899 8.11141 40.5335 8.54736 41.0748C9.01781 41.6725 9.78778 41.9455 10.5248 42.1354C13.4698 42.8978 16.7238 42.7817 19.3975 41.3337C22.0712 39.8856 24.0252 36.9675 23.8699 33.9286C23.8198 33.0202 23.5704 32.0788 22.929 31.4403Z" fill="#061C44"/>
<path d="M9.17228 39.7335C9.44828 40.5053 10.339 40.8474 11.1435 41.009C13.4095 41.4639 15.8386 41.2192 17.8866 40.1571C19.9346 39.0949 21.5765 37.1872 22.1504 34.9484C22.348 34.1781 22.4186 33.3528 22.1693 32.5951C21.9199 31.8373 21.3021 31.1831 20.5195 31.0387C19.8923 30.9258 19.2462 31.158 18.6503 31.4027C15.343 32.7629 12.18 34.6738 9.91873 37.4445C9.39182 38.0987 8.88844 38.9427 9.17228 39.7335Z" fill="#D39D81"/>
<path d="M7.23061 27.766C7.12554 28.0123 7.21493 28.2978 7.30431 28.5504C8.40412 31.66 9.50184 34.769 10.5975 37.8774C14.2325 37.7503 17.7295 35.4927 19.456 32.162C16.8856 30.1489 14.7573 27.6276 13.2038 24.7553L7.79515 27.3047C7.57247 27.4099 7.33097 27.5322 7.23061 27.766Z" fill="#D39D81"/>
<path d="M16.7353 29.6236C15.3584 28.1575 14.1718 26.5234 13.2038 24.7601L7.79517 27.3048C7.66382 27.365 7.54054 27.4414 7.42822 27.5323C9.34923 30.3531 13.1552 31.4529 16.7353 29.6236Z" fill="#233865"/>
<path d="M15.1138 20.226L16.9062 25.5947C17.0364 25.987 17.1681 26.4027 17.063 26.7996C16.9531 27.1112 16.7659 27.3898 16.5189 27.6092C15.1922 28.9412 13.2524 29.768 11.2608 29.8495C9.28089 29.935 7.33797 29.2939 5.7973 28.0469C4.54277 26.9926 3.71791 25.579 3.10319 24.1341C2.53708 22.8021 2.11995 21.3666 2.36145 19.9562C2.63745 18.3465 3.7728 16.9126 5.27197 15.9838C6.77114 15.055 8.58237 14.6 10.3967 14.4949C11.4945 15.328 12.6784 16.2913 12.8274 17.5746C12.865 17.8884 12.8415 18.2414 13.0454 18.505C13.37 18.9239 14.0788 18.9113 14.5226 19.2298C14.8519 19.4683 14.9915 19.8589 15.1138 20.226Z" fill="#D39D81"/>
<path d="M12.8431 12.6609C12.6258 12.8893 12.3521 13.0565 12.0496 13.1456C12.2976 12.4519 12.3412 11.7015 12.1751 10.9837C11.1699 11.889 9.80402 12.2671 8.47578 12.5181C7.14754 12.7691 5.77853 12.9338 4.55536 13.5143C3.33219 14.0948 2.25643 15.2056 2.16077 16.5532C2.0245 16.4863 1.87086 16.4632 1.72092 16.487C1.57099 16.5109 1.43212 16.5806 1.32337 16.6866C1.1106 16.9035 0.954893 17.1698 0.870166 17.4616C0.490121 18.5155 0.327548 19.6355 0.392268 20.754C0.456988 21.8726 0.747658 22.9663 1.24672 23.9693C1.74578 24.9723 2.44288 25.8636 3.29591 26.5896C4.14893 27.3155 5.14018 27.8608 6.20978 28.1928C6.03624 27.242 5.86269 26.2923 5.68915 25.3437C5.15205 25.1896 4.63272 24.9793 4.1398 24.7161C3.64402 24.4484 3.24635 24.0297 3.00444 23.5206C2.88747 23.2656 2.83896 22.9844 2.86371 22.7049C2.88846 22.4254 2.98561 22.1572 3.14558 21.9267C3.4843 21.4827 4.16646 21.2991 4.63691 21.6129C4.7983 21.9334 5.02101 22.2191 5.2924 22.4538C5.57781 22.6687 5.99024 22.7582 6.29446 22.5715C5.42283 21.5779 4.81032 20.3841 4.51145 19.0964C4.41736 18.6901 4.37189 18.2178 4.64161 17.8993C4.8439 17.6624 5.16852 17.5856 5.47117 17.5087C6.97505 17.1588 8.50087 16.7964 9.86204 16.0606C11.2232 15.3248 12.415 14.1466 12.8431 12.6609Z" fill="#233865"/>
<path d="M18.9263 92.4196C19.0975 92.5367 19.2553 92.6725 19.3967 92.8243C19.69 93.1805 19.8985 93.6088 20.2404 93.9225C20.5823 94.2363 21.1327 94.3932 21.4949 94.1202C21.1655 93.5748 20.9137 92.986 20.7469 92.3709L18.9263 92.4196Z" fill="#D39D81"/>
<path d="M23.9599 94.2049C23.8266 93.4629 23.5224 92.793 23.3906 92.0462C26.0189 91.905 28.7616 91.7779 31.3381 91.1566C31.4024 91.4594 31.4557 91.4704 31.5216 91.7842C29.1066 92.3756 26.7857 93.2495 23.9599 94.2049Z" fill="#1B3266"/>
<path d="M24.6465 93.295C24.9002 93.295 25.106 93.0892 25.106 92.8353C25.106 92.5814 24.9002 92.3756 24.6465 92.3756C24.3927 92.3756 24.187 92.5814 24.187 92.8353C24.187 93.0892 24.3927 93.295 24.6465 93.295Z" fill="#233865"/>
<path d="M23.4487 93.5319C21.2416 93.2223 18.9924 93.4527 16.8938 94.2034C16.3935 94.3822 15.876 94.5909 15.3491 94.5171C14.8222 94.4434 14.3079 93.9633 14.427 93.4503C15.9448 92.8234 17.5613 92.4696 19.2021 92.4054C20.822 92.3427 22.7007 92.6517 23.6667 91.2711C24.0572 91.8689 23.7388 92.4054 23.8549 92.6972C23.9709 92.9891 24.0352 93.4252 23.7388 93.5287C23.6439 93.5539 23.5442 93.555 23.4487 93.5319Z" fill="#0093B7"/>
<path d="M23.2683 93.0613C21.2734 94.0356 19.0911 94.5661 16.8717 94.616C16.348 94.6286 15.7975 94.616 15.3193 94.8498C14.841 95.0836 14.4928 95.6499 14.7484 96.0516C16.3793 96.0852 18.0051 95.8607 19.5659 95.3863C21.1168 94.9157 22.8057 94.0465 24.1135 94.8953C24.3111 94.2677 23.8548 93.9179 23.8815 93.6402C23.9081 93.3625 23.8438 92.9703 23.5333 92.9797C23.4401 92.9873 23.3497 93.0152 23.2683 93.0613Z" fill="#0093B7"/>
<path d="M9.76787 59.5641C9.78826 59.4715 9.8008 59.3899 9.82119 59.2958C10.2916 57.2562 11.4239 54.746 12.1358 52.7708C12.8478 50.7956 12.7019 47.3676 12.0652 45.3688C11.4286 43.3701 9.52637 41.6773 7.43444 41.8137C5.93684 41.911 4.61173 42.9041 3.76022 44.142C2.9087 45.3798 2.46961 46.8451 2.08228 48.2964C1.23291 51.4608 0.632038 54.6868 0.285156 57.945C3.44972 59.3617 6.60644 59.7617 9.76787 59.5641Z" fill="#1B3266"/>
<path d="M20.5601 91.6838C20.5498 91.5797 20.5172 91.4791 20.4645 91.3888C20.4084 91.3252 20.3415 91.2721 20.2669 91.2319C19.4864 90.728 18.797 90.0951 18.2282 89.3602C18.1462 89.2425 18.0481 89.1368 17.9366 89.0465C17.7413 88.9284 17.5211 88.8575 17.2936 88.8394C16.4929 88.7057 15.7057 88.5009 14.9414 88.2275C14.5528 88.1028 14.1834 87.9249 13.8436 87.6988C13.4539 87.3928 13.1129 87.0294 12.8322 86.621C12.7334 86.4908 12.644 86.3543 12.5468 86.2225C11.4491 82.8039 10.9033 80.1039 10.0487 76.4735C8.6781 70.587 8.27038 66.293 9.76798 59.5641C6.60655 59.7618 3.44983 59.3617 0.285262 57.945C-0.16637 62.272 -0.116189 66.6256 0.685145 70.9008C2.02907 78.0596 5.37554 84.6771 9.31948 90.8256C10.1428 92.7537 10.9551 94.6835 12.15 96.3951C12.2601 96.5725 12.4033 96.727 12.5719 96.8501C12.8071 97.007 13.1003 97.0305 13.3669 97.1184C13.748 97.2454 14.0757 97.4965 14.4537 97.6314C14.8316 97.7663 15.3209 97.7412 15.5514 97.4133C15.5884 97.3446 15.6378 97.2834 15.6972 97.2329C15.7742 97.1939 15.8625 97.1834 15.9466 97.2031C16.1883 97.2683 16.4332 97.3207 16.6805 97.36C16.9298 97.371 17.2152 97.258 17.2858 97.0179C17.2983 96.923 17.3198 96.8295 17.3501 96.7387C17.4881 96.4688 17.8942 96.6242 18.1969 96.6006C18.7912 96.5551 18.9982 95.7597 19.5126 95.4601C19.7244 95.3654 19.9423 95.2852 20.1649 95.22C20.3798 95.1322 20.5883 94.9549 20.5962 94.7242C20.5962 94.4356 20.3108 94.241 20.052 94.1124C19.5465 93.8862 19.0679 93.6041 18.625 93.2715C18.1985 92.9185 17.855 92.4274 17.8064 91.8767C18.217 91.9793 18.5995 92.1723 18.9261 92.4415L20.7514 92.3945C20.6745 92.1613 20.6106 91.924 20.5601 91.6838Z" fill="#D39D81"/>
<path d="M116.252 180.117C111.588 180.117 106.929 179.933 102.275 179.566C102.077 177.474 102.187 175.364 102.601 173.303C104.228 173.07 105.8 172.549 107.244 171.764C107.087 172.887 107.785 173.995 108.717 174.641C109.648 175.288 110.779 175.573 111.878 175.859C112.977 176.144 114.105 176.457 115.003 177.15C115.902 177.844 116.528 179.015 116.252 180.117Z" fill="#233865"/>
<path d="M94.8601 97.3694C95.8449 97.3333 98.7805 97.3004 99.6242 97.8055C100.861 98.5429 100.454 103.279 100.722 104.695C105.27 128.385 109.504 148.564 108.229 173.353C106.19 174.452 102.991 174.426 100.675 174.331C99.069 156.344 93.7749 139.318 87.7045 122.31C84.8818 114.385 81.8804 109.809 83.8562 97.7773L94.8601 97.3694Z" fill="#077F93"/>
<path d="M82.0727 179.903C82.9634 180.253 83.8917 180.584 84.5974 181.231C85.3031 181.877 85.7312 182.938 85.3423 183.812C80.0513 183.692 74.7749 183.313 69.5132 182.673C69.1259 181.32 69.2356 179.864 69.5948 178.502C69.9539 177.141 70.5529 175.859 71.1472 174.58C73.1178 174.916 75.1205 175.024 77.1157 174.902C77.1643 176.146 77.8794 177.293 78.8203 178.107C79.7612 178.921 80.9169 179.448 82.0727 179.903Z" fill="#233865"/>
<path d="M76.4199 96.5818L75.5276 103.654C72.3129 112.559 74.2323 119.942 74.1272 129.409C73.95 145.39 73.1707 160.021 69.9951 175.691C72.1278 177.432 75.3143 177.663 78.4977 175.886C82.575 162.494 85.7787 148.901 88.7206 135.212C91.3708 122.882 93.2683 110.424 93.8532 97.8243C88.5277 97.6314 81.7454 96.7669 76.4199 96.5818Z" fill="#0093B7"/>
<path d="M104.14 58.5067C102.332 60.2623 101.64 61.0467 100.943 63.3106C100.245 65.5745 100.583 68.0172 101.117 70.3313C101.624 72.5708 102.357 74.7532 103.303 76.8453C105.936 75.7659 108.308 73.9978 110.646 71.7888C109.102 67.6391 107.839 63.2463 104.14 58.5067Z" fill="#061C44"/>
<path d="M129.426 65.3877C129.263 65.3157 129.115 65.2116 128.993 65.0817C128.871 64.9519 128.776 64.7988 128.714 64.6315C128.569 64.261 128.51 63.8629 128.539 63.4663C128.568 63.0697 128.686 62.6847 128.883 62.3394C129.437 61.3243 130.506 60.6591 131.585 60.3438C131.804 60.2856 132.03 60.2529 132.256 60.2465C133.656 60.1661 135.058 60.3552 136.387 60.8035C136.375 60.9782 136.313 61.1457 136.207 61.2852C136.101 61.4246 135.956 61.5299 135.791 61.5879C135.678 61.6307 135.56 61.6582 135.44 61.6695C135.832 61.7919 136.224 61.9236 136.605 62.0743C136.677 62.0953 136.74 62.138 136.787 62.1966C136.867 62.3253 136.758 62.49 136.644 62.5888C136.559 62.6616 136.466 62.7257 136.368 62.7803L136.41 62.7881C136.357 63.1976 135.94 63.4721 135.521 63.5176C135.102 63.5631 134.703 63.4423 134.296 63.3607C133.522 63.2222 132.728 63.2452 131.963 63.4282C131.746 63.4803 131.555 63.6065 131.421 63.7849C131.288 63.9634 131.221 64.183 131.232 64.4056V64.4135C131.255 64.573 131.234 64.7356 131.171 64.8841C131.055 65.052 130.883 65.174 130.687 65.2293C130.284 65.3893 129.832 65.5368 129.426 65.3877Z" fill="#233865"/>
<path d="M130.653 62.272C130.882 61.8641 131.249 61.2773 131.715 61.2679C132.144 61.2471 132.569 61.1771 132.982 61.0592C133.452 60.9431 133.956 61.1706 134.431 61.0373C134.906 60.9039 135.356 60.5007 135.284 60.0128C133.995 59.7524 133.873 59.6629 132.566 59.8198C132.19 59.8637 130.6 59.9641 130.256 60.1226C129.546 60.4489 129.074 61.1345 128.448 61.6036C128.099 61.8656 127.696 62.0743 127.413 62.4006C127.131 62.7269 126.965 63.105 126.758 63.8126C126.262 65.1477 125.781 66.4013 124.998 67.6281C122.141 70.4662 118.586 72.5387 115.146 74.6661C114.28 75.1843 113.451 75.7609 112.665 76.3919C112.665 76.3825 112.654 76.3762 112.649 76.3668C111.877 74.8892 111.208 73.3601 110.646 71.7904C108.308 73.9994 105.942 75.7675 103.303 76.8469C104.885 80.2984 107.124 83.4142 110.176 85.6451C110.465 85.8569 110.784 86.0672 111.142 86.0687C111.187 86.0642 111.232 86.0564 111.275 86.0452C111.434 86.1733 111.618 86.2644 111.816 86.3119C112.403 86.4327 112.983 86.1095 113.488 85.7848C119.248 82.0634 123.524 76.5362 127.554 70.951C128.339 70.0097 129.173 69.0495 129.781 68.7687C130.333 68.513 130.926 68.2871 131.337 67.8352C131.768 67.3646 131.939 66.6931 132.355 66.2036C132.861 65.609 133.65 65.358 134.326 64.9689C134.497 64.87 134.677 64.7414 134.712 64.5468C134.763 64.2629 134.481 64.0323 134.211 63.9303C133.872 63.8055 133.506 63.7676 133.148 63.8202C132.79 63.8728 132.451 64.0142 132.162 64.2315C131.876 64.4511 131.652 64.7398 131.378 64.9799C131.103 65.2199 130.769 65.4176 130.41 65.3925C130.242 65.3723 130.081 65.3129 129.941 65.2192C129.8 65.1254 129.683 64.9999 129.599 64.8528C129.69 64.5484 129.756 64.2362 129.855 63.935C130.065 63.3556 130.333 62.7985 130.653 62.272Z" fill="#D39D81"/>
<path d="M88.3927 55.9588C86.5657 55.9023 84.5836 55.9698 83.1503 57.1041C81.8785 58.1097 81.3124 59.7414 80.8247 61.2883C76.7082 74.3445 74.4187 87.6109 74.6163 101.295C83.8356 100.424 92.4746 100.277 101.735 100.236C100.962 92.5372 100.115 86.3652 102.066 78.877C102.85 75.8318 104.096 73.1772 105.009 70.1666C105.922 67.1559 106.445 62.9105 104.081 58.4408C98.3458 56.6915 94.3846 56.1533 88.3927 55.9588Z" fill="#1B3266"/>
<path d="M100.557 63.6087C101.299 62.9968 101.912 62.1967 102.161 61.2679C102.41 60.3391 102.261 59.2785 101.647 58.5396C101.134 57.9246 100.367 57.5857 99.6081 57.3174C97.8612 56.6899 96.0295 56.3322 94.1917 56.0812C92.8571 55.8992 91.4442 55.7831 90.2132 56.3306C89.8588 56.4875 89.5044 56.7275 89.3742 57.0931C89.2676 57.3975 89.3335 57.7316 89.4072 58.0454C89.8776 60.0536 90.6711 62.0806 92.2126 63.4502C93.3561 64.4659 94.8245 65.0399 96.3534 65.0686C97.8823 65.0974 99.3713 64.5791 100.552 63.6071L100.557 63.6087Z" fill="#061C44"/>
<path d="M86.163 61.8703C88.8069 64.7696 89.4734 69.0025 89.1425 72.9137C88.8116 76.8249 87.6198 80.609 87.0333 84.4889C86.2718 89.5494 86.5466 94.712 87.8409 99.6631L83.1364 99.7635L75.6547 99.7431C74.858 90.2765 76.6928 80.7847 79.1925 71.6131C80.2227 67.8023 82.9827 64.2127 86.163 61.8703Z" fill="#061C44"/>
<path d="M99.767 58.036C99.6102 56.1329 100.346 51.2898 100.197 49.3836L93.1007 52.0209C92.5385 53.5037 92.0672 55.0194 91.6893 56.5596C90.968 56.5895 91.0025 56.8624 90.2905 56.977C90.4473 59.3115 91.5796 61.6318 93.5335 62.9152C95.4874 64.1985 98.2584 64.2644 100.099 62.8242C101.04 62.0915 101.719 60.8568 101.373 59.7194C101.147 58.9459 100.506 58.4156 99.767 58.036Z" fill="#D39D81"/>
<path d="M99.2335 49.7429L93.1004 52.0225C92.6974 53.1317 92.3163 54.3083 91.9917 55.474C96.185 55.6482 98.5984 53.1176 99.2335 49.7429Z" fill="#233865"/>
<path d="M95.156 38.9318C94.0708 38.8878 92.7692 38.9725 92.2313 39.8511C91.7828 40.5854 92.1106 41.5235 91.8738 42.3378C91.6997 42.934 91.2465 43.4141 90.889 43.9381C90.0626 45.1665 89.8163 46.6726 89.9136 48.1207C90.0108 49.5688 90.4295 50.9776 90.8451 52.3739C91.0019 52.923 91.1901 53.5035 91.6401 53.8895C92.1561 54.3303 92.9166 54.4213 93.616 54.3821C95.5198 54.2801 97.9269 53.5867 99.3226 52.3755C100.718 51.1643 101.14 49.4511 102.078 47.9057C102.965 46.442 103.793 44.7852 103.425 43.1411C103.077 41.5926 101.7 40.383 100.14 39.757C98.5793 39.131 96.8511 39.0008 95.156 38.9318Z" fill="#D39D81"/>
<path d="M92.8354 37.0836L93.6696 37.5543C93.3158 37.5892 92.9745 37.7039 92.6714 37.8898C92.3682 38.0757 92.1112 38.3279 91.9195 38.6275C91.7278 38.9271 91.6065 39.2662 91.5647 39.6195C91.5229 39.9727 91.5616 40.3308 91.6781 40.6669C91.8855 40.326 92.2173 40.079 92.6033 39.9782C92.9043 40.6712 93.3843 41.2715 93.9939 41.7176C94.6035 42.1637 95.3208 42.4395 96.0721 42.5166C96.0289 42.4045 96.0234 42.2813 96.0565 42.1658C96.0896 42.0503 96.1595 41.9487 96.2555 41.8765C96.3669 42.2358 96.726 42.4523 97.0914 42.5637C97.4568 42.6751 97.8331 42.7206 98.1671 42.8884C98.6956 43.1599 99.0202 43.7294 99.1425 44.3114C99.2649 44.8935 99.0328 46.3933 98.9857 46.9864C99.936 46.8028 100.027 45.645 100.457 45.7595C100.886 45.874 100.888 45.998 100.999 46.4278C101.083 46.8662 101.091 47.3158 101.021 47.7567C100.973 48.2415 100.918 48.7466 100.659 49.1593C100.4 49.5719 99.8749 49.8637 99.4185 49.6911C99.247 50.0877 99.1649 50.5173 99.1782 50.9493C99.1914 51.3813 99.2998 51.805 99.4954 52.1903C100.913 51.4746 102.244 50.6003 103.464 49.5844L102.985 49.4573C105.023 47.5982 105.807 44.4699 104.866 41.8687C105.023 40.6277 104.082 39.5059 103.035 38.8172C101.987 38.1285 100.778 37.6892 99.8451 36.8561C99.8075 37.1056 99.7714 37.3566 99.7337 37.606C97.5236 36.8118 95.1398 36.6313 92.8354 37.0836Z" fill="#233865"/>
<path d="M86.0493 162.897C82.1822 162.897 78.4453 161.257 76.2608 158.253C75.8247 157.652 75.4477 157.01 75.1349 156.336C72.4126 153.895 70.2391 150.391 68.961 146.207C66.3328 137.592 67.5873 127.883 72.3138 120.223C73.6718 118.027 75.0659 116.48 76.6121 115.482C76.9651 114.925 77.3554 114.392 77.7804 113.888C78.3384 113.225 78.9668 112.624 79.6544 112.096C80.4181 110.474 81.5362 108.93 83.3725 108.331L83.8429 109.732C84.3132 109.581 84.8028 109.499 85.2966 109.487C86.7519 108.654 88.2103 108.336 89.5464 109.26C90.2662 109.776 90.906 110.396 91.4454 111.099L92.2718 110.628C92.807 111.588 93.1926 112.624 93.415 113.7C94.2226 114.44 94.9723 115.242 95.6575 116.097C99.1788 120.48 101.526 125.688 102.479 131.231C102.55 131.455 102.619 131.679 102.686 131.905C104.398 137.647 104.588 142.73 103.246 146.99C102.53 149.288 101.296 151.39 99.6391 153.135C97.9831 156.842 95.2796 159.861 91.9943 161.502C90.1467 162.42 88.112 162.897 86.0493 162.897ZM81.591 159.745C83.0824 160.389 84.6955 160.703 86.3196 160.665C87.9437 160.628 89.5403 160.239 91.0001 159.525C92.5517 158.732 93.931 157.64 95.0585 156.311C94.9283 156.362 94.7997 156.414 94.6711 156.468C90.8338 159.47 85.9521 160.707 81.591 159.745ZM76.9555 154.993C78.1956 156.054 79.6351 156.857 81.1896 157.354C83.6987 158.138 86.4978 157.981 89.1245 157.04C88.5229 156.954 87.9285 156.822 87.3462 156.648C86.6444 156.963 85.896 157.161 85.1304 157.235C82.8252 157.44 80.3208 156.439 78.4265 154.541C77.5037 153.593 76.7207 152.519 76.1009 151.35C76.2036 152.6 76.4916 153.828 76.9555 154.993ZM76.1997 145.922C76.4145 146.56 76.6466 147.195 76.8975 147.821C77.5358 149.422 78.4657 151.453 79.9837 152.978C81.1002 154.095 82.4629 154.809 83.7928 155.001C81.6853 153.636 79.9239 151.801 78.6476 149.638C77.6464 147.933 76.8879 146.097 76.3941 144.182C76.323 144.769 76.2582 145.35 76.1997 145.925V145.922ZM89.871 154.921C91.122 155.041 92.3845 154.9 93.5781 154.506C93.9059 154.237 94.2258 153.951 94.5331 153.651C96.5137 151.728 98.0788 149.221 99.142 146.325C99.534 142.261 98.8283 137.74 97.0077 132.553C96.4996 131.107 95.9743 129.185 95.4176 127.151C94.8922 125.233 94.3042 123.08 93.6283 120.97C93.5938 121.417 93.5577 121.864 93.5217 122.308C93.277 125.36 93.0512 128.242 93.7004 130.714C95.0036 135.627 95.9555 142.963 93.0826 150.023C92.264 152.035 91.1584 153.7 89.871 154.924V154.921ZM77.5624 135.179C77.5844 140.884 78.5363 145.131 80.5419 148.515C81.9533 150.89 84.3165 153.168 87.1518 154.273C89.3598 152.916 90.6315 150.184 91.0346 149.194C93.6769 142.702 92.7815 135.871 91.5646 131.287C90.8103 128.446 91.0691 125.239 91.3184 122.137C91.4925 119.988 91.6603 117.901 91.5128 115.997C91.08 115.495 90.6347 114.999 90.1799 114.517C89.7337 114.031 89.2599 113.571 88.7607 113.14C87.6226 112.553 86.3556 112.26 85.0755 112.289C84.4655 112.76 83.8476 113.284 83.2737 113.772C82.6997 114.26 82.118 114.756 81.5565 115.184C79.6481 121.365 78.4876 128.413 77.5624 135.179ZM73.7251 122.17C69.7169 129.167 68.7195 137.839 71.0733 145.556C71.7119 147.699 72.6693 149.735 73.9133 151.593C73.7628 149.792 73.7791 147.981 73.9619 146.184C71.4682 138.385 71.3857 130.016 73.7251 122.17ZM77.5875 118.248C77.1858 119.072 76.8282 119.917 76.5165 120.779C74.3026 126.893 73.6836 133.472 74.7178 139.892C74.9216 138.3 75.1318 136.676 75.3544 135.029C75.3544 134.891 75.3544 134.754 75.3544 134.616C75.3879 129.086 76.1385 123.583 77.5875 118.246V118.248ZM96.636 123.301C96.9497 124.415 97.2633 125.517 97.5472 126.576C98.0929 128.57 98.6072 130.454 99.0902 131.827C99.7657 133.724 100.316 135.663 100.738 137.632C100.789 135.667 100.651 133.702 100.326 131.764C99.3871 128.825 98.1507 125.989 96.636 123.301Z" fill="#233865"/>
<path d="M85.1053 74.2394C85.4676 72.8525 85.8816 71.4798 86.3598 70.1289C87.1816 67.8337 88.1774 65.5792 88.5647 63.171C88.952 60.7627 88.2087 57.8886 86.6688 56.0012L84.4624 56.2961C82.4143 56.6099 80.6549 58.0219 79.4975 59.7383C78.3402 61.4546 77.7114 63.4753 77.2002 65.4835C76.6218 67.7839 76.1814 70.1168 75.8813 72.4697C78.7561 73.8332 81.9304 74.4422 85.1053 74.2394Z" fill="#1B3266"/>
<path d="M92.1158 112.688C92.3557 113.083 92.4984 113.538 92.7901 113.899C93.0818 114.26 93.6024 114.502 94.0086 114.28C93.6571 113.475 93.4633 112.609 93.4378 111.731C93.4513 111.635 93.4375 111.538 93.3981 111.45C93.3587 111.362 93.2953 111.287 93.2151 111.234C92.5193 110.621 91.9328 109.894 91.4807 109.084C91.4174 108.954 91.3361 108.834 91.2392 108.727C91.0633 108.581 90.8561 108.479 90.6339 108.427C89.8624 108.177 89.1145 107.86 88.3992 107.478C88.0999 107.32 87.8173 107.133 87.5556 106.919C83.1443 96.7026 82.2991 85.0019 85.1077 74.2394C81.9322 74.4423 78.7574 73.8333 75.8821 72.4697C74.339 84.3038 75.799 95.504 81.0571 106.223C81.2374 106.588 81.7345 107.509 82.2144 108.336C82.8417 110.652 83.3639 112.999 84.4302 115.137C84.5136 115.328 84.6322 115.501 84.7799 115.648C84.9916 115.835 85.277 115.906 85.5279 116.031C85.8855 116.212 86.174 116.51 86.5284 116.698C86.8828 116.886 87.369 116.935 87.645 116.645C87.6917 116.582 87.7497 116.529 87.8159 116.488C87.8967 116.457 87.9859 116.457 88.0668 116.488C88.2966 116.586 88.5316 116.671 88.7709 116.743C89.0155 116.792 89.315 116.722 89.4201 116.496C89.4468 116.404 89.4815 116.315 89.5236 116.229C89.7008 115.981 89.7526 116.02 90.027 116.15C90.2246 116.245 90.924 116.485 91.476 116.263C91.6908 116.177 90.6464 114.193 90.2763 113.781C89.9063 113.37 88.0197 112.544 90.6888 111.486C91.2851 111.716 91.7873 112.139 92.1158 112.688Z" fill="#D39D81"/>
<path d="M64.1174 18.8721C67.2708 18.8721 69.8271 16.3146 69.8271 13.1598C69.8271 10.005 67.2708 7.44747 64.1174 7.44747C60.964 7.44747 58.4077 10.005 58.4077 13.1598C58.4077 16.3146 60.964 18.8721 64.1174 18.8721Z" fill="#1B3266"/>
<path d="M66.4275 5.08949H61.8062V10.077H66.4275V5.08949Z" fill="#1B3266"/>
<path d="M67.1515 0.828407H61.0796V5.81588H67.1515V0.828407Z" fill="#233865"/>
<path d="M159.934 0H9.8208V1.47161H159.934V0Z" fill="#0093B7"/>
</svg>
