<svg width="271" height="144" viewBox="0 0 271 144" fill="none" xmlns="http://www.w3.org/2000/svg">
<path d="M172.663 131.563H5.96631V137.718H172.663V131.563Z" fill="#1B284C"/>
<path d="M158.784 7.18799H19.8486V13.1021H158.784V7.18799Z" fill="#263467"/>
<path d="M164.346 18.627H14.2861V125.908H164.346V18.627Z" fill="#F7F7FF"/>
<path d="M61.926 69.6849H22.229V129.119H61.926V69.6849Z" fill="#40649F"/>
<path d="M58.1105 73.3446H26.0444V129.115H58.1105V73.3446Z" fill="#B0A8C6"/>
<path d="M156.082 69.6849H67.4067V117.002H156.082V69.6849Z" fill="#40649F"/>
<path d="M58.1105 73.3446H26.0444V117.929H58.1105V73.3446Z" fill="#E9E4F2"/>
<path d="M153.226 73.3446H70.2617V109.745H153.226V73.3446Z" fill="#E9E4F2"/>
<path d="M116.102 98.8476C116.102 98.8476 115.809 99.808 115.731 100.149C115.654 100.49 115.361 101.143 115.231 101.102C115.101 101.061 115.372 99.7894 115.298 99.7153C115.224 99.6411 114.615 100.29 114.556 100.457C114.497 100.624 114.69 101.914 114.556 101.921C114.423 101.929 114.093 101.269 114.007 100.531C113.922 99.7931 114.986 98.3063 114.986 98.3063L116.102 98.8476Z" fill="#CEC7DD"/>
<path d="M122.536 98.9366C122.476 95.822 120.218 95.5476 120.218 95.5476C120.218 95.5476 117.964 95.2732 117.864 98.3693C117.793 100.746 118.457 107.228 118.772 110.112C118.793 110.486 118.937 110.842 119.181 111.125C119.425 111.409 119.756 111.604 120.122 111.681C120.808 111.762 121.394 111.236 121.49 110.442C121.838 107.635 122.58 101.328 122.536 98.9366Z" fill="#CEC7DD"/>
<path d="M127.857 98.9366C127.798 95.822 125.543 95.5476 125.543 95.5476C125.543 95.5476 123.285 95.2732 123.189 98.3693C123.115 100.746 123.778 107.228 124.094 110.112C124.116 110.486 124.26 110.841 124.503 111.125C124.747 111.408 125.077 111.603 125.443 111.681C126.129 111.762 126.715 111.236 126.811 110.442C127.16 107.635 127.902 101.328 127.857 98.9366Z" fill="#CEC7DD"/>
<path d="M121.523 110.201C121.505 109.862 121.358 109.542 121.111 109.308C120.865 109.074 120.538 108.944 120.198 108.944C119.858 108.944 119.531 109.074 119.284 109.308C119.038 109.542 118.89 109.862 118.872 110.201C118.809 111.499 119.506 121.414 119.506 121.414H121.145C121.145 121.414 121.586 111.499 121.523 110.201Z" fill="#CEC7DD"/>
<path d="M119.561 121.414C119.561 121.414 116.713 122.686 116.376 122.849C116.039 123.012 115.898 123.335 116.769 123.335H120.407C120.585 123.351 120.762 123.297 120.901 123.184C121.04 123.071 121.129 122.908 121.148 122.73V121.414H119.561Z" fill="#CEC7DD"/>
<path d="M126.636 109.319C126.538 108.981 126.309 108.695 126 108.525C125.692 108.356 125.328 108.316 124.99 108.414C124.651 108.512 124.366 108.741 124.196 109.05C124.027 109.359 123.987 109.722 124.085 110.06C124.385 111.328 127.793 120.665 127.793 120.665L129.369 120.213C129.369 120.213 127.055 110.55 126.636 109.319Z" fill="#CEC7DD"/>
<path d="M126.069 83.6378C126.069 83.6378 127.771 83.3671 127.868 85.6771C127.953 87.6979 128.153 90.6754 128.205 91.9064C128.187 92.1307 128.088 92.3408 127.926 92.4972C127.764 92.6535 127.551 92.7454 127.326 92.7555C127.107 92.8063 126.877 92.7752 126.678 92.668C126.48 92.5608 126.328 92.3849 126.251 92.1734C125.969 90.9795 125.324 88.0613 124.89 86.0887C124.401 83.8343 126.069 83.6378 126.069 83.6378Z" fill="#CEC7DD"/>
<path d="M125.669 83.4005L125.483 83.3448C123.704 82.8072 121.805 82.8072 120.025 83.3448L119.836 83.4005C119.718 83.4519 119.615 83.5346 119.54 83.6398C119.465 83.745 119.42 83.8686 119.41 83.9974C119.117 86.0257 119.41 92.6443 119.499 94.832C119.517 95.2324 119.762 95.5439 120.059 95.5439H125.446C125.747 95.5439 125.991 95.2324 126.01 94.832C126.114 92.6443 126.381 86.0257 126.095 83.9974C126.087 83.8681 126.042 83.7438 125.967 83.6383C125.892 83.5329 125.788 83.4505 125.669 83.4005Z" fill="#CEC7DD"/>
<path d="M127.571 97.2347C127.037 94.3425 126.014 93.3377 126.014 93.3377H119.432C119.432 93.3377 118.461 94.7281 117.923 97.6203C117.885 97.8265 117.91 98.0392 117.995 98.231C118.079 98.4227 118.22 98.5846 118.397 98.6956C119.704 99.4273 121.177 99.8116 122.675 99.8116C124.172 99.8116 125.645 99.4273 126.952 98.6956C127.158 98.5141 127.32 98.2886 127.428 98.0357C127.535 97.7828 127.584 97.5091 127.571 97.2347Z" fill="#CEC7DD"/>
<path d="M124.048 80.3711H121.445V83.5303H124.048V80.3711Z" fill="#CEC7DD"/>
<path d="M123.974 81.4575C123.974 81.4575 123.233 82.4141 121.445 82.4141V81.0533L123.974 81.4575Z" fill="#CEC7DD"/>
<path d="M119.703 83.6378C119.703 83.6378 118.001 83.3671 117.904 85.6771C117.819 87.6979 117.619 90.6754 117.567 91.9064C117.586 92.1305 117.685 92.3401 117.847 92.4963C118.008 92.6525 118.221 92.7446 118.446 92.7555C118.665 92.8063 118.895 92.7752 119.094 92.668C119.292 92.5608 119.444 92.3849 119.521 92.1734C119.806 90.9795 120.448 88.0613 120.882 86.0887C121.379 83.8343 119.703 83.6378 119.703 83.6378Z" fill="#CEC7DD"/>
<path d="M118.768 90.8905C118.768 90.8905 117.689 90.4048 116.94 92.5887C116.28 94.5057 115.257 97.3163 114.86 98.4806C114.792 98.6505 114.789 98.8395 114.852 99.0113C114.915 99.1831 115.04 99.3256 115.201 99.4113C115.376 99.4671 115.565 99.4563 115.732 99.381C115.899 99.3057 116.032 99.1712 116.106 99.0034C116.655 97.891 117.96 95.2102 118.843 93.3859C119.847 91.3058 118.768 90.8905 118.768 90.8905Z" fill="#CEC7DD"/>
<path d="M127.582 109.545C127.582 108.803 130.285 96.6377 126.099 92.9743H119.424C119.424 92.9743 117.57 95.4846 117.57 101.336C117.57 107.187 117.908 120.965 117.908 120.965H121.946L122.936 99.808C122.936 99.808 123.288 107.253 123.603 109.897C123.918 112.541 126.514 120.65 126.514 120.65L130.088 119.694C130.088 119.694 127.582 110.287 127.582 109.545Z" fill="#CEC7DD"/>
<path d="M121.445 82.7145C121.445 82.7145 118.775 82.9407 117.904 84.1977C117.207 85.21 117.281 90.4678 117.04 91.2798C116.799 92.0918 113.825 97.6685 114.86 98.4695C115.894 99.2704 116.451 99.5485 116.714 99.2704C116.977 98.9923 117.7 97.2013 117.7 97.2013C117.7 97.2013 122.565 97.8354 125.576 97.8354C128.587 97.8354 129.083 96.2521 128.835 95.1397C128.587 94.0274 128.538 89.0254 128.197 86.4855C127.856 83.9456 127.901 83.6452 124.033 82.7034C123.199 83.0142 122.282 83.0182 121.445 82.7145Z" fill="#CEC7DD"/>
<path d="M128.208 92.2327C128.208 92.2327 127.867 93.3451 125.728 92.4923C123.851 91.7284 121.059 90.6383 119.921 90.1822C119.748 90.1213 119.604 89.9985 119.517 89.8376C119.429 89.6767 119.404 89.4891 119.447 89.3109C119.52 89.1424 119.653 89.0071 119.82 88.9311C119.987 88.855 120.176 88.8437 120.351 88.8993C121.541 89.2107 124.43 90.0117 126.38 90.5345C128.609 91.1426 128.208 92.2327 128.208 92.2327Z" fill="#CEC7DD"/>
<path d="M120.389 91.0721C120.189 90.9604 120.032 90.7864 119.941 90.5768C119.85 90.3672 119.83 90.1335 119.884 89.9116C119.978 89.4031 120.186 88.9226 120.493 88.5063C121.008 87.9946 125.591 89.741 125.591 89.741C125.591 89.741 125.402 85.247 126.511 83.5302C128.146 83.9974 128.183 84.7724 128.605 88.6472C129.028 92.5219 128.257 93.6529 126.511 93.6529C125.153 93.6529 121.816 91.8693 120.389 91.0721Z" fill="#CEC7DD"/>
<path d="M119.495 121.262C119.495 121.262 117.27 121.948 116.388 122.237C116.274 122.265 116.169 122.32 116.08 122.396C115.991 122.473 115.922 122.569 115.878 122.678C115.834 122.786 115.816 122.904 115.826 123.021C115.836 123.137 115.873 123.25 115.935 123.35H121.145V121.429C120.876 121.534 120.587 121.573 120.3 121.544C120.013 121.515 119.737 121.418 119.495 121.262Z" fill="#CEC7DD"/>
<path d="M127.842 120.502C127.842 120.502 125.435 122.489 125.153 122.727C124.872 122.964 124.823 123.324 125.665 123.097L129.169 122.126C129.345 122.094 129.5 121.995 129.603 121.849C129.706 121.703 129.747 121.523 129.718 121.347L129.366 120.079L127.842 120.502Z" fill="#CEC7DD"/>
<path d="M127.738 120.372C127.738 120.372 125.772 121.629 125.001 122.141C124.901 122.198 124.816 122.278 124.753 122.375C124.689 122.471 124.649 122.581 124.636 122.695C124.622 122.81 124.635 122.926 124.674 123.034C124.713 123.142 124.777 123.24 124.86 123.32L129.881 121.929L129.365 120.075C129.137 120.251 128.871 120.37 128.588 120.421C128.304 120.473 128.013 120.456 127.738 120.372Z" fill="#CEC7DD"/>
<path d="M117.77 89.8189C117.77 89.6891 118.764 89.7114 118.764 89.7114C118.764 89.7114 117.425 89.3962 117.444 89.259C117.463 89.1218 118.809 89.3628 118.809 89.3628C118.809 89.3628 117.4 88.8326 117.448 88.7028C117.496 88.573 118.853 88.9957 118.853 88.9957C118.853 88.9957 117.559 88.3802 117.652 88.2541C117.744 88.1281 119.469 88.7844 119.469 88.7844C119.469 88.7844 118.612 88.1837 118.631 88.0428C118.649 87.9019 118.872 88.0725 119.246 88.2319C119.677 88.4235 120.08 88.673 120.444 88.9735L120.214 90.0859C120.214 90.0859 117.759 89.9524 117.77 89.8189Z" fill="#CEC7DD"/>
<path d="M121.59 82.0879H122.265C123.052 82.0879 123.806 81.7754 124.363 81.2191C124.919 80.6628 125.231 79.9083 125.231 79.1216V77.7682C125.231 77.2765 125.036 76.8049 124.688 76.4572C124.341 76.1095 123.869 75.9142 123.377 75.9142H122.584C122.092 75.9142 121.621 76.1095 121.273 76.4572C120.925 76.8049 120.73 77.2765 120.73 77.7682V81.2202C120.733 81.4482 120.824 81.6661 120.985 81.828C121.145 81.9899 121.362 82.0831 121.59 82.0879Z" fill="#CEC7DD"/>
<path d="M120.716 78.9955C120.716 78.9955 119.544 80.4786 120.716 80.4786V78.9955Z" fill="#CEC7DD"/>
<path d="M123.325 79.3329C123.325 79.3329 122.55 78.4801 122.732 76.7374C121.23 76.7374 120.83 77.1081 120.83 77.1081C120.83 77.1081 119.906 76.3109 121.093 75.3321C122.279 74.3532 125.283 74.5905 125.717 76.5631C126.15 78.5357 125.898 80.538 124.007 81.4946C124.064 81.1061 124.033 80.7098 123.915 80.3353C123.796 79.9609 123.595 79.6181 123.325 79.3329Z" fill="#CEC7DD"/>
<path d="M122.639 79.4404H120.437C120.237 79.6963 120.124 80.0094 120.114 80.334C120.114 80.8457 120.782 81.9358 121.457 82.1323C122.003 82.2231 122.565 82.1695 123.084 81.9766L122.639 79.4404Z" fill="#CEC7DD"/>
<path d="M123.01 79.3069C122.995 79.4393 123.017 79.5732 123.075 79.6934C123.132 79.8136 123.222 79.9153 123.335 79.9869C123.447 80.0585 123.577 80.0971 123.71 80.0985C123.843 80.0998 123.974 80.0637 124.088 79.9943C124.202 79.925 124.294 79.8251 124.354 79.706C124.413 79.587 124.438 79.4536 124.426 79.321C124.414 79.1883 124.365 79.0618 124.284 78.9557C124.203 78.8497 124.095 78.7684 123.97 78.7211C123.765 78.6759 123.551 78.7116 123.372 78.8208C123.193 78.93 123.063 79.1042 123.01 79.3069Z" fill="#CEC7DD"/>
<path d="M154.883 94.6614H69.4678V126.186H154.883V94.6614Z" fill="#F2F0F7"/>
<path d="M154.883 117.932H69.4678V126.19H154.883V117.932Z" fill="#B0A8C6"/>
<path d="M88.9902 97.7279C89.1291 98.1109 89.2212 98.5093 89.2646 98.9144C89.2461 99.2518 89.1311 99.9193 88.9865 99.9155C88.8419 99.9118 88.8382 98.6549 88.7455 98.5992C88.6528 98.5436 88.2078 99.2815 88.1893 99.4521C88.1708 99.6226 88.638 100.791 88.5119 100.824C88.3858 100.857 87.9149 100.312 87.6739 99.6375C87.4329 98.9626 88.0002 97.9392 88.0002 97.9392L88.9902 97.7279Z" fill="#CEC7DD"/>
<path d="M104.66 95.0656C105.06 95.203 105.474 95.295 105.894 95.3399C106.265 95.3399 106.94 95.2213 106.936 95.0804C106.933 94.9395 105.624 94.9284 105.568 94.8394C105.512 94.7504 106.284 94.3314 106.465 94.3128C106.647 94.2943 107.852 94.7541 107.889 94.6354C107.926 94.5168 107.359 94.057 106.662 93.8197C105.965 93.5824 104.89 94.12 104.89 94.12L104.66 95.0656Z" fill="#CEC7DD"/>
<path d="M87.5069 89.6446C87.5069 89.6446 86.3278 89.7447 86.7468 91.925C87.1176 93.8383 87.5996 96.6748 87.8258 97.8354C87.8505 98.0119 87.9403 98.1729 88.0774 98.2867C88.2146 98.4006 88.3893 98.4591 88.5674 98.4509C88.7452 98.4234 88.9055 98.3281 89.0147 98.185C89.1239 98.042 89.1735 97.8622 89.1532 97.6834C89.0902 96.5043 88.9048 93.6381 88.7824 91.6951C88.6564 89.4815 87.5069 89.6446 87.5069 89.6446Z" fill="#CEC7DD"/>
<path d="M96.317 83.0038L96.1279 82.9519C94.3454 82.4346 92.4525 82.4346 90.6699 82.9519L90.4808 83.0075C90.3642 83.0539 90.2629 83.132 90.1882 83.2329C90.1135 83.3337 90.0685 83.4534 90.0581 83.5785C89.7614 85.5289 90.0581 91.8842 90.1434 93.9829C90.1326 94.1465 90.1844 94.308 90.2884 94.4347C90.3924 94.5615 90.5407 94.6438 90.7033 94.6652H96.0946C96.2571 94.6438 96.4054 94.5615 96.5094 94.4347C96.6134 94.308 96.6653 94.1465 96.6545 93.9829C96.7583 91.8842 97.0253 85.5289 96.7435 83.5785C96.7322 83.4527 96.6864 83.3325 96.6111 83.2311C96.5359 83.1297 96.4341 83.051 96.317 83.0038Z" fill="#CEC7DD"/>
<path d="M88.8007 109.114V109.07C88.7564 108.971 88.7896 109.111 88.8007 109.114Z" fill="#CEC7DD"/>
<path d="M98.2335 97.5499C98.2264 96.8545 98.1594 96.161 98.0333 95.4771C97.4993 92.7036 96.6613 92.559 96.6613 92.559H89.9871C89.9871 92.559 89.3345 92.8927 88.7968 95.67L88.7301 96.1817C88.6115 97.0532 88.5447 97.9311 88.5299 98.8106C88.4817 101.732 88.5076 106.805 88.808 109.13C88.845 111.28 89.531 119.512 89.531 119.512H92.286C92.286 119.512 92.7903 109.994 92.7198 108.759C92.7198 108.759 92.7198 108.759 92.7198 108.74C92.9052 107.472 93.1685 105.6 93.3984 103.72C93.6246 105.6 93.8878 107.472 94.0732 108.74C94.0732 108.74 94.0732 108.74 94.0732 108.759C94.0028 110.005 94.507 119.512 94.507 119.512H97.262C97.262 119.512 97.948 111.273 98.0036 109.13C98.278 106.734 98.2594 100.65 98.2335 97.5499Z" fill="#CEC7DD"/>
<path d="M95.2011 80.093H92.5981V83.1261H95.2011V80.093Z" fill="#CEC7DD"/>
<path d="M91.0661 78.9621C91.0892 79.0719 91.143 79.1728 91.2212 79.2533C91.2994 79.3337 91.3988 79.3903 91.5079 79.4165C91.6169 79.4428 91.7312 79.4375 91.8374 79.4015C91.9436 79.3654 92.0375 79.2999 92.108 79.2127C92.1785 79.1254 92.2228 79.02 92.2358 78.9085C92.2489 78.7971 92.23 78.6843 92.1815 78.5831C92.133 78.482 92.0568 78.3967 91.9617 78.3371C91.8667 78.2775 91.7567 78.2461 91.6445 78.2465C91.4735 78.2661 91.3171 78.3521 91.2089 78.4859C91.1007 78.6198 91.0494 78.7908 91.0661 78.9621Z" fill="#CEC7DD"/>
<path d="M95.5899 78.9621C95.6137 79.0708 95.6678 79.1705 95.7458 79.2497C95.8239 79.329 95.9228 79.3846 96.0311 79.41C96.1394 79.4354 96.2527 79.4297 96.3579 79.3934C96.4631 79.3572 96.5558 79.2919 96.6255 79.2052C96.6952 79.1184 96.7389 79.0138 96.7515 78.9032C96.7642 78.7927 96.7454 78.6809 96.6972 78.5806C96.649 78.4803 96.5734 78.3957 96.4792 78.3366C96.3849 78.2775 96.2759 78.2462 96.1646 78.2465C95.9939 78.266 95.8378 78.3522 95.7302 78.4862C95.6226 78.6201 95.5722 78.7912 95.5899 78.9621Z" fill="#CEC7DD"/>
<path d="M93.8588 81.6096H93.9515C94.5415 81.6096 95.1074 81.3752 95.5246 80.9579C95.9418 80.5407 96.1762 79.9749 96.1762 79.3848V77.4901C96.1752 77.0065 95.9827 76.5431 95.6408 76.2012C95.2989 75.8593 94.8354 75.6668 94.3519 75.6658H93.4805C92.9973 75.6677 92.5344 75.8606 92.1927 76.2023C91.851 76.544 91.6582 77.0068 91.6562 77.4901V79.3959C91.6591 79.9802 91.8918 80.5399 92.3039 80.9541C92.716 81.3683 93.2745 81.6037 93.8588 81.6096Z" fill="#CEC7DD"/>
<path d="M90.6958 83.3411C90.6958 83.3411 89.1051 82.7071 88.4711 84.8243C87.9149 86.6783 87.0213 89.4258 86.6838 90.5604C86.6492 90.7776 86.697 90.9999 86.8177 91.1837C86.9384 91.3675 87.1234 91.4996 87.3364 91.5542C87.5373 91.6519 87.7663 91.6753 87.9828 91.6204C88.1993 91.5654 88.3893 91.4355 88.5193 91.2538C89.0754 90.2008 90.3732 87.6238 91.2705 85.8773C92.2791 83.901 90.6958 83.3411 90.6958 83.3411Z" fill="#CEC7DD"/>
<path d="M96.7765 82.7812C96.7765 82.7812 95.1042 83.1743 95.9089 85.2544C96.6134 87.075 97.5811 89.7892 98.0112 90.8942C98.1189 91.0893 98.2929 91.2396 98.5016 91.3178C98.7103 91.396 98.9402 91.397 99.1496 91.3206C99.3677 91.2888 99.5664 91.1779 99.708 91.009C99.8495 90.8401 99.924 90.625 99.9171 90.4047C99.7132 89.2404 99.1755 86.4187 98.8047 84.5091C98.408 82.3326 96.7765 82.7812 96.7765 82.7812Z" fill="#CEC7DD"/>
<path d="M98.1411 89.8745C98.1411 89.8745 97.1992 90.6717 99.1607 91.8471C100.881 92.8705 103.51 94.3129 104.556 94.9358C104.706 95.0401 104.889 95.0852 105.07 95.0626C105.252 95.0401 105.418 94.9513 105.538 94.8134C105.635 94.6632 105.669 94.4808 105.632 94.3058C105.595 94.1309 105.491 93.9775 105.342 93.8791C104.393 93.1375 102.06 91.3317 100.481 90.1118C98.6787 88.7065 98.1411 89.8745 98.1411 89.8745Z" fill="#CEC7DD"/>
<path d="M92.5975 82.4327C92.5975 82.4327 89.7869 83.0111 88.7227 83.4894C87.6586 83.9678 86.6611 89.0773 86.6611 89.0773L89.1751 90.1526L88.1406 96.9195C88.1136 97.1187 88.1266 97.3213 88.1788 97.5154C88.231 97.7095 88.3214 97.8913 88.4446 98.0501C88.5678 98.2089 88.7215 98.3415 88.8966 98.4403C89.0717 98.539 89.2647 98.6019 89.4643 98.6252C92.1719 99.0004 94.9195 98.9816 97.6217 98.5695C97.993 98.5096 98.3288 98.3142 98.5644 98.0211C98.8 97.728 98.9186 97.358 98.8973 96.9826C98.4894 90.9164 97.6514 85.8291 97.6514 85.8291L97.9666 90.1415L100.403 89.2516L99.3904 83.4635C99.2592 83.1881 99.0605 82.9503 98.813 82.772C98.5654 82.5938 98.2768 82.4809 97.974 82.4438L95.2116 82.073C94.8447 82.355 94.4106 82.5364 93.9522 82.5995C93.4938 82.6626 93.0269 82.6051 92.5975 82.4327Z" fill="#CEC7DD"/>
<path d="M90.4209 119.504C90.4209 119.504 86.9985 119.504 86.9985 121.358H92.3565L92.2786 119.504" fill="#CEC7DD"/>
<path d="M96.3501 119.504C96.3501 119.504 99.7725 119.504 99.7725 121.358H94.4146L94.4924 119.504" fill="#CEC7DD"/>
<path d="M93.7883 81.8691C94.293 81.8711 94.7873 81.7259 95.2107 81.4513C95.6342 81.1766 95.9684 80.7845 96.1724 80.3229C96.914 78.6988 97.2589 77.0822 95.9166 75.7918C95.3972 75.2977 94.7175 75.0067 94.0014 74.972C93.2853 74.9373 92.5806 75.1611 92.0159 75.6027C91.341 76.2516 90.7292 77.1489 91.0333 78.8694C91.3373 80.5899 92.535 81.8691 93.7883 81.8691Z" fill="#CEC7DD"/>
<path d="M82.0153 81.3315H61.9258V117.858H82.0153V81.3315Z" fill="#CEC7DD"/>
<path d="M154.884 84.8503H134.794V117.858H154.884V84.8503Z" fill="#CEC7DD"/>
<path d="M166.048 125.267H12.5806V131.563H166.048V125.267Z" fill="#263467"/>
<path d="M59.5417 125.267H24.6094V131.563H59.5417V125.267Z" fill="#9C95B5"/>
<path d="M61.926 131.563H22.229V137.718H61.926V131.563Z" fill="#8A83A5"/>
<path d="M51.9999 79.9595H26.0444V117.932H51.9999V79.9595Z" fill="#CEC7DD"/>
<path d="M30.0601 92.5702L39.0555 89.856V80.8606L30.0601 83.5711V92.5702Z" fill="white"/>
<path d="M40.991 71.3832V118.844L28.1246 122.771V75.3098L41.8995 71.3832H40.991ZM43.086 68.8284L26.0444 73.3928V125.304L43.0712 120.739V68.8284H43.086Z" fill="#1C344D"/>
<path d="M26.4673 99.5151C26.4673 100.101 26.7194 100.501 27.0309 100.409L42.085 95.8887C42.3965 95.796 42.6486 95.2473 42.6486 94.6577C42.6486 94.0719 42.3965 93.6714 42.085 93.7641L27.0309 98.2692C26.7194 98.3619 26.4673 98.9144 26.4673 99.5151Z" fill="#1C344D"/>
<path d="M0 59.0024V69.8925C3.13947 71.2231 6.51445 71.9088 9.92424 71.9088C13.334 71.9088 16.709 71.2231 19.8485 69.8925V59.0024H0Z" fill="#1B284C"/>
<path d="M59.542 59.0024V69.8925L59.3121 69.9926C56.2464 71.2914 52.951 71.9606 49.6215 71.9606C46.2921 71.9606 42.9966 71.2914 39.9309 69.9926L39.6973 69.8925V59.0024" fill="#1B284C"/>
<path d="M99.2391 59.0024V69.8925C96.0996 71.2231 92.7247 71.9088 89.3149 71.9088C85.9051 71.9088 82.5301 71.2231 79.3906 69.8925V59.0024" fill="#1B284C"/>
<path d="M138.936 59.0024V69.8925C135.796 71.2231 132.421 71.9088 129.012 71.9088C125.602 71.9088 122.227 71.2231 119.087 69.8925V59.0024" fill="#1B284C"/>
<path d="M178.629 59.0024V69.8925C175.49 71.223 172.116 71.9086 168.707 71.9086C165.297 71.9086 161.923 71.223 158.784 69.8925V59.0024" fill="#1B284C"/>
<path d="M39.6971 59.0024V69.8925C36.5576 71.2231 33.1827 71.9088 29.7729 71.9088C26.3631 71.9088 22.9881 71.2231 19.8486 69.8925V59.0024" fill="#E9E4F2"/>
<path d="M79.3898 59.0024V69.8925C76.4246 71.2226 73.2216 71.9409 69.9724 72.0046C66.7232 72.0684 63.4945 71.4761 60.4794 70.2633L59.5376 69.8925V59.0024" fill="#E9E4F2"/>
<path d="M119.087 59.0024V69.8925C115.947 71.2231 112.572 71.9088 109.163 71.9088C105.753 71.9088 102.378 71.2231 99.2383 69.8925V59.0024" fill="#E9E4F2"/>
<path d="M158.784 59.0024V69.8925C155.645 71.2231 152.27 71.9088 148.86 71.9088C145.45 71.9088 142.075 71.2231 138.936 69.8925V59.0024" fill="#E9E4F2"/>
<path d="M0 59.0024L14.2866 38.4902H30.9574L19.8485 59.0024" fill="#263467"/>
<path d="M158.784 59.0024L147.671 38.4902H164.346L178.629 59.0024" fill="#263467"/>
<path d="M19.8486 59.0024L30.9575 38.4902H47.632L39.6971 59.0024" fill="#F2F0F7"/>
<path d="M39.6973 59.0024L47.6322 38.4902H64.3067L59.5457 59.0024" fill="#263467"/>
<path d="M59.5459 59.0024L64.3069 38.4902H80.9777L79.3907 59.0024" fill="#F2F0F7"/>
<path d="M79.3906 59.0024L80.9776 38.4902H97.6521L99.2391 59.0024" fill="#263467"/>
<path d="M99.2384 59.0024L97.6514 38.4902H114.326L119.087 59.0024" fill="#F2F0F7"/>
<path d="M119.087 59.0024L114.326 38.4902H130.996L138.935 59.0024" fill="#263467"/>
<path d="M138.936 59.0024L130.997 38.4902H147.672L158.784 59.0024" fill="#F2F0F7"/>
<path d="M164.346 32.9654H14.2861V38.4902H164.346V32.9654Z" fill="#1B284C"/>
<path d="M164.346 13.1021H14.2861V18.6269H164.346V13.1021Z" fill="#1B284C"/>
<g clip-path="url(#clip0_98_2135)">
<path d="M240.615 19.2258V9.98555C240.675 9.98173 240.73 9.97514 240.786 9.97514C242.791 9.97514 244.796 9.9741 246.802 9.97202C246.916 9.97202 246.978 10.0067 247.032 10.1068C247.32 10.6412 247.5 11.2114 247.602 11.807C247.711 12.4416 247.743 13.0812 247.672 13.7226C247.542 14.898 247.129 15.963 246.391 16.8912C245.411 18.124 244.131 18.8549 242.583 19.1318C242.086 19.2209 241.585 19.2327 241.082 19.2267C240.933 19.2242 240.784 19.2258 240.615 19.2258Z" fill="#FF000F"/>
<path d="M256.357 19.2268V9.98816C256.409 9.98347 256.458 9.97532 256.508 9.97532C258.524 9.97463 260.541 9.97359 262.557 9.9722C262.667 9.9722 262.722 10.0156 262.77 10.1054C263.065 10.6495 263.248 11.231 263.347 11.8386C263.435 12.3811 263.475 12.9274 263.429 13.4778C263.256 15.555 262.312 17.1731 260.549 18.2969C259.799 18.7753 258.968 19.0442 258.087 19.1685C257.518 19.249 256.947 19.2159 256.357 19.2268Z" fill="#FF000F"/>
<path d="M216.537 9.91876H222.516V15.1407C222.175 15.1464 221.836 15.1426 221.498 15.1433C221.157 15.1433 220.816 15.1433 220.476 15.1433H219.436C218.969 16.5036 218.502 17.8621 218.036 19.2189H213.245C213.25 19.0792 216.317 10.4161 216.537 9.91876Z" fill="#FF000F"/>
<path d="M229.116 9.92343C230.218 13.0143 231.321 16.111 232.427 19.2136H227.603C227.141 17.8677 226.676 16.5159 226.206 15.1454H223.133V9.92343H229.116Z" fill="#FF000F"/>
<path d="M234.206 0.0107727H239.982C240.02 0.138459 240.039 8.87055 240.002 9.28692C239.874 9.32578 234.675 9.34417 234.224 9.30739C234.186 9.18162 234.167 0.438243 234.206 0.0107727Z" fill="#FF000F"/>
<path d="M255.742 9.30634H249.946V0.012146H255.742V9.30634Z" fill="#FF000F"/>
<path d="M234.205 19.2156V9.92102H240.001V19.2156H234.205Z" fill="#FF000F"/>
<path d="M255.74 19.2175H249.965C249.927 19.0856 249.909 10.3717 249.945 9.93906C250.071 9.90315 255.327 9.88701 255.724 9.92067C255.76 10.0449 255.777 18.8427 255.74 19.2175Z" fill="#FF000F"/>
<path d="M244.329 7.40288C245.075 7.81005 245.727 8.29009 246.269 8.9103C246.373 9.03018 246.47 9.15787 246.589 9.30516H240.638C240.602 9.18736 240.593 0.219149 240.631 0.00922994C240.685 0.00680113 240.741 0.00229048 240.798 0.00229048C241.191 0.00159653 241.584 0.00159653 241.976 0.00229048C243.969 0.00610718 245.625 1.34265 245.996 3.29628C246.277 4.77438 245.805 6.02696 244.731 7.06371C244.669 7.12374 244.602 7.17925 244.536 7.23512C244.475 7.28647 244.411 7.33609 244.329 7.40288Z" fill="#FF000F"/>
<path d="M260.069 7.40149C260.949 7.88552 261.719 8.47711 262.324 9.30585H256.379C256.343 9.18111 256.327 0.379451 256.362 0.0159973C256.405 0.00916399 256.447 0.00470421 256.49 0.00263883C256.924 0.00159791 257.357 -0.00273925 257.79 0.00263883C259.752 0.0281413 261.415 1.41187 261.744 3.33514C262.016 4.92549 261.463 6.22612 260.244 7.25992C260.192 7.30382 260.138 7.34615 260.069 7.40149Z" fill="#FF000F"/>
<path d="M220.026 0.00888062H222.498C222.534 0.134311 222.545 9.0621 222.509 9.30377H216.713C217.819 6.20183 218.923 3.10353 220.026 0.00888062Z" fill="#FF000F"/>
<path d="M225.617 0.0145874C226.718 3.1045 227.822 6.20094 228.927 9.30392H223.15C223.114 9.18248 223.101 0.278981 223.138 0.0145874H225.617Z" fill="#FF000F"/>
</g>
<g clip-path="url(#clip1_98_2135)">
<path d="M222.914 54.5051C222.984 54.3273 223.033 54.1819 223.099 54.0391C223.389 53.4245 223.684 52.8112 223.973 52.1979C224.038 52.0641 224.127 52.0305 224.272 52.0318C225.242 52.0363 226.215 52.0318 227.186 52.0279C227.774 52.0279 228.363 52.0182 228.951 52.0279C229.288 52.035 229.234 52.0143 229.332 51.7552C229.506 51.2918 229.65 50.8174 229.806 50.3476C229.943 49.9359 230.082 49.5249 230.217 49.1132C230.266 48.9659 230.222 48.9122 230.051 48.9122C228.758 48.9122 227.465 48.9122 226.173 48.9122H225.961C226.219 48.5891 226.452 48.284 226.696 47.9887C227.084 47.5208 227.465 47.0484 227.874 46.5992C228.302 46.1274 228.737 45.6563 229.208 45.2291C229.968 44.5447 230.738 43.8693 231.54 43.2386C232.201 42.7216 232.908 42.2549 233.613 41.7948C234.099 41.4781 234.613 41.2028 235.122 40.9236C235.535 40.6968 235.95 40.4712 236.38 40.2819C237.035 39.9962 237.697 39.7254 238.369 39.4811C238.916 39.2827 239.48 39.127 240.039 38.9641C240.424 38.8512 240.812 38.7483 241.202 38.6552C241.393 38.61 241.59 38.6009 241.784 38.5718C242.063 38.5305 242.34 38.4775 242.62 38.4426C242.9 38.4077 243.187 38.3922 243.472 38.3779C243.772 38.3598 244.073 38.3327 244.373 38.3398C244.96 38.3534 245.549 38.3676 246.133 38.4212C246.525 38.4568 246.909 38.5505 247.296 38.6358C247.656 38.7127 248.024 38.7767 248.368 38.9034C248.92 39.1076 249.467 39.339 249.996 39.5949C250.794 39.9755 251.489 40.5087 252.125 41.1149C252.698 41.6636 253.166 42.3008 253.579 42.9801C253.935 43.5662 254.193 44.1951 254.419 44.8368C254.527 45.158 254.618 45.4848 254.691 45.8159C254.956 46.9717 255.065 48.1579 255.014 49.3426C255.002 49.6994 254.95 50.0535 254.908 50.4109C254.871 50.7095 254.811 51.0049 254.778 51.3034C254.763 51.4514 254.671 51.4288 254.584 51.4288C253.795 51.4288 253.007 51.4288 252.218 51.4288C250.817 51.4288 249.417 51.4288 248.017 51.4249C247.829 51.4249 247.755 51.5077 247.704 51.6673C247.526 52.2186 247.338 52.7659 247.158 53.3172C247.049 53.6501 246.949 53.9855 246.828 54.3732C249.203 54.3939 251.555 54.3732 253.937 54.3855C253.8 54.7261 253.679 55.0473 253.541 55.3627C253.347 55.8041 253.147 56.2423 252.947 56.6804C252.891 56.8039 252.801 56.8569 252.653 56.8562C251.16 56.8504 249.669 56.8562 248.177 56.8562C247.696 56.8562 247.216 56.8601 246.736 56.8562C246.595 56.8562 246.527 56.9002 246.483 57.0443C246.381 57.3784 246.249 57.7041 246.134 58.0344C246.037 58.3097 245.949 58.5876 245.851 58.8616C245.752 59.1356 245.652 59.4116 245.543 59.6824C245.462 59.8834 245.493 59.9409 245.706 59.9441L250.799 59.9473H251.058C251.014 60.0315 250.965 60.1131 250.912 60.1916C250.434 60.7985 249.975 61.4196 249.468 62.0012C248.879 62.6791 248.274 63.3474 247.628 63.9691C246.949 64.6225 246.229 65.2365 245.495 65.8304C244.9 66.3131 244.275 66.7636 243.637 67.1876C242.969 67.6309 242.279 68.0458 241.581 68.4336C240.983 68.7651 240.361 69.0553 239.738 69.3384C239.299 69.5322 238.842 69.6906 238.389 69.8554C237.962 70.0085 237.533 70.1578 237.097 70.2897C236.723 70.4028 236.341 70.4932 235.961 70.5863C235.638 70.6652 235.314 70.7453 234.986 70.8035C234.707 70.8532 234.423 70.883 234.14 70.9049C233.409 70.9612 232.678 71.0284 231.943 71.051C231.498 71.0541 231.054 71.0249 230.614 70.9637C230.141 70.9128 229.671 70.8338 229.206 70.7272C228.232 70.5027 227.294 70.1418 226.421 69.655C225.633 69.2126 224.914 68.6564 224.288 68.0044C223.674 67.3726 223.166 66.6456 222.784 65.8517C222.567 65.3909 222.377 64.9159 222.202 64.4377C222.09 64.1417 222.036 63.8263 221.954 63.5212C221.78 62.9099 221.75 62.2804 221.68 61.6542C221.574 60.7035 221.654 59.7657 221.781 58.8267C221.816 58.5682 221.836 58.3097 221.875 58.0512C221.901 57.8716 221.941 57.6942 221.994 57.5206C222.01 57.4912 222.032 57.4659 222.059 57.4469C222.087 57.4279 222.118 57.4157 222.151 57.4114C222.499 57.401 222.848 57.4056 223.197 57.4056C224.677 57.4025 226.157 57.401 227.637 57.401C227.757 57.401 227.84 57.3926 227.889 57.2401C228.027 56.8155 228.196 56.3999 228.355 55.9825C228.513 55.565 228.678 55.1333 228.839 54.7093C228.897 54.5587 228.858 54.5064 228.67 54.5064H222.914V54.5051ZM247.492 49.0402V49.0305C248.126 49.0305 248.76 49.0337 249.395 49.0266C249.467 49.0266 249.576 48.984 249.604 48.929C249.653 48.8081 249.687 48.6818 249.707 48.5529C249.772 48.2782 249.836 48.0036 249.901 47.7289C249.965 47.4542 250.038 47.1679 250.103 46.8887C250.175 46.5805 250.241 46.2709 250.313 45.9626C250.384 45.6543 250.454 45.3545 250.53 45.052C250.567 44.9014 250.521 44.8491 250.362 44.8497C249.373 44.8549 248.385 44.8497 247.397 44.8536C246.797 44.8536 246.196 44.8452 245.597 44.8594C244.504 44.8853 243.41 44.7877 242.317 44.9241C241.718 45.0025 241.127 45.1386 240.554 45.3306C239.692 45.6206 238.875 46.0314 238.128 46.5507C237.491 46.9774 236.911 47.4834 236.401 48.0565C235.92 48.6072 235.506 49.2043 235.229 49.8816C235.082 50.2403 234.992 50.6235 234.889 50.9997C234.779 51.3978 234.679 51.7998 234.584 52.2024C234.496 52.5811 234.418 52.9624 234.337 53.3424C234.224 53.8724 234.111 54.4023 233.999 54.9323C233.97 55.0615 233.942 55.1953 233.91 55.3265C233.809 55.7433 233.703 56.1582 233.606 56.5764C233.542 56.8562 233.497 57.1406 233.432 57.4204C233.332 57.8444 233.2 58.2606 233.124 58.6891C233.096 58.8658 233.03 59.0345 232.932 59.1839C232.833 59.3334 232.704 59.4601 232.553 59.5557C232.212 59.7964 231.802 59.9192 231.384 59.9053C231.019 59.8924 230.653 59.9053 230.286 59.9002C229.775 59.8924 229.265 59.8756 228.754 59.8698C228.32 59.864 227.885 59.8633 227.451 59.8743C227.415 59.8811 227.382 59.8964 227.353 59.9188C227.324 59.9413 227.301 59.9704 227.286 60.0036C227.188 60.3506 227.11 60.7035 227.022 61.0531C226.885 61.5964 226.746 62.1393 226.605 62.6817C226.47 63.2026 226.333 63.7222 226.196 64.2431C226.124 64.521 226.132 64.5262 226.421 64.5262C228.313 64.5262 230.205 64.5262 232.097 64.5262C233.196 64.5262 234.295 64.5863 235.374 64.2916C235.753 64.1876 236.142 64.1029 236.507 63.9588C237.055 63.7416 237.594 63.4986 238.122 63.233C238.87 62.8449 239.555 62.349 240.158 61.7614C240.834 61.1184 241.429 60.4043 241.782 59.5279C241.967 59.0678 242.097 58.5856 242.245 58.1106C242.316 57.8844 242.369 57.6524 242.429 57.423L242.646 56.5951C242.705 56.3689 242.765 56.1427 242.826 55.9172C242.842 55.8584 242.871 55.8028 242.886 55.744C242.95 55.4687 243.01 55.1921 243.079 54.918C243.144 54.6595 243.224 54.4094 243.293 54.1535C243.363 53.8976 243.423 53.6365 243.496 53.378C243.587 53.0406 243.69 52.7052 243.777 52.3666C243.878 51.9904 243.968 51.6117 244.066 51.2343C244.188 50.7625 244.31 50.2901 244.439 49.8202C244.508 49.5675 244.621 49.3123 244.864 49.2101C245.116 49.1076 245.384 49.0505 245.655 49.0415C246.267 49.024 246.88 49.0402 247.492 49.0402Z" fill="#009548"/>
</g>
<g clip-path="url(#clip2_98_2135)">
<path d="M252.699 100.652C252.699 99.0759 252.724 97.5 252.699 95.9199C252.681 95.097 252.975 94.7246 253.827 94.7328C257.277 94.7678 256.746 94.3213 256.787 97.5391C256.818 99.9112 256.581 99.6581 258.97 99.6581C261.097 99.6581 260.937 99.8433 260.949 97.6399C260.939 97.5029 260.939 97.3654 260.949 97.2284C261.075 96.4445 260.538 95.3768 261.33 94.9262C262.245 94.4201 263.404 94.7205 264.455 94.7966C264.92 94.8336 265.004 95.2451 265.004 95.6504C265.004 99.0053 265.004 102.362 265.004 105.719C265.004 106.324 264.696 106.591 264.113 106.589C264.046 106.589 263.978 106.589 263.908 106.589C260.505 106.577 260.968 106.927 260.939 103.754C260.918 101.405 261.095 101.697 258.816 101.687C256.586 101.687 256.808 101.469 256.781 103.744C256.74 107.015 257.254 106.552 253.866 106.608C252.952 106.624 252.648 106.229 252.691 105.373C252.732 104.588 252.691 103.798 252.691 103.01C252.691 102.222 252.697 101.432 252.699 100.652Z" fill="#019CA3"/>
<path d="M222.063 100.693C222.063 99.117 222.088 97.5411 222.063 95.9611C222.032 95.0949 222.382 94.7349 223.267 94.7451C225.766 94.774 228.266 94.7451 230.766 94.7616C231.192 94.7616 231.813 94.5065 231.963 95.1998C232.093 95.7985 231.28 96.7326 230.644 96.749C229.515 96.7778 228.381 96.8005 227.254 96.749C226.404 96.7161 226.122 97.0576 226.124 97.8929C226.124 99.6581 226.097 99.6581 227.838 99.6602C228.624 99.6602 229.412 99.6602 230.2 99.6602C230.891 99.6602 231.492 99.6602 231.496 100.642C231.496 101.681 230.879 101.697 230.14 101.687C229.147 101.676 228.153 101.713 227.161 101.676C226.418 101.648 226.067 101.927 226.132 102.687C226.147 102.857 226.132 103.03 226.132 103.201C226.132 104.563 226.149 104.575 227.501 104.581C228.768 104.581 230.035 104.602 231.303 104.581C232.019 104.571 232.265 104.925 232.263 105.596C232.261 106.266 231.986 106.608 231.284 106.604C228.541 106.591 225.801 106.591 223.065 106.604C222.302 106.604 222.049 106.238 222.057 105.522C222.079 103.913 222.057 102.302 222.057 100.693H222.063Z" fill="#019CA3"/>
<path d="M215.115 102.979C215.654 102.594 215.732 102.096 215.907 101.672C216.73 99.7528 217.569 97.8415 218.322 95.8952C218.68 94.9756 219.227 94.6423 220.18 94.7205C220.968 94.7822 221.122 95.0311 220.814 95.7491C219.795 98.1048 218.816 100.481 217.818 102.843C217.407 103.82 216.966 104.787 216.567 105.769C216.495 105.999 216.35 106.199 216.152 106.338C215.955 106.477 215.718 106.548 215.477 106.538C215.409 106.538 215.341 106.538 215.271 106.55C212.45 106.756 212.454 106.756 211.518 104.092C210.57 101.38 209.603 98.6747 208.659 95.9611C208.276 94.8871 208.367 94.741 209.482 94.7452C212.839 94.7575 212.016 94.3584 213.094 97.2593C213.79 99.1335 214.43 101.032 215.115 102.979Z" fill="#019CA3"/>
<path d="M249.436 98.578C248.228 98.7159 247.508 98.5287 246.846 97.7016C246.01 96.6729 244.568 96.856 243.906 98.0287C243.435 98.8129 243.182 99.7084 243.172 100.623C243.163 101.538 243.398 102.438 243.852 103.232C244.589 104.594 246.043 104.641 247.082 103.45C247.58 102.876 249.963 102.45 250.592 102.814C250.862 102.971 250.855 103.209 250.769 103.431C250.594 103.916 250.33 104.362 249.989 104.748C247.829 107.163 243.321 107.217 241.116 104.839C239.264 102.843 239.242 98.5451 241.075 96.5536C243.048 94.4139 247.08 94.128 249.356 95.9796C249.597 96.173 249.817 96.3916 250.012 96.6318C250.411 97.1379 251.012 97.7119 250.759 98.3332C250.506 98.9545 249.695 98.4752 249.436 98.578Z" fill="#019CA3"/>
<path d="M238.065 100.749C238.065 102.324 238.038 103.9 238.065 105.48C238.086 106.33 237.742 106.67 236.907 106.614C236.325 106.579 235.742 106.579 235.16 106.614C234.349 106.657 233.971 106.355 233.979 105.491C234.004 102.306 233.998 99.1129 233.979 95.9364C233.979 95.1361 234.232 94.7369 235.1 94.7431C238.598 94.7637 238.001 94.4263 238.057 97.5699C238.079 98.6253 238.065 99.6869 238.065 100.749Z" fill="#019CA3"/>
<path d="M270.969 100.662C270.969 102.273 270.948 103.884 270.969 105.493C270.981 106.268 270.693 106.614 269.889 106.612C266.284 106.594 266.951 106.882 266.889 103.806C266.838 101.166 266.901 98.5266 266.873 95.889C266.883 95.0538 267.185 94.7205 268.027 94.7287C271.537 94.7678 270.897 94.4016 270.967 97.5781C270.998 98.6048 270.971 99.6335 270.969 100.662Z" fill="#019CA3"/>
</g>
<g clip-path="url(#clip3_98_2135)">
<path d="M238.969 135.82C238.802 136.033 238.874 136.272 238.876 136.49C238.895 138.706 238.929 140.921 238.949 143.138C238.958 143.96 238.949 143.961 238.103 143.964C237.475 143.964 236.846 143.964 236.218 143.964C235.174 143.964 235.173 143.964 235.173 142.887C235.173 139.583 235.173 136.278 235.173 132.973C235.173 131.894 235.182 131.997 236.273 131.868C237.716 131.699 238.602 132.207 239.383 133.441C240.678 135.486 242.175 137.405 243.592 139.374C243.718 139.551 243.8 139.778 244.04 139.876C244.175 139.654 244.114 139.42 244.115 139.2C244.115 137.004 244.131 134.808 244.108 132.613C244.101 132.081 244.233 131.858 244.809 131.886C245.665 131.929 246.526 131.909 247.385 131.894C247.762 131.887 247.903 132.019 247.902 132.404C247.894 136.085 247.894 139.766 247.902 143.447C247.902 143.824 247.746 143.972 247.376 143.966C246.665 143.956 245.952 143.946 245.239 143.966C244.79 143.981 244.628 143.661 244.426 143.376C242.707 140.955 240.989 138.532 239.271 136.108C239.202 135.996 239.138 135.856 238.969 135.82Z" fill="#0E80C4"/>
<path d="M264.553 143.961C262.919 143.961 261.284 143.946 259.656 143.969C259.11 143.976 258.917 143.766 258.918 143.232C258.931 139.679 258.931 136.126 258.918 132.572C258.918 132.049 259.132 131.886 259.634 131.887C262.88 131.9 266.127 131.899 269.374 131.885C269.926 131.885 270.036 132.112 270.029 132.596C270.018 133.631 270.038 133.63 269.011 133.63C267.065 133.63 265.114 133.63 263.171 133.641C262.31 133.641 262.234 133.74 262.227 134.581C262.227 135.187 262.25 135.794 262.22 136.399C262.196 136.887 262.374 137.06 262.87 137.054C264.63 137.033 266.39 137.065 268.15 137.037C268.714 137.027 268.918 137.187 268.914 137.775C268.91 138.362 268.765 138.59 268.141 138.577C266.425 138.539 264.708 138.588 262.993 138.546C262.364 138.531 262.183 138.75 262.224 139.338C262.264 139.927 262.231 140.55 262.234 141.156C262.234 142.007 262.387 142.162 263.263 142.181C264.269 142.195 265.275 142.181 266.28 142.181C267.389 142.181 268.499 142.193 269.608 142.181C270.009 142.181 270.152 142.323 270.164 142.729C270.198 143.96 270.214 143.96 268.966 143.96L264.553 143.961Z" fill="#0E80C4"/>
<path d="M256.676 136.517C256.608 137.73 256.802 139.239 256.572 140.738C256.52 141.154 256.376 141.553 256.151 141.907C255.925 142.261 255.625 142.561 255.27 142.784C253.665 143.83 251.875 144 250.028 143.951C249.771 143.943 249.692 143.825 249.767 143.59C249.918 143.134 250.064 142.676 250.231 142.226C250.343 141.924 250.634 141.967 250.877 141.955C251.387 141.928 251.883 141.85 252.283 141.507C252.443 141.372 252.571 141.203 252.658 141.012C252.745 140.821 252.789 140.613 252.785 140.403C252.826 138.392 252.856 136.392 252.911 134.386C252.928 133.862 252.792 133.573 252.217 133.661C251.589 133.76 251.497 133.41 251.508 132.888C251.543 131.893 251.522 131.893 252.509 131.893C253.681 131.893 254.853 131.91 256.029 131.886C256.508 131.875 256.698 132.032 256.686 132.535C256.66 133.762 256.676 134.995 256.676 136.517Z" fill="#0E80C4"/>
<path d="M225.03 143.964C224.256 143.964 223.481 143.951 222.708 143.964C222.542 143.974 222.376 143.944 222.224 143.875C222.073 143.806 221.94 143.702 221.838 143.57C220.912 142.47 219.975 141.376 219.027 140.289C218.801 140.031 218.729 139.856 219.002 139.561C221.249 137.113 223.478 134.648 225.715 132.191C225.955 131.927 227.194 131.763 227.492 131.94C227.673 132.047 227.655 132.217 227.626 132.383C227.551 132.71 227.382 133.009 227.14 133.241C225.823 134.672 224.531 136.125 223.187 137.529C222.791 137.944 222.86 138.172 223.211 138.544C224.72 140.143 226.19 141.766 227.673 143.384C227.798 143.51 228.023 143.635 227.924 143.84C227.825 144.045 227.588 143.957 227.411 143.96C226.62 143.975 225.826 143.964 225.03 143.964Z" fill="#0E80C4"/>
<path d="M220.721 136.526C218.539 138.859 216.37 141.209 214.194 143.547C213.852 143.915 212.811 144.115 212.395 143.924C212.189 143.831 212.208 143.664 212.223 143.503C212.258 143.105 212.507 142.825 212.771 142.549C214.1 141.166 215.411 139.755 216.749 138.375C217.035 138.08 217.008 137.906 216.749 137.607C215.234 135.883 213.748 134.132 212.253 132.388C212.16 132.283 211.999 132.177 212.06 132.024C212.07 131.993 212.087 131.965 212.111 131.943C212.135 131.922 212.164 131.906 212.195 131.898H212.503L215.521 131.806H215.557C216.94 131.78 217.975 132.505 218.836 133.705C219.383 134.459 220.069 135.122 220.721 135.802C220.979 136.073 220.982 136.248 220.721 136.526Z" fill="#0E80C4"/>
<path d="M212.496 131.897H212.197C212.297 131.885 212.397 131.885 212.496 131.897Z" fill="#0E80C4"/>
<path d="M229.67 137.913C229.67 136.138 229.691 134.363 229.659 132.589C229.647 132.032 229.836 131.852 230.378 131.886C231.006 131.925 231.635 131.907 232.264 131.886C232.641 131.876 232.841 131.989 232.839 132.413C232.831 136.088 232.831 139.763 232.839 143.438C232.839 143.815 232.682 143.966 232.313 143.96C231.644 143.948 230.974 143.935 230.301 143.96C229.791 143.984 229.661 143.76 229.666 143.29C229.681 141.505 229.67 139.708 229.67 137.913Z" fill="#0E80C4"/>
</g>
<defs>
<clipPath id="clip0_98_2135">
<rect width="50.2035" height="19.2275" fill="white" transform="translate(213.245)"/>
</clipPath>
<clipPath id="clip1_98_2135">
<rect width="33.3943" height="32.7125" fill="white" transform="translate(221.631 38.3361)"/>
</clipPath>
<clipPath id="clip2_98_2135">
<rect width="62.5233" height="11.98" fill="white" transform="translate(208.453 94.6423)"/>
</clipPath>
<clipPath id="clip3_98_2135">
<rect width="58.1099" height="12.2196" fill="white" transform="translate(212.047 131.78)"/>
</clipPath>
</defs>
</svg>
