<svg width="237" height="25" viewBox="0 0 237 25" fill="none" xmlns="http://www.w3.org/2000/svg">
<path d="M166.399 0.530204C166.442 0.700368 166.473 0.873265 166.494 1.04775C166.511 1.33528 166.503 1.62281 166.503 1.91264C166.503 9.14838 166.503 16.3845 166.503 23.621C166.503 24.0201 166.474 24.4192 166.458 24.824C165.822 25.1001 165.204 24.9666 164.602 24.9781C164.022 24.9897 163.435 25.0414 162.818 24.9126C162.768 24.7159 162.731 24.5161 162.706 24.3145C162.687 24.027 162.697 23.7395 162.697 23.4496C162.697 17.627 162.697 11.8036 162.697 5.97944C162.697 5.61485 162.766 5.23532 162.594 4.87993C162.48 4.87474 162.367 4.90682 162.271 4.97163C162.175 5.03644 162.101 5.1307 162.06 5.24107C161.551 6.34977 161.057 7.46653 160.553 8.57639C160.015 9.76331 159.47 10.9468 158.935 12.1348C158.712 12.6305 158.517 13.1389 158.294 13.63C157.828 14.6651 157.346 15.691 156.883 16.7261C156.35 17.9199 155.837 19.1229 155.303 20.3156C154.883 21.2541 154.441 22.1822 154.011 23.1161C153.857 23.452 153.717 23.7958 153.553 24.1271C153.417 24.4019 153.255 24.663 153.086 24.962C151.893 24.9874 150.726 24.9862 149.562 24.962C149.328 24.5887 149.132 24.1917 148.977 23.7774C148.636 22.9033 148.229 22.058 147.855 21.1977C147.551 20.4973 147.262 19.7888 146.953 19.0896C146.435 17.9142 145.902 16.7456 145.383 15.5714C144.97 14.634 144.574 13.6898 144.157 12.7525C143.364 10.956 142.56 9.16295 141.768 7.36532C141.504 6.76612 141.266 6.15426 141.007 5.5539C140.851 5.19276 140.672 4.84198 140.474 4.41413C140.362 4.54295 140.251 4.61195 140.251 4.69016C140.216 5.03403 140.198 5.37953 140.198 5.72526C140.198 11.722 140.198 17.7186 140.198 23.7153C140.198 24.0834 140.266 24.4664 140.044 24.8654C139.904 24.919 139.758 24.955 139.609 24.9724C138.687 24.9851 137.764 24.992 136.842 24.9781C136.292 24.9689 136.184 24.8332 136.162 24.2363C136.155 24.0638 136.162 23.8913 136.162 23.7176V1.75047C136.162 1.52045 136.154 1.29043 136.169 1.06041C136.198 0.622213 136.362 0.457747 136.799 0.416343C136.967 0.401392 137.134 0.403692 137.302 0.403692C138.7 0.403692 140.098 0.403692 141.495 0.403692C141.69 0.403692 141.888 0.403692 142.082 0.423244C142.206 0.430444 142.326 0.476176 142.426 0.554512C142.525 0.632849 142.6 0.740177 142.639 0.862587C142.929 1.57796 143.254 2.27838 143.564 2.98454C144.034 4.053 144.514 5.11685 144.971 6.19106C145.494 7.41823 145.992 8.6546 146.51 9.88407C146.764 10.489 147.038 11.0848 147.302 11.6851C147.624 12.4143 147.946 13.1427 148.268 13.8704C148.703 14.8549 149.144 15.8371 149.569 16.8262C149.838 17.453 150.081 18.0913 150.339 18.725C150.607 19.3863 150.876 20.0476 151.154 20.7043C151.255 20.9447 151.395 21.1552 151.723 21.2138C151.854 20.947 152.002 20.6813 152.122 20.4019C152.511 19.4875 152.877 18.5617 153.276 17.6519C153.78 16.5018 154.315 15.3736 154.825 14.2303C155.264 13.2436 155.672 12.243 156.118 11.2608C156.777 9.80931 157.474 8.37627 158.125 6.92138C158.751 5.52169 159.336 4.1013 159.945 2.69357C160.205 2.09321 160.47 1.49515 160.751 0.906291C160.892 0.611862 161.098 0.401392 161.466 0.404842C162.975 0.416343 164.485 0.404842 165.993 0.418643C166.132 0.439216 166.269 0.476662 166.399 0.530204Z" fill="white"/>
<path d="M217.349 0.0667495C217.46 1.00179 217.422 1.82527 217.393 2.5809C217.176 2.85232 216.947 2.85002 216.724 2.85922C215.999 2.88913 215.275 2.90983 214.547 2.92593C213.878 2.94088 213.209 2.93628 212.54 2.95698C212.094 2.97078 211.648 2.95698 211.241 3.21691C211.141 3.26898 211.03 3.29467 210.918 3.29167C210.229 3.31812 209.656 3.65625 209.09 4.01049C208.97 4.08196 208.858 4.16598 208.755 4.26121C208.3 4.71221 207.966 5.27743 207.787 5.90144C207.608 6.52546 207.588 7.18686 207.731 7.82081C207.792 8.07268 207.856 8.32456 207.893 8.57988C207.917 8.83969 208.016 9.08623 208.176 9.2883C208.336 9.49037 208.551 9.63888 208.793 9.71504C209.028 9.799 209.268 9.87031 209.509 9.93357C209.644 9.96922 209.8 9.94392 209.92 10.0014C210.579 10.3166 211.282 10.2913 211.978 10.3039C213.179 10.311 214.379 10.382 215.574 10.5167C215.991 10.557 216.41 10.5754 216.829 10.5719C218.7 10.6064 220.573 10.6351 222.444 10.6685C222.89 10.6717 223.335 10.7281 223.768 10.8364C224.197 10.9514 224.653 10.9514 225.096 10.994C225.374 11.0204 225.654 11.0147 225.9 11.186C226.02 11.2605 226.155 11.3061 226.294 11.3195C227.401 11.4506 228.085 12.1682 228.571 13.1148C228.974 13.8969 229.31 14.7134 229.367 15.6186C229.793 16.6387 229.648 17.7141 229.64 18.7722C229.64 19.0528 229.542 19.3323 229.484 19.6106C229.436 19.8337 229.378 20.0546 229.329 20.2777C228.953 21.9775 228.123 23.345 226.564 24.1202C226.015 24.4061 225.413 24.5662 224.799 24.5895L223.709 24.6136C220.554 24.6861 217.398 24.7723 214.241 24.8275C211.253 24.8793 208.263 24.8977 205.274 24.9264C205.082 24.9264 204.889 24.8954 204.675 24.877C204.615 24.7802 204.569 24.6753 204.537 24.5653C204.446 23.9017 204.498 22.188 204.619 21.6176C204.888 21.4703 205.2 21.5267 205.5 21.5256C207.343 21.5141 209.188 21.5129 211.032 21.5049C213.994 21.4899 216.955 21.4784 219.917 21.4542C221.174 21.4439 222.431 21.4071 223.688 21.3783C223.883 21.383 224.079 21.3649 224.27 21.3243C224.513 21.2615 224.724 21.1056 224.859 20.8884C225.274 20.277 225.59 19.6005 225.796 18.8849C226.019 18.1051 226.04 17.2943 225.695 16.518C225.523 16.1292 225.377 15.7267 225.191 15.3448C224.934 14.8181 224.529 14.5766 223.93 14.5122C221.564 14.2545 219.191 14.1924 216.816 14.2016C214.581 14.2 212.347 14.0733 210.125 13.8221C209.21 13.722 208.294 13.653 207.389 13.4506C206.704 13.3023 206.076 12.9519 205.582 12.442C204.969 11.814 204.509 11.0461 204.238 10.2004C203.792 8.81336 203.664 7.94042 203.814 6.46483C203.935 5.28941 204.282 4.19565 205.084 3.26981C205.682 2.5537 206.355 1.90835 207.091 1.34567C207.537 1.01444 208.064 0.791321 208.562 0.540596C208.811 0.413767 209.069 0.308736 209.335 0.226615C209.547 0.159841 209.766 0.121192 209.987 0.111604C211.102 0.0678996 212.217 0.0253454 213.332 0.0103939C214.336 -0.0034074 215.34 0.0103939 216.35 0.0276456C216.659 0.0253454 216.964 0.0483477 217.349 0.0667495Z" fill="white"/>
<path d="M107.462 24.862C106.697 25.0172 104.137 25.0276 103.344 24.8942C103.242 24.5975 103.395 24.3433 103.515 24.096C104.19 22.7159 104.869 21.338 105.555 19.9625C106.238 18.5939 106.94 17.2367 107.621 15.867C108.218 14.6674 108.793 13.4517 109.384 12.2556C109.784 11.4402 110.198 10.6328 110.597 9.81851C111.5 7.97833 112.395 6.13125 113.3 4.29107C113.851 3.17316 114.431 2.07135 114.973 0.946538C115.146 0.585402 115.388 0.414036 115.753 0.411735C116.954 0.405985 118.155 0.411735 119.357 0.411735C119.785 0.411735 120.008 0.690063 120.191 1.0259C120.517 1.62702 120.838 2.23045 121.154 2.83617C121.823 4.1151 122.489 5.39556 123.153 6.67755C123.927 8.16695 124.697 9.65864 125.477 11.1446C126.585 13.255 127.714 15.354 128.808 17.4702C129.574 18.9573 130.419 20.3995 131.127 21.9211C131.498 22.7205 131.961 23.4749 132.388 24.2478C132.5 24.4514 132.599 24.6515 132.511 24.8907C131.842 25.0218 128.926 25.0253 128.135 24.8907C127.87 24.3904 127.578 23.8717 127.318 23.3392C126.49 21.6543 125.674 19.9648 124.853 18.2787C124.841 18.2534 124.833 18.2247 124.821 18.1994C124.566 17.6692 124.203 17.4081 123.576 17.4127C119.636 17.4403 115.696 17.4254 111.756 17.4277C111.56 17.4247 111.364 17.4374 111.17 17.4656C111.074 17.4795 110.982 17.5193 110.905 17.581C110.828 17.6428 110.768 17.7243 110.731 17.8175C110.397 18.5398 110.053 19.2529 109.713 19.9694C109.267 20.924 108.804 21.8751 108.362 22.8332C108.05 23.4979 107.763 24.1777 107.462 24.862ZM117.655 3.35487C117.395 3.28242 117.216 3.34682 117.124 3.6217C116.996 4.00124 116.841 4.37042 116.722 4.75111C116.381 5.84832 115.898 6.88457 115.414 7.91622C114.634 9.58849 113.802 11.24 113.005 12.9066C112.697 13.5125 112.424 14.1365 112.187 14.7755C112.468 15.0055 112.754 14.9549 113.024 14.9549C116.072 14.9549 119.118 14.9549 122.162 14.9549C122.301 14.9601 122.441 14.9544 122.58 14.9377C122.738 14.9002 122.894 14.853 123.047 14.7962C122.191 12.841 121.244 11.0008 120.36 9.13534C119.458 7.23651 118.576 5.32502 117.655 3.35487Z" fill="white"/>
<path d="M27.1275 24.9184C26.0214 25.0426 23.7522 25.0116 23.1133 24.8621C23.1289 24.7321 23.1133 24.578 23.1657 24.4653C23.6875 23.4233 24.2317 22.3951 24.7502 21.3485C25.252 20.3364 25.7192 19.3059 26.2221 18.2949C26.8912 16.9458 27.5881 15.6117 28.2605 14.2695C28.7678 13.254 29.2529 12.2269 29.7524 11.2068C30.31 10.0567 30.8809 8.91461 31.4451 7.76794C31.9235 6.7984 32.4041 5.83115 32.878 4.85931C33.4868 3.61259 34.0867 2.36126 34.6989 1.11569C34.8194 0.902117 34.9511 0.69555 35.0936 0.496932C35.301 0.455945 35.5107 0.428289 35.7214 0.414123C36.8108 0.404923 37.9003 0.414123 38.9897 0.414123C39.1012 0.414123 39.2127 0.422174 39.3242 0.431375C39.4499 0.434796 39.5722 0.47427 39.6774 0.545371C39.7826 0.616472 39.8665 0.716388 39.9197 0.833915C40.2754 1.54928 40.65 2.2543 41.0225 2.96162C41.6034 4.06458 42.1944 5.16294 42.772 6.26705C43.4701 7.60118 44.1525 8.94451 44.8528 10.2763C45.8017 12.0832 46.7696 13.8796 47.7174 15.6876C48.508 17.1977 49.2785 18.7216 50.059 20.2317C50.7972 21.6418 51.5544 23.0414 52.2992 24.448C52.3616 24.591 52.4156 24.7377 52.4609 24.8874C52.2868 24.9317 52.1098 24.9624 51.9312 24.9794C50.8162 24.9863 49.6955 24.9725 48.5782 24.9886C48.1322 24.9955 47.8701 24.8023 47.6739 24.3871C46.9669 22.8919 46.2355 21.4129 45.504 19.9327C45.1772 19.2725 44.8137 18.6319 44.5004 17.966C44.4374 17.8063 44.3293 17.6698 44.1901 17.5744C44.0508 17.479 43.887 17.4291 43.7198 17.4312C43.5247 17.4243 43.3285 17.4208 43.1333 17.4208H31.8153C31.6481 17.4208 31.4808 17.4346 31.3124 17.4208C30.8508 17.3898 30.5977 17.6509 30.4204 18.0534C29.6918 19.6636 28.9607 21.2695 28.227 22.8712C28.004 23.3612 27.781 23.8523 27.5312 24.3307C27.4102 24.5362 27.2753 24.7326 27.1275 24.9184ZM37.2435 2.95357C37.0138 3.54473 36.8253 3.96107 36.686 4.39351C36.3236 5.50709 35.8869 6.59348 35.3791 7.64488C34.8171 8.8203 34.2544 9.99456 33.6909 11.1677C33.2248 12.1445 32.7587 13.1206 32.2926 14.0959C32.1811 14.3328 32.0696 14.564 32.2078 14.8446C32.2738 14.8884 32.3472 14.9188 32.4241 14.9343C35.7448 14.942 39.0655 14.9458 42.3862 14.9458C42.4902 14.9327 42.5921 14.906 42.6895 14.8664C42.7408 14.365 42.7408 14.365 42.6115 14.1085C42.3026 13.5013 41.9837 12.8997 41.6871 12.2856C41.1574 11.1895 40.6445 10.0843 40.1182 8.98591C39.3086 7.2941 38.4946 5.60343 37.7665 3.87136C37.6494 3.59304 37.4665 3.34461 37.2435 2.95357Z" fill="white"/>
<path d="M199.396 24.885C198.759 25.0127 195.974 25.0288 195.105 24.9046C194.659 24.2835 194.335 23.5578 193.989 22.8436C193.189 21.1817 192.417 19.5082 191.53 17.8877C191.464 17.7461 191.359 17.6273 191.229 17.5456C191.099 17.464 190.948 17.423 190.796 17.4277C190.629 17.4219 190.461 17.4185 190.293 17.4185C186.464 17.4185 182.635 17.4185 178.808 17.4185C178.503 17.4185 178.2 17.4438 177.87 17.4576C177.588 17.9832 177.298 18.4708 177.057 18.9838C176.672 19.805 176.326 20.6457 175.951 21.4715C175.518 22.4272 175.052 23.368 174.641 24.333C174.443 24.793 174.157 24.9931 173.677 24.9851C172.699 24.969 171.721 24.9851 170.742 24.9759C170.563 24.9639 170.384 24.942 170.206 24.9103C170.226 24.7493 170.206 24.5986 170.264 24.4859C171.008 22.9827 171.764 21.4864 172.511 19.9855C173.096 18.8113 173.673 17.6336 174.253 16.457C175.029 14.8775 175.806 13.2976 176.583 11.7174C177.357 10.1394 178.124 8.55687 178.904 6.98122C179.776 5.21771 180.654 3.45957 181.54 1.7068C181.743 1.30311 181.96 0.907472 182.171 0.507233C182.944 0.305963 183.701 0.417524 184.449 0.402573C185.197 0.387621 185.953 0.410623 186.679 0.416374C186.916 0.6817 187.11 0.984587 187.254 1.31346C187.589 2.03343 187.979 2.7258 188.351 3.42737C188.976 4.60969 189.607 5.79085 190.234 6.97317C191.014 8.45336 191.802 9.93126 192.576 11.4161C193.73 13.6335 194.868 15.8601 196.023 18.0775C196.708 19.3909 197.409 20.6952 198.105 22.0017C198.516 22.7746 198.93 23.5455 199.347 24.3146C199.453 24.5055 199.508 24.6861 199.396 24.885ZM189.912 14.7939C189.825 14.4972 189.78 14.2097 189.66 13.9624C188.791 12.1751 187.894 10.3971 187.033 8.61093C186.493 7.49072 185.999 6.34636 185.485 5.21349C185.25 4.69594 185.008 4.17839 184.776 3.66199C184.664 3.41932 184.527 3.22955 184.218 3.20885C184.06 3.60334 183.874 3.98402 183.754 4.38426C183.479 5.34053 183.125 6.27058 182.695 7.16409C182.171 8.23599 181.691 9.3309 181.174 10.4086C180.541 11.7358 179.888 13.0538 179.259 14.3833C179.198 14.5133 179.252 14.7019 179.252 14.9204C179.586 14.9342 179.89 14.9561 180.193 14.9561C183.096 14.9561 186 14.9561 188.904 14.9561C189.127 14.9607 189.35 14.9538 189.573 14.9354C189.691 14.904 189.805 14.8564 189.912 14.7939Z" fill="white"/>
<path d="M91.27 22.1972C91.7562 21.7142 91.8276 21.1437 92.0584 20.6595C92.3684 20.0201 92.626 19.3541 92.9248 18.7043C93.2348 18.0338 93.5727 17.3771 93.8893 16.7089C94.535 15.3506 95.1739 13.9889 95.8162 12.6283C96.5075 11.1642 97.2301 9.7162 97.9114 8.24521C98.8035 6.31532 99.7758 4.41993 100.671 2.48774C100.91 1.97134 101.159 1.46069 101.403 0.946591C101.562 0.613058 101.791 0.401437 102.183 0.404888C103.187 0.412939 104.19 0.404888 105.194 0.412939C105.342 0.433811 105.487 0.472409 105.627 0.52795C105.536 0.870365 105.408 1.20076 105.243 1.51245C104.338 3.31506 103.435 5.1169 102.535 6.91798C101.988 8.01288 101.453 9.11469 100.902 10.2073C100.163 11.6737 99.409 13.132 98.6719 14.5973C98.1824 15.5634 97.7096 16.5375 97.2223 17.5036C96.4046 19.1245 95.5869 20.7427 94.7691 22.3582C94.4614 22.9689 94.1625 23.5854 93.8492 24.1927C93.7199 24.4445 93.5615 24.6826 93.4032 24.9517C92.0004 24.9954 90.6099 25.0116 89.196 24.9402C88.8001 24.1846 88.4088 23.4589 88.0374 22.7228C87.4799 21.6095 86.9592 20.4732 86.3648 19.3748C85.8497 18.426 85.4192 17.4289 84.9364 16.4616C84.235 15.0665 83.5192 13.6864 82.8234 12.2902C82.2268 11.0929 81.6536 9.88182 81.066 8.6834C80.2933 7.13075 79.5138 5.5873 78.7444 4.03809C78.2649 3.07047 77.7899 2.1013 77.3194 1.13061C77.2476 1.00911 77.1995 0.874325 77.1777 0.73382C77.1809 0.680485 77.1963 0.628683 77.2226 0.582689C77.249 0.536695 77.2856 0.497828 77.3294 0.469294C77.4598 0.419596 77.5987 0.398066 77.7375 0.406038C78.7154 0.406038 79.6933 0.406038 80.6713 0.406038C81.1452 0.406038 81.4128 0.595807 81.6157 1.06965C82.1565 2.32673 82.7799 3.5447 83.3508 4.78912C84.0722 6.36017 84.7591 7.94733 85.4884 9.51493C86.1474 10.9261 86.8644 12.3178 87.5178 13.737C88.1367 15.0746 88.7054 16.4386 89.3109 17.7842C89.6153 18.4605 89.9699 19.1115 90.2665 19.7912C90.5631 20.4709 90.8117 21.1713 91.086 21.8556C91.1251 21.9534 91.1864 22.0408 91.27 22.1972Z" fill="white"/>
<path d="M24.9777 0.51872C25.1839 1.13403 25.2007 2.14268 25.0055 2.8937C24.739 3.09037 24.4235 3.02367 24.1235 3.02482C22.2513 3.03172 20.3791 3.02482 18.508 3.02482C17.558 3.02482 16.6124 3.03172 15.6579 3.02482C15.2765 3.02482 14.9364 3.09382 14.6264 3.47106C14.6186 3.77584 14.603 4.14733 14.603 4.51881C14.603 10.9173 14.603 17.3153 14.603 23.713C14.603 24.0834 14.5818 24.4526 14.5696 24.8551C14.4305 24.9093 14.2862 24.9479 14.1391 24.9701C13.1356 24.9793 12.132 24.9782 11.1206 24.9782C11.0373 24.976 10.9541 24.9676 10.872 24.9529C10.7868 24.9475 10.7063 24.911 10.645 24.8498C10.5837 24.7887 10.5455 24.7069 10.5374 24.6193C10.5133 24.3325 10.5036 24.0446 10.5085 23.7567C10.5085 17.3299 10.5085 10.9027 10.5085 4.47511C10.5085 4.24509 10.5151 4.01506 10.5085 3.78504C10.4817 3.17663 10.3568 3.05472 9.73571 3.03057C9.51269 3.02252 9.28968 3.03057 9.06666 3.03057C6.43955 3.03057 3.81281 3.03057 1.18644 3.03057C0.00780559 3.02597 0 3.01906 0 1.8402C0 1.52392 0 1.20534 0.0245316 0.891356C0.0479482 0.607279 0.180642 0.469265 0.442684 0.431311C0.664957 0.408101 0.888342 0.398117 1.11173 0.401408C8.76857 0.401408 16.4254 0.401408 24.0822 0.401408C24.3833 0.403709 24.6967 0.345053 24.9777 0.51872Z" fill="white"/>
<path d="M50.5264 2.88569C50.4384 2.10752 50.4426 1.3212 50.5387 0.544058C50.6838 0.490141 50.833 0.448597 50.9847 0.419846C51.2077 0.397994 51.4307 0.401444 51.6538 0.401444C59.2571 0.401444 66.8608 0.401444 74.4648 0.401444C74.7157 0.401444 74.9677 0.410645 75.2175 0.433647C75.2671 0.433494 75.3163 0.443483 75.3622 0.463037C75.408 0.482591 75.4497 0.511322 75.4847 0.547572C75.5198 0.583822 75.5475 0.626873 75.5663 0.674239C75.5851 0.721604 75.5947 0.772346 75.5944 0.823535C75.61 1.39859 75.6156 1.97365 75.6 2.5487C75.5922 2.84198 75.4595 2.9754 75.1896 2.99955C74.9198 3.0237 74.6321 3.0237 74.3511 3.0237C71.6682 3.0237 68.9846 3.0237 66.3003 3.0237C66.0491 3.01928 65.7979 3.02811 65.5476 3.05015C65.4346 3.05743 65.3278 3.1058 65.2461 3.18666C65.1644 3.26753 65.1132 3.37565 65.1016 3.4918C65.0737 3.77817 65.077 4.06685 65.077 4.35553C65.077 10.8437 65.077 17.3311 65.077 23.8177C65.077 24.1628 65.1238 24.5078 65.0001 24.8321C64.9239 24.8828 64.8409 24.9216 64.7536 24.9472C64.5039 24.969 64.2519 24.9817 64.001 24.9817C63.0532 24.9817 62.1053 24.9736 61.1308 24.969C61.0709 24.7982 61.0257 24.6224 60.9959 24.4434C60.9747 24.1559 60.9847 23.8683 60.9847 23.5785V4.46479C60.9847 4.20602 60.9936 3.94494 60.978 3.68617C60.9512 3.25602 60.7795 3.07661 60.3491 3.0421C60.0993 3.0214 59.8462 3.0283 59.5942 3.0283C56.9388 3.0283 54.2835 3.0283 51.6281 3.0283C51.2936 3.026 50.9591 3.06395 50.5264 2.88569Z" fill="white"/>
<path d="M233.813 0.575055C233.936 0.526751 234.061 0.435892 234.188 0.432441C234.941 0.41749 235.695 0.405989 236.448 0.432441C236.858 0.442792 236.973 0.598058 236.995 1.0305C237.003 1.20187 236.995 1.37553 236.995 1.54805V23.828C236.995 24.0868 236.995 24.3467 236.974 24.6044C236.969 24.6911 236.934 24.7732 236.876 24.8363C236.818 24.8993 236.74 24.9393 236.656 24.9494C236.629 24.9562 236.602 24.9611 236.574 24.9643C235.682 24.9862 234.79 25.0092 233.863 24.9402C233.807 24.7435 233.763 24.5434 233.73 24.341C233.716 24.1113 233.713 23.881 233.72 23.6509C233.72 16.3354 233.72 9.02033 233.72 1.70562C233.726 1.33873 233.68 0.961493 233.813 0.575055Z" fill="white"/>
</svg>
