<svg width="187" height="159" viewBox="0 0 187 159" fill="none" xmlns="http://www.w3.org/2000/svg">
<path d="M168.375 157.474H82.0384C81.6595 157.482 81.2834 157.407 80.9358 157.256C80.5882 157.105 80.2771 156.881 80.0239 156.599C79.7707 156.317 79.5812 155.984 79.4683 155.622C79.3554 155.261 79.3219 154.879 79.3699 154.503L94.175 7.52361C94.2692 6.71753 94.6523 5.97287 95.2533 5.42751C95.8543 4.88216 96.6326 4.57306 97.444 4.55745H183.791C184.17 4.54921 184.546 4.62279 184.894 4.77315C185.241 4.9235 185.552 5.1471 185.806 5.42868C186.059 5.71026 186.249 6.04318 186.361 6.40473C186.474 6.76627 186.508 7.14792 186.46 7.52361L171.665 154.503C171.571 155.313 171.186 156.062 170.58 156.609C169.975 157.156 169.191 157.463 168.375 157.474Z" fill="#263467"/>
<path d="M155.448 15.6934H123.549C123.245 15.6995 122.943 15.64 122.663 15.5188C122.384 15.3977 122.134 15.2177 121.93 14.9913C121.727 14.7649 121.575 14.4972 121.484 14.2066C121.393 13.916 121.366 13.6092 121.404 13.3071L122.297 4.47021C122.311 4.3549 122.365 4.24834 122.451 4.1701C122.537 4.09186 122.648 4.04718 122.764 4.04427H158.579C158.633 4.04313 158.687 4.05371 158.737 4.07529C158.787 4.09687 158.832 4.12894 158.868 4.16934C158.905 4.20974 158.932 4.25751 158.949 4.30942C158.965 4.36133 158.97 4.41617 158.964 4.47021L158.071 13.3071C157.996 13.9548 157.69 14.5536 157.207 14.9924C156.725 15.4312 156.1 15.6803 155.448 15.6934Z" fill="#263238"/>
<path d="M141.08 0.000427804C140.428 0.012475 139.802 0.26116 139.32 0.700164C138.837 1.13917 138.531 1.73856 138.458 2.3867L138.083 6.09185H142.85L143.225 2.3867C143.263 2.08465 143.236 1.77787 143.145 1.48725C143.055 1.19662 142.902 0.928982 142.699 0.702541C142.495 0.476099 142.245 0.296175 141.966 0.175016C141.687 0.0538581 141.384 -0.00568934 141.08 0.000427804ZM140.721 3.55162C140.596 3.5544 140.471 3.52986 140.356 3.4797C140.242 3.42955 140.139 3.35499 140.056 3.26121C139.973 3.16743 139.911 3.05668 139.876 2.93668C139.84 2.81667 139.83 2.69028 139.848 2.56632C139.881 2.30525 140.006 2.06455 140.201 1.88764C140.396 1.71073 140.648 1.60926 140.911 1.60154C141.034 1.59834 141.157 1.62187 141.27 1.67053C141.384 1.71919 141.486 1.79183 141.569 1.88346C141.651 1.97509 141.713 2.08356 141.75 2.20142C141.787 2.31929 141.799 2.44376 141.783 2.56632C141.758 2.83234 141.636 3.07981 141.44 3.26152C141.244 3.44324 140.988 3.5465 140.721 3.55162Z" fill="#263238"/>
<path d="M155.71 6.59988L155.064 12.9992H142.147C142.162 12.7096 142.117 12.42 142.015 12.1484C141.913 11.8769 141.757 11.6292 141.555 11.4208C141.353 11.2124 141.111 11.0477 140.843 10.937C140.575 10.8262 140.287 10.7718 139.997 10.7771C139.37 10.7915 138.767 11.0229 138.292 11.4319C137.817 11.8408 137.498 12.402 137.39 13.0197H124.453L125.099 6.62041L155.71 6.59988Z" stroke="white" stroke-width="1.02636" stroke-linecap="round" stroke-linejoin="round"/>
<path d="M153.299 6.63582C153.3 6.49502 153.338 6.35699 153.408 6.23484C153.478 6.1127 153.578 6.01048 153.699 5.9379H127.019C126.898 6.01048 126.798 6.1127 126.728 6.23484C126.658 6.35699 126.62 6.49502 126.619 6.63582C126.562 7.19005 126.88 7.33374 126.88 7.33374H153.565C153.565 7.33374 153.242 7.18492 153.299 6.63582Z" fill="#263467"/>
<path d="M168.663 152.984H83.0801L97.5927 9.0426H183.17L168.663 152.984Z" fill="white"/>
<path d="M176.381 24.2327H101.36C101.292 24.2327 101.226 24.2056 101.178 24.1575C101.13 24.1094 101.103 24.0441 101.103 23.9761C101.103 23.908 101.13 23.8428 101.178 23.7946C101.226 23.7465 101.292 23.7195 101.36 23.7195H176.381C176.449 23.7195 176.514 23.7465 176.562 23.7946C176.611 23.8428 176.638 23.908 176.638 23.9761C176.638 24.0441 176.611 24.1094 176.562 24.1575C176.514 24.2056 176.449 24.2327 176.381 24.2327Z" fill="#263238"/>
<path d="M111.14 17.4485C111.009 18.5516 110.484 19.5702 109.662 20.3177C108.84 21.0651 107.776 21.4912 106.666 21.518C106.145 21.5323 105.628 21.4333 105.15 21.228C104.672 21.0227 104.244 20.7159 103.896 20.3289C103.548 19.9418 103.288 19.4838 103.134 18.9864C102.981 18.4891 102.937 17.9643 103.007 17.4485C103.13 16.3389 103.652 15.3117 104.474 14.5569C105.297 13.8021 106.365 13.3709 107.482 13.3431C108.005 13.3279 108.526 13.4275 109.007 13.635C109.488 13.8424 109.918 14.1525 110.267 14.5437C110.616 14.9349 110.875 15.3976 111.025 15.8994C111.176 16.4012 111.216 16.9299 111.14 17.4485Z" fill="#263467"/>
<path d="M104.757 16.8121C104.757 16.8121 102.576 19.6962 103.217 20.5737C103.859 21.4512 109.94 16.5145 111.392 14.821C112.844 13.1275 111.141 13.7946 111.141 13.7946C111.141 13.7946 111.782 13.8305 111.438 14.3489C110.74 15.4163 104.977 19.224 104.387 19.0188C103.797 18.8135 104.757 16.8121 104.757 16.8121Z" fill="#263238"/>
<path d="M176.284 16.0578H168.586C168.45 16.0578 168.319 16.0037 168.223 15.9075C168.127 15.8112 168.073 15.6807 168.073 15.5446C168.073 15.4085 168.127 15.2779 168.223 15.1817C168.319 15.0855 168.45 15.0314 168.586 15.0314H176.284C176.42 15.0314 176.55 15.0855 176.646 15.1817C176.743 15.2779 176.797 15.4085 176.797 15.5446C176.797 15.6807 176.743 15.8112 176.646 15.9075C176.55 16.0037 176.42 16.0578 176.284 16.0578Z" fill="#263238"/>
<path d="M176.017 18.4748H171.044C170.908 18.4748 170.778 18.4207 170.682 18.3245C170.585 18.2283 170.531 18.0977 170.531 17.9616C170.531 17.8255 170.585 17.695 170.682 17.5988C170.778 17.5025 170.908 17.4485 171.044 17.4485H176.017C176.153 17.4485 176.284 17.5025 176.38 17.5988C176.476 17.695 176.53 17.8255 176.53 17.9616C176.53 18.0977 176.476 18.2283 176.38 18.3245C176.284 18.4207 176.153 18.4748 176.017 18.4748Z" fill="#263238"/>
<path d="M175.77 20.8406H162.782C162.646 20.8406 162.515 20.7865 162.419 20.6903C162.323 20.594 162.269 20.4635 162.269 20.3274C162.269 20.1913 162.323 20.0608 162.419 19.9645C162.515 19.8683 162.646 19.8142 162.782 19.8142H175.77C175.906 19.8142 176.037 19.8683 176.133 19.9645C176.229 20.0608 176.283 20.1913 176.283 20.3274C176.283 20.4635 176.229 20.594 176.133 20.6903C176.037 20.7865 175.906 20.8406 175.77 20.8406Z" fill="#263238"/>
<path d="M120.773 30.3908C120.84 29.7704 121.138 29.1978 121.608 28.7871C122.078 28.3763 122.685 28.1574 123.309 28.1739C123.622 28.1532 123.936 28.2076 124.224 28.3325C124.513 28.4575 124.767 28.6494 124.966 28.8923L124.397 29.4055C124.266 29.2402 124.099 29.1078 123.908 29.0187C123.718 28.9296 123.509 28.8863 123.298 28.8923C122.877 28.8828 122.467 29.0339 122.153 29.315C121.838 29.5961 121.642 29.9861 121.605 30.4062C121.57 30.6033 121.58 30.8057 121.636 30.9981C121.691 31.1905 121.789 31.3677 121.924 31.5162C122.058 31.6647 122.224 31.7806 122.41 31.8551C122.596 31.9295 122.796 31.9605 122.996 31.9457C123.22 31.9454 123.442 31.8997 123.648 31.8115C123.855 31.7234 124.041 31.5945 124.196 31.4325L124.663 31.9457C124.431 32.1812 124.152 32.3664 123.845 32.49C123.538 32.6135 123.208 32.6728 122.878 32.6642C122.579 32.6911 122.279 32.6493 122 32.542C121.721 32.4346 121.47 32.2646 121.266 32.045C121.063 31.8254 120.913 31.562 120.827 31.2752C120.742 30.9884 120.724 30.6859 120.773 30.3908Z" fill="black"/>
<path d="M125.161 30.3908C125.229 29.7654 125.532 29.1891 126.008 28.7778C126.484 28.3665 127.098 28.1507 127.727 28.1739C128.019 28.1505 128.312 28.1929 128.586 28.2978C128.859 28.4027 129.105 28.5676 129.307 28.7802C129.508 28.9929 129.659 29.2479 129.749 29.5266C129.839 29.8053 129.865 30.1006 129.826 30.3908C129.757 31.0158 129.455 31.5915 128.978 32.002C128.502 32.4125 127.888 32.6271 127.26 32.6026C126.969 32.6258 126.676 32.5835 126.403 32.4789C126.13 32.3742 125.884 32.2099 125.682 31.9978C125.481 31.7858 125.33 31.5314 125.24 31.2534C125.15 30.9753 125.123 30.6806 125.161 30.3908ZM128.994 30.3908C129.026 30.198 129.014 30.0006 128.96 29.813C128.905 29.6254 128.809 29.4526 128.678 29.3072C128.548 29.1619 128.386 29.0477 128.205 28.9733C128.025 28.8988 127.83 28.8658 127.635 28.8769C127.221 28.878 126.823 29.0341 126.519 29.3144C126.215 29.5947 126.027 29.9788 125.992 30.3908C125.957 30.5853 125.967 30.7853 126.02 30.9757C126.073 31.166 126.168 31.3419 126.299 31.4901C126.43 31.6382 126.593 31.7548 126.775 31.831C126.958 31.9073 127.155 31.9412 127.352 31.9303C127.769 31.9263 128.169 31.7659 128.474 31.4807C128.778 31.1956 128.964 30.8066 128.994 30.3908Z" fill="black"/>
<path d="M134.716 28.2252L134.285 32.5307H133.623L131.57 29.6159L131.273 32.5307H130.482L130.867 28.2252H131.529L133.582 31.14L133.88 28.2252H134.716Z" fill="black"/>
<path d="M136.661 28.9129H135.229L135.296 28.2355H138.955L138.888 28.9129H137.457L137.092 32.541H136.292L136.661 28.9129Z" fill="black"/>
<path d="M141.947 32.541L141.197 31.3043H140.058L139.93 32.5564H139.129L139.566 28.2509H141.336C142.47 28.2509 143.112 28.8307 143.019 29.7904C142.994 30.0952 142.881 30.3861 142.693 30.6276C142.505 30.8691 142.251 31.0507 141.962 31.1503L142.809 32.5615L141.947 32.541ZM141.233 28.9129H140.294L140.125 30.6269H141.059C141.762 30.6269 142.157 30.3087 142.208 29.7699C142.26 29.231 141.931 28.9129 141.233 28.9129Z" fill="black"/>
<path d="M146.519 31.5454H144.369L143.856 32.541H143.035L145.395 28.2252H146.186L147.694 32.5307H146.858L146.519 31.5454ZM146.319 30.9194L145.698 29.036L144.702 30.9194H146.319Z" fill="black"/>
<path d="M148.09 30.3908C148.156 29.7704 148.454 29.1979 148.924 28.7871C149.394 28.3763 150.001 28.1574 150.625 28.1739C150.934 28.1573 151.243 28.2137 151.526 28.3385C151.81 28.4633 152.06 28.653 152.257 28.8923L151.692 29.4055C151.56 29.2405 151.392 29.1082 151.201 29.0192C151.009 28.9301 150.8 28.8867 150.589 28.8923C150.167 28.8817 149.758 29.0325 149.444 29.3139C149.13 29.5954 148.936 29.9861 148.9 30.4062C148.864 30.603 148.874 30.8053 148.929 30.9978C148.983 31.1902 149.081 31.3676 149.215 31.5162C149.349 31.6649 149.515 31.7809 149.701 31.8554C149.886 31.9298 150.086 31.9607 150.286 31.9457C150.51 31.9454 150.732 31.8997 150.939 31.8116C151.145 31.7234 151.331 31.5945 151.487 31.4325L151.954 31.9457C151.721 32.1812 151.442 32.3664 151.135 32.49C150.828 32.6135 150.499 32.6728 150.168 32.6642C149.872 32.687 149.575 32.6421 149.299 32.5329C149.023 32.4237 148.775 32.2531 148.575 32.034C148.374 31.8149 148.227 31.5531 148.143 31.2684C148.058 30.9837 148.04 30.6836 148.09 30.3908Z" fill="black"/>
<path d="M153.853 28.9129H152.421L152.493 28.2355H156.147L156.08 28.9129H154.648L154.284 32.541H153.483L153.853 28.9129Z" fill="black"/>
<path d="M118.295 38.6016H100.847C100.711 38.6016 100.58 38.5476 100.484 38.4513C100.388 38.3551 100.333 38.2246 100.333 38.0885C100.333 37.9524 100.388 37.8218 100.484 37.7256C100.58 37.6294 100.711 37.5753 100.847 37.5753H118.295C118.431 37.5753 118.561 37.6294 118.658 37.7256C118.754 37.8218 118.808 37.9524 118.808 38.0885C118.808 38.2246 118.754 38.3551 118.658 38.4513C118.561 38.5476 118.431 38.6016 118.295 38.6016Z" fill="#263238"/>
<path d="M109.288 41.3728H100.564C100.428 41.3728 100.298 41.3187 100.202 41.2225C100.105 41.1262 100.051 40.9957 100.051 40.8596C100.051 40.7235 100.105 40.593 100.202 40.4967C100.298 40.4005 100.428 40.3464 100.564 40.3464H109.288C109.425 40.3464 109.555 40.4005 109.651 40.4967C109.748 40.593 109.802 40.7235 109.802 40.8596C109.802 40.9957 109.748 41.1262 109.651 41.2225C109.555 41.3187 109.425 41.3728 109.288 41.3728Z" fill="#263238"/>
<path d="M171.778 55.8598H99.1118C98.9757 55.8598 98.8452 55.8057 98.7489 55.7095C98.6527 55.6132 98.5986 55.4827 98.5986 55.3466C98.5986 55.2105 98.6527 55.08 98.7489 54.9837C98.8452 54.8875 98.9757 54.8334 99.1118 54.8334H171.778C171.914 54.8334 172.044 54.8875 172.141 54.9837C172.237 55.08 172.291 55.2105 172.291 55.3466C172.291 55.4827 172.237 55.6132 172.141 55.7095C172.044 55.8057 171.914 55.8598 171.778 55.8598Z" fill="#263238"/>
<path d="M171.46 59.0159H98.7939C98.6578 59.0159 98.5273 58.9618 98.4311 58.8656C98.3348 58.7693 98.2808 58.6388 98.2808 58.5027C98.2808 58.3666 98.3348 58.236 98.4311 58.1398C98.5273 58.0436 98.6578 57.9895 98.7939 57.9895H171.46C171.596 57.9895 171.727 58.0436 171.823 58.1398C171.919 58.236 171.973 58.3666 171.973 58.5027C171.973 58.6388 171.919 58.7693 171.823 58.8656C171.727 58.9618 171.596 59.0159 171.46 59.0159Z" fill="#263238"/>
<path d="M171.151 62.1873H98.4751C98.339 62.1873 98.2085 62.1332 98.1122 62.037C98.016 61.9407 97.9619 61.8102 97.9619 61.6741C97.9619 61.538 98.016 61.4075 98.1122 61.3112C98.2085 61.215 98.339 61.1609 98.4751 61.1609H171.151C171.287 61.1609 171.418 61.215 171.514 61.3112C171.61 61.4075 171.664 61.538 171.664 61.6741C171.664 61.8102 171.61 61.9407 171.514 62.037C171.418 62.1332 171.287 62.1873 171.151 62.1873Z" fill="#263238"/>
<path d="M170.818 65.3484H98.1572C98.0211 65.3484 97.8906 65.2944 97.7943 65.1981C97.6981 65.1019 97.644 64.9714 97.644 64.8353C97.644 64.6992 97.6981 64.5686 97.7943 64.4724C97.8906 64.3762 98.0211 64.3221 98.1572 64.3221H170.818C170.954 64.3221 171.085 64.3762 171.181 64.4724C171.277 64.5686 171.331 64.6992 171.331 64.8353C171.331 64.9714 171.277 65.1019 171.181 65.1981C171.085 65.2944 170.954 65.3484 170.818 65.3484Z" fill="#263238"/>
<path d="M170.5 68.5096H97.8393C97.7032 68.5096 97.5727 68.4556 97.4765 68.3593C97.3802 68.2631 97.3262 68.1326 97.3262 67.9965C97.3262 67.8604 97.3802 67.7298 97.4765 67.6336C97.5727 67.5373 97.7032 67.4833 97.8393 67.4833H170.5C170.636 67.4833 170.767 67.5373 170.863 67.6336C170.959 67.7298 171.013 67.8604 171.013 67.9965C171.013 68.1326 170.959 68.2631 170.863 68.3593C170.767 68.4556 170.636 68.5096 170.5 68.5096Z" fill="#263238"/>
<path d="M170.182 71.6708H97.521C97.3849 71.6708 97.2544 71.6168 97.1581 71.5205C97.0619 71.4243 97.0078 71.2938 97.0078 71.1576C97.0078 71.0215 97.0619 70.891 97.1581 70.7948C97.2544 70.6985 97.3849 70.6445 97.521 70.6445H170.182C170.318 70.6445 170.448 70.6985 170.545 70.7948C170.641 70.891 170.695 71.0215 170.695 71.1576C170.695 71.2938 170.641 71.4243 170.545 71.5205C170.448 71.6168 170.318 71.6708 170.182 71.6708Z" fill="#263238"/>
<path d="M169.863 74.8371H97.2026C97.0665 74.8371 96.936 74.783 96.8398 74.6868C96.7435 74.5906 96.6895 74.46 96.6895 74.3239C96.6895 74.1878 96.7435 74.0573 96.8398 73.9611C96.936 73.8648 97.0665 73.8108 97.2026 73.8108H169.863C170 73.8108 170.13 73.8648 170.226 73.9611C170.323 74.0573 170.377 74.1878 170.377 74.3239C170.377 74.46 170.323 74.5906 170.226 74.6868C170.13 74.783 170 74.8371 169.863 74.8371Z" fill="#263238"/>
<path d="M169.545 78.0034H96.8794C96.7433 78.0034 96.6128 77.9493 96.5165 77.8531C96.4203 77.7569 96.3662 77.6263 96.3662 77.4902C96.3662 77.3541 96.4203 77.2236 96.5165 77.1274C96.6128 77.0311 96.7433 76.9771 96.8794 76.9771H169.545C169.681 76.9771 169.812 77.0311 169.908 77.1274C170.004 77.2236 170.059 77.3541 170.059 77.4902C170.059 77.6263 170.004 77.7569 169.908 77.8531C169.812 77.9493 169.681 78.0034 169.545 78.0034Z" fill="#263238"/>
<path d="M133.305 81.1595H96.5615C96.4254 81.1595 96.2949 81.1054 96.1986 81.0092C96.1024 80.9129 96.0483 80.7824 96.0483 80.6463C96.0483 80.5102 96.1024 80.3797 96.1986 80.2834C96.2949 80.1872 96.4254 80.1331 96.5615 80.1331H133.305C133.441 80.1331 133.572 80.1872 133.668 80.2834C133.764 80.3797 133.818 80.5102 133.818 80.6463C133.818 80.7824 133.764 80.9129 133.668 81.0092C133.572 81.1054 133.441 81.1595 133.305 81.1595Z" fill="#263238"/>
<path d="M174.057 38.6016H161.525C161.389 38.6016 161.258 38.5476 161.162 38.4513C161.066 38.3551 161.012 38.2246 161.012 38.0885C161.012 37.9524 161.066 37.8218 161.162 37.7256C161.258 37.6294 161.389 37.5753 161.525 37.5753H174.057C174.193 37.5753 174.323 37.6294 174.42 37.7256C174.516 37.8218 174.57 37.9524 174.57 38.0885C174.57 38.2246 174.516 38.3551 174.42 38.4513C174.323 38.5476 174.193 38.6016 174.057 38.6016Z" fill="#263238"/>
<path d="M168.827 85.4496H103.925C103.789 85.4496 103.659 85.3956 103.562 85.2993C103.466 85.2031 103.412 85.0726 103.412 84.9365C103.412 84.8004 103.466 84.6698 103.562 84.5736C103.659 84.4773 103.789 84.4233 103.925 84.4233H168.827C168.963 84.4233 169.093 84.4773 169.19 84.5736C169.286 84.6698 169.34 84.8004 169.34 84.9365C169.34 85.0726 169.286 85.2031 169.19 85.2993C169.093 85.3956 168.963 85.4496 168.827 85.4496Z" fill="#263238"/>
<path d="M168.473 88.6108H95.812C95.6759 88.6108 95.5454 88.5567 95.4491 88.4605C95.3529 88.3643 95.2988 88.2337 95.2988 88.0976C95.2988 87.9615 95.3529 87.831 95.4491 87.7347C95.5454 87.6385 95.6759 87.5844 95.812 87.5844H168.473C168.609 87.5844 168.739 87.6385 168.836 87.7347C168.932 87.831 168.986 87.9615 168.986 88.0976C168.986 88.2337 168.932 88.3643 168.836 88.4605C168.739 88.5567 168.609 88.6108 168.473 88.6108Z" fill="#263238"/>
<path d="M168.155 91.7771H95.4941C95.358 91.7771 95.2275 91.723 95.1313 91.6268C95.035 91.5305 94.981 91.4 94.981 91.2639C94.981 91.1278 95.035 90.9973 95.1313 90.901C95.2275 90.8048 95.358 90.7507 95.4941 90.7507H168.155C168.291 90.7507 168.422 90.8048 168.518 90.901C168.614 90.9973 168.668 91.1278 168.668 91.2639C168.668 91.4 168.614 91.5305 168.518 91.6268C168.422 91.723 168.291 91.7771 168.155 91.7771Z" fill="#263238"/>
<path d="M167.836 94.9383H95.2012C95.0651 94.9383 94.9345 94.8842 94.8383 94.788C94.7421 94.6917 94.688 94.5612 94.688 94.4251C94.688 94.289 94.7421 94.1585 94.8383 94.0622C94.9345 93.966 95.0651 93.9119 95.2012 93.9119H167.836C167.972 93.9119 168.103 93.966 168.199 94.0622C168.295 94.1585 168.35 94.289 168.35 94.4251C168.35 94.5612 168.295 94.6917 168.199 94.788C168.103 94.8842 167.972 94.9383 167.836 94.9383Z" fill="#263238"/>
<path d="M167.519 98.0995H94.8579C94.7218 98.0995 94.5913 98.0454 94.495 97.9492C94.3988 97.8529 94.3447 97.7224 94.3447 97.5863C94.3447 97.4502 94.3988 97.3197 94.495 97.2234C94.5913 97.1272 94.7218 97.0731 94.8579 97.0731H167.519C167.655 97.0731 167.785 97.1272 167.882 97.2234C167.978 97.3197 168.032 97.4502 168.032 97.5863C168.032 97.7224 167.978 97.8529 167.882 97.9492C167.785 98.0454 167.655 98.0995 167.519 98.0995Z" fill="#263238"/>
<path d="M121.014 101.261H94.5395C94.4034 101.261 94.2729 101.207 94.1767 101.11C94.0804 101.014 94.0264 100.884 94.0264 100.747C94.0264 100.611 94.0804 100.481 94.1767 100.385C94.2729 100.288 94.4034 100.234 94.5395 100.234H121.014C121.15 100.234 121.281 100.288 121.377 100.385C121.473 100.481 121.528 100.611 121.528 100.747C121.528 100.884 121.473 101.014 121.377 101.11C121.281 101.207 121.15 101.261 121.014 101.261Z" fill="#263238"/>
<g opacity="0.2">
<path d="M168.663 152.984H83.0801L97.5927 9.0426H183.17L168.663 152.984Z" fill="black"/>
</g>
<path d="M154.812 148.637H69.2344C84.9427 102.338 94.4365 55.3415 96.5662 9.05289H182.144C180.019 55.3415 170.525 102.338 154.812 148.637Z" fill="white"/>
<path d="M175.473 23.7195H100.461C100.394 23.7209 100.329 23.6959 100.28 23.6498C100.231 23.6037 100.202 23.5403 100.2 23.4732C100.199 23.4406 100.205 23.4083 100.217 23.3781C100.229 23.3479 100.247 23.3204 100.27 23.2974C100.293 23.2744 100.321 23.2563 100.351 23.2442C100.381 23.232 100.414 23.2261 100.446 23.2268H175.457C175.491 23.2255 175.524 23.2308 175.555 23.2425C175.587 23.2542 175.616 23.272 175.64 23.295C175.664 23.3179 175.684 23.3455 175.697 23.3761C175.711 23.4067 175.718 23.4397 175.719 23.4732C175.72 23.5057 175.714 23.538 175.702 23.5682C175.69 23.5984 175.671 23.6259 175.648 23.6489C175.625 23.6719 175.598 23.69 175.568 23.7022C175.538 23.7143 175.505 23.7202 175.473 23.7195Z" fill="#263238"/>
<path d="M110.007 17.1354C109.904 18.2125 109.403 19.2126 108.602 19.9397C107.801 20.6668 106.757 21.0686 105.675 21.0663C105.161 21.0808 104.649 20.9881 104.173 20.794C103.696 20.5998 103.266 20.3086 102.908 19.9388C102.55 19.569 102.273 19.1287 102.095 18.6461C101.917 18.1634 101.841 17.6489 101.873 17.1354C101.967 16.0605 102.461 15.06 103.257 14.3321C104.053 13.6041 105.094 13.2017 106.173 13.2045C106.689 13.1887 107.203 13.2804 107.682 13.4737C108.16 13.667 108.594 13.9576 108.954 14.3272C109.314 14.6968 109.594 15.1373 109.775 15.6207C109.956 16.1041 110.035 16.6199 110.007 17.1354Z" fill="#263467"/>
<path d="M103.597 16.5453C103.597 16.5453 101.544 19.3318 102.211 20.1837C102.878 21.0356 108.785 16.2579 110.16 14.6208C111.535 12.9838 109.857 13.6407 109.857 13.6407C109.857 13.6407 110.504 13.6766 110.186 14.1795C109.539 15.2059 103.925 18.8905 103.325 18.6955C102.724 18.5005 103.597 16.5453 103.597 16.5453Z" fill="#263238"/>
<path d="M175.067 15.8165H167.37C167.234 15.8165 167.103 15.7625 167.007 15.6662C166.911 15.57 166.856 15.4395 166.856 15.3034C166.851 15.2346 166.861 15.1655 166.884 15.1008C166.908 15.0361 166.946 14.9773 166.995 14.9285C167.044 14.8797 167.102 14.8421 167.167 14.8182C167.232 14.7944 167.301 14.7848 167.37 14.7902H175.067C175.203 14.7902 175.334 14.8443 175.43 14.9405C175.526 15.0367 175.58 15.1673 175.58 15.3034C175.587 15.3723 175.578 15.4419 175.554 15.507C175.531 15.5721 175.493 15.6313 175.444 15.6802C175.395 15.7292 175.336 15.7668 175.271 15.7904C175.206 15.8139 175.136 15.8229 175.067 15.8165Z" fill="#263238"/>
<path d="M174.919 18.1259H169.946C169.81 18.1259 169.679 18.0718 169.583 17.9756C169.487 17.8793 169.433 17.7488 169.433 17.6127C169.428 17.5441 169.438 17.4754 169.463 17.4111C169.487 17.3467 169.524 17.2883 169.573 17.2397C169.622 17.1911 169.68 17.1535 169.744 17.1293C169.809 17.1051 169.877 17.095 169.946 17.0995H174.924C175.06 17.0995 175.19 17.1536 175.287 17.2498C175.383 17.346 175.437 17.4766 175.437 17.6127C175.441 17.6817 175.431 17.7509 175.407 17.8156C175.382 17.8803 175.344 17.939 175.295 17.9877C175.246 18.0364 175.187 18.0739 175.122 18.0977C175.057 18.1216 174.988 18.1312 174.919 18.1259Z" fill="#263238"/>
<path d="M174.744 20.4403H161.771C161.634 20.4403 161.504 20.3862 161.408 20.29C161.311 20.1938 161.257 20.0632 161.257 19.9271C161.253 19.8586 161.263 19.7898 161.287 19.7255C161.311 19.6612 161.349 19.6028 161.398 19.5542C161.446 19.5056 161.505 19.468 161.569 19.4438C161.633 19.4196 161.702 19.4094 161.771 19.414H174.744C174.88 19.414 175.01 19.468 175.107 19.5643C175.203 19.6605 175.257 19.791 175.257 19.9271C175.257 20.0632 175.203 20.1938 175.107 20.29C175.01 20.3862 174.88 20.4403 174.744 20.4403Z" fill="#263238"/>
<path d="M119.988 29.6826C120.054 29.0744 120.349 28.5141 120.813 28.1157C121.277 27.7172 121.876 27.5105 122.487 27.5375C122.796 27.5201 123.105 27.574 123.389 27.695C123.674 27.816 123.927 28.001 124.129 28.2355L123.57 28.7024C123.435 28.5393 123.266 28.4085 123.074 28.3197C122.882 28.2309 122.673 28.1863 122.461 28.1893C122.048 28.1744 121.645 28.3182 121.335 28.5912C121.025 28.8642 120.831 29.2455 120.793 29.657C120.769 29.8502 120.788 30.0464 120.849 30.2313C120.91 30.4162 121.012 30.5851 121.147 30.7258C121.282 30.8664 121.446 30.9752 121.628 31.0442C121.81 31.1132 122.005 31.1407 122.2 31.1246C122.423 31.1236 122.644 31.0776 122.85 30.9895C123.055 30.9013 123.241 30.7728 123.395 30.6115L123.873 31.0887C123.642 31.325 123.366 31.5115 123.06 31.6369C122.755 31.7622 122.427 31.8237 122.097 31.8174C120.778 31.8174 119.88 30.9296 119.988 29.6826Z" fill="black"/>
<path d="M124.376 29.6826C124.443 29.074 124.739 28.5136 125.204 28.1153C125.669 27.7169 126.268 27.5104 126.88 27.5375C128.219 27.5375 129.128 28.4407 129.015 29.6826C128.943 30.2893 128.644 30.8465 128.179 31.2424C127.714 31.6383 127.116 31.8437 126.505 31.8174C125.161 31.8174 124.263 30.9142 124.376 29.6826ZM128.209 29.6826C128.233 29.4912 128.214 29.2969 128.154 29.1136C128.094 28.9303 127.995 28.7625 127.862 28.6223C127.73 28.4821 127.568 28.3728 127.389 28.3024C127.209 28.232 127.016 28.2021 126.824 28.2149C126.415 28.2055 126.018 28.3519 125.713 28.6244C125.408 28.897 125.218 29.2753 125.181 29.6826C125.157 29.8737 125.175 30.0679 125.234 30.2512C125.293 30.4346 125.393 30.6025 125.525 30.7428C125.657 30.8832 125.818 30.9925 125.998 31.063C126.177 31.1335 126.37 31.1633 126.562 31.1503C126.971 31.1598 127.369 31.0136 127.675 30.7412C127.981 30.4687 128.172 30.0904 128.209 29.6826Z" fill="black"/>
<path d="M133.875 27.594C133.755 28.983 133.632 30.3754 133.505 31.7713H132.848C132.14 30.827 131.437 29.8828 130.729 28.9437C130.642 29.8828 130.559 30.827 130.472 31.7713H129.677C129.807 30.3754 129.93 28.983 130.046 27.594H130.708C131.422 28.5382 132.13 29.4774 132.833 30.4216C132.92 29.4774 133.002 28.5382 133.084 27.594H133.875Z" fill="black"/>
<path d="M135.856 28.2509H134.429C134.429 28.0353 134.465 27.8147 134.481 27.594H138.139C138.139 27.8147 138.104 28.0353 138.083 28.2509H136.656C136.554 29.426 136.446 30.5961 136.338 31.7713H135.538C135.651 30.5961 135.743 29.426 135.856 28.2509Z" fill="black"/>
<path d="M141.193 31.7712L140.423 30.5447C140.368 30.5497 140.313 30.5497 140.259 30.5447H139.284C139.248 30.9502 139.207 31.3556 139.171 31.761H138.37C138.504 30.3651 138.628 28.9727 138.745 27.5837H140.515C141.649 27.5837 142.306 28.1482 142.224 29.0719C142.204 29.3683 142.095 29.6519 141.912 29.886C141.729 30.1201 141.48 30.2942 141.198 30.3857L142.06 31.761L141.193 31.7712ZM140.423 28.2508H139.489C139.438 28.8051 139.391 29.3593 139.34 29.9135H140.279C140.977 29.9135 141.372 29.6056 141.418 29.0822C141.465 28.5587 141.126 28.2508 140.423 28.2508Z" fill="black"/>
<path d="M145.754 30.7911H143.604L143.091 31.761H142.27C143.047 30.3651 143.816 28.9727 144.579 27.5837H145.37C145.896 28.9727 146.42 30.3651 146.94 31.761H146.103C146.006 31.4479 145.873 31.1246 145.754 30.7911ZM145.549 30.1855C145.334 29.5748 145.113 28.9693 144.897 28.3586L143.953 30.1958L145.549 30.1855Z" fill="black"/>
<path d="M147.305 29.6826C147.371 29.0744 147.666 28.5141 148.13 28.1156C148.594 27.7172 149.193 27.5105 149.804 27.5375C150.112 27.5188 150.42 27.5711 150.705 27.6903C150.99 27.8095 151.243 27.9925 151.446 28.2252L150.887 28.6922C150.753 28.5295 150.584 28.3989 150.393 28.31C150.202 28.2212 149.994 28.1764 149.783 28.179C149.37 28.1629 148.966 28.3063 148.656 28.5795C148.346 28.8527 148.152 29.2348 148.115 29.6467C148.09 29.8396 148.109 30.0358 148.169 30.2207C148.23 30.4056 148.331 30.5747 148.465 30.7154C148.599 30.8562 148.764 30.9651 148.946 31.0341C149.127 31.1031 149.323 31.1306 149.516 31.1144C149.741 31.1131 149.962 31.0671 150.169 30.979C150.375 30.8908 150.561 30.7624 150.717 30.6012L151.189 31.0784C150.959 31.3161 150.683 31.5042 150.378 31.6313C150.073 31.7584 149.745 31.8217 149.414 31.8174C148.095 31.8174 147.197 30.9296 147.305 29.6826Z" fill="black"/>
<path d="M153.041 28.2509H151.615C151.615 28.0353 151.651 27.8147 151.671 27.594H155.325C155.325 27.8147 155.289 28.0353 155.269 28.2509H153.842C153.739 29.426 153.637 30.5961 153.524 31.7713H152.723C152.836 30.5961 152.939 29.426 153.041 28.2509Z" fill="black"/>
<path d="M117.545 37.642H100.097C100.022 37.661 99.9427 37.6624 99.8664 37.6463C99.7901 37.6301 99.7185 37.5968 99.657 37.5488C99.5955 37.5008 99.5457 37.4394 99.5115 37.3693C99.4773 37.2992 99.4595 37.2222 99.4595 37.1442C99.4595 37.0662 99.4773 36.9892 99.5115 36.9191C99.5457 36.849 99.5955 36.7876 99.657 36.7396C99.7185 36.6916 99.7901 36.6583 99.8664 36.6422C99.9427 36.626 100.022 36.6275 100.097 36.6464H117.545C117.682 36.6464 117.812 36.7005 117.908 36.7967C118.005 36.893 118.059 37.0235 118.059 37.1596C118.051 37.2903 117.993 37.4131 117.898 37.5027C117.802 37.5924 117.676 37.6422 117.545 37.642Z" fill="#263238"/>
<path d="M108.544 40.3311H99.8201C99.7444 40.35 99.6654 40.3515 99.5891 40.3353C99.5127 40.3192 99.4411 40.2858 99.3796 40.2379C99.3181 40.1899 99.2684 40.1285 99.2341 40.0584C99.1999 39.9883 99.1821 39.9113 99.1821 39.8333C99.1821 39.7553 99.1999 39.6783 99.2341 39.6082C99.2684 39.5381 99.3181 39.4767 99.3796 39.4287C99.4411 39.3807 99.5127 39.3474 99.5891 39.3312C99.6654 39.3151 99.7444 39.3165 99.8201 39.3355H108.544C108.68 39.3355 108.811 39.3896 108.907 39.4858C109.003 39.582 109.057 39.7126 109.057 39.8487C109.049 39.9794 108.992 40.1021 108.896 40.1918C108.801 40.2815 108.675 40.3313 108.544 40.3311Z" fill="#263238"/>
<path d="M170.711 54.3972H98.0499C97.9813 54.4018 97.9126 54.3916 97.8482 54.3674C97.7839 54.3432 97.7255 54.3056 97.6769 54.257C97.6283 54.2084 97.5907 54.15 97.5665 54.0857C97.5423 54.0214 97.5322 53.9526 97.5367 53.8841C97.5367 53.748 97.5908 53.6174 97.687 53.5212C97.7832 53.4249 97.9138 53.3709 98.0499 53.3709H170.747C170.883 53.3709 171.013 53.4249 171.109 53.5212C171.206 53.6174 171.26 53.748 171.26 53.8841C171.26 53.9546 171.246 54.0244 171.218 54.0891C171.19 54.1538 171.149 54.2121 171.097 54.2602C171.045 54.3084 170.985 54.3454 170.918 54.369C170.852 54.3926 170.781 54.4022 170.711 54.3972Z" fill="#263238"/>
<path d="M170.269 57.4763H97.6031C97.5345 57.4808 97.4658 57.4707 97.4015 57.4465C97.3372 57.4223 97.2787 57.3847 97.2302 57.3361C97.1816 57.2875 97.1439 57.2291 97.1197 57.1648C97.0956 57.1004 97.0854 57.0317 97.0899 56.9631C97.0965 56.8247 97.1562 56.6942 97.2565 56.5986C97.3569 56.503 97.4902 56.4498 97.6288 56.45H170.31C170.446 56.45 170.577 56.504 170.673 56.6003C170.769 56.6965 170.823 56.827 170.823 56.9631C170.823 57.0341 170.809 57.1044 170.781 57.1695C170.752 57.2346 170.711 57.2931 170.659 57.3413C170.607 57.3896 170.545 57.4265 170.478 57.4497C170.411 57.4729 170.34 57.482 170.269 57.4763Z" fill="#263238"/>
<path d="M169.802 60.5554H97.1412C97.0746 60.557 97.0083 60.5446 96.9467 60.5191C96.8851 60.4935 96.8295 60.4553 96.7836 60.407C96.7376 60.3586 96.7024 60.3012 96.68 60.2383C96.6576 60.1755 96.6487 60.1087 96.6537 60.0422C96.6537 59.9061 96.7078 59.7756 96.804 59.6793C96.9003 59.5831 97.0308 59.529 97.1669 59.529H169.853C169.92 59.5274 169.986 59.5398 170.048 59.5653C170.11 59.5909 170.165 59.6291 170.211 59.6774C170.257 59.7258 170.292 59.7832 170.315 59.846C170.337 59.9089 170.346 59.9757 170.341 60.0422C170.334 60.1806 170.275 60.3112 170.174 60.4067C170.074 60.5023 169.941 60.5555 169.802 60.5554Z" fill="#263238"/>
<path d="M169.32 63.6344H96.6588C96.5902 63.639 96.5215 63.6288 96.4571 63.6046C96.3928 63.5804 96.3344 63.5428 96.2858 63.4942C96.2372 63.4456 96.1996 63.3872 96.1754 63.3229C96.1512 63.2586 96.141 63.1898 96.1456 63.1213C96.1547 62.9828 96.2158 62.853 96.3167 62.7578C96.4176 62.6626 96.5508 62.6091 96.6896 62.6081H169.376C169.443 62.6065 169.509 62.6188 169.571 62.6444C169.632 62.6699 169.688 62.7081 169.734 62.7565C169.78 62.8048 169.815 62.8623 169.837 62.9251C169.86 62.9879 169.869 63.0548 169.864 63.1213C169.854 63.2597 169.793 63.3896 169.692 63.4848C169.592 63.58 169.458 63.6334 169.32 63.6344Z" fill="#263238"/>
<path d="M168.822 66.6827H96.1556C96.0891 66.6844 96.023 66.672 95.9617 66.6464C95.9003 66.6208 95.845 66.5825 95.7995 66.5341C95.754 66.4856 95.7192 66.4281 95.6974 66.3653C95.6756 66.3025 95.6674 66.2358 95.6732 66.1695C95.6823 66.0311 95.7434 65.9012 95.8443 65.806C95.9452 65.7108 96.0784 65.6573 96.2172 65.6563H168.883C168.95 65.6546 169.016 65.667 169.077 65.6926C169.138 65.7182 169.194 65.7565 169.239 65.8049C169.285 65.8534 169.32 65.9109 169.341 65.9737C169.363 66.0366 169.371 66.1033 169.365 66.1695C169.356 66.308 169.295 66.4378 169.194 66.533C169.093 66.6282 168.96 66.6817 168.822 66.6827Z" fill="#263238"/>
<path d="M168.298 69.7618H95.6324C95.5663 69.7628 95.5008 69.7499 95.4401 69.7239C95.3793 69.698 95.3247 69.6596 95.2797 69.6113C95.2347 69.5629 95.2004 69.5056 95.1789 69.4432C95.1575 69.3807 95.1494 69.3144 95.1551 69.2486C95.1654 69.1097 95.2276 68.9798 95.3294 68.8847C95.4311 68.7897 95.5649 68.7364 95.7042 68.7354H168.365C168.431 68.7337 168.498 68.7461 168.559 68.7717C168.62 68.7973 168.676 68.8356 168.721 68.8841C168.767 68.9325 168.801 68.99 168.823 69.0528C168.845 69.1157 168.853 69.1824 168.847 69.2486C168.837 69.3875 168.775 69.5174 168.673 69.6125C168.571 69.7076 168.438 69.7609 168.298 69.7618Z" fill="#263238"/>
<path d="M167.754 72.8357H95.0933C95.0271 72.8375 94.9612 72.8251 94.9 72.7995C94.8389 72.7738 94.7839 72.7354 94.7388 72.6869C94.6936 72.6384 94.6594 72.5808 94.6382 72.5179C94.617 72.4551 94.6095 72.3885 94.6161 72.3225C94.6264 72.1836 94.6886 72.0537 94.7904 71.9586C94.8921 71.8636 95.0259 71.8102 95.1652 71.8093H167.831C167.897 71.8076 167.963 71.8199 168.024 71.8456C168.086 71.8712 168.141 71.9096 168.186 71.9581C168.231 72.0067 168.265 72.0643 168.286 72.1271C168.307 72.1899 168.315 72.2566 168.308 72.3225C168.297 72.4618 168.234 72.5918 168.131 72.6868C168.028 72.7818 167.894 72.8349 167.754 72.8357Z" fill="#263238"/>
<path d="M167.195 75.9097H94.5343C94.4679 75.9124 94.4018 75.9007 94.3405 75.8753C94.2792 75.8499 94.2241 75.8114 94.1792 75.7626C94.1343 75.7137 94.1005 75.6557 94.0803 75.5924C94.0601 75.5292 94.0539 75.4623 94.0621 75.3965C94.0725 75.2576 94.1347 75.1277 94.2364 75.0326C94.3382 74.9375 94.472 74.8842 94.6112 74.8833H167.277C167.343 74.8814 167.409 74.8938 167.47 74.9195C167.531 74.9451 167.585 74.9836 167.63 75.0323C167.675 75.0809 167.709 75.1386 167.729 75.2014C167.75 75.2643 167.757 75.3308 167.749 75.3965C167.737 75.5354 167.673 75.6647 167.571 75.7594C167.468 75.8542 167.335 75.9077 167.195 75.9097Z" fill="#263238"/>
<path d="M130.693 78.9836H93.949C93.8831 78.9856 93.8176 78.9733 93.7569 78.9476C93.6962 78.9218 93.6418 78.8832 93.5974 78.8345C93.5531 78.7857 93.5198 78.7279 93.4999 78.6651C93.4799 78.6022 93.4739 78.5358 93.482 78.4704C93.4936 78.3311 93.5569 78.2011 93.6595 78.1062C93.762 78.0112 93.8965 77.9581 94.0363 77.9572H130.78C130.846 77.9544 130.912 77.9661 130.973 77.9915C131.034 78.0169 131.089 78.0555 131.133 78.1045C131.178 78.1534 131.211 78.2116 131.231 78.2748C131.25 78.3381 131.256 78.4048 131.247 78.4704C131.235 78.6097 131.172 78.7397 131.069 78.8347C130.967 78.9297 130.832 78.9828 130.693 78.9836Z" fill="#263238"/>
<path d="M173.317 37.642H160.791C160.715 37.661 160.636 37.6624 160.56 37.6463C160.483 37.6301 160.412 37.5968 160.35 37.5488C160.289 37.5008 160.239 37.4394 160.205 37.3693C160.171 37.2992 160.153 37.2222 160.153 37.1442C160.153 37.0662 160.171 36.9892 160.205 36.9191C160.239 36.849 160.289 36.7876 160.35 36.7396C160.412 36.6916 160.483 36.6583 160.56 36.6422C160.636 36.626 160.715 36.6275 160.791 36.6464H173.323C173.398 36.6275 173.477 36.626 173.554 36.6422C173.63 36.6583 173.702 36.6916 173.763 36.7396C173.825 36.7876 173.874 36.849 173.908 36.9191C173.943 36.9892 173.961 37.0662 173.961 37.1442C173.961 37.2222 173.943 37.2992 173.908 37.3693C173.874 37.4394 173.825 37.5008 173.763 37.5488C173.702 37.5968 173.63 37.6301 173.554 37.6463C173.477 37.6624 173.398 37.661 173.323 37.642H173.317Z" fill="#263238"/>
<path d="M165.825 83.1352H100.903C100.837 83.1381 100.771 83.1264 100.71 83.1009C100.649 83.0755 100.594 83.0369 100.549 82.988C100.505 82.939 100.471 82.8808 100.452 82.8176C100.432 82.7544 100.427 82.6876 100.436 82.622C100.449 82.4822 100.513 82.3522 100.616 82.2574C100.72 82.1625 100.855 82.1095 100.995 82.1088H165.923C165.989 82.1059 166.055 82.1176 166.116 82.1431C166.177 82.1685 166.232 82.2071 166.276 82.2561C166.321 82.305 166.354 82.3632 166.374 82.4264C166.393 82.4897 166.399 82.5564 166.39 82.622C166.377 82.7627 166.312 82.8934 166.207 82.9884C166.103 83.0834 165.966 83.1358 165.825 83.1352Z" fill="#263238"/>
<path d="M165.168 86.2143H92.5022C92.4365 86.2164 92.3711 86.2041 92.3107 86.1783C92.2502 86.1526 92.196 86.1139 92.1521 86.065C92.1081 86.0161 92.0753 85.9582 92.056 85.8954C92.0367 85.8325 92.0314 85.7662 92.0404 85.7011C92.0565 85.5617 92.1226 85.433 92.2264 85.3386C92.3302 85.2442 92.4646 85.1907 92.6049 85.1879H165.271C165.337 85.1858 165.402 85.1981 165.462 85.2239C165.523 85.2496 165.577 85.2883 165.621 85.3372C165.665 85.3861 165.698 85.4439 165.717 85.5068C165.736 85.5697 165.742 85.636 165.733 85.7011C165.717 85.8404 165.651 85.9692 165.547 86.0636C165.443 86.1579 165.308 86.2115 165.168 86.2143Z" fill="#263238"/>
<path d="M164.521 89.2933H91.8553C91.7898 89.2956 91.7246 89.2834 91.6643 89.2576C91.604 89.2317 91.5501 89.193 91.5065 89.144C91.4629 89.095 91.4306 89.037 91.412 88.9741C91.3933 88.9112 91.3888 88.845 91.3986 88.7802C91.4148 88.64 91.4816 88.5105 91.5865 88.416C91.6914 88.3215 91.8271 88.2685 91.9682 88.267H164.629C164.695 88.2647 164.76 88.277 164.82 88.3028C164.88 88.3286 164.934 88.3674 164.978 88.4164C165.021 88.4654 165.054 88.5234 165.072 88.5862C165.091 88.6491 165.096 88.7153 165.086 88.7802C165.07 88.9195 165.004 89.0483 164.9 89.1427C164.796 89.237 164.662 89.2905 164.521 89.2933Z" fill="#263238"/>
<path d="M163.854 92.3724H91.1885C91.1231 92.3748 91.058 92.3626 90.9979 92.3368C90.9378 92.3109 90.8842 92.272 90.841 92.2229C90.7978 92.1738 90.766 92.1157 90.748 92.0528C90.73 91.9899 90.7262 91.9238 90.7369 91.8592C90.7542 91.7194 90.8213 91.5906 90.9259 91.4963C91.0306 91.402 91.1657 91.3487 91.3065 91.346H163.967C164.033 91.3428 164.099 91.3544 164.16 91.3799C164.22 91.4054 164.275 91.4442 164.318 91.4934C164.362 91.5427 164.394 91.6011 164.413 91.6643C164.431 91.7276 164.435 91.7942 164.424 91.8592C164.407 91.999 164.34 92.1279 164.235 92.2221C164.13 92.3164 163.995 92.3697 163.854 92.3724Z" fill="#263238"/>
<path d="M163.167 95.4515H90.5059C90.4405 95.4539 90.3754 95.4417 90.3153 95.4158C90.2552 95.39 90.2016 95.3511 90.1584 95.302C90.1151 95.2529 90.0834 95.1948 90.0654 95.1318C90.0474 95.0689 90.0436 95.0028 90.0543 94.9383C90.0715 94.7985 90.1387 94.6696 90.2433 94.5754C90.3479 94.4811 90.4831 94.4277 90.6239 94.4251H163.29C163.355 94.4217 163.421 94.4332 163.482 94.4588C163.542 94.4843 163.596 94.5232 163.64 94.5726C163.683 94.6219 163.715 94.6804 163.732 94.7438C163.75 94.8071 163.753 94.8736 163.741 94.9383C163.722 95.0781 163.654 95.2064 163.548 95.3004C163.443 95.3944 163.308 95.4479 163.167 95.4515Z" fill="#263238"/>
<path d="M116.278 98.5305H89.7982C89.7327 98.5341 89.6673 98.5227 89.6069 98.4971C89.5464 98.4715 89.4927 98.4325 89.4496 98.383C89.4065 98.3335 89.3753 98.2749 89.3584 98.2115C89.3414 98.1481 89.3392 98.0817 89.3518 98.0174C89.3712 97.8776 89.4396 97.7492 89.5449 97.6552C89.6502 97.5612 89.7854 97.5077 89.9265 97.5042H116.401C116.467 97.5008 116.533 97.5123 116.593 97.5379C116.654 97.5634 116.708 97.6023 116.751 97.6516C116.795 97.701 116.826 97.7595 116.844 97.8228C116.862 97.8862 116.865 97.9527 116.853 98.0174C116.836 98.158 116.768 98.2875 116.662 98.3819C116.556 98.4763 116.42 98.5291 116.278 98.5305Z" fill="#263238"/>
<g opacity="0.1">
<path d="M154.812 148.637H69.2344C84.9427 102.338 94.4365 55.3415 96.5662 9.05289H182.144C180.019 55.3415 170.525 102.338 154.812 148.637Z" fill="black"/>
</g>
<path d="M143.193 139.585H57.6108C77.3477 96.2931 90.4132 52.3446 96.5662 9.05289H182.144C175.996 52.3446 162.941 96.2828 143.193 139.585Z" fill="white"/>
<path d="M174.708 22.7701H99.6973C99.6657 22.7715 99.6341 22.7664 99.6046 22.7551C99.575 22.7438 99.5481 22.7266 99.5255 22.7044C99.5028 22.6823 99.485 22.6558 99.4731 22.6264C99.4612 22.5971 99.4554 22.5657 99.4561 22.534C99.465 22.4688 99.4976 22.4091 99.5478 22.3664C99.5981 22.3238 99.6623 22.3012 99.7281 22.3031H174.744C174.776 22.301 174.807 22.3054 174.837 22.3161C174.866 22.3268 174.893 22.3435 174.916 22.3653C174.939 22.387 174.957 22.4133 174.969 22.4423C174.981 22.4714 174.986 22.5026 174.986 22.534C174.978 22.6012 174.945 22.6628 174.894 22.7067C174.842 22.7505 174.776 22.7731 174.708 22.7701Z" fill="#263238"/>
<path d="M174.991 15.3958H167.293C167.228 15.4039 167.162 15.3979 167.1 15.3783C167.037 15.3587 166.98 15.3258 166.931 15.282C166.882 15.2382 166.844 15.1845 166.818 15.1244C166.791 15.0643 166.779 14.9994 166.78 14.9339C166.793 14.8069 166.852 14.6892 166.947 14.6038C167.042 14.5184 167.165 14.4714 167.293 14.472H174.991C175.055 14.4656 175.121 14.4728 175.182 14.493C175.244 14.5133 175.301 14.5462 175.349 14.5896C175.398 14.6331 175.436 14.6862 175.463 14.7455C175.49 14.8047 175.503 14.8689 175.504 14.9339C175.491 15.0609 175.431 15.1786 175.337 15.264C175.242 15.3494 175.118 15.3964 174.991 15.3958Z" fill="#263238"/>
<path d="M174.646 17.5357H169.669C169.606 17.5392 169.543 17.5298 169.484 17.5082C169.425 17.4866 169.371 17.4531 169.325 17.4099C169.28 17.3666 169.243 17.3145 169.219 17.2567C169.194 17.199 169.181 17.1367 169.181 17.0739C169.194 16.9468 169.254 16.8291 169.348 16.7437C169.443 16.6583 169.567 16.6114 169.694 16.612H174.672C174.737 16.6047 174.803 16.6113 174.865 16.6312C174.927 16.6512 174.984 16.6841 175.032 16.7277C175.081 16.7713 175.12 16.8247 175.146 16.8844C175.172 16.9441 175.186 17.0086 175.185 17.0739C175.172 17.2054 175.109 17.3269 175.009 17.4129C174.908 17.499 174.779 17.543 174.646 17.5357Z" fill="#263238"/>
<path d="M174.288 19.7013H161.294C161.229 19.7086 161.163 19.7019 161.1 19.6817C161.038 19.6614 160.98 19.6281 160.932 19.5839C160.883 19.5397 160.845 19.4857 160.819 19.4254C160.793 19.3651 160.78 19.3 160.781 19.2343C160.794 19.1027 160.857 18.9813 160.958 18.8952C161.058 18.8092 161.188 18.7652 161.32 18.7725H174.313C174.378 18.7644 174.444 18.7703 174.507 18.7899C174.569 18.8096 174.627 18.8424 174.675 18.8862C174.724 18.93 174.763 18.9838 174.789 19.0438C174.815 19.1039 174.828 19.1689 174.826 19.2343C174.815 19.3668 174.752 19.4896 174.651 19.5767C174.551 19.6638 174.42 19.7085 174.288 19.7013Z" fill="#263238"/>
<path d="M93.2462 132.328H66.9767C66.9174 132.336 66.8571 132.328 66.8017 132.306C66.7464 132.283 66.6979 132.246 66.6611 132.199C66.6243 132.152 66.6005 132.096 66.5919 132.037C66.5834 131.977 66.5904 131.917 66.6123 131.861C66.6669 131.728 66.759 131.614 66.8774 131.532C66.9958 131.45 67.1355 131.404 67.2794 131.4H93.5387C93.5978 131.391 93.6582 131.398 93.7137 131.42C93.7693 131.442 93.818 131.478 93.855 131.525C93.892 131.572 93.9159 131.627 93.9244 131.687C93.9328 131.746 93.9255 131.806 93.9031 131.861C93.8511 131.995 93.7612 132.11 93.6445 132.193C93.5278 132.276 93.3894 132.323 93.2462 132.328Z" fill="#263238"/>
<path d="M140.407 132.328H110.083C110.024 132.336 109.964 132.328 109.908 132.306C109.853 132.283 109.804 132.246 109.768 132.199C109.731 132.152 109.707 132.096 109.698 132.037C109.69 131.977 109.697 131.917 109.719 131.861C109.773 131.728 109.865 131.614 109.984 131.532C110.102 131.45 110.242 131.404 110.386 131.4H140.689C140.748 131.392 140.807 131.399 140.862 131.422C140.917 131.444 140.965 131.481 141.001 131.527C141.038 131.574 141.061 131.629 141.069 131.688C141.078 131.747 141.07 131.806 141.048 131.861C140.997 131.993 140.91 132.106 140.796 132.189C140.682 132.272 140.547 132.32 140.407 132.328Z" fill="#263238"/>
<path d="M97.9626 105.453H84.0401C83.9808 105.46 83.9207 105.452 83.8653 105.429C83.8099 105.407 83.7607 105.372 83.7222 105.326C83.6837 105.281 83.657 105.226 83.6444 105.168C83.6318 105.109 83.6338 105.049 83.6501 104.991C83.6931 104.857 83.7772 104.74 83.8905 104.656C84.0037 104.572 84.1405 104.526 84.2813 104.524H98.2038C98.2642 104.517 98.3255 104.524 98.3822 104.546C98.4389 104.568 98.4891 104.604 98.5284 104.65C98.5677 104.697 98.5947 104.752 98.6071 104.812C98.6194 104.872 98.6166 104.933 98.599 104.991C98.5541 105.125 98.4688 105.241 98.3547 105.324C98.2406 105.407 98.1036 105.452 97.9626 105.453Z" fill="#263238"/>
<path d="M146.283 105.453H125.992C125.933 105.46 125.873 105.452 125.817 105.429C125.762 105.407 125.713 105.372 125.674 105.326C125.636 105.281 125.609 105.226 125.597 105.168C125.584 105.109 125.586 105.049 125.602 104.991C125.645 104.857 125.729 104.74 125.843 104.656C125.956 104.572 126.093 104.526 126.233 104.524H146.519C146.579 104.518 146.64 104.526 146.696 104.548C146.752 104.571 146.801 104.607 146.84 104.653C146.879 104.699 146.905 104.754 146.917 104.813C146.93 104.873 146.927 104.934 146.909 104.991C146.866 105.124 146.782 105.239 146.67 105.322C146.558 105.405 146.423 105.451 146.283 105.453Z" fill="#263238"/>
<path d="M121.174 126.889C120.745 126.909 120.319 126.817 119.937 126.622C119.28 126.247 119.121 125.596 119.475 124.769C119.526 124.651 119.583 124.533 119.65 124.41C117.676 125.194 115.604 125.701 113.491 125.919C112.229 125.996 111.926 125.503 111.89 125.072C111.829 124.307 112.578 123.086 113.779 121.68C112.12 122.422 110.501 123.251 108.929 124.164C108.78 124.22 108.647 124.164 108.621 124.051C108.619 123.982 108.639 123.915 108.679 123.859C108.719 123.803 108.776 123.762 108.842 123.743C108.888 123.743 111.305 122.352 114.461 120.905C117.664 117.415 122.985 113.13 125.751 111.668C127.732 110.616 128.887 110.328 129.184 110.816C129.646 111.581 127.378 113.895 123.637 116.399C120.806 118.241 117.836 119.861 114.754 121.244C113.307 122.829 112.357 124.189 112.414 124.928C112.414 125.082 112.465 125.539 113.594 125.442C115.818 125.204 117.995 124.647 120.06 123.789C121.661 121.629 125.382 119.073 127.085 118.657C127.742 118.493 128.004 118.657 128.112 118.832C128.22 119.006 128.25 119.283 127.896 119.745C126.988 120.92 123.832 122.773 120.368 124.143C120.217 124.354 120.089 124.581 119.988 124.821C119.711 125.467 119.819 125.924 120.322 126.216C121.476 126.878 124.427 125.934 127.368 124.579C127.393 124.42 127.44 124.265 127.506 124.118C128.327 122.244 132.34 119.355 134.475 119.499C134.901 119.525 134.988 119.714 135.014 119.868C135.055 120.546 133.249 121.803 131.725 122.742C130.488 123.491 129.213 124.176 127.907 124.795C127.973 125.052 128.225 125.211 128.661 125.308C131.832 125.821 139.258 121.177 139.325 121.131C139.376 121.09 139.441 121.07 139.507 121.074C139.572 121.079 139.634 121.109 139.679 121.157C139.746 121.254 139.679 121.398 139.556 121.48C139.248 121.68 131.827 126.329 128.43 125.765C128.21 125.758 127.996 125.688 127.814 125.563C127.632 125.439 127.49 125.265 127.404 125.062C125.11 126.068 122.754 126.889 121.174 126.889ZM134.203 119.94C132.325 119.94 128.702 122.578 128.004 124.169C127.983 124.212 127.966 124.257 127.953 124.302C129.17 123.715 130.357 123.068 131.509 122.362C133.705 121.013 134.501 120.192 134.485 119.992C134.485 119.992 134.444 119.951 134.311 119.945L134.203 119.94ZM127.414 119.058C127.305 119.062 127.196 119.077 127.091 119.104C125.623 119.473 122.513 121.588 120.876 123.476C123.955 122.193 126.675 120.587 127.46 119.566C127.614 119.366 127.665 119.217 127.614 119.129C127.588 119.103 127.557 119.083 127.522 119.07C127.488 119.058 127.451 119.054 127.414 119.058ZM128.507 111.047C128.189 111.047 127.45 111.237 125.941 112.073C123.293 113.479 118.659 117.241 115.549 120.433C118.267 119.172 120.891 117.717 123.401 116.081C127.337 113.423 128.923 111.463 128.712 111.129C128.676 111.067 128.62 111.042 128.507 111.042V111.047Z" fill="#263467"/>
<path d="M118.71 28.3432C118.855 27.7532 119.199 27.2313 119.685 26.8657C120.17 26.5001 120.767 26.3133 121.374 26.3367C121.67 26.3138 121.969 26.3608 122.244 26.474C122.519 26.5872 122.764 26.7634 122.959 26.9884L122.359 27.4298C122.229 27.2774 122.065 27.1569 121.881 27.0777C121.697 26.9985 121.497 26.9627 121.297 26.973C120.884 26.9545 120.478 27.0815 120.15 27.332C119.821 27.5825 119.592 27.9404 119.501 28.3432C119.347 29.1438 119.885 29.7134 120.778 29.7134C121.233 29.7147 121.673 29.5505 122.015 29.2516L122.446 29.698C121.935 30.1315 121.284 30.3633 120.614 30.3498C119.321 30.3498 118.49 29.5081 118.71 28.3432Z" fill="black"/>
<path d="M123.093 28.3432C123.242 27.7493 123.591 27.225 124.082 26.8593C124.573 26.4936 125.176 26.3089 125.787 26.3367C127.121 26.3367 127.953 27.1835 127.732 28.3432C127.583 28.9381 127.233 29.4631 126.741 29.8289C126.249 30.1947 125.645 30.3788 125.033 30.3498C123.693 30.3498 122.877 29.4979 123.093 28.3432ZM126.926 28.3432C127.08 27.5427 126.536 26.9731 125.669 26.9731C125.261 26.9606 124.861 27.0904 124.538 27.3404C124.215 27.5904 123.989 27.9449 123.899 28.3432C123.75 29.1387 124.284 29.7134 125.156 29.7134C125.564 29.7259 125.964 29.596 126.287 29.3461C126.61 29.0961 126.836 28.7416 126.926 28.3432Z" fill="black"/>
<path d="M132.776 26.3932C132.54 27.6915 132.294 28.995 132.042 30.2933H131.386C130.759 29.4106 130.139 28.5331 129.507 27.6504C129.343 28.5331 129.179 29.4106 128.994 30.2933H128.199C128.45 28.995 128.712 27.6915 128.933 26.3932H129.595C130.221 27.2707 130.852 28.1534 131.473 29.036C131.644 28.1534 131.815 27.2724 131.986 26.3932H132.776Z" fill="black"/>
<path d="M134.716 27.0038H133.284C133.325 26.7986 133.361 26.5984 133.397 26.3932H137.056C137.015 26.5984 136.979 26.7986 136.943 27.0038H135.511C135.311 28.102 135.101 29.1951 134.89 30.2933H134.09C134.285 29.1951 134.495 28.102 134.716 27.0038Z" fill="black"/>
<path d="M139.73 30.2779L139.068 29.1335H137.929C137.857 29.5133 137.78 29.893 137.708 30.2728H136.908C137.159 28.9744 137.421 27.671 137.647 26.3726H139.417C140.551 26.3726 141.157 26.8858 140.993 27.7582C140.935 28.0503 140.797 28.3204 140.594 28.538C140.39 28.7557 140.131 28.9122 139.843 28.9898C140.095 29.4158 140.356 29.8468 140.587 30.2728L139.73 30.2779ZM139.268 26.9884H138.334L138.042 28.528H138.976C139.679 28.528 140.095 28.2406 140.187 27.7479C140.279 27.2553 139.971 27.0038 139.268 27.0038V26.9884Z" fill="black"/>
<path d="M144.379 29.3901H142.224L141.623 30.2779H140.802C141.702 28.9779 142.593 27.6778 143.476 26.3778H144.261C144.672 27.6761 145.077 28.9796 145.472 30.2779H144.636L144.379 29.3901ZM144.22 28.8205C144.061 28.2509 143.897 27.6864 143.707 27.1168L142.583 28.8205H144.22Z" fill="black"/>
<path d="M146.006 28.3432C146.152 27.751 146.499 27.2276 146.987 26.8619C147.476 26.4962 148.075 26.3106 148.685 26.3367C148.982 26.3138 149.28 26.3608 149.555 26.474C149.831 26.5872 150.076 26.7634 150.271 26.9884L149.675 27.4298C149.543 27.2779 149.379 27.1578 149.194 27.0787C149.009 26.9996 148.809 26.9635 148.608 26.973C148.196 26.9555 147.79 27.0829 147.462 27.3332C147.134 27.5835 146.904 27.9409 146.812 28.3432C146.663 29.1438 147.197 29.7134 148.09 29.7134C148.546 29.7145 148.987 29.5504 149.331 29.2516L149.762 29.698C149.249 30.1298 148.596 30.3612 147.925 30.3498C146.627 30.3498 145.806 29.5081 146.006 28.3432Z" fill="black"/>
<path d="M151.887 27.0038H150.455C150.496 26.7986 150.532 26.5984 150.568 26.3932H154.217C154.181 26.5984 154.14 26.7986 154.104 27.0038H152.677C152.472 28.102 152.267 29.1951 152.051 30.2933H151.25C151.476 29.1951 151.682 28.102 151.887 27.0038Z" fill="black"/>
<path d="M115.574 35.7843H98.1263C98.0635 35.7888 98.0006 35.7799 97.9416 35.7581C97.8826 35.7362 97.829 35.7021 97.7843 35.6579C97.7396 35.6137 97.7049 35.5604 97.6824 35.5017C97.66 35.4429 97.6503 35.3801 97.6541 35.3173C97.6753 35.1855 97.7437 35.0659 97.8467 34.9809C97.9496 34.8959 98.08 34.8513 98.2135 34.8555H115.662C115.724 34.851 115.786 34.8598 115.845 34.8814C115.903 34.9029 115.957 34.9365 116.001 34.9802C116.046 35.0238 116.081 35.0765 116.104 35.1346C116.127 35.1927 116.137 35.255 116.134 35.3173C116.112 35.4491 116.043 35.5687 115.94 35.6544C115.838 35.7401 115.708 35.7861 115.574 35.7843Z" fill="#263238"/>
<path d="M106.333 38.2989H97.6088C97.5463 38.3035 97.4835 38.2945 97.4248 38.2727C97.366 38.2508 97.3127 38.2166 97.2684 38.1723C97.2241 38.128 97.1898 38.0746 97.168 38.0159C97.1461 37.9571 97.1372 37.8944 97.1418 37.8319C97.164 37.7005 97.2327 37.5815 97.3354 37.4967C97.4381 37.4119 97.568 37.3669 97.7012 37.37H106.425C106.487 37.3646 106.55 37.3728 106.609 37.3941C106.668 37.4153 106.721 37.4491 106.765 37.493C106.81 37.5369 106.844 37.59 106.866 37.6485C106.888 37.707 106.897 37.7696 106.892 37.8319C106.87 37.9637 106.802 38.0833 106.699 38.1689C106.596 38.2546 106.466 38.3007 106.333 38.2989Z" fill="#263238"/>
<path d="M167.282 51.4465H94.6214C94.5597 51.4522 94.4976 51.4442 94.4395 51.4228C94.3814 51.4015 94.3287 51.3675 94.2855 51.3232C94.2422 51.279 94.2093 51.2256 94.1893 51.167C94.1693 51.1084 94.1626 51.0461 94.1698 50.9846C94.1941 50.8519 94.2646 50.7322 94.3689 50.6467C94.4733 50.5612 94.6045 50.5154 94.7394 50.5176H167.405C167.467 50.5127 167.529 50.5215 167.588 50.5435C167.646 50.5654 167.698 50.5999 167.741 50.6446C167.784 50.6892 167.817 50.7429 167.837 50.8016C167.857 50.8604 167.864 50.9229 167.857 50.9846C167.83 51.1163 167.757 51.2344 167.652 51.3187C167.548 51.4029 167.417 51.4481 167.282 51.4465Z" fill="#263238"/>
<path d="M166.574 54.3203H93.9083C93.8466 54.3254 93.7845 54.3166 93.7266 54.2946C93.6688 54.2726 93.6165 54.238 93.5737 54.1933C93.5309 54.1485 93.4987 54.0947 93.4793 54.0359C93.46 53.9771 93.454 53.9147 93.4619 53.8533C93.4882 53.7206 93.56 53.6014 93.665 53.5161C93.7699 53.4308 93.9014 53.3849 94.0366 53.3863H166.703C166.764 53.3812 166.826 53.39 166.884 53.4119C166.942 53.4339 166.994 53.4686 167.037 53.5133C167.08 53.5581 167.112 53.6118 167.132 53.6706C167.151 53.7295 167.157 53.7919 167.149 53.8533C167.123 53.9859 167.051 54.1052 166.946 54.1905C166.841 54.2758 166.709 54.3217 166.574 54.3203Z" fill="#263238"/>
<path d="M165.841 57.1941H93.1798C93.1181 57.1991 93.056 57.1904 92.9981 57.1684C92.9402 57.1464 92.888 57.1118 92.8452 57.067C92.8024 57.0223 92.7702 56.9685 92.7508 56.9097C92.7315 56.8509 92.7255 56.7885 92.7333 56.7271C92.7616 56.5945 92.8347 56.4756 92.9403 56.3906C93.046 56.3055 93.1776 56.2594 93.3132 56.2601H165.979C166.041 56.255 166.103 56.2638 166.161 56.2857C166.219 56.3077 166.271 56.3423 166.314 56.3871C166.357 56.4319 166.389 56.4856 166.408 56.5444C166.428 56.6032 166.433 56.6656 166.426 56.7271C166.396 56.8601 166.322 56.979 166.216 57.064C166.109 57.149 165.977 57.1949 165.841 57.1941Z" fill="#263238"/>
<path d="M165.091 60.0679H92.4303C92.3688 60.0731 92.3068 60.0644 92.2491 60.0424C92.1914 60.0204 92.1394 59.9857 92.097 59.9408C92.0546 59.8959 92.0229 59.842 92.0042 59.7832C91.9854 59.7243 91.9803 59.662 91.989 59.6009C92.0174 59.4674 92.0913 59.3479 92.198 59.2627C92.3046 59.1776 92.4375 59.1321 92.574 59.1339H165.235C165.296 59.1286 165.358 59.1373 165.416 59.1593C165.474 59.1813 165.526 59.2161 165.568 59.2609C165.611 59.3058 165.642 59.3597 165.661 59.4186C165.68 59.4774 165.685 59.5397 165.676 59.6009C165.647 59.7339 165.573 59.8528 165.466 59.9378C165.36 60.0228 165.227 60.0687 165.091 60.0679Z" fill="#263238"/>
<path d="M164.321 62.9417H91.6605C91.5992 62.9459 91.5377 62.9366 91.4804 62.9142C91.4232 62.8919 91.3716 62.8572 91.3294 62.8125C91.2872 62.7678 91.2554 62.7144 91.2363 62.656C91.2173 62.5975 91.2114 62.5356 91.2191 62.4747C91.2504 62.3417 91.3257 62.2231 91.4329 62.1384C91.54 62.0536 91.6727 62.0075 91.8093 62.0077H164.48C164.542 62.0024 164.604 62.0111 164.662 62.0331C164.719 62.0551 164.771 62.0899 164.814 62.1348C164.856 62.1796 164.888 62.2335 164.907 62.2924C164.925 62.3512 164.93 62.4135 164.922 62.4747C164.89 62.6094 164.813 62.7292 164.704 62.8142C164.595 62.8992 164.46 62.9442 164.321 62.9417Z" fill="#263238"/>
<path d="M163.536 65.8155H90.8703C90.809 65.8209 90.7472 65.8123 90.6897 65.7902C90.6321 65.7682 90.5804 65.7334 90.5383 65.6884C90.4963 65.6433 90.4651 65.5893 90.447 65.5304C90.4289 65.4716 90.4246 65.4093 90.4342 65.3485C90.4664 65.2164 90.5421 65.0991 90.6492 65.0153C90.7562 64.9315 90.8884 64.8862 91.0243 64.8866H163.69C163.751 64.8813 163.812 64.8899 163.869 64.9116C163.927 64.9334 163.978 64.9677 164.02 65.0121C164.062 65.0566 164.093 65.1099 164.112 65.1681C164.13 65.2264 164.135 65.288 164.126 65.3485C164.096 65.4819 164.021 65.601 163.914 65.6859C163.806 65.7708 163.673 65.8165 163.536 65.8155Z" fill="#263238"/>
<path d="M162.725 68.6944H90.0696C90.0082 68.6998 89.9464 68.6912 89.8889 68.6692C89.8314 68.6471 89.7796 68.6123 89.7376 68.5673C89.6955 68.5223 89.6643 68.4683 89.6462 68.4094C89.6282 68.3505 89.6238 68.2882 89.6334 68.2274C89.6657 68.094 89.742 67.9753 89.85 67.8906C89.958 67.8059 90.0914 67.76 90.2287 67.7604H162.884C162.946 67.755 163.007 67.7636 163.065 67.7856C163.123 67.8076 163.174 67.8425 163.216 67.8875C163.258 67.9325 163.29 67.9865 163.308 68.0454C163.326 68.1043 163.33 68.1665 163.321 68.2274C163.287 68.3604 163.211 68.4785 163.103 68.5631C162.995 68.6477 162.862 68.6939 162.725 68.6944Z" fill="#263238"/>
<path d="M161.915 71.5682H89.2332C89.1721 71.574 89.1106 71.5656 89.0533 71.5435C88.9961 71.5215 88.9448 71.4864 88.9035 71.4411C88.8622 71.3958 88.832 71.3415 88.8152 71.2825C88.7985 71.2235 88.7958 71.1614 88.8072 71.1012C88.8403 70.9682 88.9169 70.8501 89.0247 70.7655C89.1325 70.6809 89.2655 70.6347 89.4025 70.6342H162.063C162.125 70.6286 162.186 70.6371 162.244 70.6591C162.301 70.6812 162.352 70.7161 162.394 70.7613C162.436 70.8064 162.467 70.8606 162.484 70.9195C162.501 70.9785 162.505 71.0406 162.494 71.1012C162.462 71.2317 162.388 71.3479 162.283 71.4322C162.178 71.5166 162.049 71.5643 161.915 71.5682Z" fill="#263238"/>
<path d="M125.125 74.442H88.3865C88.3254 74.4478 88.2639 74.4394 88.2067 74.4173C88.1494 74.3953 88.0981 74.3602 88.0568 74.3149C88.0155 74.2696 87.9853 74.2153 87.9686 74.1563C87.9519 74.0973 87.9491 74.0352 87.9605 73.975C87.9939 73.8412 88.0712 73.7224 88.18 73.6377C88.2889 73.553 88.423 73.5074 88.561 73.508H125.299C125.36 73.5021 125.422 73.5106 125.479 73.5326C125.536 73.5547 125.588 73.5898 125.629 73.6351C125.67 73.6804 125.701 73.7347 125.717 73.7937C125.734 73.8527 125.737 73.9147 125.725 73.975C125.691 74.1084 125.614 74.2266 125.505 74.3112C125.396 74.3957 125.263 74.4417 125.125 74.442Z" fill="#263238"/>
<path d="M171.347 35.7843H158.836C158.773 35.7889 158.711 35.78 158.652 35.7581C158.593 35.7363 158.54 35.702 158.495 35.6577C158.451 35.6134 158.417 35.5601 158.395 35.5013C158.373 35.4426 158.364 35.3798 158.369 35.3173C158.389 35.1859 158.456 35.0664 158.558 34.9813C158.66 34.8962 158.79 34.8514 158.923 34.8555H171.455C171.517 34.851 171.58 34.8598 171.638 34.8814C171.697 34.9029 171.75 34.9365 171.795 34.9802C171.839 35.0238 171.874 35.0765 171.897 35.1346C171.92 35.1927 171.93 35.255 171.927 35.3173C171.906 35.4533 171.834 35.5764 171.727 35.6627C171.62 35.749 171.484 35.7924 171.347 35.7843Z" fill="#263238"/>
<path d="M159.898 78.3421H94.9758C94.9148 78.348 94.8532 78.3395 94.796 78.3175C94.7388 78.2954 94.6875 78.2604 94.6462 78.2151C94.6048 78.1697 94.5746 78.1154 94.5579 78.0564C94.5412 77.9974 94.5385 77.9354 94.5499 77.8751C94.5858 77.7417 94.6645 77.6238 94.7739 77.5395C94.8833 77.4551 95.0173 77.409 95.1554 77.4081H160.083C160.144 77.402 160.205 77.4104 160.262 77.4324C160.319 77.4545 160.37 77.4897 160.411 77.5351C160.452 77.5806 160.482 77.6351 160.498 77.6941C160.514 77.7532 160.516 77.8152 160.503 77.8751C160.468 78.0089 160.39 78.1273 160.28 78.2118C160.171 78.2963 160.036 78.3421 159.898 78.3421Z" fill="#263238"/>
<path d="M158.974 81.2159H86.3084C86.2479 81.2211 86.187 81.2122 86.1306 81.1897C86.0742 81.1673 86.0238 81.132 85.9835 81.0866C85.9431 81.0413 85.9139 80.9871 85.8981 80.9285C85.8824 80.8699 85.8805 80.8084 85.8927 80.7489C85.9287 80.6155 86.0074 80.4976 86.1167 80.4133C86.2261 80.3289 86.3602 80.2828 86.4983 80.2819H159.159C159.22 80.2758 159.281 80.2841 159.339 80.3062C159.396 80.3283 159.447 80.3634 159.488 80.4089C159.529 80.4544 159.558 80.5088 159.574 80.5679C159.59 80.627 159.592 80.689 159.58 80.7489C159.544 80.8823 159.465 81.0002 159.356 81.0845C159.247 81.1689 159.112 81.215 158.974 81.2159Z" fill="#263238"/>
<path d="M158.056 84.0897H85.3947C85.334 84.0961 85.2726 84.0879 85.2156 84.0658C85.1586 84.0438 85.1077 84.0085 85.0671 83.9628C85.0265 83.9172 84.9973 83.8625 84.982 83.8034C84.9667 83.7443 84.9657 83.6823 84.979 83.6227C85.0167 83.4894 85.0966 83.3718 85.2067 83.2876C85.3168 83.2034 85.4512 83.1571 85.5897 83.1557H158.251C158.311 83.1496 158.373 83.1579 158.43 83.18C158.487 83.2021 158.538 83.2372 158.579 83.2827C158.62 83.3282 158.65 83.3826 158.666 83.4417C158.682 83.5008 158.684 83.5628 158.671 83.6227C158.634 83.7573 158.554 83.876 158.442 83.9604C158.331 84.0448 158.195 84.0902 158.056 84.0897Z" fill="#263238"/>
<path d="M157.121 86.9635H84.4603C84.3997 86.9702 84.3383 86.9621 84.2815 86.9401C84.2246 86.918 84.1739 86.8826 84.1336 86.8367C84.0933 86.7909 84.0647 86.7361 84.0501 86.6769C84.0355 86.6176 84.0354 86.5558 84.0498 86.4965C84.0876 86.3637 84.1677 86.2468 84.2779 86.1635C84.388 86.0801 84.5223 86.0349 84.6604 86.0346H157.326C157.386 86.0282 157.447 86.0363 157.504 86.0581C157.56 86.0799 157.61 86.1148 157.65 86.16C157.691 86.2051 157.719 86.2592 157.734 86.3178C157.749 86.3763 157.75 86.4376 157.737 86.4965C157.7 86.6311 157.619 86.7498 157.508 86.8342C157.397 86.9186 157.261 86.964 157.121 86.9635Z" fill="#263238"/>
<path d="M156.173 89.8373H83.5066C83.4466 89.844 83.3859 89.8361 83.3297 89.8144C83.2734 89.7926 83.2232 89.7575 83.1834 89.7122C83.1436 89.6668 83.1153 89.6125 83.101 89.5539C83.0867 89.4953 83.0868 89.434 83.1012 89.3755C83.1391 89.2413 83.2198 89.1231 83.3309 89.0388C83.442 88.9545 83.5776 88.9088 83.717 88.9085H156.378C156.438 88.9018 156.5 88.9098 156.557 88.9319C156.614 88.954 156.664 88.9894 156.705 89.0352C156.745 89.081 156.773 89.1359 156.788 89.1951C156.803 89.2543 156.803 89.3162 156.788 89.3755C156.75 89.5087 156.668 89.6257 156.557 89.709C156.446 89.7923 156.311 89.8373 156.173 89.8373Z" fill="#263238"/>
<path d="M109.011 92.7111H82.5364C82.4764 92.7178 82.4157 92.7099 82.3595 92.6881C82.3032 92.6663 82.253 92.6313 82.2132 92.5859C82.1734 92.5406 82.1451 92.4863 82.1308 92.4277C82.1165 92.369 82.1166 92.3078 82.131 92.2492C82.1689 92.115 82.2495 91.9969 82.3607 91.9126C82.4718 91.8283 82.6073 91.7826 82.7468 91.7822H109.227C109.287 91.7765 109.348 91.7852 109.404 91.8076C109.46 91.8301 109.51 91.8656 109.55 91.9113C109.589 91.957 109.618 92.0115 109.632 92.0703C109.646 92.1291 109.646 92.1904 109.632 92.2492C109.591 92.382 109.509 92.4983 109.397 92.5813C109.285 92.6643 109.15 92.7098 109.011 92.7111Z" fill="#263238"/>
<path d="M87.5758 129.562C83.804 129.562 83.0445 128.1 83.0855 126.837C83.2138 123.101 90.4958 116.712 98.096 113.69C102.263 112.032 105.593 111.93 106.574 113.428C107.374 114.66 106.389 116.702 103.844 119.032C98.8144 123.651 94.6577 124.677 92.8205 123.681C92.5627 123.547 92.3436 123.349 92.1842 123.107C91.7172 123.327 91.2143 123.548 90.6446 123.779C90.5009 123.84 90.3573 123.779 90.3265 123.681C90.3184 123.614 90.3339 123.546 90.3704 123.489C90.407 123.432 90.4621 123.389 90.5266 123.368C91.0706 123.143 91.553 122.922 91.9943 122.717C91.9459 122.459 91.952 122.194 92.0121 121.938C92.0722 121.683 92.185 121.443 92.3432 121.233C92.662 120.763 93.0877 120.375 93.5855 120.101C94.0833 119.827 94.6389 119.675 95.2068 119.658C95.6943 119.684 95.9765 119.899 95.9612 120.238C95.9252 120.91 94.7808 121.819 92.6768 122.855C92.8013 123.028 92.9648 123.168 93.1541 123.266C94.396 123.943 98.0139 123.779 103.484 118.76C105.819 116.615 106.758 114.783 106.05 113.726C105.198 112.417 102.027 112.571 98.1576 114.105C90.7729 117.041 83.6911 123.178 83.573 126.724C83.5217 128.372 85.1126 129.193 88.1557 129.09C92.0661 128.967 96.2023 127.376 99.6766 125.498C100.775 123.394 103.972 120.669 107.374 119.027C108.057 118.698 108.442 118.627 108.626 118.791C108.811 118.955 108.739 119.135 108.539 119.437C107.836 120.525 104.47 123.332 100.108 125.719C100.05 125.835 100.001 125.955 99.9588 126.078C99.8333 126.319 99.7905 126.595 99.8368 126.863C99.8832 127.131 100.016 127.376 100.215 127.561C101.663 128.762 106.825 125.267 108.708 123.784C108.785 123.736 108.874 123.71 108.965 123.71C109.056 123.71 109.145 123.736 109.222 123.784C109.304 123.866 109.222 123.917 109.119 124.015C108.837 124.246 101.858 129.66 99.8151 127.941C99.3019 127.52 99.189 126.878 99.4662 126.078C95.9406 127.925 91.8506 129.439 88.0685 129.562H87.5758ZM108.185 119.181C107.967 119.233 107.756 119.314 107.559 119.422C104.629 120.838 101.765 123.173 100.513 125.067C102.698 123.84 104.76 122.407 106.671 120.787C107.259 120.336 107.77 119.794 108.185 119.181ZM95.0118 120.125C94.574 120.153 94.1484 120.281 93.7677 120.499C93.387 120.717 93.0612 121.019 92.8154 121.382C92.6985 121.536 92.6138 121.711 92.5662 121.898C92.5186 122.085 92.5091 122.28 92.5383 122.47C94.7654 121.362 95.4428 120.633 95.4531 120.341C95.4531 120.161 95.1914 120.13 95.0734 120.125H95.0118Z" fill="#263467"/>
<path d="M56.1433 33.6341C56.1433 33.6341 46.6854 24.2788 35.339 23.6938C35.339 23.6938 28.5702 40.0796 25.291 56.3268L47.8144 60.3398C47.8144 60.3398 50.9088 43.4819 56.1433 33.6341Z" fill="#263467"/>
<path opacity="0.6" d="M56.144 33.6341C50.9147 43.482 47.8202 60.3193 47.8202 60.3193L25.2969 56.3063C26.5041 50.5018 28.0166 44.7651 29.8282 39.12C31.0547 35.2352 32.271 31.8174 33.2409 29.1489C34.4879 25.7619 35.3398 23.699 35.3398 23.699C46.6861 24.2789 56.144 33.6341 56.144 33.6341Z" fill="white"/>
<path d="M51.2685 24.284C51.0375 24.5046 50.8066 24.7356 50.5962 24.9768L50.4833 25.1102C50.0304 25.6172 49.6817 26.2083 49.4569 26.8499C49.3641 27.1283 49.3123 27.4187 49.303 27.712C49.3229 28.2189 49.4466 28.7163 49.6664 29.1736C49.8862 29.6308 50.1974 30.0381 50.5808 30.3703C50.5398 31.4993 47.6249 30.4011 47.6249 30.4011C47.6249 30.4011 43.3399 28.1123 42.7959 25.5105C44.4432 25.1718 45.9365 23.3397 47.1117 21.3127C47.4094 20.7995 47.6865 20.2863 47.9431 19.7475C48.3844 18.8443 48.7539 17.9616 49.0361 17.2278L51.2685 24.284Z" fill="#E4897B"/>
<path opacity="0.2" d="M50.5963 24.9768L50.4834 25.1102C50.0305 25.6172 49.6818 26.2083 49.457 26.8499C49.3642 27.1283 49.3124 27.4187 49.3031 27.712C48.0458 26.5163 46.4447 24.2583 47.1118 21.3127C47.2581 20.6691 47.4893 20.0478 47.7995 19.4652L47.9432 19.7475L50.5963 24.9768Z" fill="black"/>
<path d="M62.0556 14.6465C62.0556 14.6465 60.8291 20.3171 57.1958 21.3178C53.5625 22.3185 57.3703 12.3218 57.3703 12.3218L62.0556 14.6465Z" fill="#263238"/>
<path d="M47.3167 22.4057C47.5767 23.5158 48.1941 24.5097 49.074 25.2347C49.9538 25.9597 51.0474 26.3757 52.1867 26.4188C53.6576 26.5034 55.1054 26.0244 56.2357 25.0794C56.3936 24.949 56.5443 24.8103 56.6873 24.6637C59.3353 21.9233 61.9627 16.3605 59.3199 12.8965C58.4165 11.7074 57.0786 10.9246 55.5993 10.7198C54.12 10.5149 52.6198 10.9046 51.4272 11.8035C50.7162 12.3322 50.1425 13.0238 49.7543 13.8203C47.8709 17.4484 46.5879 19.5371 47.3167 22.4057Z" fill="#E4897B"/>
<path d="M54.5526 17.9616C54.4616 18.0624 54.4143 18.1952 54.421 18.3308C54.4278 18.4665 54.488 18.5939 54.5885 18.6852C54.7835 18.7981 55.0709 18.6544 55.2402 18.367C55.4096 18.0797 55.3942 17.7512 55.2043 17.6435C55.0144 17.5357 54.7271 17.6845 54.5526 17.9616Z" fill="#263238"/>
<path d="M57.8216 19.9014C57.7306 20.0023 57.6834 20.135 57.6901 20.2706C57.6968 20.4063 57.757 20.5337 57.8575 20.625C58.0423 20.7379 58.3348 20.5891 58.5093 20.3017C58.6837 20.0143 58.6632 19.691 58.4733 19.5781C58.2835 19.4652 57.9858 19.6295 57.8216 19.9014Z" fill="#263238"/>
<path d="M56.7132 19.4293C56.5388 20.5173 56.5129 21.6239 56.6362 22.7188C56.3543 22.7438 56.0703 22.7067 55.8043 22.6101C55.5383 22.5134 55.2968 22.3596 55.0967 22.1594L56.7132 19.4293Z" fill="#DE5753"/>
<path d="M59.859 19.2189C59.822 19.2193 59.7857 19.2094 59.754 19.1904C59.7223 19.1714 59.6965 19.144 59.6794 19.1112C59.5697 18.8897 59.4103 18.6966 59.2135 18.547C59.0168 18.3974 58.788 18.2954 58.5453 18.249C58.4944 18.2438 58.4476 18.2189 58.415 18.1795C58.3824 18.1402 58.3665 18.0896 58.3708 18.0386C58.376 17.9864 58.4015 17.9383 58.4418 17.9047C58.4821 17.8711 58.534 17.8547 58.5863 17.859C58.8943 17.9093 59.1858 18.0324 59.4366 18.2181C59.6874 18.4037 59.8903 18.6466 60.0284 18.9264C60.041 18.949 60.0491 18.9738 60.052 18.9994C60.055 19.0251 60.0529 19.0511 60.0457 19.0759C60.0385 19.1008 60.0265 19.1239 60.0103 19.1441C59.9941 19.1642 59.9741 19.1809 59.9514 19.1933C59.9222 19.2068 59.891 19.2154 59.859 19.2189Z" fill="#263238"/>
<path d="M54.6607 16.2835C54.6261 16.2638 54.599 16.2331 54.5837 16.1963C54.5746 16.1454 54.5855 16.0929 54.6142 16.0498C54.6429 16.0067 54.6872 15.9765 54.7377 15.9654C55.046 15.9053 55.3642 15.9206 55.6653 16.01C55.9664 16.0993 56.2415 16.2601 56.4671 16.4785C56.4854 16.4967 56.4999 16.5183 56.5099 16.542C56.5198 16.5658 56.5249 16.5913 56.5249 16.6171C56.5249 16.6429 56.5198 16.6684 56.5099 16.6922C56.4999 16.7159 56.4854 16.7375 56.4671 16.7557C56.4298 16.7914 56.3802 16.8114 56.3285 16.8114C56.2769 16.8114 56.2273 16.7914 56.19 16.7557C56.0059 16.5902 55.7856 16.4702 55.5468 16.4051C55.308 16.34 55.0572 16.3318 54.8147 16.381C54.7833 16.3774 54.7532 16.3667 54.7266 16.3498C54.6999 16.3329 54.6774 16.3103 54.6607 16.2835Z" fill="#263238"/>
<path d="M54.9682 10.9106L54.3165 12.6195C53.9772 12.6079 53.6458 12.7236 53.3875 12.9439C53.1293 13.1642 52.9627 13.4732 52.9206 13.81C52.7256 15.4368 50.8679 17.1303 49.3746 17.4023C49.3746 17.4023 49.6517 16.8018 49.0872 16.6787C48.5227 16.5555 47.0345 19.6756 47.2397 21.6411C47.2397 21.6411 46.4802 19.5576 47.3424 15.9192C48.1429 12.5733 49.3489 10.0587 50.5549 9.23761L54.9682 10.9106Z" fill="#263238"/>
<path d="M46.4858 15.796C46.4452 16.3093 46.5063 16.8256 46.6657 17.3153C46.8251 17.8049 47.0796 18.2583 47.4147 18.6493C48.3128 19.6756 49.5187 19.065 49.9087 17.8179C50.2372 16.7095 50.1961 14.8004 48.9799 14.2257C47.7637 13.6509 46.5987 14.5285 46.4858 15.796Z" fill="#E4897B"/>
<path d="M54.3167 22.9446C53.8938 23.2479 53.4941 23.5824 53.121 23.9453L52.9004 23.781C51.9048 23.0215 51.6944 22.339 51.7662 21.8156C51.8033 21.5613 51.9019 21.3199 52.0536 21.1125C52.1357 20.9902 52.2341 20.8797 52.3461 20.7841C52.7514 21.5258 53.3114 22.1716 53.9883 22.6777C54.1833 22.8471 54.3167 22.9446 54.3167 22.9446Z" fill="#263238"/>
<path d="M53.983 22.6777L53.6187 22.9651C52.6847 22.2466 52.1253 21.6154 52.0483 21.1125C52.1304 20.9902 52.2288 20.8797 52.3409 20.7841C52.7461 21.5258 53.3061 22.1716 53.983 22.6777Z" fill="white"/>
<path d="M52.8955 23.7811C51.8999 23.0216 51.6895 22.339 51.7614 21.8156C52.1331 22.1117 52.4493 22.4713 52.6953 22.8779C52.8531 23.1513 52.9229 23.4666 52.8955 23.7811Z" fill="#DE5753"/>
<path d="M54.3163 12.6194C54.3163 12.6194 61.7163 18.7776 62.9377 12.681C62.9377 12.681 59.3865 8.21125 55.0912 7.42609C50.7959 6.64093 49.5283 10.9157 49.5283 10.9157L54.3163 12.6194Z" fill="#263238"/>
<path d="M27.6573 153.245H22.4537C22.3684 153.247 22.286 153.277 22.2199 153.331C22.1538 153.385 22.1078 153.46 22.0894 153.543L21.2477 157.351C21.2307 157.434 21.2306 157.52 21.2473 157.603C21.2641 157.686 21.2974 157.765 21.3453 157.834C21.3932 157.904 21.4547 157.964 21.5261 158.01C21.5975 158.055 21.6774 158.086 21.7609 158.1C21.807 158.105 21.8534 158.105 21.8995 158.1C23.5827 158.074 24.8041 157.972 26.9184 157.972C28.2218 157.972 32.1476 158.105 33.9438 158.105C35.7399 158.105 35.9965 156.33 35.2421 156.165C31.9424 155.447 29.4586 154.451 28.4014 153.502C28.3004 153.412 28.1826 153.344 28.055 153.3C27.9273 153.256 27.7921 153.237 27.6573 153.245Z" fill="black"/>
<path d="M49.7135 153.112H44.5099C44.4252 153.113 44.3434 153.143 44.2774 153.196C44.2114 153.249 44.1649 153.322 44.1455 153.405L43.3039 157.217C43.2866 157.299 43.2855 157.383 43.3006 157.464C43.3158 157.546 43.3469 157.624 43.3922 157.693C43.4375 157.763 43.496 157.823 43.5646 157.87C43.6331 157.917 43.7102 157.95 43.7914 157.967H43.93C45.6132 157.936 46.8397 157.833 48.9488 157.833C50.2523 157.833 54.1781 157.972 55.9742 157.972C57.7704 157.972 58.027 156.196 57.2726 156.032C53.9729 155.314 51.4891 154.313 50.4319 153.369C50.2343 153.194 49.977 153.102 49.7135 153.112Z" fill="black"/>
<path d="M25.2915 54.4742L48.3537 57.9279C48.6155 59.3699 47.9842 62.3412 47.9842 62.3412C50.6528 79.8354 55.9539 121.085 51.6945 153.743H43.9969C43.9969 153.743 44.705 97.2424 37.9157 78.9887C37.1357 88.7391 29.1917 153.702 29.1917 153.702H21.3657C21.3657 153.702 22.5358 129.27 23.7058 106.192C24.3268 94.0094 23.0643 68.9407 24.219 60.0063L25.2915 54.4742Z" fill="#263238"/>
<path opacity="0.2" d="M37.9209 78.9887C39.0506 82.1884 39.9089 85.4775 40.4868 88.8212C41.1231 80.0972 38.5778 70.901 38.5778 70.901L37.9209 78.9887Z" fill="black"/>
<path d="M31.6035 58.7798L44.628 60.7401L44.9615 58.1537L31.9781 56.2139L31.6035 58.7798Z" fill="black"/>
<path d="M30.8798 56.0497L24.9526 55.167L24.46 57.7072L30.5309 58.6155L30.8798 56.0497Z" fill="black"/>
<path d="M45.9775 58.3076L45.5054 60.8684L48.0353 61.2482L48.3535 58.6617L45.9775 58.3076Z" fill="black"/>
<path d="M41.1383 57.5943C40.9586 57.3479 40.6932 57.1777 40.3942 57.1171L38.3415 56.7579C38.2213 56.7351 38.0977 56.7381 37.9787 56.7665C37.8597 56.7949 37.7481 56.8482 37.6511 56.9228C37.5542 56.9975 37.4741 57.0918 37.4162 57.1996C37.3583 57.3073 37.3239 57.4261 37.3152 57.5482L37.1664 58.8824C37.144 59.171 37.2216 59.4585 37.386 59.6968C37.5505 59.935 37.7918 60.1095 38.0695 60.191H38.1568L40.2095 60.5502C40.3297 60.573 40.4534 60.5701 40.5724 60.5416C40.6913 60.5132 40.803 60.4599 40.8999 60.3853C40.9968 60.3106 41.0769 60.2163 41.1348 60.1086C41.1927 60.0008 41.2271 59.882 41.2358 59.76L41.3847 58.4308C41.4064 58.1314 41.3189 57.8342 41.1383 57.5943ZM40.2095 60.0422L38.1568 59.6881C38.0835 59.6765 38.0134 59.65 37.9507 59.6103C37.8881 59.5706 37.8342 59.5185 37.7924 59.4572C37.7018 59.3406 37.6595 59.1936 37.6744 59.0466L37.8232 57.7124C37.8278 57.6518 37.8452 57.5929 37.8744 57.5396C37.9036 57.4863 37.9438 57.4399 37.9924 57.4034C38.041 57.3669 38.0969 57.3413 38.1562 57.3282C38.2155 57.3151 38.277 57.3149 38.3364 57.3275L40.3891 57.6867H40.4353C40.5606 57.7248 40.6703 57.8022 40.7483 57.9074C40.8402 58.0255 40.8841 58.1739 40.8715 58.3231V58.5232C40.8468 58.5107 40.821 58.5004 40.7945 58.4924L40.2146 58.3846C40.1707 58.3753 40.1253 58.3761 40.0817 58.3868C40.0382 58.3976 39.9976 58.418 39.9631 58.4466C39.9285 58.4753 39.9009 58.5113 39.8823 58.5521C39.8636 58.5929 39.8544 58.6374 39.8554 58.6823C39.8531 58.7809 39.885 58.8773 39.9459 58.955C40.0067 59.0327 40.0926 59.0869 40.189 59.1082L40.7689 59.216L40.7227 59.6522C40.7197 59.7135 40.7033 59.7735 40.6747 59.8279C40.6461 59.8822 40.6059 59.9296 40.557 59.9668C40.5081 60.004 40.4516 60.03 40.3916 60.043C40.3316 60.056 40.2694 60.0558 40.2095 60.0422Z" fill="white"/>
<path d="M44.1763 29.1489L44.9614 32.9567C44.9614 32.9567 43.191 42.5531 45.5054 51.4311L47.7275 52.7345L48.9488 50.9692C48.9488 50.9692 45.4951 42.2914 46.306 33.6597L48.3587 30.8578L44.1763 29.1489Z" fill="#263238"/>
<path d="M44.5355 24.5919L46.7216 29.7237L49.4415 26.8499L51.3556 29.852C51.3197 30.5893 51.1326 31.3115 50.806 31.9736C50.4793 32.6357 50.0201 33.2236 49.4569 33.7008L46.6293 30.8629L42.3288 31.3761C42.3288 31.3761 40.9946 26.932 41.3025 25.7876C41.6104 24.6432 44.5355 24.5919 44.5355 24.5919Z" fill="#263467"/>
<path opacity="0.2" d="M29.8281 39.1404C31.0546 35.2352 32.2709 31.8174 33.2408 29.1489L34.6469 28.5125C34.6469 28.5125 36.4019 34.0549 29.8281 39.1404Z" fill="black"/>
<path opacity="0.4" d="M44.5355 24.5919L46.7216 29.7237L49.4415 26.8499L51.3556 29.852C51.3197 30.5893 51.1326 31.3115 50.806 31.9736C50.4793 32.6357 50.0201 33.2236 49.4569 33.7008L46.6293 30.8629L42.3288 31.3761C42.3288 31.3761 40.9946 26.932 41.3025 25.7876C41.6104 24.6432 44.5355 24.5919 44.5355 24.5919Z" fill="white"/>
<path d="M35.3391 23.6938C32.3011 23.5501 26.1584 30.7911 24.6034 32.0791C23.0485 33.3672 18.7789 33.1722 16.2592 30.8732C16.2592 30.8732 14.3348 30.4883 13.5034 31.8072C13.5034 31.8072 17.6088 37.6574 23.3718 37.021C29.1348 36.3847 32.9067 30.8629 32.9067 30.8629C33.9329 29.772 34.7566 28.5069 35.3391 27.127C36.1551 25.0383 35.3391 23.6938 35.3391 23.6938Z" fill="#263467"/>
<path opacity="0.6" d="M35.3391 23.6938C32.3011 23.5501 26.1584 30.7911 24.6034 32.0791C23.0485 33.3672 18.7789 33.1722 16.2592 30.8732C16.2592 30.8732 14.3348 30.4883 13.5034 31.8072C13.5034 31.8072 17.6088 37.6574 23.3718 37.021C29.1348 36.3847 32.9067 30.8629 32.9067 30.8629C33.9329 29.772 34.7566 28.5069 35.3391 27.127C36.1551 25.0383 35.3391 23.6938 35.3391 23.6938Z" fill="white"/>
<path d="M88.11 95.9287L88.5359 96.9397L87.5352 96.4778L83.8096 92.6238L84.3792 92.0747L88.11 95.9287Z" fill="#263238"/>
<path d="M0.509893 7.64963L2.3093 5.9002C2.44453 5.76873 2.62645 5.69636 2.81504 5.69901C3.00364 5.70167 3.18345 5.77913 3.31492 5.91437L10.9053 13.7216L8.08614 16.4625L0.49573 8.65525C0.364254 8.52002 0.291884 8.33809 0.29454 8.1495C0.297197 7.96091 0.374661 7.7811 0.509893 7.64963Z" fill="#263238"/>
<path opacity="0.1" d="M0.509893 7.64963L2.3093 5.9002C2.44453 5.76873 2.62645 5.69636 2.81504 5.69901C3.00364 5.70167 3.18345 5.77913 3.31492 5.91437L10.9053 13.7216L8.08614 16.4625L0.49573 8.65525C0.364254 8.52002 0.291884 8.33809 0.29454 8.1495C0.297197 7.96091 0.374661 7.7811 0.509893 7.64963Z" fill="white"/>
<path d="M9.50103 11.3519L5.66759 15.0622C5.32137 15.3938 5.11805 15.8473 5.1008 16.3264C5.08356 16.8055 5.25374 17.2724 5.57522 17.628C28.2098 42.7566 51.7321 67.0522 76.1423 90.5147C76.1423 90.5147 81.4742 94.8356 86.6522 95.9389L87.6015 95.0255C86.6675 89.8116 82.5313 84.3411 82.5313 84.3411C59.931 59.1749 36.4429 34.8452 12.0669 11.3519C11.7231 11.0183 11.263 10.8318 10.784 10.8318C10.305 10.8318 9.84479 11.0183 9.50103 11.3519Z" fill="#263467"/>
<path d="M11.2198 7.76479L4.75376 14.0153C4.65128 14.1182 4.59375 14.2575 4.59375 14.4027C4.59375 14.548 4.65128 14.6873 4.75376 14.7902L5.39523 15.4368L11.9434 9.08366C21.8734 18.4286 29.3555 26.9782 29.3555 26.9782L29.0989 27.6761L31.439 29.0976C29.4838 24.6894 14.8069 10.3923 12.0665 7.76479C11.9516 7.65766 11.8003 7.59808 11.6432 7.59808C11.486 7.59808 11.3347 7.65766 11.2198 7.76479Z" fill="#263238"/>
<path d="M45.4885 44.5987L37.6665 52.1603L39.1182 53.662L46.9402 46.1004L45.4885 44.5987Z" fill="#263467"/>
<path d="M50.9194 66.3491C58.0013 73.5028 65.143 80.5693 72.3446 87.5485C72.5026 87.7021 72.7143 87.7881 72.9347 87.7881C73.1551 87.7881 73.3668 87.7021 73.5249 87.5485L79.6522 81.6213C79.8111 81.4696 79.9044 81.2617 79.912 81.0421C79.9197 80.8225 79.8412 80.6086 79.6933 80.4461C72.9706 73.0016 66.1505 65.6256 59.2329 58.3179C59.1558 58.2366 59.0634 58.1712 58.961 58.1257C58.8587 58.0801 58.7483 58.0551 58.6363 58.0523C58.5243 58.0494 58.4128 58.0687 58.3082 58.109C58.2036 58.1493 58.108 58.2098 58.0269 58.2871L50.9348 65.174C50.7806 65.3298 50.6929 65.5393 50.69 65.7585C50.6871 65.9776 50.7694 66.1894 50.9194 66.3491Z" fill="#263238"/>
<path opacity="0.2" d="M45.4885 44.5987L37.6665 52.1603L39.1182 53.662L46.9402 46.1004L45.4885 44.5987Z" fill="black"/>
<path opacity="0.6" d="M11.2198 7.76479L4.75376 14.0153C4.65128 14.1182 4.59375 14.2575 4.59375 14.4027C4.59375 14.548 4.65128 14.6873 4.75376 14.7902L5.39523 15.4368L11.9434 9.08366C21.8734 18.4286 29.3555 26.9782 29.3555 26.9782L29.0989 27.6761L31.439 29.0976C29.4838 24.6894 14.8069 10.3923 12.0665 7.76479C11.9516 7.65766 11.8003 7.59808 11.6432 7.59808C11.486 7.59808 11.3347 7.65766 11.2198 7.76479Z" fill="white"/>
<path opacity="0.1" d="M50.9194 66.3491C58.0013 73.5028 65.143 80.5693 72.3446 87.5485C72.5026 87.7021 72.7143 87.7881 72.9347 87.7881C73.1551 87.7881 73.3668 87.7021 73.5249 87.5485L79.6522 81.6213C79.8111 81.4696 79.9044 81.2617 79.912 81.0421C79.9197 80.8225 79.8412 80.6086 79.6933 80.4461C72.9706 73.0016 66.1505 65.6256 59.2329 58.3179C59.1558 58.2366 59.0634 58.1712 58.961 58.1257C58.8587 58.0801 58.7483 58.0551 58.6363 58.0523C58.5243 58.0494 58.4128 58.0687 58.3082 58.109C58.2036 58.1493 58.108 58.2098 58.0269 58.2871L50.9348 65.174C50.7806 65.3298 50.6929 65.5393 50.69 65.7585C50.6871 65.9776 50.7694 66.1894 50.9194 66.3491Z" fill="white"/>
<path d="M61.7118 56.9631L61.1114 57.7637C60.7963 57.688 60.469 57.6786 60.1501 57.736C59.8312 57.7934 59.5277 57.9164 59.2588 58.0973C59.2588 58.0973 59.3101 60.15 59.3922 60.4066C59.577 61.0018 62.2557 62.7774 62.9434 62.8698C63.1641 62.9006 63.5746 61.474 63.5079 60.9864C63.2785 60.3337 62.97 59.7116 62.5893 59.1339L63.1025 58.4154L61.7118 56.9631Z" fill="#E4897B"/>
<path d="M16.2953 31.9098L16.3774 31.2632C16.3774 31.2632 16.8085 31.371 16.9984 30.6217C17.1882 29.8725 17.5577 28.025 17.296 27.5735C16.5926 26.6638 15.8242 25.8062 14.997 25.0076C14.6121 24.6791 13.7294 26.2392 13.5293 26.9628C13.3291 27.6864 14.335 30.4934 14.335 30.4934L14.2939 31.7097C14.5901 31.8936 14.9245 32.0073 15.2714 32.0419C15.6183 32.0766 15.9686 32.0314 16.2953 31.9098Z" fill="#E4897B"/>
<path d="M56.1439 33.6341C57.6116 35.3173 62.2456 42.1425 63.5131 45.4782C65.2939 50.143 63.5131 59.5393 63.5131 59.5393L60.4341 57.4866C60.4341 57.4866 60.9986 50.2918 60.2031 47.7772C59.4077 45.2627 53.1675 40.4696 53.1675 40.4696C53.3177 39.3221 53.6323 38.2021 54.1015 37.1442C54.6091 35.8816 55.2971 34.6993 56.1439 33.6341Z" fill="#263467"/>
<path opacity="0.6" d="M63.518 59.529L60.4389 57.4763C60.4389 57.4763 61.0188 50.3277 60.2234 47.7875C59.7718 46.3506 57.5703 44.1953 55.7485 42.5993C54.3578 41.3779 53.1826 40.4799 53.1826 40.4799C53.3244 39.4211 53.6056 38.3857 54.0191 37.4008L54.1166 37.1699C54.6274 35.9067 55.3189 34.7243 56.1693 33.6597C57.6421 35.343 62.271 42.1733 63.5437 45.5039C65.2936 50.1481 63.518 59.529 63.518 59.529Z" fill="white"/>
<path opacity="0.2" d="M55.728 42.5941C54.3373 41.3728 53.1621 40.4747 53.1621 40.4747C53.3039 39.416 53.5851 38.3806 53.9986 37.3957C55.0418 38.9366 55.6402 40.7353 55.728 42.5941Z" fill="black"/>
</svg>
