<svg width="241" height="82" viewBox="0 0 241 82" fill="none" xmlns="http://www.w3.org/2000/svg">
<mask id="mask0_235_91" style="mask-type:luminance" maskUnits="userSpaceOnUse" x="0" y="0" width="241" height="82">
<path d="M226.72 6.6237C226.72 10.3269 229.538 13.4869 233.468 13.4869C237.182 13.4869 240.111 10.3269 240.111 6.6237C240.111 2.90703 237.182 -1.52588e-05 233.468 -1.52588e-05C229.538 -1.52588e-05 226.72 2.90703 226.72 6.6237ZM94.4267 6.61844V23.467C90.7178 21.7808 85.1032 20.2156 79.696 20.2156C65.2021 20.2156 56.8773 28.8512 55.6311 42.7927C55.2973 46.8482 55.2973 54.8248 55.6311 58.7593C56.8773 72.5664 66.0877 81.9091 81.2732 81.9091C92.1766 81.9091 101.282 77.0629 104.213 74.9168C106.016 73.6932 106.358 72.4508 106.358 70.4257V6.61844C106.358 3.25139 103.758 0.548553 100.386 0.548553C97.1371 0.548553 94.4267 3.25139 94.4267 6.61844ZM67.5411 57.2828C67.2181 53.8028 67.3231 47.1844 67.5411 44.1374C68.0067 35.9456 72.052 31.6668 80.5949 31.6668C86.4544 31.6668 92.0716 33.6973 94.4267 35.1603V66.3835C92.1766 68.0805 86.3387 70.4257 81.4966 70.4257C72.8326 70.4257 68.2301 65.9371 67.5411 57.2828ZM171.652 26.3878C169.975 27.52 169.278 28.6468 169.278 30.9919V75.1427C169.278 78.5178 172.093 81.2233 175.253 81.2233C178.615 81.2233 181.215 78.5178 181.215 75.1427V34.8296C183.78 33.2482 189.077 31.6668 194.576 31.6668C201.56 31.6668 207.643 35.4965 207.643 44.487V75.1427C207.643 78.5178 210.442 81.2233 213.591 81.2233C217.087 81.2233 219.558 78.5178 219.558 75.1427V43.9195C219.558 28.7436 211.228 20.2156 194.928 20.2156C183.123 20.2156 174.909 23.9244 171.652 26.3878ZM120.839 23.5719C117.805 24.93 116.893 27.1757 116.893 29.0932C116.893 32.5732 120.166 35.1604 125.113 33.5817C128.264 32.4576 132.765 31.1129 137.373 31.1129C146.131 31.1129 149.853 34.3723 149.853 42.0101V45.7107C144.675 44.487 140.839 43.8173 135.564 43.8173C119.827 43.8173 112.737 52.6947 112.737 62.4624C112.737 73.4752 120.376 81.9091 135.785 81.9091C147.485 81.9091 156.038 77.7325 159.193 75.6079C160.872 74.4757 161.319 73.2549 161.319 71.2244V42.0101C161.319 26.8368 152.432 20.2156 138.04 20.2156C131.198 20.2156 124.103 21.9986 120.839 23.5719ZM124.434 62.0241C124.434 56.624 129.376 53.5796 136.237 53.5796C141.308 53.5796 144.904 54.2599 149.853 55.4863V67.9729C148.72 68.8577 144.572 71.4557 136.805 71.4557C128.824 71.4557 124.434 68.0805 124.434 62.0241ZM8.06919 23.5719C5.03853 24.93 4.12341 27.1757 4.12341 29.0932C4.12341 32.5732 7.39092 35.1604 12.3433 33.5817C15.4924 32.4576 20.0007 31.1129 24.5978 31.1129C33.3776 31.1129 37.0838 34.3723 37.0838 42.0101V45.7107C31.9053 44.487 28.086 43.8173 22.7999 43.8173C7.59279 43.8173 0.465633 52.1086 0 61.4702V63.5328C0.481783 74.0105 8.11763 81.9091 23.0179 81.9091C34.7287 81.9091 43.2635 77.7325 46.4261 75.6079C48.1083 74.4757 48.5524 73.2549 48.5524 71.2244V42.0101C48.5524 26.8368 39.665 20.2156 25.2761 20.2156C18.4154 20.2156 11.3367 21.9986 8.06919 23.5719ZM11.6758 62.0241C11.6758 56.624 16.6148 53.5796 23.4755 53.5796C28.5328 53.5796 32.1422 54.2599 37.0838 55.4863V67.9729C35.9641 68.8577 31.7896 71.4557 24.0326 71.4557C16.0549 71.4557 11.6758 68.0805 11.6758 62.0241ZM227.506 27.3021V75.382C227.506 78.7545 230.322 81.4626 233.468 81.4626C236.838 81.4626 239.443 78.7545 239.443 75.382V27.3021C239.443 23.935 236.733 21.2322 233.468 21.2322C230.093 21.2322 227.506 23.935 227.506 27.3021Z" fill="white"/>
</mask>
<g mask="url(#mask0_235_91)">
<path d="M226.72 6.6237C226.72 10.3269 229.538 13.4869 233.468 13.4869C237.182 13.4869 240.111 10.3269 240.111 6.6237C240.111 2.90703 237.182 -1.52588e-05 233.468 -1.52588e-05C229.538 -1.52588e-05 226.72 2.90703 226.72 6.6237ZM94.4267 6.61844V23.467C90.7178 21.7808 85.1032 20.2156 79.696 20.2156C65.2021 20.2156 56.8773 28.8512 55.6311 42.7927C55.2973 46.8482 55.2973 54.8248 55.6311 58.7593C56.8773 72.5664 66.0877 81.9091 81.2732 81.9091C92.1766 81.9091 101.282 77.0629 104.213 74.9168C106.016 73.6932 106.358 72.4508 106.358 70.4257V6.61844C106.358 3.25139 103.758 0.548553 100.386 0.548553C97.1371 0.548553 94.4267 3.25139 94.4267 6.61844ZM67.5411 57.2828C67.2181 53.8028 67.3231 47.1844 67.5411 44.1374C68.0067 35.9456 72.052 31.6668 80.5949 31.6668C86.4544 31.6668 92.0716 33.6973 94.4267 35.1603V66.3835C92.1766 68.0805 86.3387 70.4257 81.4966 70.4257C72.8326 70.4257 68.2301 65.9371 67.5411 57.2828ZM171.652 26.3878C169.975 27.52 169.278 28.6468 169.278 30.9919V75.1427C169.278 78.5178 172.093 81.2233 175.253 81.2233C178.615 81.2233 181.215 78.5178 181.215 75.1427V34.8296C183.78 33.2482 189.077 31.6668 194.576 31.6668C201.56 31.6668 207.643 35.4965 207.643 44.487V75.1427C207.643 78.5178 210.442 81.2233 213.591 81.2233C217.087 81.2233 219.558 78.5178 219.558 75.1427V43.9195C219.558 28.7436 211.228 20.2156 194.928 20.2156C183.123 20.2156 174.909 23.9244 171.652 26.3878ZM120.839 23.5719C117.805 24.93 116.893 27.1757 116.893 29.0932C116.893 32.5732 120.166 35.1604 125.113 33.5817C128.264 32.4576 132.765 31.1129 137.373 31.1129C146.131 31.1129 149.853 34.3723 149.853 42.0101V45.7107C144.675 44.487 140.839 43.8173 135.564 43.8173C119.827 43.8173 112.737 52.6947 112.737 62.4624C112.737 73.4752 120.376 81.9091 135.785 81.9091C147.485 81.9091 156.038 77.7325 159.193 75.6079C160.872 74.4757 161.319 73.2549 161.319 71.2244V42.0101C161.319 26.8368 152.432 20.2156 138.04 20.2156C131.198 20.2156 124.103 21.9986 120.839 23.5719ZM124.434 62.0241C124.434 56.624 129.376 53.5796 136.237 53.5796C141.308 53.5796 144.904 54.2599 149.853 55.4863V67.9729C148.72 68.8577 144.572 71.4557 136.805 71.4557C128.824 71.4557 124.434 68.0805 124.434 62.0241ZM8.06919 23.5719C5.03853 24.93 4.12341 27.1757 4.12341 29.0932C4.12341 32.5732 7.39092 35.1604 12.3433 33.5817C15.4924 32.4576 20.0007 31.1129 24.5978 31.1129C33.3776 31.1129 37.0838 34.3723 37.0838 42.0101V45.7107C31.9053 44.487 28.086 43.8173 22.7999 43.8173C7.59279 43.8173 0.465633 52.1086 0 61.4702V63.5328C0.481783 74.0105 8.11763 81.9091 23.0179 81.9091C34.7287 81.9091 43.2635 77.7325 46.4261 75.6079C48.1083 74.4757 48.5524 73.2549 48.5524 71.2244V42.0101C48.5524 26.8368 39.665 20.2156 25.2761 20.2156C18.4154 20.2156 11.3367 21.9986 8.06919 23.5719ZM11.6758 62.0241C11.6758 56.624 16.6148 53.5796 23.4755 53.5796C28.5328 53.5796 32.1422 54.2599 37.0838 55.4863V67.9729C35.9641 68.8577 31.7896 71.4557 24.0326 71.4557C16.0549 71.4557 11.6758 68.0805 11.6758 62.0241ZM227.506 27.3021V75.382C227.506 78.7545 230.322 81.4626 233.468 81.4626C236.838 81.4626 239.443 78.7545 239.443 75.382V27.3021C239.443 23.935 236.733 21.2322 233.468 21.2322C230.093 21.2322 227.506 23.935 227.506 27.3021Z" fill="url(#paint0_linear_235_91)"/>
</g>
<defs>
<linearGradient id="paint0_linear_235_91" x1="-112.574" y1="61.2877" x2="334.972" y2="22.1006" gradientUnits="userSpaceOnUse">
<stop stop-color="#00B16B"/>
<stop offset="0.350006" stop-color="#006DB6"/>
<stop offset="0.649994" stop-color="#8E278F"/>
<stop offset="0.899994" stop-color="#F04C23"/>
<stop offset="1" stop-color="#F04C23"/>
</linearGradient>
</defs>
</svg>
