<svg width="240" height="129" viewBox="0 0 240 129" fill="none" xmlns="http://www.w3.org/2000/svg">
<g opacity="0.4">
<path d="M161.889 7.96619H139.446V26.4718H161.889V7.96619Z" fill="#B8C0C7"/>
<path d="M150.668 7.96619H128.225V26.4718H150.668V7.96619Z" fill="#D4D5D9"/>
<path d="M161.875 21.7786H158.319L158.632 20.7773L158.319 20.063H161.875V21.7786Z" fill="#677282"/>
<path d="M150.668 13.693H147.112L147.425 12.6918L147.112 11.9775H150.668V13.693Z" fill="#B8C0C7"/>
<path d="M150.667 11.9775H154.224L153.911 12.9777L154.224 13.693H150.667V11.9775Z" fill="#677282"/>
<path d="M128.225 21.9765H131.781L131.468 22.9778L131.781 23.6931H128.225V21.9765Z" fill="#B8C0C7"/>
<path d="M129.695 11.7335H136.153V9.22087H129.695V11.7335Z" fill="#E9E9E9"/>
<path d="M201.523 7.96619H179.08V26.4718H201.523V7.96619Z" fill="#B8C0C7"/>
<path d="M190.301 7.96619H167.859V26.4718H190.301V7.96619Z" fill="#D4D5D9"/>
<path d="M201.509 21.7786H197.952L198.266 20.7773L197.952 20.063H201.509V21.7786Z" fill="#677282"/>
<path d="M190.3 13.693H186.745L187.058 12.6918L186.745 11.9775H190.3V13.693Z" fill="#B8C0C7"/>
<path d="M190.3 11.9775H193.857L193.544 12.9777L193.857 13.693H190.3V11.9775Z" fill="#677282"/>
<path d="M167.857 21.9765H171.414L171.101 22.9778L171.414 23.6931H167.857V21.9765Z" fill="#B8C0C7"/>
<path d="M169.328 11.7335H175.786V9.22087H169.328V11.7335Z" fill="#E9E9E9"/>
<path d="M207.406 128.037H216.039V26.4707H207.406V128.037Z" fill="#B8C0C7"/>
<path d="M114.258 127.787H121.434L121.434 26.4707H114.258L114.258 127.787Z" fill="#B8C0C7"/>
<path d="M114.226 29.1509L207.407 29.1509V26.4718L114.226 26.4718V29.1509Z" fill="#B8C0C7"/>
<path d="M114.226 77.95L207.407 77.95V75.2709L114.226 75.2709V77.95Z" fill="#B8C0C7"/>
<path d="M114.226 118.878L207.407 118.878V116.199L114.226 116.199V118.878Z" fill="#B8C0C7"/>
<path d="M160.335 56.1379H137.132V75.2699H160.335V56.1379Z" fill="#B8C0C7"/>
<path d="M148.734 56.1379H125.531V75.2699H148.734V56.1379Z" fill="#D4D5D9"/>
<path d="M160.321 70.4186H156.645L156.968 69.3838L156.645 68.6443H160.321V70.4186Z" fill="#677282"/>
<path d="M148.733 62.0596H145.057L145.38 61.0248L145.057 60.2854H148.733V62.0596Z" fill="#B8C0C7"/>
<path d="M148.733 60.2854H152.41L152.087 61.3202L152.41 62.0596H148.733V60.2854Z" fill="#677282"/>
<path d="M125.53 70.6238H129.208L128.884 71.6586L129.208 72.398H125.53V70.6238Z" fill="#B8C0C7"/>
<path d="M127.051 60.033H133.728V57.4356H127.051V60.033Z" fill="#E9E9E9"/>
<path d="M190.112 56.1379H166.909V75.2699H190.112V56.1379Z" fill="#B8C0C7"/>
<path d="M178.51 56.1379H155.307V75.2699H178.51V56.1379Z" fill="#D4D5D9"/>
<path d="M190.097 70.4186H186.421L186.745 69.3838L186.421 68.6443H190.097V70.4186Z" fill="#677282"/>
<path d="M178.51 62.0596H174.833L175.157 61.0248L174.833 60.2854H178.51V62.0596Z" fill="#B8C0C7"/>
<path d="M178.51 60.2854H182.186L181.863 61.3202L182.186 62.0596H178.51V60.2854Z" fill="#677282"/>
<path d="M155.307 70.6238H158.983L158.66 71.6586L158.983 72.398H155.307V70.6238Z" fill="#B8C0C7"/>
<path d="M155.307 60.033H158.983L158.66 61.0678L158.983 61.8072H155.307V60.033Z" fill="#B8C0C7"/>
<path d="M165.284 73.2212H176.167V68.9878H165.284V73.2212Z" fill="#E9E9E9"/>
<path d="M160.335 99.6008H140.281V116.136H160.335V99.6008Z" fill="#B8C0C7"/>
<path d="M150.308 99.6008H130.253V116.136H150.308V99.6008Z" fill="#D4D5D9"/>
<path d="M160.323 111.944H157.146L157.425 111.049L157.146 110.411H160.323V111.944Z" fill="#677282"/>
<path d="M150.307 104.718H147.129L147.409 103.824L147.129 103.185H150.307V104.718Z" fill="#B8C0C7"/>
<path d="M150.307 103.185H153.485L153.205 104.079L153.485 104.718H150.307V103.185Z" fill="#677282"/>
<path d="M130.252 112.121H133.43L133.15 113.015L133.43 113.654H130.252V112.121Z" fill="#B8C0C7"/>
<path d="M131.567 102.967H137.338V100.721H131.567V102.967Z" fill="white"/>
<path d="M198.422 97.0055H175.219V116.137H198.422V97.0055Z" fill="#B8C0C7"/>
<path d="M186.821 97.0055H163.618V116.137H186.821V97.0055Z" fill="#D4D5D9"/>
<path d="M198.409 111.285H194.731L195.056 110.25L194.731 109.511H198.409V111.285Z" fill="#283564"/>
<path d="M186.821 102.926H183.145L183.468 101.891L183.145 101.152H186.821V102.926Z" fill="#B8C0C7"/>
<path d="M186.821 101.152H190.498L190.173 102.187L190.498 102.926H186.821V101.152Z" fill="#283564"/>
<path d="M163.618 111.49H167.294L166.97 112.525L167.294 113.264H163.618V111.49Z" fill="#618DC1"/>
<path d="M165.138 100.9H171.814V98.3021H165.138V100.9Z" fill="#E9E9E9"/>
<path d="M191.891 41.4247H174.153V56.051H191.891V41.4247Z" fill="#B8C0C7"/>
<path d="M183.022 41.4247H165.284V56.051H183.022V41.4247Z" fill="#D4D5D9"/>
<path d="M191.88 52.3413H189.07L189.317 51.5505L189.07 50.985H191.88V52.3413Z" fill="#677282"/>
<path d="M183.022 45.9504H180.211L180.459 45.1596L180.211 44.5951H183.022V45.9504Z" fill="#B8C0C7"/>
<path d="M183.022 44.5951H185.833L185.585 45.3858L185.833 45.9504H183.022V44.5951Z" fill="#677282"/>
<path d="M165.283 52.4984H168.094L167.847 53.2891L168.094 53.8547H165.283V52.4984Z" fill="#B8C0C7"/>
<path d="M166.445 44.4023H171.549V42.4166H166.445V44.4023Z" fill="#E9E9E9"/>
<path d="M160.198 41.4247H142.46V56.051H160.198V41.4247Z" fill="#B8C0C7"/>
<path d="M151.329 41.4247H133.591V56.051H151.329V41.4247Z" fill="#D4D5D9"/>
<path d="M160.189 52.3413H157.378L157.625 51.5505L157.378 50.985H160.189V52.3413Z" fill="#677282"/>
<path d="M151.329 45.9504H148.519L148.766 45.1596L148.519 44.5951H151.329V45.9504Z" fill="#B8C0C7"/>
<path d="M151.329 44.5951H154.14L153.893 45.3858L154.14 45.9504H151.329V44.5951Z" fill="#677282"/>
<path d="M133.591 52.4984H136.401L136.154 53.2891L136.401 53.8547H133.591V52.4984Z" fill="#B8C0C7"/>
<path d="M134.753 44.4023H139.858V42.4166H134.753V44.4023Z" fill="#E9E9E9"/>
</g>
<path d="M18.136 100.83L18.578 100.701C17.4113 96.7373 19.528 92.6118 23.2911 91.5037L32.7801 88.7105C34.7334 88.1365 35.831 85.9968 35.2256 83.9419C33.2723 77.3017 36.8186 70.3881 43.131 68.5301L42.9938 68.0662C36.4384 69.9954 32.756 77.1781 34.7847 84.0728C35.3146 85.8711 34.3532 87.7385 32.6439 88.2465L23.1549 91.0387C19.1478 92.2233 16.8949 96.6158 18.136 100.83Z" fill="#283564"/>
<path d="M19.0955 104.092L19.5364 103.962C18.3697 99.9988 20.4864 95.8722 24.2495 94.7641L33.7385 91.9719C35.6918 91.3969 36.7894 89.2582 36.1851 87.2033C34.2307 80.5631 37.776 73.6485 44.0894 71.7916L43.9522 71.3265C37.3969 73.2558 33.7133 80.4385 35.7431 87.3332C36.272 89.1315 35.3116 90.9989 33.6023 91.5079L24.1133 94.3001C20.1062 95.4805 17.8533 99.8731 19.0955 104.092Z" fill="#283564"/>
<path d="M68.3942 72.4535H88.3745V55.9787H68.3942V72.4535Z" fill="#296289"/>
<path d="M78.3835 72.4535H98.3638V55.9787H78.3835V72.4535Z" fill="#669AD3"/>
<path d="M68.4053 68.2746H71.5704L71.2918 67.3833L71.5704 66.7476H68.4053V68.2746Z" fill="#DE6B4D"/>
<path d="M78.3838 61.0761H81.5499L81.2703 60.1859L81.5499 59.5491H78.3838V61.0761Z" fill="#EE805F"/>
<path d="M78.3839 59.5491H75.2178L75.4964 60.4393L75.2178 61.0761H78.3839V59.5491Z" fill="#DE6B4D"/>
<path d="M98.3639 68.4516H95.1978L95.4774 69.3429L95.1978 69.9786H98.3639V68.4516Z" fill="#EE805F"/>
<path d="M97.0556 57.0952H91.3057V59.3323H97.0556V57.0952Z" fill="#D4D5D9"/>
<path d="M67.6766 11.1773C70.5411 11.1773 73.5417 10.7227 75.2123 9.76022C77.8641 8.23004 81.2282 8.87835 81.2628 8.88568L81.3445 8.47931C81.2 8.44998 77.795 7.7912 75.0049 9.40098C72.2545 10.9877 65.4216 11.1291 62.332 10.0755C59.2842 9.03859 55.2383 7.92212 53.5552 7.92212V8.34106C55.1911 8.34106 59.1815 9.44601 62.1979 10.4724C63.5626 10.9343 65.5819 11.1773 67.6766 11.1773Z" fill="#283564"/>
<path d="M84.1439 49.3406H85.4541V40.7932H84.1439V49.3406Z" fill="#283564"/>
<path d="M81.5496 49.3406H82.8599V40.7932H81.5496V49.3406Z" fill="#283564"/>
<path d="M67.6766 10.2577C70.5411 10.2577 73.5417 9.80317 75.2123 8.84066C77.8641 7.31048 81.2282 7.95984 81.2628 7.96612L81.3445 7.55975C81.2 7.53042 77.795 6.87164 75.0049 8.48142C72.2545 10.0682 65.4216 10.2095 62.332 9.15591C59.2842 8.11904 55.2383 7.00256 53.5552 7.00256V7.4215C55.1911 7.4215 59.1815 8.52645 62.1979 9.55286C63.5626 10.0147 65.5819 10.2577 67.6766 10.2577Z" fill="#283564"/>
<path d="M40.0873 60.2215H40.6309V59.8026H40.0873C38.8757 59.8012 37.7141 59.3194 36.8573 58.4627C36.0005 57.6061 35.5183 56.4446 35.5167 55.233V7.93054C35.5181 6.71886 36.0001 5.55721 36.857 4.70052C37.7139 3.84382 38.8756 3.36206 40.0873 3.36096H44.1206V2.94202H40.0873C38.7641 2.94202 37.495 3.46752 36.5591 4.40299C35.6233 5.33846 35.0972 6.60731 35.0967 7.93054V55.2372C35.0983 56.5597 35.6249 57.8275 36.5606 58.762C37.4964 59.6966 38.7648 60.2215 40.0873 60.2215Z" fill="#283564"/>
<path d="M40.6257 56.2133V55.7944C39.7831 55.7935 38.9752 55.4585 38.3793 54.8628C37.7834 54.2671 37.4481 53.4593 37.447 52.6167V8.64899C37.4481 7.83184 37.7732 7.04848 38.351 6.47067C38.9288 5.89285 39.7122 5.56775 40.5293 5.56664H43.7269V5.14771H40.5293C39.6022 5.14881 38.7133 5.51761 38.0577 6.17321C37.4021 6.8288 37.0333 7.71766 37.0322 8.6448V52.623C37.0339 53.5752 37.4131 54.488 38.0867 55.161C38.7604 55.834 39.6734 56.2125 40.6257 56.2133Z" fill="#283564"/>
<path d="M77.3407 42.691H90.0293C91.262 42.691 92.2612 41.6917 92.2612 40.4591V13.7999C92.2612 12.5672 91.262 11.568 90.0293 11.568L77.3407 11.568C76.1081 11.568 75.1088 12.5672 75.1088 13.7999V40.4591C75.1088 41.6917 76.1081 42.691 77.3407 42.691Z" fill="#B8C0C7"/>
<path d="M87.7986 17.4626C88.6122 17.3305 89.1647 16.5639 89.0327 15.7502C88.9006 14.9366 88.134 14.3841 87.3204 14.5162C86.5067 14.6482 85.9542 15.4149 86.0863 16.2285C86.2184 17.0421 86.985 17.5946 87.7986 17.4626Z" fill="#DDE7FE"/>
<path d="M89.052 37.2783C89.052 36.9829 88.9644 36.6942 88.8003 36.4486C88.6362 36.203 88.4029 36.0115 88.13 35.8985C87.8571 35.7854 87.5568 35.7559 87.2671 35.8135C86.9774 35.8711 86.7113 36.0134 86.5024 36.2222C86.2935 36.4311 86.1513 36.6972 86.0936 36.9869C86.036 37.2767 86.0656 37.5769 86.1786 37.8499C86.2917 38.1228 86.4831 38.356 86.7287 38.5201C86.9743 38.6842 87.2631 38.7718 87.5585 38.7718C87.7546 38.772 87.9489 38.7334 88.1302 38.6584C88.3114 38.5834 88.4761 38.4734 88.6148 38.3347C88.7536 38.196 88.8636 38.0313 88.9386 37.85C89.0136 37.6688 89.0521 37.4745 89.052 37.2783Z" fill="#DDE7FE"/>
<path d="M81.3034 15.9951C81.3037 15.6997 81.2162 15.4108 81.0522 15.1651C80.8883 14.9193 80.6551 14.7277 80.3822 14.6145C80.1093 14.5013 79.809 14.4716 79.5192 14.5291C79.2294 14.5866 78.9632 14.7288 78.7542 14.9376C78.5452 15.1465 78.4029 15.4126 78.3452 15.7023C78.2875 15.9921 78.317 16.2924 78.43 16.5654C78.543 16.8383 78.7344 17.0717 78.9801 17.2358C79.2257 17.4 79.5145 17.4876 79.8099 17.4876C80.2058 17.4873 80.5853 17.33 80.8653 17.0502C81.1453 16.7704 81.3029 16.391 81.3034 15.9951Z" fill="#DDE7FE"/>
<path d="M81.3034 37.2783C81.3034 36.9829 81.2158 36.6942 81.0517 36.4486C80.8876 36.203 80.6544 36.0115 80.3815 35.8985C80.1086 35.7854 79.8083 35.7559 79.5186 35.8135C79.2288 35.8711 78.9627 36.0134 78.7538 36.2222C78.545 36.4311 78.4027 36.6972 78.3451 36.9869C78.2875 37.2767 78.317 37.5769 78.4301 37.8499C78.5431 38.1228 78.7346 38.356 78.9802 38.5201C79.2258 38.6842 79.5145 38.7718 79.8099 38.7718C80.206 38.7718 80.5859 38.6145 80.866 38.3344C81.1461 38.0543 81.3034 37.6744 81.3034 37.2783Z" fill="#DDE7FE"/>
<path d="M77.3145 50.808C77.3155 51.1153 77.3823 51.4188 77.5103 51.6982H89.2333C89.3613 51.4188 89.4281 51.1153 89.4291 50.808C89.4291 48.8662 86.7165 47.291 83.3713 47.291C80.026 47.291 77.3145 48.8662 77.3145 50.808Z" fill="#669AD3"/>
<path d="M67.1611 54.8182V70.7495C67.1606 71.3786 67.3128 71.9985 67.6046 72.5558C67.8965 73.1132 68.3194 73.5913 68.8369 73.9491L73.6955 77.3006C73.8628 77.4157 74.0689 77.4597 74.2686 77.4229C74.4683 77.3862 74.6453 77.2718 74.7607 77.1048C74.8762 76.9375 74.9205 76.7313 74.884 76.5313C74.8475 76.3314 74.733 76.1542 74.5659 76.0386L69.7062 72.6871C69.3926 72.4702 69.1362 72.1806 68.959 71.8429C68.7819 71.5053 68.6893 71.1297 68.6892 70.7484V54.8182C68.6892 53.9907 69.0179 53.1971 69.6031 52.612C70.1882 52.0269 70.9818 51.6982 71.8093 51.6982H94.9253C95.7528 51.6982 96.5464 52.0269 97.1315 52.612C97.7166 53.1971 98.0454 53.9907 98.0454 54.8182V70.6594C98.0458 71.0579 97.9443 71.45 97.7505 71.7983C97.5568 72.1466 97.2772 72.4395 96.9383 72.6493L91.512 76.049C91.4266 76.1022 91.3526 76.1716 91.2941 76.2534C91.2356 76.3352 91.1939 76.4278 91.1712 76.5258C91.1485 76.6237 91.1454 76.7252 91.162 76.8244C91.1786 76.9236 91.2146 77.0185 91.268 77.1037C91.3212 77.1891 91.3908 77.2632 91.4727 77.3217C91.5546 77.3802 91.6472 77.4219 91.7452 77.4446C91.8433 77.4673 91.9449 77.4704 92.0441 77.4538C92.1434 77.4371 92.2384 77.4011 92.3237 77.3478L97.7521 73.9554C98.3128 73.6077 98.7751 73.1223 99.0951 72.5453C99.415 71.9684 99.5818 71.3191 99.5797 70.6594V54.8182C99.5797 53.5843 99.0896 52.4008 98.2172 51.5282C97.3447 50.6555 96.1614 50.1651 94.9274 50.1649H71.8135C70.5795 50.1651 69.3962 50.6555 68.5237 51.5282C67.6513 52.4008 67.1611 53.5843 67.1611 54.8182Z" fill="#283564"/>
<path d="M52.2974 2.94617L84.1494 2.94617V1.98784L52.2974 1.98784V2.94617Z" fill="#283564"/>
<path d="M52.2974 5.63153L84.1494 5.63153V4.67321L52.2974 4.67321V5.63153Z" fill="#283564"/>
<path d="M79.5546 11.5669H89.0519V4.90368C89.0517 3.60332 88.5349 2.35632 87.6153 1.43692C86.6957 0.51753 85.4486 0.00103757 84.1482 0.0010376C82.848 0.0010376 81.601 0.517564 80.6816 1.43699C79.7621 2.35641 79.2456 3.60342 79.2456 4.90368V11.2579C79.247 11.3395 79.2799 11.4173 79.3376 11.4749C79.3952 11.5326 79.473 11.5656 79.5546 11.5669Z" fill="#669AD3"/>
<path d="M44.8693 94.6416H51.6456C53.3884 94.6416 54.8013 93.2288 54.8013 91.4859L54.8013 3.15567C54.8013 1.41284 53.3884 7.62939e-06 51.6456 7.62939e-06H44.8693C43.1264 7.62939e-06 41.7136 1.41284 41.7136 3.15567L41.7136 91.4859C41.7136 93.2288 43.1264 94.6416 44.8693 94.6416Z" fill="#B8C0C7"/>
<path d="M49.018 4.5989C49.0182 4.44821 48.9737 4.30085 48.8901 4.17548C48.8065 4.0501 48.6876 3.95234 48.5484 3.89458C48.4092 3.83682 48.2561 3.82166 48.1083 3.85101C47.9605 3.88035 47.8247 3.95289 47.7181 4.05944C47.6116 4.16599 47.539 4.30176 47.5097 4.44956C47.4803 4.59736 47.4955 4.75054 47.5533 4.88972C47.611 5.02889 47.7088 5.1478 47.8342 5.23138C47.9595 5.31497 48.1069 5.35948 48.2576 5.35927C48.4592 5.35899 48.6524 5.27879 48.7949 5.13626C48.9375 4.99372 49.0177 4.80047 49.018 4.5989Z" fill="#283564"/>
<path d="M42.1675 76.4648H54.8226C55.674 76.4648 56.3643 75.7746 56.3643 74.9231L56.3643 14.8765C56.3643 14.0251 55.674 13.3348 54.8226 13.3348H42.1675C41.316 13.3348 40.6257 14.0251 40.6257 14.8765L40.6257 74.9231C40.6257 75.7746 41.316 76.4648 42.1675 76.4648Z" fill="#677282"/>
<path d="M54.8728 99.4259H39.7104V90.293C39.7104 89.8975 39.8675 89.5181 40.1472 89.2384C40.4269 88.9587 40.8062 88.8016 41.2018 88.8016H54.8728C55.2684 88.8016 55.6477 88.9587 55.9274 89.2384C56.2071 89.5181 56.3643 89.8975 56.3643 90.293V97.9387C56.3631 98.3335 56.2055 98.7118 55.926 98.9906C55.6464 99.2694 55.2677 99.4259 54.8728 99.4259Z" fill="#677282"/>
<path d="M84.2292 7.57141C85.8297 7.52698 87.0912 6.19351 87.0467 4.59302C87.0023 2.99253 85.6688 1.73109 84.0683 1.77552C82.4679 1.81994 81.2064 3.15341 81.2509 4.7539C81.2953 6.35439 82.6287 7.61583 84.2292 7.57141Z" fill="#669AD3"/>
<path d="M81.1602 4.67322C81.1602 4.08198 81.3355 3.50402 81.664 3.01244C81.9925 2.52085 82.4594 2.13773 83.0056 1.91152C83.5519 1.68531 84.153 1.62617 84.7328 1.7416C85.3127 1.85702 85.8453 2.14181 86.2633 2.55995C86.6813 2.97809 86.9659 3.5108 87.0811 4.09071C87.1963 4.67061 87.137 5.27166 86.9106 5.81783C86.6842 6.36401 86.3009 6.83078 85.8092 7.1591C85.3175 7.48743 84.7395 7.66256 84.1482 7.66235C83.3559 7.66124 82.5964 7.34593 82.0362 6.78557C81.476 6.22521 81.161 5.46555 81.1602 4.67322ZM81.3392 4.67322C81.3392 5.22878 81.504 5.77187 81.8127 6.23381C82.1213 6.69574 82.56 7.05578 83.0733 7.26838C83.5866 7.48099 84.1514 7.53662 84.6963 7.42823C85.2411 7.31985 85.7417 7.05232 86.1345 6.65947C86.5273 6.26663 86.7949 5.76612 86.9033 5.22122C87.0116 4.67633 86.956 4.11154 86.7434 3.59826C86.5308 3.08499 86.1708 2.64628 85.7088 2.33763C85.2469 2.02897 84.7038 1.86423 84.1482 1.86423C83.4035 1.86506 82.6895 2.16127 82.1629 2.68788C81.6363 3.21449 81.3401 3.92848 81.3392 4.67322Z" fill="#283564"/>
<path d="M84.5544 6.40112C85.5052 6.1767 86.0941 5.22395 85.8697 4.2731C85.6453 3.32225 84.6925 2.73337 83.7417 2.95779C82.7908 3.18221 82.2019 4.13495 82.4264 5.0858C82.6508 6.03665 83.6035 6.62555 84.5544 6.40112Z" fill="#296289"/>
<path d="M12.784 120.369H166.278C169.056 120.369 171.72 119.265 173.684 117.301C175.648 115.337 176.752 112.673 176.752 109.895C176.752 107.117 175.648 104.453 173.684 102.489C171.72 100.525 169.056 99.4217 166.278 99.4217H12.784C10.0063 99.4217 7.34232 100.525 5.37816 102.489C3.414 104.453 2.31055 107.117 2.31055 109.895C2.31055 112.673 3.414 115.337 5.37816 117.301C7.34232 119.265 10.0063 120.369 12.784 120.369Z" fill="#B8C0C7"/>
<path d="M2.3125 109.897C2.3125 112.675 3.41595 115.339 5.38011 117.303C7.34427 119.267 10.0082 120.371 12.786 120.371H38.8126C38.9453 120.371 39.0767 120.345 39.1992 120.294C39.3218 120.243 39.4331 120.169 39.5269 120.075C39.6207 119.981 39.695 119.869 39.7457 119.747C39.7964 119.624 39.8224 119.493 39.8223 119.36V100.437C39.8224 100.304 39.7964 100.173 39.7457 100.05C39.695 99.9273 39.6207 99.8159 39.5269 99.722C39.4331 99.6281 39.3218 99.5537 39.1992 99.5029C39.0767 99.4521 38.9453 99.4259 38.8126 99.4259H12.7839C10.0069 99.4265 7.34376 100.53 5.38011 102.494C3.41647 104.457 2.31306 107.12 2.3125 109.897Z" fill="#B8C0C7"/>
<path d="M9.83057 119.972C9.86932 120.104 9.91017 120.236 9.95101 120.37C10.3001 121.497 10.687 122.643 11.1115 123.806C11.1701 123.969 11.2298 124.131 11.2906 124.293C11.8052 125.678 12.3739 127.087 12.9967 128.522L28.155 128.53L167.327 128.6V119.97L9.83057 119.972Z" fill="#D4D5D9"/>
<path d="M121.152 109.13L121.564 110.257L121.573 110.285C121.598 110.351 121.646 110.405 121.708 110.438C121.77 110.471 121.842 110.48 121.91 110.463L122.883 110.225C122.899 110.22 122.915 110.217 122.931 110.217C122.986 110.213 123.041 110.226 123.089 110.253C123.136 110.28 123.175 110.32 123.201 110.369C123.506 110.96 123.926 111.485 124.436 111.912C124.457 111.93 124.475 111.95 124.491 111.972C124.518 112.014 124.534 112.062 124.537 112.112C124.541 112.162 124.531 112.212 124.51 112.257L124.139 113.008C124.116 113.056 124.107 113.109 124.112 113.162C124.117 113.215 124.137 113.265 124.169 113.307C124.191 113.334 124.216 113.357 124.244 113.376L125.279 114.032C125.341 114.071 125.415 114.086 125.487 114.073C125.559 114.059 125.624 114.02 125.668 113.961L126.342 113.076C126.374 113.033 126.418 113.001 126.468 112.982C126.519 112.964 126.573 112.96 126.625 112.971C126.781 113.003 126.94 113.029 127.096 113.046C127.389 113.077 127.685 113.083 127.98 113.063C128.038 113.059 128.096 113.072 128.147 113.102C128.198 113.131 128.238 113.176 128.262 113.229L128.74 114.254L128.763 114.306C128.793 114.37 128.845 114.421 128.911 114.448C128.976 114.476 129.049 114.477 129.116 114.453L130.268 114.034C130.336 114.009 130.392 113.96 130.426 113.896C130.46 113.832 130.469 113.758 130.452 113.688L130.186 112.605C130.171 112.546 130.175 112.483 130.197 112.427C130.22 112.37 130.26 112.322 130.312 112.29C130.748 112.01 131.139 111.664 131.47 111.265C131.512 111.216 131.568 111.182 131.631 111.169C131.694 111.156 131.76 111.164 131.817 111.193L132.706 111.629C132.771 111.661 132.845 111.668 132.914 111.649C132.984 111.629 133.044 111.585 133.082 111.524L133.743 110.485C133.78 110.426 133.794 110.355 133.782 110.286C133.769 110.218 133.732 110.156 133.676 110.114L132.636 109.32C132.593 109.287 132.559 109.243 132.54 109.193C132.52 109.142 132.515 109.087 132.525 109.033C132.551 108.898 132.571 108.763 132.587 108.623C132.615 108.367 132.623 108.109 132.612 107.852C132.608 107.796 132.622 107.74 132.651 107.692C132.68 107.644 132.723 107.605 132.774 107.583L134.006 107.012C134.071 106.982 134.123 106.928 134.15 106.862C134.178 106.795 134.179 106.721 134.155 106.654L133.736 105.502C133.714 105.442 133.673 105.392 133.62 105.358C133.567 105.324 133.503 105.309 133.441 105.314C133.427 105.315 133.413 105.318 133.4 105.321L132.197 105.616C132.143 105.63 132.086 105.627 132.033 105.608C131.98 105.59 131.934 105.556 131.9 105.511C131.893 105.503 131.887 105.495 131.882 105.486C131.868 105.46 131.851 105.435 131.834 105.41C131.642 105.108 131.42 104.828 131.169 104.573C131.127 104.531 131.099 104.477 131.09 104.419C131.081 104.361 131.09 104.301 131.118 104.249L131.577 103.306C131.609 103.242 131.616 103.168 131.597 103.099C131.578 103.03 131.533 102.971 131.473 102.932L131.242 102.786L130.439 102.278C130.378 102.239 130.305 102.224 130.234 102.237C130.163 102.25 130.099 102.288 130.055 102.346L129.393 103.218C129.358 103.264 129.31 103.298 129.256 103.315C129.202 103.332 129.143 103.333 129.089 103.316C128.789 103.227 128.481 103.166 128.169 103.135C127.936 103.109 127.701 103.1 127.466 103.108L127.368 102.893L126.956 102.011C126.933 101.958 126.893 101.914 126.843 101.885C126.793 101.856 126.735 101.844 126.678 101.849C126.653 101.851 126.628 101.857 126.604 101.866L125.444 102.285C125.378 102.31 125.323 102.358 125.29 102.42C125.257 102.482 125.248 102.554 125.264 102.622L125.446 103.362C125.46 103.422 125.454 103.486 125.428 103.543C125.403 103.599 125.359 103.646 125.305 103.676C124.835 103.925 124.408 104.247 124.04 104.631C123.998 104.675 123.944 104.704 123.884 104.715C123.825 104.725 123.764 104.717 123.71 104.69L122.586 104.138C122.524 104.109 122.454 104.103 122.389 104.123C122.323 104.142 122.268 104.185 122.232 104.243L121.566 105.29C121.528 105.349 121.514 105.421 121.526 105.49C121.539 105.559 121.577 105.621 121.633 105.664L122.715 106.489C122.761 106.523 122.795 106.571 122.814 106.625C122.833 106.679 122.835 106.738 122.819 106.793C122.752 107.04 122.705 107.293 122.679 107.548C122.664 107.688 122.654 107.827 122.651 107.967C122.649 108.02 122.633 108.071 122.604 108.116C122.575 108.16 122.534 108.196 122.486 108.218L121.305 108.766C121.238 108.796 121.186 108.851 121.158 108.918C121.129 108.985 121.127 109.061 121.152 109.13ZM129.112 105.818C129.148 105.84 129.187 105.863 129.224 105.887C129.621 106.169 129.932 106.555 130.123 107.003C130.195 107.199 130.248 107.4 130.282 107.606C130.36 108.043 130.329 108.494 130.191 108.917C130.053 109.339 129.812 109.721 129.491 110.029C129.17 110.336 128.777 110.559 128.349 110.678C127.92 110.797 127.469 110.809 127.035 110.711C126.691 110.631 126.364 110.494 126.066 110.306C125.992 110.259 125.922 110.206 125.857 110.149C125.54 109.873 125.291 109.528 125.13 109.14C124.219 106.591 126.808 104.467 129.112 105.818Z" fill="#677282"/>
<path d="M113.2 114.11L113.496 114.921L113.503 114.94C113.521 114.987 113.556 115.026 113.6 115.05C113.645 115.073 113.696 115.08 113.745 115.069L114.445 114.897C114.456 114.896 114.468 114.896 114.479 114.897C114.518 114.894 114.558 114.902 114.592 114.921C114.627 114.939 114.655 114.968 114.674 115.002C114.893 115.428 115.195 115.806 115.563 116.113C115.578 116.126 115.591 116.14 115.601 116.156C115.622 116.187 115.634 116.222 115.636 116.259C115.639 116.296 115.632 116.333 115.616 116.366L115.349 116.905C115.332 116.94 115.326 116.978 115.329 117.016C115.333 117.054 115.348 117.09 115.371 117.121C115.386 117.14 115.404 117.156 115.424 117.17L116.169 117.641C116.213 117.67 116.266 117.68 116.318 117.671C116.37 117.662 116.416 117.634 116.448 117.592L116.932 116.954C116.956 116.923 116.989 116.9 117.026 116.886C117.063 116.873 117.103 116.87 117.142 116.879C117.254 116.901 117.366 116.92 117.48 116.931C117.691 116.955 117.903 116.959 118.115 116.945C118.156 116.942 118.198 116.952 118.234 116.973C118.271 116.994 118.3 117.025 118.318 117.063L118.661 117.796L118.679 117.833C118.7 117.879 118.738 117.916 118.785 117.935C118.832 117.955 118.884 117.956 118.932 117.938L119.761 117.636C119.81 117.619 119.851 117.584 119.876 117.538C119.901 117.492 119.908 117.439 119.895 117.388L119.705 116.609C119.694 116.567 119.696 116.523 119.712 116.482C119.728 116.442 119.757 116.408 119.794 116.386C120.109 116.186 120.392 115.939 120.631 115.652C120.661 115.618 120.702 115.593 120.747 115.584C120.792 115.575 120.839 115.58 120.881 115.6L121.522 115.914C121.568 115.937 121.622 115.942 121.671 115.928C121.721 115.914 121.764 115.882 121.792 115.838L122.267 115.09C122.294 115.047 122.304 114.996 122.295 114.947C122.286 114.897 122.258 114.853 122.218 114.823L121.47 114.252C121.439 114.228 121.414 114.196 121.4 114.159C121.386 114.122 121.383 114.082 121.391 114.043C121.41 113.946 121.424 113.848 121.435 113.748C121.455 113.564 121.461 113.378 121.453 113.193C121.451 113.153 121.462 113.113 121.483 113.079C121.504 113.045 121.534 113.017 121.57 112.999L122.456 112.589C122.502 112.566 122.538 112.527 122.558 112.48C122.577 112.432 122.578 112.379 122.561 112.33L122.258 111.499C122.242 111.457 122.213 111.421 122.175 111.397C122.138 111.372 122.093 111.361 122.048 111.364C122.039 111.365 122.029 111.367 122.019 111.37L121.154 111.579C121.116 111.588 121.076 111.585 121.039 111.572C121.002 111.559 120.969 111.536 120.945 111.505C120.94 111.5 120.936 111.494 120.933 111.487L120.897 111.432C120.759 111.215 120.598 111.014 120.418 110.831C120.388 110.801 120.369 110.763 120.362 110.721C120.356 110.679 120.363 110.637 120.382 110.599L120.713 109.923C120.736 109.877 120.74 109.824 120.726 109.774C120.712 109.724 120.679 109.682 120.636 109.654L120.471 109.55L119.893 109.184C119.849 109.157 119.796 109.147 119.745 109.156C119.694 109.165 119.648 109.193 119.617 109.234L119.14 109.863C119.115 109.895 119.081 109.92 119.042 109.932C119.003 109.945 118.961 109.946 118.922 109.934C118.706 109.868 118.485 109.823 118.26 109.799C118.092 109.781 117.923 109.775 117.754 109.78L117.683 109.626L117.389 108.991C117.371 108.953 117.343 108.922 117.306 108.901C117.27 108.88 117.228 108.871 117.187 108.875C117.169 108.876 117.151 108.88 117.134 108.887L116.296 109.188C116.249 109.207 116.211 109.241 116.187 109.286C116.164 109.33 116.157 109.382 116.169 109.431L116.3 109.964C116.309 110.009 116.304 110.055 116.286 110.096C116.267 110.138 116.235 110.172 116.195 110.194C115.856 110.373 115.548 110.604 115.283 110.88C115.253 110.911 115.214 110.933 115.172 110.941C115.129 110.948 115.086 110.942 115.047 110.923L114.239 110.525C114.195 110.504 114.145 110.5 114.098 110.513C114.051 110.526 114.011 110.556 113.984 110.597L113.505 111.353C113.478 111.396 113.468 111.447 113.477 111.497C113.485 111.547 113.513 111.592 113.553 111.622L114.333 112.216C114.365 112.241 114.389 112.276 114.402 112.315C114.415 112.353 114.417 112.395 114.406 112.435C114.357 112.613 114.322 112.794 114.301 112.977C114.291 113.082 114.283 113.178 114.281 113.278C114.28 113.316 114.268 113.353 114.247 113.385C114.226 113.417 114.197 113.443 114.163 113.459L113.314 113.853C113.266 113.874 113.229 113.912 113.208 113.96C113.187 114.007 113.184 114.06 113.2 114.11ZM118.928 111.728L119.009 111.777C119.295 111.98 119.518 112.258 119.655 112.581C119.707 112.721 119.745 112.866 119.769 113.013C119.826 113.328 119.804 113.652 119.705 113.957C119.605 114.261 119.433 114.536 119.201 114.757C118.97 114.979 118.688 115.139 118.379 115.225C118.071 115.311 117.746 115.319 117.434 115.248C117.187 115.191 116.952 115.092 116.738 114.956C116.684 114.923 116.633 114.885 116.585 114.843C116.357 114.645 116.178 114.397 116.062 114.118C115.407 112.284 117.277 110.757 118.928 111.728Z" fill="#677282"/>
<path d="M75.8533 109.13L76.265 110.256L76.2744 110.285C76.2988 110.351 76.3466 110.405 76.4086 110.438C76.4706 110.471 76.5424 110.48 76.6106 110.463L77.5836 110.225C77.5992 110.22 77.6154 110.217 77.6317 110.217C77.6865 110.213 77.7412 110.225 77.789 110.252C77.8368 110.279 77.8757 110.32 77.9009 110.369C78.2061 110.96 78.6263 111.485 79.1368 111.912C79.1573 111.93 79.1753 111.95 79.1902 111.972C79.2173 112.014 79.2333 112.062 79.2366 112.112C79.2399 112.162 79.2304 112.212 79.209 112.257L78.8404 113.008C78.8172 113.056 78.8076 113.109 78.8128 113.162C78.818 113.215 78.8377 113.265 78.8697 113.307C78.8907 113.334 78.9158 113.357 78.9441 113.375L79.9778 114.032C80.0398 114.071 80.1143 114.086 80.1865 114.073C80.2587 114.059 80.3233 114.02 80.3674 113.961L81.0409 113.076C81.0736 113.033 81.1178 113.001 81.1682 112.982C81.2186 112.964 81.2732 112.96 81.3257 112.971C81.4807 113.003 81.6399 113.029 81.797 113.046C82.0903 113.077 82.3857 113.083 82.68 113.063C82.7384 113.059 82.7967 113.072 82.8473 113.102C82.8978 113.131 82.9381 113.176 82.9627 113.229L83.4393 114.254L83.4644 114.306C83.4941 114.37 83.5468 114.421 83.6121 114.448C83.6775 114.475 83.7507 114.477 83.8174 114.453L84.9695 114.034C85.0373 114.009 85.0936 113.96 85.1276 113.896C85.1616 113.832 85.1709 113.758 85.1538 113.688L84.8888 112.605C84.873 112.546 84.8766 112.483 84.899 112.427C84.9215 112.37 84.9616 112.322 85.0134 112.29C85.4503 112.011 85.8411 111.665 86.1718 111.265C86.2133 111.216 86.2699 111.182 86.3327 111.169C86.3955 111.156 86.4609 111.165 86.5185 111.193L87.4087 111.629C87.4732 111.661 87.5475 111.668 87.617 111.649C87.6865 111.629 87.7463 111.585 87.7847 111.524L88.4446 110.485C88.482 110.426 88.4959 110.355 88.4837 110.287C88.4715 110.218 88.434 110.156 88.3786 110.114L87.3375 109.32C87.2945 109.287 87.2615 109.243 87.2421 109.192C87.2227 109.142 87.2177 109.086 87.2275 109.033C87.2527 108.898 87.2747 108.763 87.2883 108.623C87.3175 108.367 87.3259 108.109 87.3134 107.852C87.3101 107.796 87.3238 107.74 87.3528 107.692C87.3818 107.644 87.4247 107.606 87.4758 107.583L88.7085 107.012C88.7736 106.982 88.825 106.928 88.8525 106.862C88.8801 106.795 88.8817 106.721 88.8572 106.654L88.4383 105.502C88.4166 105.442 88.3759 105.391 88.3225 105.358C88.2691 105.324 88.2059 105.308 88.1429 105.314C88.1292 105.316 88.1155 105.318 88.1021 105.321L86.8997 105.616C86.8455 105.63 86.7884 105.627 86.7356 105.608C86.6829 105.59 86.6368 105.556 86.6033 105.511C86.5962 105.503 86.5902 105.495 86.5855 105.486C86.5698 105.461 86.5552 105.436 86.5363 105.41C86.3456 105.108 86.1226 104.827 85.8712 104.573C85.8297 104.531 85.8024 104.477 85.7932 104.419C85.784 104.361 85.7933 104.301 85.8199 104.249L86.2818 103.306C86.3134 103.242 86.3202 103.168 86.3008 103.099C86.2815 103.03 86.2375 102.971 86.1771 102.932L85.9487 102.786L85.1444 102.278C85.0836 102.239 85.0104 102.224 84.9394 102.237C84.8684 102.249 84.8047 102.288 84.761 102.346L84.0981 103.218C84.0634 103.264 84.0156 103.298 83.9611 103.315C83.9065 103.333 83.848 103.333 83.7933 103.316C83.4932 103.225 83.1854 103.163 82.8737 103.129C82.6404 103.103 82.4055 103.095 82.171 103.103L82.0662 102.887L81.6567 102.005C81.6325 101.953 81.5925 101.909 81.5422 101.88C81.4919 101.851 81.4338 101.838 81.376 101.844C81.3515 101.846 81.3274 101.851 81.3048 101.861L80.1433 102.28C80.0775 102.305 80.0229 102.353 79.9898 102.415C79.9567 102.477 79.9472 102.549 79.9631 102.617L80.1464 103.357C80.1602 103.417 80.1539 103.481 80.1284 103.537C80.1029 103.594 80.0596 103.641 80.005 103.671C79.5342 103.919 79.1063 104.242 78.7377 104.626C78.6967 104.67 78.6426 104.699 78.5836 104.71C78.5245 104.72 78.4636 104.711 78.4099 104.685L77.2851 104.133C77.2235 104.103 77.1534 104.098 77.088 104.117C77.0227 104.137 76.9668 104.179 76.9311 104.237L76.266 105.285C76.2276 105.344 76.2131 105.415 76.2255 105.485C76.238 105.554 76.2764 105.616 76.333 105.659L77.4149 106.484C77.4609 106.518 77.4955 106.565 77.5142 106.62C77.5329 106.674 77.5348 106.732 77.5197 106.788C77.4527 107.035 77.4058 107.288 77.3793 107.543C77.3636 107.682 77.3552 107.821 77.3511 107.962C77.3495 108.015 77.3334 108.066 77.3043 108.111C77.2753 108.155 77.2346 108.19 77.1866 108.213L76.0062 108.761C75.9386 108.791 75.8851 108.846 75.8567 108.915C75.8283 108.983 75.8271 109.06 75.8533 109.13ZM83.8132 105.818C83.8519 105.84 83.8886 105.863 83.9263 105.887C84.3238 106.168 84.6347 106.555 84.8239 107.003C84.8962 107.199 84.9502 107.4 84.9852 107.606C85.0634 108.043 85.0321 108.494 84.8941 108.917C84.7562 109.339 84.5158 109.721 84.1944 110.029C83.873 110.336 83.4806 110.559 83.0521 110.678C82.6236 110.797 82.1723 110.809 81.7384 110.711C81.3947 110.631 81.0668 110.494 80.7686 110.306C80.6951 110.258 80.6251 110.206 80.5591 110.149C80.2427 109.873 79.994 109.527 79.8322 109.14C78.921 106.591 81.5132 104.467 83.8153 105.818H83.8132Z" fill="#677282"/>
<path d="M67.9029 114.11L68.1972 114.921L68.2045 114.94C68.2226 114.987 68.2571 115.026 68.3015 115.05C68.3459 115.073 68.3974 115.08 68.4465 115.069L69.1471 114.897C69.1586 114.896 69.1702 114.896 69.1817 114.897C69.2205 114.894 69.2595 114.902 69.2938 114.921C69.328 114.939 69.3561 114.968 69.3744 115.002C69.5944 115.428 69.8966 115.805 70.2636 116.113C70.279 116.126 70.2924 116.14 70.3034 116.156C70.3237 116.187 70.3356 116.222 70.3378 116.259C70.34 116.296 70.3325 116.333 70.316 116.366L70.0499 116.905C70.0336 116.94 70.027 116.978 70.0309 117.016C70.0347 117.054 70.0489 117.09 70.0719 117.121C70.0872 117.14 70.1052 117.156 70.1254 117.17L70.869 117.641C70.9133 117.67 70.9669 117.681 71.019 117.672C71.071 117.663 71.1177 117.634 71.1497 117.592L71.6346 116.954C71.6576 116.924 71.6891 116.9 71.7251 116.887C71.7611 116.873 71.8002 116.871 71.8378 116.879C71.9498 116.901 72.0619 116.92 72.1761 116.931C72.3875 116.955 72.6006 116.959 72.8128 116.945C72.8557 116.941 72.8988 116.95 72.9363 116.971C72.9738 116.992 73.0038 117.024 73.0223 117.063L73.3638 117.796L73.3826 117.833C73.4036 117.879 73.4415 117.916 73.4886 117.936C73.5357 117.955 73.5884 117.956 73.6361 117.938L74.4656 117.636C74.5144 117.618 74.555 117.583 74.5794 117.537C74.6038 117.492 74.6102 117.438 74.5975 117.388L74.4069 116.609C74.3971 116.567 74.4004 116.523 74.4163 116.483C74.4322 116.443 74.46 116.409 74.4959 116.386C74.8114 116.186 75.094 115.939 75.3338 115.652C75.3638 115.618 75.4045 115.593 75.4496 115.584C75.4946 115.575 75.5416 115.58 75.5831 115.6L76.223 115.914C76.2695 115.937 76.3229 115.942 76.3728 115.928C76.4228 115.914 76.4657 115.882 76.4932 115.838L76.9677 115.09C76.9946 115.048 77.0046 114.997 76.9959 114.947C76.9872 114.898 76.9603 114.854 76.9206 114.823L76.1717 114.252C76.14 114.228 76.1156 114.196 76.1015 114.159C76.0874 114.122 76.0842 114.082 76.0921 114.043C76.111 113.946 76.1267 113.848 76.1371 113.748C76.1571 113.564 76.1631 113.378 76.1549 113.193C76.1528 113.153 76.1628 113.113 76.1837 113.078C76.2046 113.044 76.2355 113.016 76.2722 113L77.1572 112.589C77.2034 112.566 77.2397 112.527 77.259 112.48C77.2783 112.432 77.2794 112.379 77.262 112.33L76.9593 111.499C76.9435 111.457 76.9146 111.421 76.8769 111.397C76.8391 111.372 76.7946 111.361 76.7498 111.364L76.7195 111.37L75.8554 111.579C75.817 111.588 75.777 111.585 75.74 111.572C75.7029 111.559 75.6704 111.536 75.6459 111.505L75.6334 111.487C75.6226 111.468 75.6107 111.449 75.5978 111.432C75.4598 111.216 75.2997 111.014 75.1202 110.832C75.0901 110.802 75.0702 110.763 75.0635 110.721C75.0567 110.68 75.0633 110.637 75.0825 110.599L75.4145 109.923C75.4372 109.877 75.4419 109.824 75.4278 109.774C75.4137 109.725 75.3817 109.682 75.338 109.654L75.1725 109.55L74.5944 109.184C74.5504 109.157 74.4979 109.147 74.447 109.156C74.3962 109.166 74.3506 109.193 74.3189 109.234L73.8414 109.863C73.8167 109.895 73.7826 109.92 73.7436 109.933C73.7047 109.945 73.6627 109.946 73.6235 109.934C73.4076 109.868 73.186 109.823 72.9616 109.799C72.7936 109.781 72.6246 109.775 72.4557 109.78L72.3845 109.626L72.0891 108.991C72.072 108.953 72.0434 108.922 72.0073 108.901C71.9712 108.88 71.9295 108.871 71.888 108.875C71.8705 108.876 71.8531 108.88 71.8367 108.887L70.9988 109.188C70.9515 109.206 70.9122 109.241 70.8883 109.285C70.8645 109.33 70.8576 109.382 70.869 109.431L71.0009 109.964C71.0108 110.009 71.0058 110.055 70.987 110.097C70.9681 110.138 70.9362 110.172 70.8962 110.194C70.5584 110.373 70.2511 110.604 69.9861 110.88C69.9568 110.911 69.9179 110.933 69.8754 110.941C69.8329 110.948 69.789 110.942 69.7504 110.923L68.9408 110.525C68.8968 110.504 68.8468 110.5 68.8 110.513C68.7532 110.526 68.7128 110.556 68.6863 110.597L68.2077 111.353C68.1803 111.396 68.17 111.447 68.179 111.497C68.1879 111.547 68.2153 111.592 68.2558 111.622L69.034 112.216C69.0671 112.241 69.0919 112.275 69.105 112.314C69.1181 112.353 69.1189 112.395 69.1073 112.435C69.0581 112.613 69.023 112.794 69.0026 112.978C68.9921 113.082 68.9858 113.178 68.9816 113.278C68.9804 113.316 68.9688 113.353 68.9481 113.385C68.9275 113.417 68.8985 113.443 68.8643 113.459L68.0139 113.853C67.967 113.875 67.9298 113.913 67.9093 113.96C67.8888 114.008 67.8865 114.061 67.9029 114.11ZM73.6298 111.728L73.7104 111.777C73.996 111.98 74.2197 112.258 74.3566 112.581C74.4079 112.721 74.4464 112.866 74.4719 113.013C74.5282 113.328 74.5057 113.652 74.4065 113.956C74.3073 114.261 74.1344 114.536 73.9032 114.757C73.672 114.978 73.3897 115.139 73.0814 115.224C72.7732 115.31 72.4485 115.318 72.1363 115.248C71.8888 115.191 71.6529 115.092 71.4387 114.956C71.3852 114.922 71.3345 114.884 71.2869 114.843C71.0584 114.645 70.8792 114.397 70.7632 114.118C70.1086 112.284 71.9729 110.757 73.6298 111.728Z" fill="#677282"/>
<path d="M101.175 107.992L101.28 109.188V109.217C101.286 109.287 101.318 109.352 101.37 109.4C101.421 109.448 101.489 109.475 101.559 109.476L102.562 109.494C102.578 109.494 102.594 109.497 102.61 109.5C102.664 109.511 102.714 109.536 102.753 109.575C102.792 109.613 102.819 109.662 102.831 109.716C102.975 110.366 103.247 110.98 103.63 111.524C103.645 111.546 103.658 111.57 103.668 111.595C103.683 111.643 103.686 111.694 103.677 111.743C103.667 111.792 103.645 111.838 103.612 111.876L103.063 112.504C103.029 112.545 103.006 112.594 102.997 112.647C102.989 112.699 102.995 112.753 103.015 112.803C103.029 112.834 103.047 112.862 103.07 112.887L103.901 113.787C103.951 113.841 104.019 113.874 104.092 113.88C104.165 113.886 104.237 113.864 104.295 113.819L105.174 113.135C105.216 113.102 105.267 113.082 105.32 113.076C105.374 113.071 105.427 113.081 105.475 113.105C105.617 113.175 105.761 113.24 105.911 113.298C106.187 113.404 106.472 113.485 106.761 113.541C106.819 113.551 106.873 113.579 106.914 113.621C106.956 113.663 106.983 113.717 106.993 113.775L107.191 114.886L107.201 114.942C107.214 115.012 107.252 115.074 107.308 115.117C107.364 115.16 107.435 115.181 107.505 115.175L108.726 115.064C108.798 115.057 108.865 115.024 108.914 114.972C108.963 114.919 108.992 114.85 108.993 114.778L109.015 113.663C109.016 113.602 109.035 113.544 109.071 113.496C109.107 113.447 109.158 113.412 109.215 113.394C109.709 113.235 110.176 113.001 110.598 112.699C110.651 112.663 110.714 112.645 110.778 112.649C110.842 112.652 110.903 112.677 110.952 112.719L111.7 113.369C111.754 113.416 111.824 113.442 111.896 113.44C111.968 113.439 112.037 113.411 112.089 113.362L112.994 112.524C113.045 112.477 113.077 112.412 113.082 112.343C113.088 112.273 113.068 112.204 113.026 112.149L112.222 111.115C112.189 111.072 112.169 111.021 112.163 110.967C112.157 110.913 112.166 110.859 112.19 110.81C112.25 110.686 112.304 110.559 112.354 110.429C112.447 110.189 112.522 109.941 112.576 109.689C112.587 109.634 112.615 109.584 112.655 109.545C112.695 109.506 112.746 109.48 112.802 109.471L114.139 109.234C114.21 109.222 114.273 109.183 114.317 109.126C114.36 109.069 114.381 108.998 114.375 108.926L114.27 107.7C114.264 107.637 114.237 107.578 114.194 107.532C114.151 107.486 114.094 107.455 114.032 107.444C114.019 107.442 114.005 107.442 113.991 107.444L112.753 107.42C112.697 107.42 112.642 107.403 112.596 107.372C112.549 107.341 112.513 107.296 112.492 107.244C112.487 107.235 112.484 107.226 112.482 107.216C112.473 107.187 112.465 107.16 112.454 107.131C112.346 106.791 112.202 106.463 112.024 106.153C111.995 106.102 111.982 106.044 111.988 105.985C111.994 105.927 112.019 105.872 112.058 105.828L112.745 105.037C112.792 104.982 112.817 104.912 112.816 104.84C112.814 104.768 112.787 104.7 112.738 104.647L112.552 104.447L111.906 103.75C111.857 103.697 111.791 103.664 111.719 103.658C111.647 103.652 111.575 103.673 111.519 103.718L110.653 104.391C110.609 104.425 110.555 104.445 110.499 104.448C110.443 104.451 110.387 104.437 110.339 104.408C110.073 104.243 109.793 104.103 109.501 103.989C109.282 103.904 109.057 103.834 108.828 103.78L108.788 103.546L108.617 102.589C108.608 102.532 108.581 102.479 108.54 102.438C108.499 102.397 108.446 102.37 108.389 102.36C108.364 102.356 108.339 102.356 108.315 102.36L107.084 102.464C107.014 102.471 106.949 102.503 106.901 102.555C106.852 102.607 106.825 102.674 106.823 102.745L106.811 103.506C106.809 103.569 106.787 103.63 106.748 103.68C106.708 103.729 106.654 103.764 106.593 103.78C106.076 103.9 105.581 104.101 105.127 104.377C105.076 104.409 105.016 104.423 104.956 104.419C104.896 104.414 104.84 104.39 104.795 104.351L103.852 103.528C103.801 103.484 103.735 103.46 103.667 103.462C103.599 103.463 103.534 103.489 103.484 103.535L102.572 104.38C102.52 104.427 102.488 104.493 102.482 104.563C102.476 104.633 102.496 104.703 102.54 104.759L103.378 105.834C103.413 105.879 103.434 105.933 103.437 105.991C103.441 106.048 103.428 106.105 103.398 106.154C103.271 106.376 103.161 106.608 103.07 106.847C103.019 106.978 102.974 107.11 102.936 107.244C102.92 107.295 102.892 107.341 102.852 107.376C102.813 107.412 102.765 107.436 102.712 107.445L101.429 107.672C101.353 107.681 101.284 107.72 101.237 107.78C101.189 107.84 101.167 107.916 101.175 107.992ZM109.719 106.831C109.751 106.863 109.78 106.893 109.81 106.927C110.123 107.301 110.324 107.754 110.393 108.236C110.413 108.445 110.413 108.656 110.393 108.865C110.356 109.308 110.21 109.735 109.968 110.108C109.727 110.482 109.396 110.789 109.007 111.004C108.617 111.219 108.181 111.334 107.736 111.34C107.291 111.345 106.852 111.24 106.458 111.035C106.144 110.871 105.861 110.654 105.62 110.395C105.56 110.329 105.505 110.259 105.455 110.185C105.221 109.838 105.068 109.441 105.01 109.026C104.789 106.325 107.839 104.936 109.719 106.831Z" fill="#677282"/>
<path d="M5.04735 117.635C3.5177 116.105 2.47611 114.155 2.05424 112.033C1.63237 109.911 1.84915 107.711 2.67719 105.712C3.50523 103.713 4.90735 102.004 6.70631 100.802C8.50528 99.5993 10.6203 98.9573 12.7841 98.9567H166.278C167.724 98.9426 169.158 99.2151 170.498 99.7586C171.838 100.302 173.057 101.106 174.084 102.123C175.112 103.141 175.927 104.351 176.484 105.686C177.04 107.02 177.327 108.452 177.327 109.898C177.327 111.344 177.04 112.775 176.484 114.11C175.927 115.444 175.112 116.655 174.084 117.673C173.057 118.69 171.838 119.494 170.498 120.037C169.158 120.581 167.724 120.853 166.278 120.839H12.7841C11.3467 120.843 9.92281 120.562 8.59478 120.012C7.26676 119.462 6.06101 118.654 5.04735 117.635ZM12.7841 99.8962C10.1314 99.8962 7.58728 100.95 5.7115 102.826C3.83573 104.702 2.78193 107.246 2.78193 109.898C2.78193 112.551 3.83573 115.095 5.7115 116.971C7.58728 118.847 10.1314 119.901 12.7841 119.901H166.278C168.931 119.901 171.475 118.847 173.351 116.971C175.227 115.095 176.281 112.551 176.281 109.898C176.281 107.246 175.227 104.702 173.351 102.826C171.475 100.95 168.931 99.8962 166.278 99.8962H12.7841Z" fill="#151F2C"/>
<path d="M152.103 69.9765H136.925V82.4913H152.103V69.9765Z" fill="#296289"/>
<path d="M144.514 69.9765H129.336V82.4913H144.514V69.9765Z" fill="#669AD3"/>
<path d="M152.095 79.3178H149.689L149.902 78.6412L149.689 78.1573H152.095V79.3178Z" fill="#DE6B4D"/>
<path d="M144.514 73.8496H142.109L142.321 73.173L142.109 72.6891H144.514V73.8496Z" fill="#EE805F"/>
<path d="M144.514 72.6891H146.92L146.707 73.3657L146.92 73.8496H144.514V72.6891Z" fill="#DE6B4D"/>
<path d="M129.336 79.4518H131.741L131.529 80.1284L131.741 80.6123H129.336V79.4518Z" fill="#EE805F"/>
<path d="M130.331 72.5237H134.699V70.8249H130.331V72.5237Z" fill="#D4D5D9"/>
<path d="M136.497 81.9592C136.128 81.7194 135.293 81.1936 135.256 81.3193C135.228 81.4104 135.278 81.5602 135.381 81.7142C134.883 81.5497 134.378 81.4481 133.206 81.7204C133.089 81.7464 132.979 81.7956 132.881 81.8653C132.784 81.9349 132.702 82.0235 132.639 82.1258C132.526 82.3185 132.491 82.5541 132.799 82.7301C133.417 83.082 133.233 82.8641 134.092 83.3773C134.951 83.8905 135.977 83.99 136.58 83.5868L137.396 83.4171L137.447 82.0556C137.447 82.0556 136.975 82.02 136.497 81.9592Z" fill="#DE6B4D"/>
<path d="M153.188 68.4935C155.44 69.8948 157.771 67.9897 157.771 67.9897C157.771 67.9897 156.878 65.7044 157.436 62.6891C157.459 62.5665 153.51 64.1941 153.39 64.2203C153.39 64.2203 153.39 64.2297 153.39 64.2475C153.39 64.2653 153.39 64.2863 153.383 64.3051C153.321 64.8361 153.278 65.3651 153.25 65.8573C153.157 67.3299 153.188 68.4935 153.188 68.4935Z" fill="#EE805F"/>
<path d="M153.244 65.8573C155.037 65.6949 156.417 64.6884 156.874 64.1229C157.014 63.9522 153.496 64.2119 153.391 64.2203C153.391 64.2203 153.391 64.2297 153.391 64.2475C153.391 64.2653 153.391 64.281 153.383 64.3051C153.315 64.8361 153.272 65.365 153.244 65.8573Z" fill="#DE6B4D"/>
<path d="M152.654 63.97C152.654 63.97 156.53 65.6814 157.555 63.2536C158.58 60.8258 159.778 59.4119 157.346 58.2159C154.914 57.0198 154.04 57.7414 153.5 58.4683C152.959 59.1951 151.673 63.462 152.654 63.97Z" fill="#EE805F"/>
<path d="M157.286 63.9176C157.334 63.9637 158.155 64.3941 160.423 61.4155C160.779 60.9484 161.164 59.8644 160.745 58.7646C160.326 57.6649 158.33 56.4867 156.614 55.8153C155.924 55.5511 155.167 55.5144 154.454 55.7106C154.282 55.757 154.121 55.8372 153.98 55.9465C153.839 56.0558 153.721 56.1919 153.634 56.3471C153.546 56.5022 153.49 56.6732 153.469 56.8502C153.448 57.0272 153.462 57.2066 153.511 57.378C153.835 58.5133 154.64 59.2108 155.659 59.1804C156.342 59.1605 156.298 60.5535 156.288 60.8866C156.277 61.2196 156.299 61.5014 157.158 61.3631C157.891 61.2458 157.48 62.2178 157.231 62.6555C157.106 62.8699 157.046 63.1157 157.056 63.3636C157.058 63.5711 157.14 63.7699 157.286 63.9176Z" fill="#283564"/>
<path d="M163.213 128.585H165.709C166.233 128.585 166.813 128.061 166.959 127.102C167.104 126.143 168.18 125.619 168.412 124.835C168.645 124.05 167.453 122.949 167.453 122.949L167.253 122.693L167.044 122.426L165.067 122.891C165.067 122.891 165.018 123.362 164.988 123.961C164.962 124.418 164.96 124.876 164.98 125.333C165.038 126.38 164.687 127.507 163.757 127.711C162.827 127.914 163.213 128.585 163.213 128.585Z" fill="#151F2C"/>
<path d="M145.84 128.585H152.455C152.504 128.577 152.551 128.564 152.596 128.544C153.038 128.323 152.899 126.632 152.846 126.109C152.836 126.013 152.828 125.956 152.828 125.956C152.828 125.956 150.502 124.095 150.183 125.521C150.172 125.565 150.161 125.609 150.148 125.652C149.745 126.985 147.939 127.59 146.901 127.759C146.1 127.891 145.894 128.355 145.84 128.585Z" fill="#151F2C"/>
<path d="M147.173 90.4386C147.173 90.4386 147.526 94.8469 147.942 100.144C148.506 107.342 149.184 116.182 149.252 117.857C149.368 120.766 149.834 125.417 149.834 125.417C149.834 125.417 150.938 126.522 153.148 126.057C153.148 126.057 155.117 119.416 155.681 112.39C155.689 112.275 155.698 112.159 155.707 112.042C156.231 104.89 157.044 89.829 157.044 89.829L147.173 90.4386Z" fill="#669AD3"/>
<path d="M148.155 89.8332C149.087 89.8887 158.927 89.519 158.929 88.967C158.937 87.0556 159.337 83.9628 159.836 80.2049C159.927 79.5053 159.999 78.8098 160.053 78.1228C160.191 76.4371 160.195 74.743 160.063 73.0567C159.815 70.1661 159.064 68.3102 157.811 67.2241C157.811 67.2241 156.632 67.3204 155.547 67.4838C154.317 67.6692 153.864 67.5885 153.019 67.356L151.517 68.6485C150.618 69.4863 149.898 70.3598 149.609 71.5695C149.609 71.5653 148.069 89.8227 148.155 89.8332Z" fill="#283564"/>
<path d="M158.431 76.6104C158.431 76.6104 157.396 79.8907 153.94 81.4795C150.484 83.0684 152.549 78.46 152.549 78.46L158.431 76.6104Z" fill="#151F2C"/>
<path d="M149.608 71.5654L152.296 72.1938L155.994 82.2096C156.525 83.6486 157.75 84.5357 159.283 84.5357V84.7756L159.101 89.5484L147.183 90.6313C147.183 90.6313 147.127 84.6614 147.34 82.7437C147.661 79.9075 149.608 71.5654 149.608 71.5654Z" fill="#669AD3"/>
<path d="M136.721 82.7185C136.636 81.9351 137.035 81.7895 137.035 81.7895C137.035 81.7895 144.956 80.0352 145.623 79.7996C146.29 79.5639 151.858 73.306 151.858 73.306C151.858 73.306 153.984 70.7128 155.826 71.1966C157.426 71.6156 158.091 72.8263 158.348 73.9931C158.652 75.3839 159.611 75.8259 158.426 76.6114C155.769 78.3856 148.895 82.8788 147.628 83.305C144.8 84.2477 137.099 83.7795 137.099 83.7795C136.893 83.4596 136.764 83.0966 136.721 82.7185Z" fill="#283564"/>
<path d="M155.086 69.2895C155.715 68.7082 157.817 67.2199 157.817 67.2199C157.757 67.1241 157.687 67.0353 157.607 66.9549C157.526 66.8761 157.436 66.8059 157.34 66.7455C157.073 66.6889 154.999 68.2484 154.309 68.8632C153.477 69.6047 151.167 71.9288 151.167 71.9288L152.299 72.1917C152.299 72.1917 154.345 69.9734 155.086 69.2895Z" fill="#669AD3"/>
<path d="M152.489 58.2378C152.489 58.2378 154.033 59.1061 154.602 59.2516L157.295 59.9293L160.907 61.2573C160.907 61.2573 162.134 58.619 160.621 56.5505C160.584 56.4992 160.544 56.4458 160.503 56.3966C160.084 55.8823 159.489 55.41 158.648 55.035C154.387 53.1079 152.537 58.0797 152.489 58.2378Z" fill="#669AD3"/>
<path d="M154.562 59.1647L155.251 59.3857C155.933 58.7573 158.426 56.5935 160.644 56.605C160.635 56.584 160.626 56.5662 160.617 56.5505C160.589 56.4992 160.563 56.4709 160.521 56.3945H160.499C157.632 56.56 155.149 58.6002 154.562 59.1647Z" fill="#296289"/>
<path d="M157.295 59.9293C157.295 59.9293 157.677 60.5577 157.709 61.1033C157.74 61.649 160.107 62.3968 160.327 62.1507C160.547 61.9046 160.911 61.2531 160.911 61.2531L157.295 59.9293Z" fill="#669AD3"/>
<path d="M157.295 59.9293C157.295 59.9293 152.815 59.2108 150.969 57.7696C150.938 57.7456 150.915 57.7128 150.903 57.6753C150.891 57.6379 150.89 57.5978 150.902 57.5602C150.913 57.5226 150.936 57.4893 150.966 57.4648C150.997 57.4403 151.034 57.4257 151.074 57.4229C151.651 57.4042 152.228 57.4425 152.798 57.5371C152.798 57.5371 154.157 59.1458 157.295 59.9293Z" fill="#296289"/>
<path d="M148.488 90.1474C148.488 90.1474 148.259 92.8978 149.536 98.058C150.469 101.843 155.683 112.392 155.683 112.392C155.692 112.277 155.7 112.161 155.71 112.044C156.233 104.892 157.046 89.8311 157.046 89.8311L148.488 90.1474Z" fill="#296289"/>
<path d="M148.488 90.1474C148.488 90.1474 155.152 106.927 159.339 114.429C163.527 121.931 164.834 124.024 164.834 124.024C164.834 124.024 167.233 123.065 167.452 122.41C167.452 122.41 165.851 107.928 163.047 104.396C161.462 102.406 159.601 96.4147 159.514 94.3211C159.427 92.2274 159.194 87.2117 159.194 87.2117L148.488 90.1474Z" fill="#669AD3"/>
<path d="M125.418 82.0609H104.934V98.9515H125.418V82.0609Z" fill="#296289"/>
<path d="M115.175 82.0609H94.6909V98.9515H115.175V82.0609Z" fill="#669AD3"/>
<path d="M125.406 94.6678H122.16L122.447 93.7545L122.16 93.102H125.406V94.6678Z" fill="#283564"/>
<path d="M115.176 87.2881H111.93L112.216 86.3748L111.93 85.7224H115.176V87.2881Z" fill="#618DC1"/>
<path d="M115.176 85.7224H118.422L118.136 86.6356L118.422 87.2881H115.176V85.7224Z" fill="#283564"/>
<path d="M94.6909 94.85H97.9367L97.6507 95.7633L97.9367 96.4158H94.6909V94.85Z" fill="#618DC1"/>
<path d="M96.0323 85.4993H101.927V83.2056H96.0323V85.4993Z" fill="#D4D5D9"/>
<path d="M58.6118 71.226C58.6118 71.226 59.5827 76.7486 60.6447 82.5195C61.7968 88.7911 63.0599 95.3548 63.2977 95.4365C63.7553 95.5946 63.7166 94.5986 64.0308 93.834C64.2832 93.2224 65.0499 87.9783 64.7975 84.7074C64.7367 83.9094 64.5314 74.0685 63.1667 72.9059C61.802 71.7433 58.6118 71.226 58.6118 71.226Z" fill="#EE805F"/>
<path d="M64.3316 92.3688C64.1973 92.9634 64.2336 93.5838 64.4363 94.1587C64.7788 95.0437 64.8553 95.2961 64.2174 95.7926C63.5796 96.289 62.8946 96.9876 62.4191 96.7813C61.9436 96.5749 62.2369 92.5227 62.2369 92.5227L64.3316 92.3688Z" fill="#EE805F"/>
<path d="M63.0106 128.585C62.422 128.225 62.7571 125.541 62.7571 125.541C62.7571 125.541 65.5033 123.342 65.8803 125.027C66.2574 126.712 68.4893 127.463 69.7555 127.67C70.6321 127.812 70.9076 128.298 70.9872 128.585H63.0106Z" fill="#151F2C"/>
<path d="M50.8177 128.585C50.2291 128.225 50.5643 125.541 50.5643 125.541C50.5643 125.541 53.3104 123.342 53.6874 125.027C54.0645 126.712 56.2964 127.463 57.5626 127.67C58.4393 127.812 58.7147 128.298 58.7943 128.585H50.8177Z" fill="#151F2C"/>
<path d="M54.6341 97.4421C55.6113 101.572 56.8419 106.287 57.3226 108.945C57.3792 109.253 57.4274 109.534 57.4588 109.783C57.4902 110.032 57.5153 110.249 57.5248 110.429C57.7803 115.409 61.7142 126.794 62.4201 127.059C63.5093 127.471 65.2249 126.597 66.1225 126.311C66.3046 126.257 66.4604 126.138 66.5601 125.977C66.6599 125.815 66.6965 125.623 66.6629 125.436C64.7138 116.476 63.5125 103.651 63.2517 96.0114C63.1197 92.1635 62.9448 89.4257 62.9448 89.4257C62.9448 89.4257 53.3448 86.8649 53.2872 90.1054C53.2652 91.3602 53.8727 94.2226 54.6341 97.4421Z" fill="#669AD3"/>
<path d="M54.6343 97.4421C55.6115 101.572 56.8421 106.287 57.3228 108.945C57.3794 109.253 57.6737 111.866 57.7082 112.114L59.384 93.0192L57.0013 93.2391L54.6343 97.4421Z" fill="#296289"/>
<path d="M58.4161 91.2156L55.029 126.603C55.029 126.603 52.5216 127.417 50.2562 126.79C50.2562 126.79 48.9397 107.442 49.0633 102.712C49.1869 97.9826 47.9971 90.0583 49.3346 89.1838C50.672 88.3093 58.4161 91.2156 58.4161 91.2156Z" fill="#669AD3"/>
<path d="M49.3984 81.7539C49.3617 82.1581 49.2078 89.7011 49.1973 89.9839C49.1858 90.2981 50.0352 90.9192 53.0515 91.3654C54.3167 91.548 55.5929 91.6442 56.8712 91.6534C60.6281 91.6943 62.064 90.1159 62.064 90.1159C62.3195 90.1159 61.778 88.2841 61.6911 76.36C61.7566 76.3677 61.8229 76.3638 61.887 76.3485C63.2182 75.8311 64.4582 74.7502 64.4582 74.7502C64.4582 74.7502 62.949 70.5608 61.5256 68.4222C61.1779 67.8985 60.2405 67.4932 58.9931 67.2261C58.6653 67.1559 58.3155 67.0952 57.9458 67.0449C56.0675 66.8037 54.1653 66.8156 52.2901 67.0805C51.9592 67.1276 51.6324 67.1852 51.3129 67.2491C49.9032 67.5351 48.6338 67.9938 47.7331 68.6494C46.4061 69.613 45.4185 74.5481 45.4185 74.5481C45.4185 74.5481 46.669 75.9662 49.4811 76.6575C49.6236 79.4979 49.5639 79.8833 49.3984 81.7539Z" fill="#283564"/>
<path d="M62.9447 89.4247L61.7926 75.1388C61.7605 74.7432 61.5762 74.3755 61.2785 74.113C60.9809 73.8505 60.593 73.7136 60.1965 73.7312L52.3843 74.037C52.0738 74.0491 51.779 74.1767 51.5578 74.3949C51.3365 74.6131 51.2047 74.906 51.1882 75.2163C51.0929 77.0932 50.7347 80.7379 49.3931 81.7539L48.6851 92.0954L57.4158 99.9997C57.4158 99.9997 58.4076 94.2069 59.7712 92.5971C60.5389 91.6964 62.9447 89.4247 62.9447 89.4247Z" fill="#669AD3"/>
<path d="M51.3076 67.2491L52.2502 74.5481L53.2305 74.3931L52.2879 67.0805C51.9538 67.1276 51.6271 67.1831 51.3076 67.2491Z" fill="#669AD3"/>
<path d="M57.9458 67.0449L59.1555 73.594L59.2602 74.1428L59.365 74.1177L60.2259 73.925L58.989 67.2219C58.6622 67.1559 58.3113 67.0952 57.9458 67.0449Z" fill="#669AD3"/>
<path d="M45.4133 82.333C45.4133 82.333 45.9998 84.1135 53.5397 86.5811C53.5397 86.5811 53.6256 84.567 53.1668 84.2979C51.7498 83.46 48.3731 80.983 48.2579 80.5462C48.1804 80.2551 48.9492 78.063 49.9221 75.8583C48.1354 75.6593 46.9833 75.4991 45.6657 74.7921C45.1756 78.2599 44.5 80.6866 45.4133 82.333Z" fill="#EE805F"/>
<path d="M54.3984 84.3942C54.3984 84.3942 55.0268 83.9135 55.5107 83.8423C55.9946 83.771 56.8073 83.4631 56.6754 83.749C56.5434 84.035 55.6521 84.4822 55.6521 84.4822L54.3984 84.3942Z" fill="#EE805F"/>
<path d="M55.6049 87.5719L58.062 87.8714C58.1935 87.8877 58.3266 87.8568 58.4376 87.7844C58.5485 87.7119 58.6303 87.6025 58.6684 87.4755L60.3441 81.9016C60.3678 81.8231 60.374 81.7404 60.3623 81.6592C60.3507 81.5781 60.3214 81.5005 60.2766 81.4319C60.2318 81.3632 60.1726 81.3052 60.103 81.2619C60.0334 81.2185 59.9552 81.1909 59.8739 81.181L57.4168 80.8814C57.2851 80.8652 57.1519 80.896 57.0408 80.9684C56.9296 81.0409 56.8476 81.1503 56.8093 81.2773L55.1336 86.8513C55.1097 86.9299 55.1034 87.0127 55.115 87.094C55.1267 87.1753 55.156 87.253 55.2009 87.3217C55.2459 87.3904 55.3053 87.4484 55.3751 87.4916C55.4449 87.5349 55.5234 87.5623 55.6049 87.5719Z" fill="#151F2C"/>
<path d="M56.4741 87.6777L58.9312 87.9783C59.0628 87.9941 59.1958 87.9631 59.3069 87.8907C59.418 87.8183 59.5 87.7092 59.5387 87.5824L61.2144 82.0073C61.2381 81.9289 61.2443 81.8461 61.2326 81.765C61.221 81.6839 61.1917 81.6063 61.1469 81.5376C61.1021 81.469 61.0429 81.411 60.9733 81.3676C60.9037 81.3243 60.8255 81.2967 60.7442 81.2868L58.2871 80.9872C58.1556 80.9712 58.0226 81.0021 57.9117 81.0746C57.8008 81.147 57.7189 81.2563 57.6807 81.3831L56.0049 86.9571C55.9813 87.0355 55.975 87.1181 55.9866 87.1992C55.9982 87.2803 56.0274 87.3578 56.0721 87.4264C56.1168 87.4951 56.1759 87.5531 56.2453 87.5965C56.3148 87.6399 56.3929 87.6676 56.4741 87.6777Z" fill="#151F2C"/>
<path d="M58.2119 82.0597C58.2489 82.0627 58.2858 82.0534 58.317 82.0333C58.3482 82.0133 58.372 81.9836 58.3847 81.9487L60.0301 77.0586C60.0362 77.0435 60.0387 77.0272 60.0374 77.011C60.0361 76.9948 60.031 76.979 60.0225 76.9651C60.0141 76.9512 60.0025 76.9394 59.9888 76.9308C59.975 76.9221 59.9593 76.9167 59.9431 76.9152C59.9062 76.9126 59.8694 76.922 59.8383 76.942C59.8072 76.962 59.7833 76.9915 59.7703 77.0262L58.1239 81.9173C58.118 81.9324 58.1157 81.9487 58.1171 81.9649C58.1186 81.981 58.1238 81.9967 58.1323 82.0105C58.1409 82.0243 58.1525 82.0359 58.1663 82.0445C58.1801 82.053 58.1957 82.0582 58.2119 82.0597Z" fill="#151F2C"/>
<path d="M53.167 84.2978C53.167 84.2978 53.6048 84.5681 53.9158 84.4864C54.1724 84.4193 54.3987 84.3942 54.6951 84.1921C55.0093 83.9826 55.7016 84.2612 55.9058 84.4015C56.4787 84.7838 58.4132 84.7681 58.4132 85.1504C58.4132 85.5327 57.5753 86.6062 56.5531 86.9246C55.5309 87.243 53.5398 86.5853 53.5398 86.5853L53.167 84.2978Z" fill="#EE805F"/>
<path d="M53.1438 66.9056C53.1019 68.0399 54.1074 68.5929 55.6156 68.3771C57.1238 68.1614 57.1531 66.9925 57.1531 66.9925L57.1154 65.8603L57.0724 64.5208L57.0337 63.3237L53.3889 63.8191C53.4015 64.0116 53.4015 64.2047 53.3889 64.3972C53.3449 65.1157 53.2423 66.273 53.1438 66.9056Z" fill="#EE805F"/>
<path d="M53.3784 64.3972C53.413 64.4454 54.2456 65.5828 57.1143 65.8635L57.0714 64.5239L53.3784 64.4004V64.3972Z" fill="#DE6B4D"/>
<path d="M57.775 65.1523C57.775 65.1523 53.284 66.0583 52.7603 63.2545C52.2366 60.4508 51.3076 58.6776 54.1522 57.979C56.9968 57.2804 57.7551 58.2482 58.1573 59.1416C58.5595 60.035 58.9292 64.8444 57.775 65.1523Z" fill="#EE805F"/>
<path d="M52.9701 63.8777C52.9701 63.8777 51.4096 64.2296 51.2619 61.3881C51.2043 60.2937 50.932 56.452 54.0583 56.5829C57.1847 56.7138 58.6091 58.5425 58.8939 58.863C61.0274 61.2719 55.8357 59.4788 55.1444 60.0381C54.4532 60.5974 55.112 61.5191 54.3223 61.849C53.5326 62.1789 52.9073 62.1779 53.0382 62.9016C53.1691 63.6253 52.9701 63.8777 52.9701 63.8777Z" fill="#151F2C"/>
<path d="M59.3105 58.9185C59.3105 58.9185 57.6348 59.5009 57.0514 59.5469L54.2822 59.7376L50.4908 60.4058C50.4908 60.4058 49.7514 57.5926 51.6052 55.8247C51.6513 55.7796 51.6995 55.7356 51.7497 55.6937C52.2504 55.2612 52.9217 54.9019 53.8161 54.6768C58.3501 53.5352 59.2917 58.7551 59.3105 58.9185Z" fill="#669AD3"/>
<path d="M57.1016 59.46L56.3852 59.5553C55.8249 58.8148 53.7532 56.2467 51.5674 55.8655C51.5785 55.8486 51.5907 55.8325 51.604 55.8173C51.6417 55.7712 51.6721 55.7482 51.7255 55.6801L51.7486 55.6864C54.5408 56.3588 56.6292 58.8054 57.1016 59.46Z" fill="#296289"/>
<path d="M54.2823 59.7344C54.2823 59.7344 53.7942 60.2864 53.6664 60.8174C53.5386 61.3484 51.0774 61.6657 50.9077 61.3903C50.738 61.1148 50.4888 60.4026 50.4888 60.4026L54.2823 59.7344Z" fill="#669AD3"/>
<path d="M54.2822 59.7344C54.2822 59.7344 58.8172 59.8192 60.8899 58.7279C60.925 58.7098 60.9537 58.6815 60.9722 58.6468C60.9908 58.612 60.9983 58.5724 60.9937 58.5332C60.9892 58.4941 60.9728 58.4572 60.9468 58.4277C60.9207 58.3981 60.8863 58.3771 60.8481 58.3676C60.2835 58.2473 59.7086 58.1827 59.1314 58.1749C59.1314 58.1749 57.5081 59.5228 54.2822 59.7344Z" fill="#296289"/>
<path d="M233.391 54.2914H240V128.587H228.793V91.9436L233.391 73.1175V54.2914Z" fill="#B8C0C7"/>
<path d="M196.752 73.1186H233.39V54.2925H196.752V73.1186Z" fill="#677282"/>
<path d="M192.155 128.586H228.793V91.9426H192.155V128.586Z" fill="#677282"/>
<path d="M192.155 91.9436H228.794L233.391 73.1175H196.753L192.155 91.9436Z" fill="#D4D5D9"/>
<path d="M228.189 76.8576H229.146L229.513 75.4929H228.554L228.189 76.8576Z" fill="#B8C0C7"/>
<path d="M226.01 76.8576H226.967L227.334 75.4929H226.376L226.01 76.8576Z" fill="#B8C0C7"/>
<path d="M223.83 76.8576H224.788L225.155 75.4929H224.197L223.83 76.8576Z" fill="#B8C0C7"/>
<path d="M221.65 76.8576H222.609L222.975 75.4929H222.017L221.65 76.8576Z" fill="#B8C0C7"/>
<path d="M219.472 76.8576H220.429L220.796 75.4929H219.838L219.472 76.8576Z" fill="#B8C0C7"/>
<path d="M217.292 76.8576H218.25L218.616 75.4929H217.659L217.292 76.8576Z" fill="#B8C0C7"/>
<path d="M227.505 79.4037H228.462L228.829 78.039H227.87L227.505 79.4037Z" fill="#B8C0C7"/>
<path d="M225.326 79.4037H226.283L226.65 78.039H225.692L225.326 79.4037Z" fill="#B8C0C7"/>
<path d="M223.146 79.4037H224.104L224.47 78.039H223.513L223.146 79.4037Z" fill="#B8C0C7"/>
<path d="M220.967 79.4037H221.925L222.292 78.039H221.333L220.967 79.4037Z" fill="#B8C0C7"/>
<path d="M218.788 79.4037H219.745L220.112 78.039H219.154L218.788 79.4037Z" fill="#B8C0C7"/>
<path d="M216.608 79.4037H217.566L217.932 78.039H216.975L216.608 79.4037Z" fill="#B8C0C7"/>
<path d="M226.796 82.0409H227.754L228.121 80.6772H227.162L226.796 82.0409Z" fill="#B8C0C7"/>
<path d="M224.617 82.0409H225.575L225.942 80.6772H224.983L224.617 82.0409Z" fill="#B8C0C7"/>
<path d="M222.438 82.0409H223.395L223.762 80.6772H222.805L222.438 82.0409Z" fill="#B8C0C7"/>
<path d="M220.259 82.0409H221.217L221.583 80.6772H220.625L220.259 82.0409Z" fill="#B8C0C7"/>
<path d="M218.079 82.0409H219.037L219.404 80.6772H218.446L218.079 82.0409Z" fill="#B8C0C7"/>
<path d="M215.899 82.0409H216.858L217.224 80.6772H216.266L215.899 82.0409Z" fill="#B8C0C7"/>
<path d="M226.112 84.5881H227.071L227.437 83.2234H226.479L226.112 84.5881Z" fill="#B8C0C7"/>
<path d="M223.933 84.5881H224.891L225.258 83.2234H224.299L223.933 84.5881Z" fill="#B8C0C7"/>
<path d="M221.754 84.5881H222.711L223.078 83.2234H222.119L221.754 84.5881Z" fill="#B8C0C7"/>
<path d="M219.575 84.5881H220.533L220.899 83.2234H219.941L219.575 84.5881Z" fill="#B8C0C7"/>
<path d="M217.395 84.5881H218.353L218.72 83.2234H217.762L217.395 84.5881Z" fill="#B8C0C7"/>
<path d="M215.216 84.5881H216.174L216.541 83.2234H215.582L215.216 84.5881Z" fill="#B8C0C7"/>
<path d="M213.022 76.8576H213.98L214.346 75.4929H213.389L213.022 76.8576Z" fill="#B8C0C7"/>
<path d="M210.843 76.8576H211.801L212.168 75.4929H211.209L210.843 76.8576Z" fill="#B8C0C7"/>
<path d="M208.664 76.8576H209.622L209.988 75.4929H209.03L208.664 76.8576Z" fill="#B8C0C7"/>
<path d="M206.484 76.8576H207.442L207.809 75.4929H206.85L206.484 76.8576Z" fill="#B8C0C7"/>
<path d="M204.305 76.8576H205.262L205.629 75.4929H204.672L204.305 76.8576Z" fill="#B8C0C7"/>
<path d="M202.126 76.8576H203.084L203.451 75.4929H202.493L202.126 76.8576Z" fill="#B8C0C7"/>
<path d="M212.338 79.4037H213.296L213.662 78.039H212.705L212.338 79.4037Z" fill="#B8C0C7"/>
<path d="M210.159 79.4037H211.117L211.483 78.039H210.526L210.159 79.4037Z" fill="#B8C0C7"/>
<path d="M207.979 79.4037H208.938L209.304 78.039H208.346L207.979 79.4037Z" fill="#B8C0C7"/>
<path d="M205.801 79.4037H206.758L207.125 78.039H206.166L205.801 79.4037Z" fill="#B8C0C7"/>
<path d="M203.622 79.4037H204.579L204.945 78.039H203.988L203.622 79.4037Z" fill="#B8C0C7"/>
<path d="M201.442 79.4037H202.4L202.766 78.039H201.808L201.442 79.4037Z" fill="#B8C0C7"/>
<path d="M211.629 82.0409H212.588L212.954 80.6772H211.996L211.629 82.0409Z" fill="#B8C0C7"/>
<path d="M209.451 82.0409H210.408L210.775 80.6772H209.816L209.451 82.0409Z" fill="#B8C0C7"/>
<path d="M207.271 82.0409H208.23L208.595 80.6772H207.638L207.271 82.0409Z" fill="#B8C0C7"/>
<path d="M205.092 82.0409H206.05L206.417 80.6772H205.458L205.092 82.0409Z" fill="#B8C0C7"/>
<path d="M202.913 82.0409H203.871L204.238 80.6772H203.279L202.913 82.0409Z" fill="#B8C0C7"/>
<path d="M200.734 82.0409H201.691L202.058 80.6772H201.1L200.734 82.0409Z" fill="#B8C0C7"/>
<path d="M210.945 84.5881H211.904L212.27 83.2234H211.312L210.945 84.5881Z" fill="#B8C0C7"/>
<path d="M208.767 84.5881H209.724L210.091 83.2234H209.133L208.767 84.5881Z" fill="#B8C0C7"/>
<path d="M206.587 84.5881H207.546L207.911 83.2234H206.954L206.587 84.5881Z" fill="#B8C0C7"/>
<path d="M204.408 84.5881H205.366L205.733 83.2234H204.774L204.408 84.5881Z" fill="#B8C0C7"/>
<path d="M202.229 84.5881H203.187L203.553 83.2234H202.595L202.229 84.5881Z" fill="#B8C0C7"/>
<path d="M200.05 84.5881H201.007L201.374 83.2234H200.415L200.05 84.5881Z" fill="#B8C0C7"/>
<path d="M216.976 71.2637H230.579V60.3043H216.976V71.2637Z" fill="#151F2C"/>
<path d="M216.962 71.2637H217.934V60.3043H216.962V71.2637Z" fill="#283564"/>
<path d="M193.452 111.37H226.219V124.845H193.452V111.37ZM226.005 111.579H193.665V124.626H226.005V111.579Z" fill="#B8C0C7"/>
<path d="M208.621 57.4387C208.621 57.8472 208.854 58.1792 209.145 58.1792C209.436 58.1792 209.668 57.8472 209.668 57.4387C209.668 57.0302 209.436 56.6993 209.145 56.6993C208.854 56.6993 208.621 57.0302 208.621 57.4387Z" fill="white"/>
<path d="M206.197 57.4387C206.197 57.8472 206.429 58.1792 206.72 58.1792C207.012 58.1792 207.244 57.8472 207.244 57.4387C207.244 57.0302 207.012 56.6993 206.72 56.6993C206.429 56.6993 206.197 57.0302 206.197 57.4387Z" fill="#669AD3"/>
<path d="M203.764 57.4387C203.764 57.8472 203.997 58.1792 204.288 58.1792C204.579 58.1792 204.812 57.8472 204.812 57.4387C204.812 57.0302 204.579 56.6993 204.288 56.6993C203.997 56.6993 203.764 57.0302 203.764 57.4387Z" fill="#699DEE"/>
<path d="M201.335 57.4387C201.335 57.8472 201.567 58.1792 201.859 58.1792C202.15 58.1792 202.382 57.8472 202.382 57.4387C202.382 57.0302 202.15 56.6993 201.859 56.6993C201.567 56.6993 201.335 57.0302 201.335 57.4387Z" fill="white"/>
<path d="M198.906 57.4387C198.906 57.8472 199.139 58.1792 199.43 58.1792C199.721 58.1792 199.954 57.8472 199.954 57.4387C199.954 57.0302 199.721 56.6993 199.43 56.6993C199.139 56.6993 198.906 57.0302 198.906 57.4387Z" fill="#669AD3"/>
<path d="M198.799 60.1932H209.558V69.2518H198.799V60.1932ZM209.343 60.4027H199.014V69.0339H209.339L209.343 60.4027Z" fill="#B8C0C7"/>
<path d="M225.191 61.782H226.851V61.4752H225.191V61.782Z" fill="#E9F3FE"/>
<path d="M227.459 61.782H230.076V61.4752H227.459V61.782Z" fill="#E9F3FE"/>
<path d="M226.116 62.6H230.075V62.2932H226.116V62.6Z" fill="#E9F3FE"/>
<path d="M222.954 62.6H225.581V62.2932H222.954V62.6Z" fill="#E9F3FE"/>
<path d="M221.964 61.782H224.832V61.4752H221.964V61.782Z" fill="#E9F3FE"/>
<path d="M227.459 64.0118H230.076V63.705H227.459V64.0118Z" fill="#E9F3FE"/>
<path d="M226.116 64.8309H230.075V64.524H226.116V64.8309Z" fill="#E9F3FE"/>
<path d="M222.954 64.8309H225.581V64.524H222.954V64.8309Z" fill="#E9F3FE"/>
<path d="M225.191 64.0118H226.851V63.705H225.191V64.0118Z" fill="#E9F3FE"/>
<path d="M221.964 64.0118H224.832V63.705H221.964V64.0118Z" fill="#E9F3FE"/>
<path d="M227.459 66.4679H230.076V66.161H227.459V66.4679Z" fill="#E9F3FE"/>
<path d="M226.116 67.2859H230.075V66.979H226.116V67.2859Z" fill="#E9F3FE"/>
<path d="M222.954 67.2859H225.581V66.979H222.954V67.2859Z" fill="#E9F3FE"/>
<path d="M225.191 66.4679H226.851V66.161H225.191V66.4679Z" fill="#E9F3FE"/>
<path d="M221.964 66.4679H224.832V66.161H221.964V66.4679Z" fill="#E9F3FE"/>
<path d="M227.459 68.8328H230.076V68.526H227.459V68.8328Z" fill="#E9F3FE"/>
<path d="M226.116 69.6508H230.075V69.3439H226.116V69.6508Z" fill="#E9F3FE"/>
<path d="M222.954 69.6508H225.581V69.3439H222.954V69.6508Z" fill="#E9F3FE"/>
<path d="M225.191 68.8328H226.851V68.526H225.191V68.8328Z" fill="#E9F3FE"/>
<path d="M221.964 68.8328H224.832V68.526H221.964V68.8328Z" fill="#E9F3FE"/>
<path d="M23.7436 115.523H7.91504V128.575H23.7436V115.523Z" fill="#296289"/>
<path d="M15.8286 115.523H0V128.575H15.8286V115.523Z" fill="#669AD3"/>
<path d="M23.734 125.265H21.2256L21.4466 124.559L21.2256 124.055H23.734V125.265Z" fill="#5D86E2"/>
<path d="M15.8287 119.562H13.3203L13.5413 118.856L13.3203 118.353H15.8287V119.562Z" fill="#283564"/>
<path d="M15.8286 118.353H18.337L18.116 119.058L18.337 119.562H15.8286V118.353Z" fill="#151F2C"/>
<path d="M0 125.405H2.5084L2.28741 126.111L2.5084 126.615H0V125.405Z" fill="#283564"/>
<path d="M1.0359 118.181H5.59082V116.409H1.0359V118.181Z" fill="#D4D5D9"/>
<path d="M45.1941 115.51H29.333V128.588H45.1941V115.51Z" fill="#296289"/>
<path d="M37.2634 115.51H21.4023V128.588H37.2634V115.51Z" fill="#669AD3"/>
<path d="M45.1835 125.271H42.6709L42.8919 124.564L42.6709 124.06H45.1835V125.271Z" fill="#151F2C"/>
<path d="M37.2626 119.557H34.75L34.971 118.85L34.75 118.345H37.2626V119.557Z" fill="#283564"/>
<path d="M37.2627 118.345H39.7763L39.5553 119.052L39.7763 119.557H37.2627V118.345Z" fill="#151F2C"/>
<path d="M21.4014 125.412H23.915L23.694 126.119L23.915 126.625H21.4014V125.412Z" fill="#283564"/>
<path d="M22.4405 118.172H27.0049V116.397H22.4405V118.172Z" fill="#D4D5D9"/>
<path d="M36.9758 103.26H22.1045V115.523H36.9758V103.26Z" fill="#296289"/>
<path d="M29.5393 103.26H14.668V115.523H29.5393V103.26Z" fill="#669AD3"/>
<path d="M36.9659 112.413H34.6094L34.8167 111.75L34.6094 111.276H36.9659V112.413Z" fill="#DE6B4D"/>
<path d="M29.5396 107.055H27.1831L27.3905 106.392L27.1831 105.918H29.5396V107.055Z" fill="#EE805F"/>
<path d="M29.5396 105.918H31.8961L31.6887 106.581L31.8961 107.055H29.5396V105.918Z" fill="#DE6B4D"/>
<path d="M14.668 112.545H17.0245L16.8171 113.208L17.0245 113.681H14.668V112.545Z" fill="#EE805F"/>
<path d="M15.6414 105.757H19.9209V104.092H15.6414V105.757Z" fill="#D4D5D9"/>
<path d="M215.24 64.4046H215.9V63.7437H215.24V64.4046Z" fill="#B8C0C7"/>
<path d="M213.523 64.4046H214.184V63.7437H213.523V64.4046Z" fill="#B8C0C7"/>
<path d="M211.806 64.4046H212.467V63.7437H211.806V64.4046Z" fill="#B8C0C7"/>
<path d="M215.24 65.8783H215.9V65.2174H215.24V65.8783Z" fill="#B8C0C7"/>
<path d="M213.523 65.8783H214.184V65.2174H213.523V65.8783Z" fill="#B8C0C7"/>
<path d="M211.806 65.8783H212.467V65.2174H211.806V65.8783Z" fill="#B8C0C7"/>
<path d="M215.24 67.5079H215.9V66.847H215.24V67.5079Z" fill="#B8C0C7"/>
<path d="M213.523 67.5079H214.184V66.847H213.523V67.5079Z" fill="#B8C0C7"/>
<path d="M211.806 67.5079H212.467V66.847H211.806V67.5079Z" fill="#B8C0C7"/>
<path d="M209.014 81.8514L207.944 81.6932C207.826 81.6754 207.775 81.5539 207.824 81.4052L208.866 78.2328C208.929 78.0421 209.124 77.8892 209.275 77.9112L210.345 78.0694C210.464 78.0872 210.514 78.2087 210.465 78.3574L209.423 81.5298C209.361 81.7204 209.165 81.8733 209.014 81.8514Z" fill="#151F2C"/>
<path d="M208.636 81.7948L207.566 81.6366C207.447 81.6188 207.396 81.4973 207.445 81.3486L208.487 78.1762C208.55 77.9866 208.745 77.8326 208.896 77.8557L209.966 78.0138C210.085 78.0316 210.135 78.1531 210.087 78.3019L209.039 81.4743C208.982 81.6638 208.787 81.8178 208.636 81.7948Z" fill="#192E4F"/>
<path d="M209.669 78.593C209.637 78.593 209.622 78.5511 209.634 78.5113L210.48 75.7065C210.484 75.6885 210.494 75.6723 210.509 75.6605C210.523 75.6488 210.541 75.6421 210.559 75.6416C210.589 75.6416 210.605 75.6835 210.594 75.7233L209.747 78.5281C209.743 78.5461 209.733 78.5623 209.719 78.5741C209.705 78.5859 209.687 78.5925 209.669 78.593Z" fill="#192E4F"/>
<path d="M209.952 67.9436C209.952 67.9436 210.725 66.6281 211.337 66.1411C211.95 65.6541 213.57 65.5179 213.633 65.6426C213.828 66.029 212.991 66.5852 212.817 66.9392C212.643 67.2932 212.718 67.8033 211.893 68.2211C211.043 68.6516 210.549 68.9344 210.549 68.9344L209.952 67.9436Z" fill="#EE805F"/>
<path d="M210.604 67.7645C210.207 67.1456 210.089 67.1141 210.089 67.1141C210.089 67.1141 203.517 69.7325 202.889 69.9545C202.262 70.1766 192.886 70.7244 192.886 70.7244L190.058 76.9435C190.058 76.9435 202.552 74.0937 204.13 73.5082C206.738 72.5405 210.922 68.749 210.922 68.749C210.902 68.3991 210.792 68.0602 210.604 67.7645Z" fill="#151F2C"/>
<path d="M194.279 125.915C194.279 125.915 194.421 128.22 194.85 128.764H201.442C201.4 128.535 201.213 127.966 200.394 127.822C199.353 127.64 197.609 126.908 196.979 125.532C196.31 124.082 194.279 125.915 194.279 125.915Z" fill="#151F2C"/>
<path d="M182.581 125.594C182.581 125.594 182.171 128.59 182.735 128.642C182.81 128.649 185.241 128.642 186.191 128.642C187.377 128.634 189.27 128.649 189.27 128.649C189.325 128.65 189.379 128.637 189.427 128.61C189.476 128.583 189.516 128.544 189.544 128.497C189.573 128.45 189.588 128.396 189.589 128.341C189.59 128.286 189.577 128.231 189.55 128.183C189.414 127.952 189.152 127.704 188.655 127.608C187.617 127.409 185.887 126.647 185.28 125.259C184.644 123.8 182.581 125.594 182.581 125.594Z" fill="#151F2C"/>
<path d="M197.378 95.2155C197.378 95.2155 195.721 101.015 190.97 111.086C186.22 121.157 185.853 125.749 185.853 125.749L182.581 125.595C182.581 125.595 182.889 113.607 185.132 108.523C187.376 103.439 187.833 89.5326 187.833 89.5326L197.378 95.2155Z" fill="#296289"/>
<path d="M200.039 90.2249C200.039 90.2249 200.171 99.2059 198.617 110.229C197.063 121.253 197.59 125.94 197.59 125.94L193.868 126.063C193.868 126.063 191.645 115.032 192.282 109.515C192.92 103.998 189.237 90.5768 189.237 90.5768L200.039 90.2249Z" fill="#669AD3"/>
<path d="M192.697 69.2088L194.451 70.5096L196.989 69.9754C196.953 69.744 196.786 68.7856 196.633 67.9163C196.624 67.865 196.615 67.8116 196.607 67.7645C196.476 67.025 196.362 66.3903 196.362 66.3903L193.993 65.21L193.11 64.769C193.11 64.7848 193.179 65.5891 193.188 65.7064C193.353 67.7927 192.697 69.2088 192.697 69.2088Z" fill="#EE805F"/>
<path d="M196.811 68.5531C196.755 68.5301 193.354 67.5278 192.991 67.6503C192.627 67.7729 192.403 68.4882 192.403 68.4882L197.64 69.9817C197.64 69.9817 197.52 68.8516 196.811 68.5531Z" fill="#151F2C"/>
<path d="M187.668 91.334C188.243 93.9587 200.237 85.7213 200.082 84.1199C200.064 83.9439 200.047 83.7659 200.029 83.5899C199.807 81.3591 199.595 79.1775 199.58 77.752C199.555 76.5268 199.419 75.3064 199.171 74.1062C198.962 73.0463 198.706 72.0848 198.484 71.336C198.331 70.8158 198.042 70.3458 197.646 69.9744C197.369 69.7122 197.044 69.5053 196.689 69.3648C196.592 69.3236 196.493 69.2886 196.392 69.2601C194.946 68.8412 192.948 68.3227 192.406 68.4809C190.939 68.9134 189.846 71.4973 189.074 74.7922C187.627 80.9642 187.293 89.6237 187.668 91.334Z" fill="#283564"/>
<path d="M193.366 65.7442C193.889 66.7392 195.825 67.6001 196.632 67.9164C196.624 67.8651 196.615 67.8116 196.606 67.7645C196.475 67.0251 196.362 66.3904 196.362 66.3904L193.993 65.21C193.469 65.2016 193.151 65.3336 193.366 65.7442Z" fill="#DE6B4D"/>
<path d="M197.514 66.2521C197.514 66.2521 193.239 67.5854 192.45 64.9105C191.662 62.2355 190.578 60.6069 193.272 59.6423C195.967 58.6777 196.802 59.5376 197.283 60.3754C197.763 61.2133 198.606 65.8363 197.514 66.2521Z" fill="#EE805F"/>
<path d="M197.115 60.1125C197.115 60.1125 196.843 63.2242 196.199 63.0891C195.555 62.954 194.972 62.8545 195.066 63.7929C195.16 64.7313 196.053 65.8143 194.07 65.9798C192.086 66.1453 189.234 61.03 189.776 60.0612C191.351 57.2669 199.389 56.7024 197.115 60.1125Z" fill="#151F2C"/>
<path d="M199.719 90.2249C198.531 90.6544 199.74 89.0446 199.719 88.7084C199.627 87.2327 200.206 85.3673 200.033 83.59L192.772 79.255C192.772 79.255 191.05 90.1558 199.719 90.2249Z" fill="#151F2C"/>
<path d="M187.668 91.3341C190.766 97.0756 191.26 99.2677 191.26 99.2677C193.957 98.9609 198.576 93.6592 200.042 92.2442C200.042 92.2442 200.242 85.7213 200.081 84.1199L197.842 84.055C197.842 84.055 193.793 85.0814 192.744 83.6884C191.694 82.2955 192.149 75.4615 192.149 75.4615L189.073 74.7964C187.627 80.9643 186.837 89.7924 187.668 91.3341Z" fill="#669AD3"/>
<path d="M205.344 80.3494C205.344 80.3494 206.228 80.1777 206.459 79.9881C206.799 79.7085 207.067 79.2393 207.234 79.1879C207.513 79.101 208.2 78.238 208.258 78.1762C208.28 78.1532 208.467 78.2432 208.42 78.3857C208.373 78.5281 208.273 78.8381 208.236 78.9491C208.073 79.4393 208.081 79.5912 208.667 79.4006C208.743 79.3765 210.099 78.946 210.238 79.2539C210.378 79.5618 209.82 81.0417 209.108 81.3601C208.397 81.6785 206.655 81.3916 206.529 81.4282C205.464 81.7372 205.344 80.3494 205.344 80.3494Z" fill="#EE805F"/>
<path d="M206.065 80.0614C206.065 80.0614 198.867 81.2847 198.229 80.9747C197.211 80.4783 198.625 73.1762 198.625 73.1762C198.625 73.1762 198.685 71.5214 196.752 71.1307C195.076 70.7914 193.451 72.0503 193.451 72.0503C193.451 72.0503 191.977 73.3689 192.166 74.832C192.585 78.0788 193.232 84.6708 195.401 85.6815C198.198 86.9855 206.293 82.065 206.293 82.065C206.293 82.065 206.562 81.7351 206.524 81.1224C206.491 80.582 206.065 80.0614 206.065 80.0614Z" fill="#283564"/>
<path d="M191.553 75.3326L192.149 75.4615C192.149 75.4615 193.406 70.0048 197.645 69.9786C197.368 69.7164 197.043 69.5095 196.688 69.369C195.136 69.7848 192.441 71.1108 191.553 75.3326Z" fill="#669AD3"/>
<path d="M212.316 67.2335C212.316 67.2335 213.483 66.5182 213.538 66.825C213.565 66.978 213.046 67.3969 212.837 67.5749C212.629 67.753 212.097 68.1049 212.097 68.1049L212.316 67.2335Z" fill="#EE805F"/>
</svg>
