<svg width="214" height="163" viewBox="0 0 214 163" fill="none" xmlns="http://www.w3.org/2000/svg">
<path d="M197.328 73.5843H173.46C171.983 73.5843 170.786 74.7792 170.786 76.2531V88.1453C170.786 89.6193 171.983 90.8141 173.46 90.8141H197.328C198.806 90.8141 200.003 89.6193 200.003 88.1453V76.2531C200.003 74.7792 198.806 73.5843 197.328 73.5843Z" fill="#60A8FF"/>
<path d="M185.394 97.5502L189.176 88.6044H181.612L185.394 97.5502Z" fill="#60A8FF"/>
<path d="M185.303 79.2422H192.134V80.2403L195.483 78.3134L192.134 76.3866V77.3794H185.303V79.2422Z" fill="#223A7A"/>
<path d="M195.483 83.16H188.652V82.1619L185.303 84.0887L188.652 86.0156V85.0228H195.483V83.16Z" fill="white"/>
<path d="M181.11 84.9161L180.783 85.0335C180.783 85.0335 179.767 83.8806 179.243 82.6209C178.719 81.3612 178.697 79.8293 178.697 79.8293L178.933 79.7279L177.488 76.2798C177.231 76.4826 176.985 76.7388 176.787 77.0751C175.969 78.4522 176.049 80.5713 176.873 82.6369C177.697 84.7026 178.574 86.5494 180.179 87.7076C181.126 88.3909 181.939 88.5136 182.565 88.4122L181.104 84.9214L181.11 84.9161Z" fill="#223A7A"/>
<path d="M182.148 84.5104L181.698 84.6759L183.175 88.2094C183.34 88.156 183.49 88.0866 183.624 88.0172C184.004 87.8091 184.175 87.35 184.014 86.9444L183.244 85.0015C183.073 84.5691 182.586 84.3556 182.153 84.5104H182.148Z" fill="#223A7A"/>
<path d="M178.622 75.6713C178.44 75.7354 178.242 75.8261 178.044 75.9435L179.521 79.4664L180.018 79.2582C180.452 79.0767 180.655 78.591 180.489 78.1533L179.713 76.1677C179.548 75.7354 179.061 75.5112 178.628 75.6713H178.622Z" fill="#223A7A"/>
<path d="M44.748 147.318V107.564C44.748 107.564 44.304 96.851 49.9474 93.7605C55.5908 90.67 79.384 92.3247 79.384 92.3247V147.318H44.748Z" fill="#1C83FF"/>
<path d="M86.8191 55.1055C86.8191 55.1055 85.3802 67.1418 84.8292 68.1346L84.2782 69.1274L81.5127 71.0063C81.5127 71.0063 86.8244 78.5163 93.3558 79.7279C99.8872 80.9449 99.3309 77.0751 99.3309 77.0751L98.3359 74.9774L99.6625 63.4909C99.6625 63.4909 87.8194 58.0786 86.8245 55.1002L86.8191 55.1055Z" fill="#FF9D8C"/>
<path d="M78.0786 72.0044L82.3954 70.1255C82.3954 70.1255 85.161 74.6518 91.58 77.3046C97.999 79.9574 98.1114 78.4095 98.443 77.3046C98.7747 76.1998 98.3307 74.9881 98.3307 74.9881L98.8068 71.1237L101.374 71.9777L110.286 143.902L87.3755 145.007L78.0786 72.0097V72.0044Z" fill="white"/>
<path d="M99.2134 71.1931C99.2134 71.1931 100.765 74.7639 102.204 83.1547C103.642 91.5454 104.969 105.685 105.301 115.399C105.632 125.114 105.852 147.313 105.852 147.313H134.737C135.069 147.313 137.059 136.381 137.059 136.381C137.059 136.381 124.44 125.594 123.777 123.827C123.333 122.648 123.558 100.822 121.675 90.7714C119.792 80.7207 117.358 78.6977 112.265 76.1944C107.002 73.6057 99.208 71.1877 99.208 71.1877L99.2134 71.1931Z" fill="#223A7A"/>
<path d="M114.266 134.663C114.116 134.663 113.999 134.545 113.999 134.396C113.999 133.606 113.86 122.386 113.721 111.54C113.587 100.689 113.442 89.4691 113.442 88.6791C113.442 88.5296 113.56 88.4122 113.71 88.4122C113.86 88.4122 113.977 88.5296 113.977 88.6791C113.977 89.4691 114.116 100.689 114.255 111.535C114.389 122.386 114.534 133.606 114.534 134.396C114.534 134.545 114.416 134.663 114.266 134.663Z" fill="#8593B6"/>
<path d="M56.7193 131.967L56.5 147.318H90.1465C90.1465 147.318 91.5854 134.289 91.0344 133.072C90.4834 131.855 56.7247 131.967 56.7247 131.967H56.7193Z" fill="#223A7A"/>
<g style="mix-blend-mode:multiply">
<path d="M94.1637 67.8037C95.5331 68.9086 97.4107 69.7893 98.871 70.3284L99.6627 63.4962C99.6627 63.4962 90.7669 59.429 87.75 56.4079C88.3812 59.8453 89.9325 64.3983 94.1637 67.8037Z" fill="#8E9BBB"/>
</g>
<path d="M110.062 32.6875C110.062 32.6875 112.383 36.6641 112.827 41.5213C113.271 46.3785 112.827 58.8578 108.842 64.1581C104.857 69.4583 96.5549 67.9104 92.7945 64.7079C89.3389 61.7669 85.9314 58.5216 85.0488 52.1164C84.1608 45.7113 86.9317 33.5629 94.7897 31.0222C102.648 28.4815 110.062 32.6769 110.062 32.6769V32.6875Z" fill="#FF9D8C"/>
<path d="M120.043 140.374C120.043 140.374 119.653 140.374 119.059 140.358C118.92 140.353 118.765 140.358 118.604 140.353C118.032 140.337 117.336 140.32 116.636 140.299C116.48 140.294 116.32 140.288 116.165 140.283C115.469 140.267 114.876 140.353 114.319 140.32H114.303C114.186 140.315 114.014 140.331 113.875 140.337C113.806 140.342 113.742 140.347 113.699 140.342C113.378 140.283 113.314 140.208 112.966 140.054C112.517 139.851 106.435 138.495 101.487 138.527C96.544 138.548 92.1095 138.885 91.3874 138.282C90.6599 137.668 90.2212 131.471 94.4418 131.065L99.6305 133.029C99.6305 133.029 111.479 131.626 115.822 134.823C120.177 138.02 120.043 140.374 120.043 140.374Z" fill="#FF9D8C"/>
<path d="M114.303 140.32C114.186 140.315 114.014 140.331 113.875 140.337C113.768 140.166 113.544 139.856 113.421 139.728C112.083 138.367 108.852 137.486 107.681 137.203C107.574 137.177 107.504 137.07 107.531 136.963C107.553 136.856 107.665 136.792 107.777 136.814C109.484 137.225 113.105 138.276 114.132 140C114.164 140.048 114.25 140.214 114.303 140.32Z" fill="#223A7A"/>
<path d="M116.641 140.299C116.486 140.299 116.325 140.294 116.17 140.283C114.71 137.625 112.319 136.862 109.371 135.917L109.195 135.858C109.093 135.826 109.034 135.709 109.066 135.602C109.098 135.501 109.211 135.442 109.323 135.474L109.494 135.533C112.618 136.531 115.127 137.337 116.646 140.299H116.641Z" fill="#223A7A"/>
<path d="M119.059 140.358C118.92 140.358 118.764 140.358 118.604 140.353C117.716 138.495 114.785 135.383 110.912 134.663C110.799 134.641 110.73 134.54 110.746 134.428C110.767 134.321 110.874 134.252 110.981 134.268C114.977 135.015 118.197 138.271 119.064 140.358H119.059Z" fill="#223A7A"/>
<path d="M87.7072 46.6561C87.7072 46.6561 90.1411 45.4978 91.8582 42.2365C93.5753 38.9806 93.3506 36.0502 93.3506 36.0502C93.3506 36.0502 96.4478 35.5538 101.096 36.9363C105.745 38.3187 111.276 40.1922 115.924 37.5448C120.573 34.892 120.573 30.6432 118.305 28.8765C115.764 26.8962 110.725 28.1025 110.725 28.1025C110.725 28.1025 112.661 26.2237 111.613 25.1188C110.559 24.0139 106.745 25.4497 106.745 25.4497C106.745 25.4497 102.097 21.7508 93.2971 22.1938C84.4977 22.6368 80.2932 28.7644 79.7958 35.6125C79.2983 42.4607 81.7857 49.3089 81.7857 49.3089L87.7072 46.6561Z" fill="#223A7A"/>
<g style="mix-blend-mode:multiply">
<path d="M105.558 48.3161C105.06 49.5437 105.071 50.9689 104.948 52.2659C104.852 53.28 104.664 54.4597 105.595 55.1429C106.039 55.4685 108.141 56.3492 107.061 57.0644C106.649 57.3366 105.959 57.2619 105.488 57.2406C105.167 57.2245 104.841 57.2139 104.515 57.1872C104.167 57.1605 103.83 57.0591 103.482 57.0537C103.279 57.0537 103.215 57.3206 103.381 57.4274C103.937 57.7743 104.761 57.8864 105.408 57.9078C106.061 57.9344 106.499 57.9078 107.088 57.6142C107.446 57.438 107.799 57.1818 107.853 56.7548C107.917 56.2744 107.553 55.8421 107.189 55.5699C106.772 55.2603 106.258 55.1162 105.836 54.8119C105.247 54.3956 105.296 53.6857 105.338 53.0345C105.44 51.4653 105.798 49.9227 105.938 48.3588C105.959 48.1186 105.627 48.1186 105.552 48.3054L105.558 48.3161Z" fill="#8E9BBB"/>
</g>
<path d="M110.078 51.9883C109.912 52.9171 109.233 53.579 108.564 53.4615C107.89 53.3441 107.483 52.4901 107.644 51.5613C107.81 50.6326 108.489 49.9707 109.158 50.0882C109.832 50.2056 110.238 51.0596 110.078 51.9883Z" fill="#223A7A"/>
<path d="M101.61 51.2517C101.46 52.2552 100.749 52.9811 100.026 52.8744C99.3043 52.7676 98.8336 51.8656 98.9834 50.8621C99.1331 49.8586 99.8446 49.1327 100.567 49.2395C101.289 49.3462 101.76 50.2483 101.61 51.2517Z" fill="#223A7A"/>
<path d="M108.109 48.1506C108.628 48.236 109.147 48.1506 109.671 48.188C109.794 48.1986 109.922 48.2147 110.045 48.2253C110.136 48.236 109.88 48.1986 110.003 48.22C110.029 48.22 110.056 48.2307 110.083 48.2307C110.147 48.2413 110.211 48.2574 110.275 48.2734C110.388 48.3001 110.495 48.3428 110.607 48.3641C110.709 48.3855 110.821 48.4121 110.923 48.4068C110.982 48.4015 111.035 48.3908 111.094 48.3855C111.056 48.3908 111.024 48.3961 110.987 48.4068C110.987 48.4175 111.179 48.3908 111.201 48.3855C111.495 48.3161 111.682 47.9745 111.597 47.6862C111.575 47.6008 111.538 47.5314 111.484 47.462C111.463 47.4354 111.442 47.4033 111.415 47.3766C111.436 47.398 111.458 47.4247 111.479 47.446C111.458 47.414 111.436 47.3873 111.409 47.3553C111.383 47.3073 111.34 47.2646 111.292 47.2379C111.249 47.2058 111.212 47.1738 111.169 47.1418C111.03 47.0457 110.853 46.9923 110.687 46.9496C110.377 46.8696 110.056 46.8322 109.735 46.8269C109.42 46.8269 109.104 46.8589 108.794 46.9016C108.516 46.939 108.211 47.035 107.986 47.2005C107.815 47.3286 107.708 47.4941 107.735 47.7183C107.761 47.9051 107.906 48.1186 108.109 48.1506Z" fill="#223A7A"/>
<path d="M102.204 46.6774C102.134 46.6347 102.059 46.5974 101.99 46.5653C101.925 46.5386 101.754 46.4479 101.883 46.5173C101.834 46.4906 101.786 46.4639 101.738 46.4426C101.524 46.3358 101.3 46.2611 101.07 46.2024C100.567 46.0743 100.032 46.0422 99.5129 46.0956C98.9619 46.1543 98.4537 46.2878 97.9777 46.576C97.9081 46.6187 97.8386 46.6561 97.7851 46.7148C97.7477 46.7628 97.7102 46.8109 97.6728 46.8589C97.6835 46.8429 97.6942 46.8269 97.7049 46.8109C97.5551 46.9123 97.4695 47.0831 97.4748 47.2592C97.4748 47.43 97.5658 47.5741 97.7156 47.6542C97.8974 47.7556 98.0686 47.7076 98.2505 47.6542H97.9723C98.1274 47.6809 98.2344 47.6862 98.3896 47.6542C98.3949 47.6542 98.5393 47.6168 98.443 47.6382C98.3521 47.6595 98.5928 47.6222 98.6196 47.6168C98.6517 47.6168 98.8175 47.5955 98.641 47.6168C98.6731 47.6168 98.7052 47.6115 98.7373 47.6062C98.8228 47.5955 98.9031 47.5848 98.9887 47.5795C99.3524 47.5528 99.7162 47.5368 100.085 47.5208C100.422 47.5101 100.77 47.5047 101.112 47.5208C101.257 47.5261 101.401 47.5314 101.546 47.5368C101.626 47.5368 101.594 47.5528 101.535 47.5368C101.567 47.5474 101.594 47.5528 101.626 47.5581C101.685 47.5741 101.744 47.5955 101.802 47.6168C102.038 47.7076 102.321 47.5368 102.407 47.3179C102.503 47.0831 102.423 46.8109 102.198 46.6774H102.204Z" fill="#223A7A"/>
<path d="M104.83 62.0284C105.338 61.0089 106.263 60.2616 107.328 59.7813C106.403 59.6852 102.022 59.2849 100.92 59.9094C99.6839 60.6086 101.15 63.4268 103.707 63.5656C103.974 63.5816 104.22 63.5603 104.455 63.5229C104.477 63.0105 104.594 62.4981 104.83 62.0284Z" fill="#223A7A"/>
<path d="M84.605 56.0983C84.605 56.0983 85.049 57.8117 87.5952 59.7973C90.1414 61.7829 93.8323 63.24 93.8323 63.24L94.1266 61.9537C94.1266 61.9537 90.3072 60.299 88.5366 58.4735C86.7661 56.6534 86.5467 55.6553 86.5467 55.6553L84.6103 56.0983H84.605Z" fill="#DEE1EB"/>
<path d="M94.565 60.9982C96.6138 60.9022 97.7585 62.5195 97.8976 63.5656C98.042 64.6118 97.0578 65.7861 94.7523 64.7559C91.8904 63.4749 92.5109 61.0943 94.5597 60.9982H94.565Z" fill="#223A7A"/>
<path d="M86.2097 43.4535C86.2097 43.4535 87.0923 37.1071 91.3556 32.7943C99.4918 24.569 106.408 25.0654 106.408 25.0654C106.408 25.0654 106.355 23.9072 103.75 23.0211C101.305 22.1938 100.209 22.6368 100.209 22.6368C100.209 22.6368 93.5114 23.1866 87.868 29.4263C82.2246 35.6659 81.6147 43.619 81.6147 43.619L86.2097 43.4535Z" fill="#DEE1EB"/>
<path d="M85.6051 42.6849C80.2773 41.7828 77.3032 45.9408 77.0839 50.1415C76.8645 54.3369 79.9189 57.5288 84.0004 57.2085C93.1849 56.4933 92.1365 43.7898 85.6051 42.6849Z" fill="white"/>
<path d="M82.9467 53.1252C81.5398 53.1252 80.3523 52.4207 79.6729 51.177C78.9455 49.848 79.0043 48.2093 79.8281 47.003C79.8923 46.9123 80.0153 46.8909 80.1062 46.9496C80.1972 47.0137 80.2239 47.1364 80.1597 47.2272C79.4215 48.3107 79.368 49.7839 80.026 50.9849C80.6465 52.1218 81.7484 52.7676 83.0536 52.7249C84.2733 52.6929 85.3057 52.1378 85.9583 51.161C86.7071 50.0454 86.8783 48.5082 86.3969 47.2379C85.9155 45.9782 84.6049 45.1242 83.412 45.279C83.305 45.295 83.2034 45.2149 83.1874 45.1082C83.1713 45.0014 83.2516 44.9 83.3585 44.884C84.7547 44.6972 86.2204 45.6526 86.7713 47.0991C87.3009 48.4869 87.1083 50.1682 86.2899 51.3852C85.5571 52.4741 84.4123 53.0932 83.0643 53.1252C83.0269 53.1252 82.9894 53.1252 82.952 53.1252H82.9467Z" fill="#818FB3"/>
<path d="M79.0737 70.4565C79.0737 70.4565 62.9138 74.433 57.2704 80.8381C51.627 87.2433 48.9684 118.826 48.8614 124.681C48.7544 130.537 52.8466 132.965 55.2805 134.62C57.7144 136.275 68.4502 139.258 77.0838 139.701C85.7174 140.144 93.907 139.701 93.907 139.701C93.907 139.701 93.8803 137.822 95.2069 135.063C96.4372 132.501 97.9992 131.972 97.9992 131.972L90.5852 129.32C90.5852 129.32 89.2853 106.106 87.2633 94.8654C84.9418 81.943 79.0737 70.4618 79.0737 70.4618V70.4565Z" fill="#223A7A"/>
<path d="M105.857 125.61C105.82 125.61 105.782 125.605 105.75 125.589C105.617 125.53 105.552 125.37 105.617 125.236C107.13 121.826 108.698 115.138 109.58 110.441L109.655 110.062C109.923 108.679 110.254 106.966 109.591 105.775C109.254 105.172 108.489 103.859 107.751 102.6C106.986 101.292 106.269 100.054 106.066 99.6852C105.675 98.9647 106.906 97.0378 108.682 94.3957C109.163 93.6804 109.575 93.0666 109.816 92.6503C110.447 91.5561 110.03 90.5579 109.538 89.3943L109.372 88.994C108.928 87.9105 108.425 86.8269 107.938 85.7754C107.74 85.3484 107.542 84.9161 107.344 84.4837C107.082 83.9126 106.825 83.3308 106.558 82.7437C104.996 79.2635 103.375 75.666 101.305 72.1912C101.23 72.0631 101.273 71.903 101.396 71.8229C101.524 71.7482 101.685 71.7909 101.765 71.9136C103.851 75.4151 105.477 79.0287 107.045 82.5195C107.307 83.1066 107.569 83.6884 107.826 84.2542C108.024 84.6866 108.222 85.1136 108.42 85.5406C108.906 86.5974 109.415 87.6863 109.858 88.7805L110.024 89.1755C110.522 90.3551 111.035 91.5827 110.27 92.9011C110.019 93.3335 109.602 93.958 109.115 94.6786C108.19 96.0557 106.264 98.922 106.526 99.4184C106.724 99.7813 107.441 101.014 108.2 102.317C108.938 103.582 109.703 104.895 110.046 105.503C110.805 106.859 110.452 108.684 110.169 110.147L110.094 110.526C109.773 112.234 108.067 120.988 106.093 125.439C106.05 125.541 105.948 125.599 105.847 125.599L105.857 125.61Z" fill="#8593B6"/>
<path d="M90.0824 126.549C90.0128 126.549 89.9433 126.523 89.8952 126.469C88.6381 125.204 82.5721 114.727 82.1228 112.757C81.8767 111.679 82.4972 108.941 83.0963 106.293C83.5617 104.244 84.0431 102.125 83.904 101.548C83.7008 100.689 82.1495 99.4237 80.6517 98.2014C78.8384 96.7229 76.9661 95.1963 76.6024 93.8192C76.1905 92.2553 76.5436 82.4661 76.7736 75.9916C76.8592 73.6644 76.9234 71.8229 76.9234 71.1664C76.9234 71.0169 77.041 70.8995 77.1908 70.8995C77.3406 70.8995 77.4583 71.0169 77.4583 71.1664C77.4583 71.8336 77.3941 73.6751 77.3085 76.0076C77.0892 82.0604 76.7254 92.1912 77.1159 93.6804C77.4369 94.8867 79.3198 96.424 80.9834 97.7797C82.6256 99.1195 84.1715 100.379 84.4176 101.415C84.5834 102.109 84.1341 104.099 83.6098 106.4C83.0482 108.866 82.417 111.663 82.6363 112.624C83.0803 114.556 89.0339 124.836 90.2696 126.08C90.3712 126.186 90.3712 126.352 90.2696 126.459C90.2161 126.512 90.1519 126.539 90.0824 126.539V126.549Z" fill="#8593B6"/>
<path d="M68.338 121.964C68.338 121.964 68.3112 121.964 68.3005 121.964C68.1561 121.943 68.0545 121.81 68.0705 121.66C68.2684 120.272 71.3389 92.6236 71.478 90.5045C71.4887 90.3551 71.617 90.243 71.7615 90.2537C71.9112 90.2644 72.0182 90.3925 72.0129 90.5366C71.8738 92.6556 68.798 120.342 68.6001 121.73C68.5787 121.863 68.4664 121.959 68.338 121.959V121.964Z" fill="#8593B6"/>
<path d="M90.3604 129.474C90.3283 129.474 90.2908 129.469 90.2587 129.453C89.5794 129.176 86.5731 128.167 82.7698 126.886C75.0884 124.302 64.5719 120.763 62.5713 119.723C62.4375 119.653 62.3894 119.493 62.4589 119.365C62.5285 119.232 62.689 119.184 62.8173 119.253C64.7805 120.272 75.7089 123.95 82.941 126.384C86.755 127.67 89.7666 128.679 90.462 128.962C90.6011 129.015 90.6653 129.176 90.6118 129.309C90.569 129.41 90.4673 129.474 90.3657 129.474H90.3604Z" fill="#8593B6"/>
<path d="M86.6695 140.481C79.9082 140.481 66.808 139.264 56.8531 135.751C56.714 135.703 56.6391 135.549 56.6926 135.41C56.7408 135.271 56.8959 135.196 57.035 135.25C69.611 139.691 87.2045 140.449 90.4782 139.712C90.6226 139.68 90.767 139.771 90.7991 139.915C90.8312 140.059 90.7403 140.203 90.5959 140.235C89.8898 140.395 88.515 140.481 86.6802 140.481H86.6695Z" fill="#8593B6"/>
<path d="M9.29869 74.1821C11.3956 76.0236 14.0541 77.2032 15.8943 79.3329C16.6164 80.1709 17.269 81.0623 17.943 81.943C18.4298 82.5835 19.7403 83.6457 19.9489 84.4464C20.0399 84.7986 20.0238 84.3183 19.9275 83.966C19.9275 83.95 19.9169 83.9393 19.9115 83.9233C19.7296 82.2953 19.5959 80.662 19.5371 79.0233C19.4782 77.39 19.5799 75.7514 19.4782 74.1234C19.3338 71.8229 18.6116 69.5971 16.7287 68.156C15.8087 67.4514 14.6265 67.0244 13.776 66.2398C12.9736 65.4978 13.2945 64.6492 13.7653 63.8218C14.2093 63.0479 14.7442 62.2846 14.9154 61.3932C15.1133 60.3791 14.7281 59.3329 14.2146 58.4735C13.118 56.6374 10.6895 54.5878 8.38398 54.8653C6.46362 55.0948 6.2443 57.3046 6.2764 58.8418C6.30314 60.3364 6.45292 61.8309 6.46362 63.3254C6.47967 64.8627 6.21755 66.3732 6.19616 67.9051C6.15871 70.5099 7.36763 72.4954 9.28265 74.1768L9.29869 74.1821Z" fill="#6BAEFF"/>
<path d="M28.7965 98.084C29.3796 96.6908 30.0536 95.3938 30.8774 94.1288C32.006 92.3941 33.2631 90.702 34.0227 88.7591C34.7983 86.7736 34.686 84.6545 34.7609 82.5675C34.8144 81.0303 35.2744 79.5037 35.1514 77.9612C35.0925 77.2246 34.6646 76.0289 33.7071 76.1517C32.9635 76.2478 32.5196 77.1659 32.2361 77.7583C31.7386 78.7831 31.3909 79.8774 31.0218 80.9556C30.8774 81.3772 30.7383 81.8042 30.5564 82.2099C30.4494 82.4448 30.1124 83.0212 29.7915 82.9465C29.2458 82.813 29.7433 80.5979 29.8236 80.203C30.2301 78.2334 30.8399 76.4026 30.9255 74.3743C31.0485 71.4333 30.8185 67.9371 27.9353 66.3252C27.1811 65.9035 26.2289 65.6526 25.5121 66.2825C24.806 66.9016 24.6081 67.9745 24.5011 68.8605C24.1802 71.5774 24.8221 74.1448 25.694 76.7015C26.4161 78.8098 27.272 80.9876 27.3362 83.2454C27.395 85.4178 26.2663 87.3393 25.7314 89.3943C24.8863 92.6609 25.0574 94.3957 25.0574 95.4525C25.0574 96.7762 25.1002 98.0893 25.1965 99.413C25.2874 100.63 25.3891 101.842 25.5389 103.053C25.571 103.299 25.5977 103.555 25.6298 103.811C25.1591 102.685 24.9986 101.399 24.6081 100.267C23.918 98.2601 23.121 96.2905 22.4577 94.2729C21.9121 92.6076 21.3932 90.9262 20.6764 89.3196C20.0024 87.8144 19.184 86.2238 17.9216 85.1189C17.1567 84.4517 16.2366 84.0621 15.2149 84.0674C14.5623 84.0674 13.9739 84.2969 13.3534 84.4624C12.5884 84.6652 11.984 84.5958 11.3528 84.1101C9.28799 82.5248 8.65679 79.6852 7.13227 77.6783C5.99289 76.1837 3.28619 73.6324 1.29629 75.2657C0.2425 76.1304 -0.0517058 77.801 0.00713535 79.0874C0.0766749 80.694 0.782769 82.1672 1.61724 83.5123C2.51056 84.9428 3.66064 86.2238 4.47906 87.6916C4.96584 88.5617 5.04073 89.3943 4.96049 90.3711C4.8856 91.2945 4.80537 92.1859 5.12097 93.0773C6.06778 95.7514 9.02588 95.3778 11.326 95.4472C12.9361 95.4952 14.6586 95.7354 16.1885 96.2478C17.9537 96.8403 19.1038 97.9879 19.735 99.7279C20.1897 100.988 20.4357 102.423 21.2969 103.491C21.7035 103.993 22.2384 104.366 22.8268 104.628C23.7255 105.023 26.4589 105.194 26.475 104.948C26.5445 104.115 26.9403 103.235 27.1864 102.445C27.6518 100.961 28.1974 99.5144 28.8019 98.0786L28.7965 98.084Z" fill="#6BAEFF"/>
<path d="M41.4903 97.5822C41.255 96.0557 41.2978 94.369 40.5756 92.9652C40.5221 92.8638 40.3884 92.8371 40.2921 92.8905C39.7732 93.1787 39.7518 94.0167 39.7091 94.5291C39.6395 95.3831 39.693 96.2372 39.586 97.0858C39.4041 98.5804 39.0564 100.118 38.5162 101.521C37.9064 103.112 36.7991 104.014 35.189 104.51C34.1566 104.831 33.1402 105.108 32.2737 105.791C31.498 106.405 30.9631 107.249 30.5673 108.14C29.4921 110.547 28.9786 113.232 28.4811 115.805C28.1441 117.534 27.8713 119.274 27.4487 120.988C27.0261 122.701 26.5768 124.404 26.3361 126.154C26.2933 126.245 26.2505 126.331 26.213 126.421C26.1007 126.683 26.5126 126.822 26.6517 126.608C28.3153 124.057 30.3373 121.762 33.1028 120.358C34.3492 119.723 36.0074 119.589 37.0505 118.591C37.8422 117.833 37.9492 116.675 37.8315 115.639C37.6764 114.284 37.0238 113.168 36.3444 112.01C35.97 111.375 35.5313 110.697 35.6811 109.923C35.8255 109.197 36.43 108.658 37.0291 108.284C38.1792 107.574 39.5218 107.254 40.4579 106.229C41.3299 105.279 41.8166 104.089 41.9129 102.808C42.0413 101.1 41.7471 99.2636 41.485 97.5769L41.4903 97.5822Z" fill="#6BAEFF"/>
<path d="M18.8309 106.395C17.3652 104.51 15.5946 102.882 13.6047 101.564C12.5402 100.86 10.0368 99.4717 9.5286 101.548C9.23439 102.765 10.4273 103.961 11.2136 104.724C12.3958 105.872 13.7598 106.859 14.7548 108.183C13.5191 108.578 12.2299 108.652 11.1601 109.501C9.89234 110.51 9.31998 112.453 10.5824 113.691C11.1975 114.294 12.0106 114.663 12.7702 115.031C13.7652 115.511 14.7762 115.944 15.7925 116.371C17.991 117.289 20.2163 118.217 22.0885 119.717C23.9982 121.244 25.7955 123.833 25.9453 126.325C25.9613 126.565 25.8704 126.347 26.0095 126.24C26.0897 126.309 26.3465 126.186 26.3465 126.048C26.309 122.349 25.6404 118.821 24.1266 115.431C22.7197 112.287 20.9491 109.122 18.8309 106.4V106.395Z" fill="#6BAEFF"/>
<path d="M13.7652 71.935C14.5729 73.611 15.4181 75.2497 16.3167 76.883C17.1833 78.4576 18.0445 80.0161 18.6918 81.6975C19.4888 83.7631 20.3233 85.7968 21.1631 87.8464C22.0404 89.9761 22.8213 92.1432 23.4472 94.3583C24.6722 98.6818 25.5815 103.128 26.0309 107.601C26.2609 109.875 26.3625 112.159 26.2983 114.444C26.2502 116.227 26.0469 117.993 25.8811 119.771C25.7046 121.617 25.5815 123.491 25.7367 125.343C25.865 126.891 26.1111 128.738 27.32 129.843C27.5554 130.062 27.8924 129.789 27.7533 129.512C26.3197 126.581 26.4 123.384 26.6728 120.208C26.8225 118.452 27.0312 116.707 27.0953 114.945C27.1702 112.704 27.0847 110.457 26.8707 108.225C26.4534 103.838 25.5762 99.5038 24.4421 95.2497C23.8591 93.0666 23.1369 90.9262 22.3078 88.8285C21.4733 86.7255 20.5105 84.6759 19.7028 82.5622C18.2424 78.7351 16.0172 75.3457 14.0433 71.7802C13.9417 71.5934 13.6742 71.7589 13.7598 71.9457L13.7652 71.935Z" fill="#43588E"/>
<path d="M26.1005 103.219C26.3305 100.433 26.5819 97.7477 27.518 95.0949C27.9566 93.8566 28.4862 92.6503 28.9141 91.4066C29.2618 90.3764 29.7861 88.9673 29.5186 87.8731C29.4865 87.7503 29.31 87.7557 29.2779 87.8731C29.096 88.4976 29.1174 89.1808 28.989 89.8213C28.8606 90.4458 28.6948 91.0543 28.5022 91.6628C28.0904 92.9492 27.5501 94.1822 27.0847 95.4525C26.1807 97.9025 25.7153 100.614 25.9132 103.219C25.9239 103.342 26.0951 103.342 26.1058 103.219H26.1005Z" fill="#43588E"/>
<path d="M9.92445 87.2112C11.0317 89.8801 14.3643 90.0348 16.7928 90.6327C18.526 91.0597 19.8044 92.2126 20.7245 93.7125C21.7301 95.3511 22.4095 97.2726 22.9711 99.1034C22.9765 99.1248 23.0086 99.1141 23.0032 99.0928C22.3239 95.8902 21.3503 92.0364 18.0445 90.5473C15.3913 89.3516 11.8983 89.9548 10.208 87.0938C10.1224 86.955 9.86561 87.0458 9.93514 87.2112H9.92445Z" fill="#43588E"/>
<path d="M24.3516 102.797C24.4853 102.973 24.603 103.16 24.7421 103.336C24.8116 103.422 24.8758 103.502 24.9614 103.571C25.047 103.64 25.1486 103.731 25.2716 103.726C25.3198 103.726 25.3572 103.667 25.3305 103.624C25.277 103.534 25.1753 103.48 25.1004 103.416C25.0202 103.347 24.94 103.277 24.8651 103.203C24.71 103.059 24.5709 102.898 24.4157 102.749C24.389 102.722 24.3302 102.76 24.3569 102.797H24.3516Z" fill="#43588E"/>
<path d="M17.4185 111.268C19.3282 112.832 21.0934 114.684 22.4949 116.718C23.1636 117.689 23.7841 118.714 24.3457 119.749C24.9556 120.881 25.3621 122.077 25.8382 123.267C25.8756 123.358 26.0414 123.358 26.0254 123.24C25.7579 120.726 24.1639 118.575 22.8908 116.483C22.2275 115.399 21.4037 114.524 20.5157 113.616C19.601 112.682 18.6649 111.796 17.5951 111.044C17.4667 110.953 17.2955 111.166 17.4239 111.268H17.4185Z" fill="#43588E"/>
<path d="M32.6426 108.311C31.7226 108.834 31.6905 110.28 31.6744 111.209C31.6423 112.992 32.081 114.663 31.3 116.36C30.5939 117.892 29.4652 119.173 28.5772 120.593C27.7481 121.927 26.9243 123.63 26.9457 125.231C26.9457 125.322 27.0902 125.375 27.1329 125.279C27.4699 124.553 27.5876 123.726 27.8283 122.963C28.0958 122.103 28.4756 121.324 28.9624 120.571C29.8182 119.248 30.8667 118.047 31.5621 116.627C32.2949 115.127 32.1879 113.643 32.1398 112.02C32.1077 110.985 32.0061 109.32 32.8405 108.551C32.9689 108.428 32.8031 108.225 32.6533 108.311H32.6426Z" fill="#43588E"/>
<path d="M26.4857 125.397C22.7787 125.343 15.7124 125.306 15.7124 125.306L17.4616 138.255C17.8574 141.169 20.3448 143.342 23.2922 143.342H29.6792C32.6266 143.342 35.1193 141.169 35.5098 138.255L37.259 125.306C37.259 125.306 30.1927 125.348 26.4857 125.397Z" fill="white"/>
<path d="M205.738 101.596L184.581 143.416L122.9 143.859L141.938 101.009L205.738 101.596Z" fill="#F6F7FA"/>
<path d="M81.9624 143.598L81.9731 140.251H121.905L140.274 100.054H204.133L205.737 101.601H143.355L124.264 143.566C124.264 143.566 81.9624 143.491 81.9624 143.598Z" fill="#D9DEE8"/>
<path d="M173.706 124.676C173.011 126.763 169.229 128.375 165.26 128.273C161.291 128.172 158.638 126.405 159.338 124.318C160.034 122.231 163.816 120.619 167.785 120.721C171.754 120.822 174.407 122.589 173.706 124.676Z" fill="#D9DEE8"/>
<path d="M124.264 143.833C124.227 143.833 124.189 143.827 124.152 143.811C124.018 143.753 123.959 143.592 124.018 143.459L143.179 101.34H205.732C205.882 101.34 206 101.457 206 101.607C206 101.756 205.882 101.874 205.732 101.874H143.521L124.499 143.683C124.457 143.779 124.355 143.838 124.253 143.838L124.264 143.833Z" fill="white"/>
<path d="M79.1806 146.768H5.80566V163H79.1806V146.768Z" fill="#596B9B"/>
<path d="M210.781 146.768H78.7632V163H210.781V146.768Z" fill="#7A89AF"/>
<g style="mix-blend-mode:multiply">
<path d="M79.1806 146.768H78.7634H5.80566V149.747H78.7634H79.1806H210.782V146.768H79.1806Z" fill="#BDC4D7"/>
</g>
<path d="M82.3903 143.566H2.26465V147.542H82.3903V143.566Z" fill="#6F7FA9"/>
<path d="M213.991 143.566H81.9731V147.542H213.991V143.566Z" fill="#9CA6C3"/>
<path d="M60.6565 39.6958H34.7557C33.1515 39.6958 31.8511 40.9934 31.8511 42.5941V55.4952C31.8511 57.0959 33.1515 58.3935 34.7557 58.3935H60.6565C62.2607 58.3935 63.5611 57.0959 63.5611 55.4952V42.5941C63.5611 40.9934 62.2607 39.6958 60.6565 39.6958Z" fill="white"/>
<path d="M70.9431 49.042L61.2129 44.948V53.1413L70.9431 49.042Z" fill="white"/>
<path d="M41.56 50.8301C42.5497 50.8301 43.352 50.0295 43.352 49.042C43.352 48.0544 42.5497 47.2539 41.56 47.2539C40.5704 47.2539 39.7681 48.0544 39.7681 49.042C39.7681 50.0295 40.5704 50.8301 41.56 50.8301Z" fill="#223A7A"/>
<path d="M47.706 50.8301C48.6957 50.8301 49.498 50.0295 49.498 49.042C49.498 48.0544 48.6957 47.2539 47.706 47.2539C46.7164 47.2539 45.9141 48.0544 45.9141 49.042C45.9141 50.0295 46.7164 50.8301 47.706 50.8301Z" fill="#223A7A"/>
<path d="M53.8525 50.8301C54.8422 50.8301 55.6445 50.0295 55.6445 49.042C55.6445 48.0544 54.8422 47.2539 53.8525 47.2539C52.8628 47.2539 52.0605 48.0544 52.0605 49.042C52.0605 50.0295 52.8628 50.8301 53.8525 50.8301Z" fill="#223A7A"/>
<path d="M192.53 0H132.731C128.891 0 125.777 3.10649 125.777 6.9389V35.2443C125.777 39.0767 128.891 42.1831 132.731 42.1831H138.091C138.241 44.7505 137.872 48.5669 135.727 53.4455C142.638 50.2643 146.612 45.4925 148.693 42.1831H192.535C196.376 42.1831 199.489 39.0767 199.489 35.2443V6.9389C199.489 3.10649 196.376 0 192.535 0H192.53Z" fill="#60A8FF"/>
<path d="M167.02 13.4935H137.358C136.545 13.4935 135.882 12.8316 135.882 12.0203C135.882 11.209 136.545 10.5471 137.358 10.5471H167.02C167.833 10.5471 168.496 11.2036 168.496 12.0203C168.496 12.8316 167.838 13.4935 167.02 13.4935Z" fill="white"/>
<path d="M188.288 22.071H136.786C136.288 22.071 135.882 21.6654 135.882 21.169C135.882 20.6726 136.288 20.2669 136.786 20.2669H188.288C188.785 20.2669 189.192 20.6726 189.192 21.169C189.192 21.6654 188.785 22.071 188.288 22.071Z" fill="#D2E6FF"/>
<path d="M188.288 27.0724H136.786C136.288 27.0724 135.882 26.6667 135.882 26.1703C135.882 25.6739 136.288 25.2683 136.786 25.2683H188.288C188.785 25.2683 189.192 25.6739 189.192 26.1703C189.192 26.6667 188.785 27.0724 188.288 27.0724Z" fill="#D2E6FF"/>
<path d="M177.055 32.41H136.791C136.294 32.41 135.887 32.0043 135.887 31.5079C135.887 31.0115 136.294 30.6059 136.791 30.6059H177.055C177.552 30.6059 177.959 31.0115 177.959 31.5079C177.959 32.0043 177.552 32.41 177.055 32.41Z" fill="#D2E6FF"/>
<path d="M187.881 13.4935H173.733C172.92 13.4935 172.256 12.8316 172.256 12.0203C172.256 11.209 172.92 10.5471 173.733 10.5471H187.881C188.694 10.5471 189.358 11.2036 189.358 12.0203C189.358 12.8316 188.694 13.4935 187.881 13.4935Z" fill="white"/>
<path d="M152.218 65.5032H136.155C135.564 65.5032 135.085 65.9811 135.085 66.5707V77.5235C135.085 78.1131 135.564 78.591 136.155 78.591H152.218C152.809 78.591 153.288 78.1131 153.288 77.5235V66.5707C153.288 65.9811 152.809 65.5032 152.218 65.5032Z" fill="white"/>
<path d="M144.302 74.006C144.211 74.006 144.12 73.974 144.045 73.9152L135.299 66.7095C135.128 66.5707 135.107 66.3145 135.246 66.1437C135.39 65.9729 135.641 65.9515 135.813 66.0903L144.296 73.0826L152.561 65.9088C152.727 65.7647 152.984 65.7807 153.128 65.9462C153.272 66.1117 153.256 66.3679 153.091 66.512L144.569 73.9099C144.494 73.974 144.398 74.006 144.307 74.006H144.302Z" fill="#6F7FA9"/>
<path d="M135.555 78.2921C135.454 78.2921 135.358 78.2547 135.277 78.18C135.117 78.0252 135.112 77.7743 135.261 77.6142L141.375 71.1984C141.525 71.0383 141.782 71.0329 141.942 71.1824C142.103 71.3372 142.108 71.5881 141.958 71.7482L135.844 78.164C135.764 78.2441 135.662 78.2868 135.555 78.2868V78.2921Z" fill="#6F7FA9"/>
<path d="M152.823 78.0572C152.721 78.0572 152.619 78.0199 152.539 77.9398L146.446 71.8443C146.291 71.6895 146.291 71.4333 146.446 71.2785C146.602 71.1237 146.858 71.1237 147.013 71.2785L153.106 77.374C153.261 77.5288 153.261 77.785 153.106 77.9398C153.026 78.0199 152.924 78.0572 152.823 78.0572Z" fill="#6F7FA9"/>
<path d="M154.128 70.4565C157.091 70.4565 159.493 68.0596 159.493 65.1029C159.493 62.1461 157.091 59.7492 154.128 59.7492C151.165 59.7492 148.763 62.1461 148.763 65.1029C148.763 68.0596 151.165 70.4565 154.128 70.4565Z" fill="#FF5F42"/>
<path d="M154.989 68.6955L154.965 68.4195C155.269 68.5555 155.533 68.7315 155.757 68.9475C155.981 69.1635 156.153 69.3995 156.273 69.6555C156.393 69.9115 156.453 70.1755 156.453 70.4475C156.453 70.9035 156.325 71.3235 156.069 71.7075C155.821 72.0835 155.485 72.3875 155.061 72.6195C154.637 72.8435 154.165 72.9555 153.645 72.9555C153.125 72.9555 152.653 72.8435 152.229 72.6195C151.805 72.3875 151.465 72.0835 151.209 71.7075C150.961 71.3235 150.837 70.9035 150.837 70.4475C150.837 70.0795 150.913 69.7635 151.065 69.4995C151.225 69.2275 151.421 68.9995 151.653 68.8155C151.893 68.6315 152.129 68.4795 152.361 68.3595L152.265 68.6955C152.065 68.6155 151.869 68.5035 151.677 68.3595C151.493 68.2075 151.341 68.0155 151.221 67.7835C151.101 67.5515 151.041 67.2795 151.041 66.9675C151.041 66.5195 151.157 66.1155 151.389 65.7555C151.621 65.3875 151.933 65.0955 152.325 64.8795C152.725 64.6635 153.165 64.5555 153.645 64.5555C154.133 64.5555 154.569 64.6635 154.953 64.8795C155.345 65.0955 155.657 65.3875 155.889 65.7555C156.121 66.1155 156.237 66.5195 156.237 66.9675C156.237 67.3115 156.169 67.5995 156.033 67.8315C155.897 68.0635 155.733 68.2475 155.541 68.3835C155.349 68.5195 155.165 68.6235 154.989 68.6955ZM152.481 66.9915C152.481 67.2075 152.529 67.3995 152.625 67.5675C152.729 67.7355 152.869 67.8715 153.045 67.9755C153.221 68.0715 153.421 68.1195 153.645 68.1195C153.869 68.1195 154.065 68.0715 154.233 67.9755C154.409 67.8715 154.545 67.7355 154.641 67.5675C154.745 67.3995 154.797 67.2075 154.797 66.9915C154.797 66.6715 154.685 66.4075 154.461 66.1995C154.245 65.9835 153.973 65.8755 153.645 65.8755C153.309 65.8755 153.029 65.9835 152.805 66.1995C152.589 66.4075 152.481 66.6715 152.481 66.9915ZM153.645 71.6355C154.029 71.6355 154.353 71.5195 154.617 71.2875C154.881 71.0475 155.013 70.7595 155.013 70.4235C155.013 70.1915 154.953 69.9835 154.833 69.7995C154.713 69.6155 154.549 69.4715 154.341 69.3675C154.133 69.2555 153.901 69.1995 153.645 69.1995C153.389 69.1995 153.157 69.2555 152.949 69.3675C152.741 69.4715 152.577 69.6155 152.457 69.7995C152.337 69.9835 152.277 70.1915 152.277 70.4235C152.277 70.7595 152.409 71.0475 152.673 71.2875C152.937 71.5195 153.261 71.6355 153.645 71.6355ZM153.249 88.0755C152.953 88.0755 152.637 88.0315 152.301 87.9435C151.965 87.8475 151.689 87.7115 151.473 87.5355C151.369 87.4475 151.285 87.3355 151.221 87.1995C151.165 87.0555 151.137 86.9195 151.137 86.7915C151.137 86.6555 151.193 86.5275 151.305 86.4075C151.425 86.2875 151.593 86.2275 151.809 86.2275C151.953 86.2275 152.133 86.3035 152.349 86.4555C152.477 86.5355 152.617 86.6075 152.769 86.6715C152.921 86.7355 153.077 86.7675 153.237 86.7675C153.621 86.7675 153.953 86.6995 154.233 86.5635C154.513 86.4195 154.729 86.2235 154.881 85.9755C155.033 85.7275 155.109 85.4355 155.109 85.0995C155.109 84.7955 155.037 84.5355 154.893 84.3195C154.757 84.1035 154.573 83.9355 154.341 83.8155C154.117 83.6955 153.873 83.6355 153.609 83.6355C153.361 83.6355 153.145 83.6755 152.961 83.7555C152.777 83.8355 152.609 83.9195 152.457 84.0075C152.305 84.0875 152.153 84.1275 152.001 84.1275C151.737 84.1275 151.541 84.0715 151.413 83.9595C151.285 83.8395 151.205 83.6995 151.173 83.5395C151.141 83.3795 151.133 83.2355 151.149 83.1075L151.521 80.1915C151.553 80.0235 151.633 79.8875 151.761 79.7835C151.897 79.6715 152.057 79.6155 152.241 79.6155H155.709C155.901 79.6155 156.061 79.6795 156.189 79.8075C156.317 79.9355 156.381 80.0955 156.381 80.2875C156.381 80.4715 156.317 80.6275 156.189 80.7555C156.061 80.8755 155.901 80.9355 155.709 80.9355H152.613L152.745 80.8275L152.421 83.2635L152.265 82.8075C152.313 82.7275 152.417 82.6515 152.577 82.5795C152.737 82.5075 152.921 82.4475 153.129 82.3995C153.337 82.3435 153.541 82.3155 153.741 82.3155C154.277 82.3155 154.757 82.4395 155.181 82.6875C155.605 82.9275 155.937 83.2595 156.177 83.6835C156.425 84.0995 156.549 84.5715 156.549 85.0995C156.549 85.6995 156.413 86.2235 156.141 86.6715C155.869 87.1195 155.485 87.4675 154.989 87.7155C154.501 87.9555 153.921 88.0755 153.249 88.0755Z" fill="white"/>
<path d="M208.037 53.9633H176.68C175.498 53.9633 174.541 54.9192 174.541 56.0983V60.9929C174.541 62.172 175.498 63.1279 176.68 63.1279H208.037C209.219 63.1279 210.177 62.172 210.177 60.9929V56.0983C210.177 54.9192 209.219 53.9633 208.037 53.9633Z" fill="#223A7A"/>
<path d="M178.943 60.9502C178.804 60.9502 178.691 60.9022 178.606 60.8007C178.52 60.6993 178.483 60.5766 178.493 60.4271L178.627 59.2422C178.638 59.2101 178.627 59.1941 178.611 59.1834C178.59 59.1728 178.568 59.1834 178.536 59.1995L177.557 59.904C177.434 59.9948 177.311 60.0268 177.183 60.0001C177.054 59.9734 176.947 59.8987 176.867 59.7652C176.776 59.6051 176.76 59.4663 176.814 59.3436C176.867 59.2208 176.964 59.1407 177.092 59.0874L178.189 58.591C178.221 58.5803 178.231 58.5643 178.231 58.5483C178.231 58.5323 178.215 58.5109 178.189 58.5056L177.092 58.0092C176.953 57.9505 176.862 57.8544 176.819 57.7263C176.782 57.5982 176.792 57.4647 176.862 57.3366C176.942 57.2085 177.049 57.1285 177.178 57.1018C177.306 57.0751 177.434 57.1018 177.552 57.1818L178.531 57.9024C178.563 57.9238 178.584 57.9291 178.606 57.9184C178.627 57.9078 178.632 57.8864 178.622 57.8597L178.488 56.6748C178.477 56.5253 178.52 56.3972 178.611 56.3011C178.702 56.1997 178.82 56.1517 178.975 56.1517C179.114 56.1517 179.232 56.1997 179.323 56.3011C179.413 56.4025 179.446 56.5253 179.43 56.6748L179.296 57.8597C179.285 57.8917 179.296 57.9078 179.312 57.9184C179.333 57.9291 179.355 57.9184 179.387 57.9024L180.366 57.1979C180.483 57.1071 180.612 57.0751 180.751 57.1018C180.885 57.1285 180.986 57.2032 181.061 57.3366C181.152 57.4968 181.168 57.6355 181.115 57.7583C181.061 57.8757 180.965 57.9611 180.836 58.0145L179.74 58.5109C179.708 58.5216 179.697 58.5376 179.697 58.5536C179.697 58.5696 179.713 58.591 179.74 58.5963L180.836 59.0927C180.975 59.1514 181.072 59.2475 181.115 59.3756C181.157 59.5037 181.141 59.6371 181.061 59.7652C180.991 59.8933 180.89 59.9734 180.751 60.0001C180.617 60.0268 180.489 60.0001 180.366 59.92L179.387 59.1995C179.355 59.1781 179.333 59.1728 179.312 59.1834C179.29 59.1941 179.285 59.2155 179.296 59.2422L179.43 60.4271C179.451 60.5766 179.413 60.7047 179.317 60.8007C179.221 60.9022 179.098 60.9502 178.948 60.9502H178.943Z" fill="white"/>
<path d="M185.432 60.9502C185.292 60.9502 185.18 60.9022 185.095 60.8007C185.009 60.6993 184.971 60.5766 184.982 60.4271L185.116 59.2422C185.127 59.2101 185.116 59.1941 185.1 59.1834C185.078 59.1728 185.057 59.1834 185.025 59.1995L184.046 59.904C183.923 59.9948 183.8 60.0268 183.672 60.0001C183.543 59.9734 183.436 59.8987 183.356 59.7652C183.265 59.6051 183.249 59.4663 183.303 59.3436C183.356 59.2208 183.452 59.1407 183.581 59.0874L184.677 58.591C184.709 58.5803 184.72 58.5643 184.72 58.5483C184.72 58.5323 184.704 58.5109 184.677 58.5056L183.581 58.0092C183.442 57.9505 183.351 57.8544 183.308 57.7263C183.27 57.5982 183.281 57.4647 183.351 57.3366C183.431 57.2085 183.538 57.1285 183.666 57.1018C183.795 57.0751 183.923 57.1018 184.041 57.1818L185.02 57.9024C185.052 57.9238 185.073 57.9291 185.095 57.9184C185.116 57.9078 185.121 57.8864 185.111 57.8597L184.977 56.6748C184.966 56.5253 185.009 56.3972 185.1 56.3011C185.191 56.1997 185.308 56.1517 185.464 56.1517C185.603 56.1517 185.72 56.1997 185.811 56.3011C185.902 56.4025 185.934 56.5253 185.918 56.6748L185.785 57.8597C185.774 57.8917 185.779 57.9078 185.801 57.9184C185.822 57.9291 185.843 57.9184 185.875 57.9024L186.854 57.1979C186.972 57.1071 187.1 57.0751 187.24 57.1018C187.373 57.1285 187.475 57.2032 187.55 57.3366C187.641 57.4968 187.657 57.6355 187.603 57.7583C187.55 57.8757 187.454 57.9611 187.325 58.0145L186.229 58.5109C186.196 58.5216 186.186 58.5376 186.186 58.5536C186.186 58.5696 186.202 58.591 186.229 58.5963L187.325 59.0927C187.464 59.1514 187.561 59.2475 187.603 59.3756C187.646 59.5037 187.63 59.6371 187.55 59.7652C187.48 59.8933 187.379 59.9734 187.24 60.0001C187.106 60.0268 186.977 60.0001 186.854 59.92L185.875 59.1995C185.843 59.1781 185.822 59.1728 185.801 59.1834C185.779 59.1941 185.774 59.2155 185.785 59.2422L185.918 60.4271C185.94 60.5766 185.902 60.7047 185.806 60.8007C185.71 60.9022 185.587 60.9502 185.437 60.9502H185.432Z" fill="white"/>
<path d="M191.915 60.9502C191.776 60.9502 191.664 60.9022 191.578 60.8007C191.492 60.6993 191.455 60.5766 191.466 60.4271L191.599 59.2422C191.61 59.2101 191.599 59.1941 191.583 59.1834C191.562 59.1728 191.54 59.1834 191.508 59.1995L190.529 59.904C190.406 59.9948 190.283 60.0268 190.155 60.0001C190.027 59.9734 189.92 59.8987 189.839 59.7652C189.748 59.6051 189.732 59.4663 189.786 59.3436C189.839 59.2208 189.936 59.1407 190.064 59.0874L191.161 58.591C191.193 58.5803 191.203 58.5643 191.203 58.5483C191.203 58.5323 191.187 58.5109 191.161 58.5056L190.064 58.0092C189.925 57.9505 189.834 57.8544 189.791 57.7263C189.754 57.5982 189.765 57.4647 189.834 57.3366C189.914 57.2085 190.021 57.1285 190.15 57.1018C190.278 57.0751 190.406 57.1018 190.524 57.1818L191.503 57.9024C191.535 57.9238 191.557 57.9291 191.578 57.9184C191.599 57.9078 191.605 57.8864 191.594 57.8597L191.46 56.6748C191.45 56.5253 191.492 56.3972 191.583 56.3011C191.674 56.1997 191.792 56.1517 191.947 56.1517C192.086 56.1517 192.204 56.1997 192.295 56.3011C192.386 56.4025 192.418 56.5253 192.402 56.6748L192.268 57.8597C192.257 57.8917 192.263 57.9078 192.284 57.9184C192.305 57.9291 192.327 57.9184 192.359 57.9024L193.338 57.1979C193.455 57.1071 193.584 57.0751 193.723 57.1018C193.857 57.1285 193.958 57.2032 194.033 57.3366C194.124 57.4968 194.14 57.6355 194.087 57.7583C194.033 57.8757 193.937 57.9611 193.809 58.0145L192.712 58.5109C192.68 58.5216 192.669 58.5376 192.669 58.5536C192.669 58.5696 192.685 58.591 192.712 58.5963L193.809 59.0927C193.948 59.1514 194.044 59.2475 194.087 59.3756C194.129 59.5037 194.113 59.6371 194.033 59.7652C193.964 59.8933 193.862 59.9734 193.723 60.0001C193.589 60.0268 193.461 60.0001 193.338 59.92L192.359 59.1995C192.327 59.1781 192.305 59.1728 192.284 59.1834C192.263 59.1941 192.257 59.2155 192.268 59.2422L192.402 60.4271C192.423 60.5766 192.386 60.7047 192.289 60.8007C192.193 60.9022 192.07 60.9502 191.92 60.9502H191.915Z" fill="white"/>
<path d="M198.403 60.9502C198.264 60.9502 198.152 60.9022 198.066 60.8007C197.981 60.6993 197.943 60.5766 197.954 60.4271L198.088 59.2422C198.098 59.2101 198.088 59.1941 198.072 59.1834C198.05 59.1728 198.029 59.1834 197.997 59.1995L197.018 59.904C196.895 59.9948 196.772 60.0268 196.643 60.0001C196.515 59.9734 196.408 59.8987 196.328 59.7652C196.237 59.6051 196.221 59.4663 196.274 59.3436C196.328 59.2208 196.424 59.1407 196.552 59.0874L197.649 58.591C197.681 58.5803 197.692 58.5643 197.692 58.5483C197.692 58.5323 197.676 58.5109 197.649 58.5056L196.552 58.0092C196.413 57.9505 196.322 57.8544 196.28 57.7263C196.242 57.5982 196.253 57.4647 196.322 57.3366C196.403 57.2085 196.51 57.1285 196.638 57.1018C196.766 57.0751 196.895 57.1018 197.012 57.1818L197.991 57.9024C198.023 57.9238 198.045 57.9291 198.066 57.9184C198.088 57.9078 198.093 57.8864 198.082 57.8597L197.949 56.6748C197.938 56.5253 197.981 56.3972 198.072 56.3011C198.162 56.1997 198.28 56.1517 198.435 56.1517C198.574 56.1517 198.692 56.1997 198.783 56.3011C198.874 56.4025 198.906 56.5253 198.89 56.6748L198.756 57.8597C198.746 57.8917 198.751 57.9078 198.772 57.9184C198.794 57.9291 198.815 57.9184 198.847 57.9024L199.826 57.1979C199.944 57.1071 200.072 57.0751 200.211 57.1018C200.345 57.1285 200.447 57.2032 200.521 57.3366C200.612 57.4968 200.628 57.6355 200.575 57.7583C200.521 57.8757 200.425 57.9611 200.297 58.0145L199.2 58.5109C199.168 58.5216 199.157 58.5376 199.157 58.5536C199.157 58.5696 199.173 58.591 199.2 58.5963L200.297 59.0927C200.436 59.1514 200.532 59.2475 200.575 59.3756C200.618 59.5037 200.602 59.6371 200.521 59.7652C200.452 59.8933 200.35 59.9734 200.211 60.0001C200.077 60.0268 199.949 60.0001 199.826 59.92L198.847 59.1995C198.815 59.1781 198.794 59.1728 198.772 59.1834C198.751 59.1941 198.746 59.2155 198.756 59.2422L198.89 60.4271C198.911 60.5766 198.874 60.7047 198.778 60.8007C198.681 60.9022 198.558 60.9502 198.409 60.9502H198.403Z" fill="white"/>
<path d="M204.887 60.9502C204.748 60.9502 204.635 60.9022 204.55 60.8007C204.464 60.6993 204.427 60.5766 204.437 60.4271L204.571 59.2422C204.582 59.2101 204.571 59.1941 204.555 59.1834C204.534 59.1728 204.512 59.1834 204.48 59.1995L203.501 59.904C203.378 59.9948 203.255 60.0268 203.127 60.0001C202.998 59.9734 202.891 59.8987 202.811 59.7652C202.72 59.6051 202.704 59.4663 202.758 59.3436C202.811 59.2208 202.907 59.1407 203.036 59.0874L204.132 58.591C204.164 58.5803 204.175 58.5643 204.175 58.5483C204.175 58.5323 204.159 58.5109 204.132 58.5056L203.036 58.0092C202.897 57.9505 202.806 57.8544 202.763 57.7263C202.726 57.5982 202.736 57.4647 202.806 57.3366C202.886 57.2085 202.993 57.1285 203.121 57.1018C203.25 57.0751 203.378 57.1018 203.496 57.1818L204.475 57.9024C204.507 57.9238 204.528 57.9291 204.55 57.9184C204.571 57.9078 204.576 57.8864 204.566 57.8597L204.432 56.6748C204.421 56.5253 204.464 56.3972 204.555 56.3011C204.646 56.1997 204.764 56.1517 204.919 56.1517C205.058 56.1517 205.175 56.1997 205.266 56.3011C205.357 56.4025 205.389 56.5253 205.373 56.6748L205.24 57.8597C205.229 57.8917 205.234 57.9078 205.256 57.9184C205.277 57.9291 205.298 57.9184 205.331 57.9024L206.309 57.1979C206.427 57.1071 206.556 57.0751 206.695 57.1018C206.828 57.1285 206.93 57.2032 207.005 57.3366C207.096 57.4968 207.112 57.6355 207.058 57.7583C207.005 57.8757 206.909 57.9611 206.78 58.0145L205.684 58.5109C205.652 58.5216 205.641 58.5376 205.641 58.5536C205.641 58.5696 205.657 58.591 205.684 58.5963L206.78 59.0927C206.919 59.1514 207.016 59.2475 207.058 59.3756C207.101 59.5037 207.085 59.6371 207.005 59.7652C206.935 59.8933 206.834 59.9734 206.695 60.0001C206.561 60.0268 206.433 60.0001 206.309 59.92L205.331 59.1995C205.298 59.1781 205.277 59.1728 205.256 59.1834C205.234 59.1941 205.229 59.2155 205.24 59.2422L205.373 60.4271C205.395 60.5766 205.357 60.7047 205.261 60.8007C205.165 60.9022 205.042 60.9502 204.892 60.9502H204.887Z" fill="#67ACFF"/>
</svg>
