<svg width="367" height="77" viewBox="0 0 367 77" fill="none" xmlns="http://www.w3.org/2000/svg">
<path d="M78.4717 0C78.4602 3.84428 78.4487 7.67712 78.4258 11.5214C78.4258 11.899 78.4258 12.2765 78.4258 12.7227H72.0378V8.23774C71.716 8.51233 71.5207 8.66107 71.3484 8.82125C67.1548 12.9744 62.9498 17.1276 58.7792 21.3152C58.492 21.6012 58.2277 22.0588 58.2277 22.4478C58.2048 32.848 58.2048 43.2596 58.2048 53.6597C58.2048 53.7169 58.2277 53.7856 58.2622 53.9801C58.515 53.7856 58.7447 53.6483 58.9286 53.4767C60.7439 51.852 62.5592 50.2045 64.3859 48.6027C64.6732 48.351 65.0983 48.0993 65.4544 48.0878C69.6365 48.0535 73.8301 48.0649 78.0121 48.0764C78.1385 48.0764 78.2534 48.1107 78.4372 48.145V60.7877H50.4955C51.8857 59.552 53.1265 58.3735 54.4593 57.2866C55.1946 56.6802 55.4703 56.0395 55.4588 55.0899C55.4244 44.8156 55.4359 34.5413 55.4359 24.267V23.0428C55.0222 23.0199 54.6776 22.997 54.3329 22.997C43.8088 22.997 33.2732 22.997 22.7491 22.9856C22.0712 22.9856 21.6231 23.1801 21.1751 23.6835C19.8423 25.2052 18.4751 26.6926 17.0964 28.1685C16.8551 28.4202 16.4645 28.6719 16.1428 28.6719C11.1565 28.6948 6.15867 28.6834 1.17235 28.6719C1.11491 28.6719 1.04597 28.6376 0.988525 28.6262C1.00001 24.3929 1.00001 20.171 1.00001 15.9492H28.0456C26.7014 17.4366 25.518 18.7409 24.2427 20.1596C24.5873 20.1939 24.7137 20.2168 24.8401 20.2168C35.0425 20.2168 45.2449 20.2168 55.4473 20.1939C55.8265 20.1939 56.2975 19.9422 56.5848 19.6562C59.9511 16.3039 63.283 12.9287 66.6263 9.55349C67.6029 8.56954 68.568 7.5627 69.671 6.44146C69.3033 6.41857 69.154 6.39569 68.9931 6.39569C58.469 6.39569 47.9449 6.39569 37.4208 6.41857C37.0416 6.41857 36.5706 6.67028 36.2948 6.95631C34.6864 8.66107 33.1123 10.3887 31.5613 12.1507C31.1477 12.6198 30.7111 12.8143 30.0792 12.8143C20.8074 12.7914 11.5356 12.8028 2.26383 12.8028H1.19533V0H78.4717Z" fill="black"/>
<path d="M1 48.0192C1.41361 48.0306 1.83871 48.0649 2.25232 48.0649C14.9019 48.0649 27.5401 48.0649 40.1897 48.0649C40.6033 48.0649 41.0169 48.0649 41.5109 48.0649V60.8563H40.385C27.6779 60.8563 14.9709 60.8563 2.26381 60.8563C1.8502 60.8563 1.4251 60.8792 1.01149 60.8792C1.01149 56.5887 1.01149 52.2982 1.01149 48.0077L1 48.0192Z" fill="black"/>
<path d="M0.999893 32.0814C4.73388 32.0929 8.46787 32.1157 12.1904 32.1272C12.5351 32.1272 12.8797 32.1272 13.5001 32.1272C12.0525 33.7175 10.7657 35.1362 9.31807 36.738H41.5108V44.9071C41.0972 44.9071 40.6951 44.9071 40.2815 44.9071C27.5974 44.9071 14.9248 44.9071 2.24073 44.9071C1.82712 44.9071 1.40201 44.93 0.988403 44.9529C0.988403 40.6624 0.988403 36.3719 0.988403 32.0814H0.999893Z" fill="black"/>
<path d="M1.21826 77V64.3459H41.5454V68.7394C42.5564 67.847 43.4641 67.1948 44.1764 66.371C45.6815 64.6091 47.4968 64.1972 49.7831 64.2201C58.8941 64.3459 67.9935 64.2773 77.1044 64.2773H78.3682V77H1.21826Z" fill="black"/>
<path d="M245.961 60.8678C242.652 60.8678 239.435 60.8792 236.218 60.8334C235.977 60.8334 235.598 60.4444 235.506 60.1698C234.541 57.1493 233.61 54.1288 232.726 51.0854C232.53 50.399 232.209 50.2045 231.519 50.2159C226.659 50.2388 221.799 50.2502 216.939 50.2159C216.262 50.2159 215.997 50.4333 215.814 51.0626C214.929 54.0716 214.01 57.0693 213.068 60.0554C212.964 60.3758 212.597 60.8334 212.344 60.8334C209.127 60.8906 205.91 60.8678 202.589 60.8678C202.704 60.4673 202.773 60.1355 202.888 59.8152C207.932 45.5479 212.987 31.292 218.019 17.0247C218.272 16.3268 218.559 16.0293 219.364 16.0407C222.673 16.0979 225.993 16.075 229.302 16.0522C229.876 16.0522 230.141 16.2238 230.336 16.773C235.46 31.2462 240.607 45.708 245.743 60.1698C245.8 60.3415 245.846 60.536 245.938 60.8678H245.961ZM218.548 42.207H230.141C228.176 35.9028 226.234 29.6673 224.27 23.3632C222.351 29.7016 220.455 35.9372 218.548 42.207Z" fill="black"/>
<path d="M346.182 32.1729C347.193 30.4682 348.158 28.8435 349.111 27.2189C351.145 23.775 353.178 20.3197 355.247 16.8874C355.442 16.567 355.89 16.2009 356.223 16.1894C359.314 16.1322 362.404 16.1551 365.495 16.1666C365.587 16.1666 365.667 16.2123 365.874 16.2581C365.61 16.7043 365.369 17.1047 365.116 17.4937C360.865 24.1755 356.625 30.8572 352.351 37.516C351.961 38.1224 351.961 38.5114 352.351 39.1064C356.993 45.9483 361.612 52.8131 366.242 59.6664C366.471 59.9982 366.69 60.3414 367 60.8105C366.575 60.8334 366.311 60.8563 366.035 60.8563C363.013 60.8563 359.98 60.8334 356.958 60.8792C356.327 60.8792 355.982 60.6847 355.66 60.1584C352.593 55.1585 349.502 50.1816 346.423 45.1931C346.205 44.8499 345.986 44.5067 345.688 44.0376C345.446 44.4151 345.251 44.7012 345.079 44.9872C341.965 50.0328 338.828 55.067 335.738 60.1126C335.393 60.6732 335.026 60.8906 334.359 60.8792C331.315 60.8449 328.258 60.8677 325.018 60.8677C325.271 60.4559 325.444 60.1584 325.627 59.8838C330.223 52.7787 334.807 45.6737 339.426 38.5801C339.794 38.0195 339.805 37.6304 339.437 37.0584C335.163 30.4796 330.912 23.8666 326.661 17.2764C326.455 16.9674 326.259 16.6471 325.949 16.1666C326.604 16.1666 327.075 16.1666 327.535 16.1666C330.212 16.1666 332.877 16.1894 335.554 16.1551C336.255 16.1551 336.634 16.3496 337.002 16.956C339.851 21.7499 342.746 26.5095 345.619 31.292C345.779 31.5551 345.952 31.8183 346.193 32.1844L346.182 32.1729Z" fill="black"/>
<path d="M292.355 16.2123H318.136V23.9695H301.891V33.6603H317.01V41.4519H301.891V52.9847H318.148V60.7991H292.366V16.2123H292.355Z" fill="black"/>
<path d="M129.771 16.2238V23.9352H113.502V35.4681H128.622V43.1566H113.468V60.8106H104.058V16.2238H129.771Z" fill="black"/>
<path d="M282.233 16.2466V24.0382H270.089V60.8105H260.518V24.0839H248.339V16.2466H282.233Z" fill="black"/>
<path d="M158.678 16.2238C158.678 17.9171 158.701 19.5418 158.643 21.1664C158.643 21.4067 158.287 21.7271 158.011 21.8643C156.69 22.5165 155.346 23.1458 153.979 23.7064C153.335 23.9695 153.175 24.3471 153.175 24.9993C153.197 34.0265 153.197 43.0422 153.175 52.0694C153.175 52.6987 153.324 53.0419 153.933 53.2936C155.323 53.8657 156.69 54.5178 158.046 55.1814C158.31 55.3073 158.62 55.6505 158.632 55.9022C158.689 57.4926 158.655 59.0944 158.655 60.7762H138.181C138.181 59.1172 138.158 57.4583 138.204 55.8107C138.204 55.5933 138.537 55.2958 138.79 55.1814C140.146 54.5293 141.513 53.8886 142.903 53.2936C143.455 53.0648 143.673 52.7788 143.673 52.1609C143.65 43.0765 143.65 33.9921 143.673 24.8963C143.673 24.3128 143.524 23.981 142.949 23.7407C141.559 23.1572 140.18 22.5279 138.836 21.8415C138.526 21.6813 138.227 21.2008 138.216 20.8575C138.147 19.3358 138.181 17.8027 138.181 16.2123H158.655L158.678 16.2238Z" fill="black"/>
<path d="M169.478 16.2238H178.945V52.9847H197.132V60.8106H169.478V16.2238Z" fill="black"/>
<path d="M68.5909 44.8385C69.6135 43.9117 70.4752 43.0994 71.3828 42.3557C71.9113 41.9209 72.0722 41.4519 72.0722 40.7883C72.0377 37.9508 72.0607 35.1019 72.0607 32.1958H78.4372V44.8385H68.6024H68.5909Z" fill="black"/>
<path d="M72.1182 16.0293H78.4372V28.6834H72.1182V16.0293Z" fill="black"/>
</svg>
