<svg width="203" height="151" viewBox="0 0 203 151" fill="none" xmlns="http://www.w3.org/2000/svg">
<path d="M95.3533 0.142343C97.7883 -0.133906 100.223 0.0870938 102.603 0.0318439C104.485 -0.023406 106.368 -0.0234067 108.246 0.197593C112.564 0.750092 116.881 0.860594 121.143 1.41704C133.819 3.29948 146.215 7.11567 157.727 12.7078C169.901 19.0181 181.137 27.5384 189.44 38.5529C196.579 48.0164 201.062 59.4176 202.057 71.2056C201.946 74.1378 202.112 77.0187 201.891 79.9509C201.338 83.4947 201.394 87.1452 200.285 90.5786C199.121 94.233 197.905 97.8834 196.244 101.372C193.532 106.85 190.265 112 186.172 116.538C184.29 118.586 182.518 120.8 180.304 122.572C171.283 130.931 160.655 137.517 149.198 141.886C143.33 144.487 137.024 146.038 130.824 147.699C127.671 148.417 124.458 148.863 121.195 149.25C117.931 149.968 114.553 149.968 111.234 150.355C108.854 150.631 106.419 150.466 104.039 150.521C100.551 150.687 97.1213 150.521 93.6327 150.466C89.5363 150.024 85.3847 149.968 81.3475 149.136C76.5328 148.749 71.8287 147.474 67.1246 146.203C58.2135 143.768 49.5235 140.39 41.3899 135.911C30.2097 129.988 20.3042 121.633 12.7784 111.503C7.85325 104.805 4.03311 97.2796 2.04016 89.1973C0.102469 82.7212 -0.50528 75.9137 0.433969 69.2166C0.599718 66.1186 1.37322 63.1273 2.15066 60.1398C5.69455 46.1379 14.7674 34.1842 25.5608 24.9417C34.0299 17.8578 43.7696 12.546 53.9514 8.44956C62.2547 5.29637 70.8855 2.86143 79.7413 1.58674C84.8953 0.694844 90.152 0.694842 95.3533 0.142343ZM90.0967 5.95148C83.6206 6.44873 77.255 7.55767 70.9487 9.04942C64.2516 10.8214 57.5545 12.7591 51.3547 15.857C46.9268 17.6289 42.8856 20.1744 38.7379 22.5541C36.3583 24.105 34.0338 25.8178 31.7646 27.4792C29.4954 29.4169 27.2262 31.3546 24.957 33.2923C22.7431 35.893 20.1977 38.2174 18.2047 41.0391C15.6593 44.3028 13.2796 47.7915 11.7286 51.6668C9.90144 55.2107 8.52019 58.9164 7.63224 62.7918C6.693 66.391 5.8603 70.0966 6.02605 73.8615C5.69455 82.5515 7.96374 91.1863 11.8391 98.9332C13.8321 103.416 16.709 107.347 19.6412 111.218C20.8054 112.769 22.2972 113.985 23.5166 115.48C25.178 117.639 27.5025 119.19 29.4402 121.124C42.2818 131.862 58.0517 138.835 74.3268 142.431C79.6939 143.871 85.2308 144.424 90.7636 144.921C96.2965 145.584 101.889 145.197 107.477 145.308C119.32 144.81 131.053 142.596 142.233 138.776C147.655 136.673 153.137 134.625 158.117 131.692C162.987 129.147 167.47 126.049 171.788 122.671C174.72 120.015 177.932 117.69 180.422 114.589C182.913 111.822 185.403 109.056 187.34 105.899C189.278 102.58 191.326 99.2568 192.708 95.6063C196.137 87.1925 197.522 77.8395 196.252 68.818C195.202 60.4595 191.824 52.5469 187.34 45.4078C185.348 42.4756 183.299 39.5947 180.809 37.0493C172.451 27.9173 162.103 20.7229 150.757 15.7978C148.377 14.5784 145.887 13.6944 143.342 12.8104C132.493 8.65872 120.926 6.61053 109.359 5.89228C102.883 5.84098 96.5175 5.56473 90.0967 5.95148Z" fill="#E63746"/>
<path d="M93.751 35.7272C100.503 35.672 107.256 35.672 114.008 35.7272C115.504 38.1622 116.498 40.8181 117.994 43.1978C122.532 52.3851 127.126 61.5171 131.609 70.6491C124.746 70.7044 117.883 70.7596 111.021 70.6491C106.261 61.6828 102.11 52.3851 97.5159 43.3636C96.2964 40.8221 94.8007 38.3279 93.751 35.7272Z" fill="#E63746"/>
<path d="M118.653 35.672C125.682 35.7272 132.71 35.7272 139.684 35.672C141.069 35.672 142.506 35.5062 143.891 35.893C144.719 36.7217 144.996 37.9412 145.607 38.9357C147.711 42.811 149.428 46.9035 151.586 50.7236C153.745 55.3173 156.069 59.8556 158.339 64.394C159.333 66.387 160.387 68.2694 161.16 70.3729C152.691 70.3176 144.226 70.4281 135.757 70.3176C134.818 68.5457 134.151 66.608 133.101 64.8952C131.605 62.3498 130.556 59.5833 129.171 56.9274C126.017 50.6723 122.915 44.3659 119.762 38.1109C119.32 37.3887 118.989 36.5047 118.653 35.672Z" fill="#E63746"/>
<path d="M90.0966 5.95146C96.4621 5.50946 102.883 5.84096 109.245 5.78571C120.812 6.50396 132.379 8.55216 143.227 12.7038C145.717 13.5878 148.263 14.4757 150.643 15.6912C161.989 20.6164 172.336 27.8107 180.695 36.9427C183.185 39.4882 185.233 42.3651 187.226 45.3012C191.709 52.3851 195.083 60.3016 196.137 68.7114C197.467 77.7329 196.026 87.086 192.593 95.4997C191.208 99.1541 189.164 102.418 187.226 105.792C185.288 108.945 182.798 111.771 180.308 114.482C177.873 117.58 174.609 119.96 171.673 122.564C167.356 125.938 162.817 129.04 158.003 131.586C153.022 134.573 147.541 136.566 142.118 138.67C130.938 142.49 119.205 144.704 107.362 145.201C101.774 145.09 96.2372 145.477 90.6491 144.814C85.1162 144.317 79.5794 143.709 74.2122 142.324C57.9411 138.725 42.2225 131.752 29.3256 121.017C27.3879 119.08 25.0635 117.588 23.402 115.374C22.1826 113.878 20.6908 112.663 19.5266 111.112C16.6497 107.236 13.7136 103.31 11.7246 98.8266C7.79787 91.1271 5.58393 82.441 5.91543 73.751C5.74968 69.9861 6.57842 66.2804 7.52162 62.6813C8.46087 58.8059 9.84606 55.1002 11.618 51.5563C13.169 47.6809 15.5486 44.1962 18.0941 40.9286C20.0318 38.1069 22.5772 35.7825 24.8464 33.1818C27.1156 31.2441 29.3848 29.2511 31.654 27.3687C33.9784 25.7073 36.2476 23.9945 38.6273 22.4436C42.779 20.0639 46.8201 17.5184 51.244 15.7465C57.4439 12.6485 64.1962 10.7661 70.838 8.93891C77.2549 7.55766 83.6757 6.45266 90.0966 5.95146ZM90.5938 8.38641C88.8219 9.10465 87.3854 10.4346 85.9449 11.6501C86.1107 12.4236 86.6079 13.0905 87.1644 13.643C87.7169 13.0905 88.3286 12.5933 88.8811 12.0368C90.653 12.5341 91.8685 13.9193 93.0327 15.2453C90.3215 15.7978 87.5551 15.5215 84.8952 16.074C80.9093 16.8475 76.8129 17.0133 72.9415 18.1222C73.052 18.73 73.1625 19.2864 73.3282 19.8942C76.5919 19.3969 79.749 18.4537 83.068 18.3985C83.068 18.8405 83.1232 19.2825 83.1232 19.7284C83.952 19.8942 85.1162 19.7837 85.5582 20.7229C87.3854 23.5999 84.4532 27.862 81.075 27.1438C79.4688 27.0885 78.3086 24.8193 79.6898 23.7696C80.9093 22.9408 81.7933 24.5431 82.5668 25.2653C82.843 24.326 83.6165 23.1618 83.0088 22.2226C81.7341 20.9479 79.6898 20.6164 77.9732 21.0584C75.0962 21.6661 73.6005 25.5968 75.4277 27.9212C76.4775 29.1959 77.9732 30.0799 79.6346 30.3561C84.0072 31.1849 88.6009 28.3079 89.9269 24.1011C90.5899 22.0529 90.1479 19.8389 89.5401 17.7907C90.8148 17.625 92.0856 17.625 93.4155 17.6802C93.6365 22.2186 93.6918 26.8123 93.8575 31.4059C95.519 31.4059 97.1212 31.4611 98.7826 31.4059C98.8931 26.6465 98.6169 21.8871 98.8379 17.1277C101.936 16.6305 105.038 17.4592 108.136 17.3487C112.674 17.5145 117.212 17.9012 121.585 18.8997C121.585 19.6179 121.53 20.3401 121.53 21.0584C120.425 20.7821 119.316 20.3401 118.156 20.3401C116.936 20.4506 116.052 21.2794 115.058 21.9463C113.783 21.0071 112.623 19.7876 111.017 19.4561C108.471 18.8484 105.484 19.1246 103.601 21.1176C101.056 23.3868 101.222 27.8146 103.822 29.9733C105.87 31.8005 108.913 31.8558 111.348 30.7468C111.403 29.8076 111.459 28.9196 111.459 27.9804C110.519 28.2566 109.521 28.6986 108.526 28.6986C106.312 28.3119 105.373 25.21 106.81 23.5525C107.804 22.3883 109.742 21.6701 111.017 22.779C112.623 23.9432 112.402 26.0427 112.402 27.7594C113.897 27.9804 115.444 28.0356 116.995 27.9251C117.216 26.5399 116.995 24.8272 118.215 23.8288C119.265 22.9448 121.147 23.9393 121.147 25.3245C121.092 27.3726 120.76 29.4208 120.871 31.469C122.366 31.5243 123.858 31.469 125.354 31.3585C125.63 27.4279 126.127 23.5565 126.404 19.6258C127.232 19.7363 128.065 19.7916 128.894 19.9021C129.06 19.3496 129.225 18.7971 129.391 18.1854C128.562 17.8539 127.674 17.5776 126.79 17.4119C122.473 16.6384 118.1 16.0267 113.728 15.5847C108.968 14.9769 104.154 15.1427 99.3943 14.8664C99.5048 14.2587 99.6706 13.647 99.7811 13.0392C99.6153 12.8735 99.4496 12.7077 99.2838 12.542C98.7866 12.7077 98.2893 12.8182 97.7881 12.984C96.0714 11.879 94.6902 10.3833 93.084 9.1086C92.3658 8.61135 91.4818 7.99966 90.5938 8.38641ZM54.3972 37.9412C51.2993 38.8252 48.5289 40.5971 45.873 42.3691C41.3898 45.5775 38.1261 50.2816 36.3542 55.487C34.2507 60.1358 34.1955 65.3925 34.4717 70.4321C34.748 73.309 35.6912 76.1307 36.7409 78.8458C38.6786 83.3842 41.1688 87.7569 44.4878 91.4625C48.3631 95.7799 52.57 99.8211 57.3294 103.085C62.1993 106.127 67.3454 108.618 72.7165 110.721C75.041 111.716 77.4207 112.604 79.9109 112.88C78.5809 109.561 76.8682 106.459 75.3725 103.251C74.9305 102.146 73.8768 101.534 72.827 100.981C70.6131 99.8171 68.7859 98.1044 67.0692 96.3324C64.5237 93.4002 62.2546 90.0774 61.5916 86.2059C60.9286 83.6605 61.2601 80.9493 62.3651 78.5696C63.5292 75.3611 66.4062 73.0367 69.6146 72.0383C73.4348 70.8188 77.472 70.6531 81.4578 70.7083C90.2584 70.5978 99.0589 70.8188 107.8 70.5978C106.916 68.2181 105.586 66.0594 104.592 63.735C100.606 55.3765 96.4543 47.1324 92.3618 38.8291C91.8093 37.6649 91.2568 36.5047 90.5899 35.3997C85.5542 35.3444 80.5186 35.3997 75.479 35.3444C68.4031 35.7825 61.2601 36.0587 54.3972 37.9412ZM93.751 35.7272C94.8559 38.3279 96.2964 40.8181 97.4606 43.3635C102.054 52.4403 106.206 61.6828 110.965 70.6491C117.828 70.7596 124.691 70.7044 131.554 70.6491C127.071 61.4618 122.477 52.3298 117.939 43.1978C116.443 40.7629 115.448 38.1069 113.953 35.7272C107.196 35.672 100.444 35.672 93.751 35.7272ZM118.653 35.672C118.984 36.5007 119.316 37.3334 119.758 38.1622C122.911 44.4172 126.068 50.7236 129.166 56.9787C130.496 59.5794 131.546 62.4011 133.097 64.9465C134.147 66.6632 134.813 68.6009 135.753 70.3689C144.222 70.4242 152.687 70.3689 161.156 70.4242C160.438 68.376 159.329 66.4383 158.334 64.4453C156.065 59.907 153.741 55.3686 151.582 50.7749C149.368 46.9548 147.706 42.8624 145.603 38.987C145.051 37.9925 144.774 36.7178 143.886 35.9443C142.501 35.5575 141.12 35.7785 139.679 35.7233C132.714 35.7272 125.681 35.7272 118.653 35.672ZM78.4191 76.9594C78.9164 78.9524 79.97 80.7796 80.7435 82.6581C81.075 83.3763 81.3513 84.209 81.963 84.7615C85.2267 84.9273 88.5496 85.2035 91.8133 85.2588C96.2964 85.4798 100.89 88.0252 102.662 92.3426C103.656 94.7775 103.435 97.7097 101.999 99.9237C100.227 102.856 96.9633 104.628 93.6404 105.236C88.3838 106.12 83.0127 105.236 78.0323 103.629C79.0268 106.23 80.412 108.72 81.521 111.321C82.0735 112.26 82.405 113.756 83.7349 113.866C88.1628 114.585 92.5907 115.196 97.0738 115.196C100.728 114.975 104.434 114.975 108.088 114.147C114.675 112.817 121.593 110.382 125.855 104.849C129.008 100.973 129.675 95.551 128.345 90.8469C127.848 89.0197 126.739 87.3583 126.408 85.4798C127.347 85.4798 128.29 85.4798 129.229 85.535C130.559 87.749 131.554 90.1287 132.773 92.3979C136.372 99.8132 140.023 107.173 143.677 114.537C151.534 114.648 159.396 114.537 167.253 114.537C162.162 103.91 156.961 93.2858 151.645 82.7686C150.595 80.8309 149.763 78.7827 148.602 76.9002C137.035 76.7345 125.413 76.845 113.791 76.845C108.092 76.9555 102.39 76.5135 96.691 76.6792C90.5938 77.0699 84.5084 76.6832 78.4191 76.9594ZM77.0892 123.673C72.5508 125.556 71.4458 132.087 74.4885 135.737C75.9289 137.509 78.0876 138.614 80.3015 138.78C82.5155 139.001 85.1162 138.78 86.6671 137.008C87.8866 135.513 88.9363 133.579 88.7153 131.586C85.7831 130.978 82.847 130.481 79.8595 130.145C79.6385 131.029 79.4728 131.917 79.4728 132.801C81.2447 133.299 83.0719 133.409 84.8399 133.685C84.6742 134.404 84.3979 135.181 83.6205 135.513C81.9038 136.397 79.6898 136.065 78.1981 134.96C75.8737 133.188 75.8737 129.482 77.6456 127.324C79.086 125.607 81.742 125.552 83.6244 126.55C84.6189 126.992 84.9544 128.212 85.7279 128.875C86.7776 129.317 87.9418 129.372 89.1021 129.482C88.9916 128.377 88.7153 127.213 87.9379 126.329C85.5029 123.117 80.7988 122.399 77.0892 123.673ZM116.107 124.115C115.997 126.053 116.439 127.991 116.715 129.928C117.268 132.916 117.323 135.962 118.156 138.895C121.921 138.453 125.626 137.62 129.336 136.902C129.336 135.962 129.225 135.019 129.17 134.08C126.625 134.246 124.134 135.13 121.589 135.244L121.368 135.023C120.76 131.258 120.204 127.442 119.541 123.677C118.377 123.673 117.216 123.839 116.107 124.115ZM95.298 124.502C93.4708 128.543 91.8685 132.695 90.0413 136.677C89.6546 137.561 89.3231 138.504 89.1573 139.443C90.3768 139.498 91.537 139.498 92.7565 139.443C93.1985 138.449 93.6405 137.505 94.0864 136.511C96.0241 136.456 97.9618 136.511 99.8995 136.677C100.341 137.616 100.783 138.614 101.174 139.554C102.394 139.775 103.664 139.775 104.884 139.664C104.497 138.168 103.945 136.787 103.333 135.347C101.837 131.748 100.566 128.097 98.905 124.553C97.7881 124.447 96.5726 124.447 95.298 124.502ZM107.863 124.833C108.029 129.814 107.808 134.85 108.526 139.779C109.631 139.779 110.74 139.779 111.79 139.779C112.066 137.454 111.79 135.13 111.79 132.861C111.68 130.205 111.735 127.549 111.624 124.893C110.409 124.668 109.134 124.668 107.863 124.833Z" fill="#FFD94F"/>
<path d="M95.1323 133.8C95.6296 132.028 96.3518 130.37 97.2358 128.764C97.954 130.426 98.6762 132.083 99.1735 133.855C97.8435 133.91 96.5175 133.855 95.1323 133.8Z" fill="#FFD94F"/>
<path d="M90.5938 8.38642C91.4778 7.99967 92.3657 8.60742 93.084 9.10467C94.6901 10.3241 96.0714 11.8159 97.7881 12.9801C98.2853 12.8143 98.7826 12.7038 99.2838 12.5381C99.4495 12.7038 99.6153 12.8696 99.781 13.0353C99.6705 13.6431 99.5048 14.2548 99.3943 14.8625C104.154 15.1388 108.968 14.973 113.728 15.5808C118.1 16.078 122.473 16.6857 126.79 17.4079C127.674 17.5737 128.562 17.8499 129.391 18.1814C129.225 18.7339 129.06 19.2864 128.894 19.8981C128.065 19.7876 127.232 19.7324 126.404 19.6219C126.127 23.5525 125.575 27.424 125.354 31.3546C123.858 31.4651 122.366 31.4651 120.871 31.4651C120.76 29.4169 121.092 27.3687 121.147 25.3205C121.202 23.9353 119.32 22.9408 118.215 23.8248C116.995 24.8193 117.22 26.536 116.995 27.9212C115.444 28.0317 113.897 27.9765 112.402 27.7555C112.402 26.0388 112.623 23.8801 111.016 22.7751C109.742 21.6109 107.808 22.3883 106.81 23.5486C105.369 25.21 106.312 28.2527 108.526 28.6947C109.521 28.6947 110.519 28.2527 111.458 27.9765C111.458 28.9157 111.403 29.8037 111.348 30.7429C108.913 31.8479 105.87 31.7927 103.822 29.9694C101.221 27.8107 101.056 23.3828 103.601 21.1136C105.484 19.1207 108.471 18.8444 111.016 19.4522C112.623 19.7837 113.783 21.0031 115.058 21.9424C115.997 21.2794 116.94 20.4467 118.156 20.3362C119.32 20.3362 120.425 20.7229 121.53 21.0544C121.53 20.3362 121.585 19.614 121.585 18.8957C117.157 17.9012 112.619 17.5106 108.136 17.3448C105.038 17.4553 101.936 16.6266 98.8378 17.1238C98.6168 21.8832 98.8931 26.6426 98.7826 31.402C97.1211 31.4572 95.5189 31.402 93.8574 31.402C93.7469 26.8083 93.6917 22.2699 93.4155 17.6763C92.1408 17.6211 90.8148 17.621 89.5401 17.7868C90.0926 19.835 90.5898 21.9937 89.9268 24.0971C88.5969 28.304 84.0032 31.181 79.6345 30.3522C78.0283 30.076 76.4813 29.188 75.4277 27.9173C73.6005 25.5928 75.0962 21.6622 77.9731 21.0544C79.6898 20.6677 81.738 20.9439 83.0087 22.2186C83.6165 23.2131 82.843 24.3221 82.5667 25.2613C81.738 24.5983 80.9053 22.9369 79.6898 23.7656C78.3046 24.8706 79.524 27.1398 81.075 27.1398C84.4492 27.8581 87.3301 23.5959 85.5581 20.719C85.1161 19.7797 83.9519 19.8902 83.1232 19.7245C83.1232 19.2825 83.0679 18.8405 83.0679 18.3945C79.749 18.505 76.5918 19.389 73.3282 19.8902C73.2177 19.2825 73.1072 18.7261 72.9414 18.1183C76.872 17.0133 80.9092 16.8436 84.8951 16.0701C87.6063 15.5176 90.3728 15.7939 93.0326 15.2414C91.8685 13.9114 90.653 12.4749 88.881 12.0329C88.3285 12.5854 87.7168 13.0827 87.1643 13.6391C86.6118 13.0866 86.1146 12.4197 85.9449 11.6462C87.4406 10.4899 88.8218 9.16387 90.5938 8.38642Z" fill="#232425"/>
<path d="M54.3972 37.9412C61.26 36.0587 68.3991 35.7825 75.4829 35.3957C80.5186 35.451 85.5542 35.3405 90.5938 35.451C91.312 36.556 91.8685 37.7202 92.3657 38.8804C96.4069 47.1837 100.614 55.4278 104.596 63.7863C105.645 66.1107 106.975 68.2694 107.804 70.6491C99.0036 70.8701 90.2031 70.6491 81.4618 70.7596C77.4759 70.6491 73.4387 70.8149 69.6185 72.0896C66.4101 73.0841 63.5845 75.4638 62.369 78.6209C61.264 81.0006 60.9838 83.7118 61.5955 86.2572C62.2585 90.1326 64.5277 93.5068 67.0731 96.3837C68.7898 98.1557 70.617 99.8724 72.8309 101.033C73.8254 101.585 74.9344 102.197 75.3764 103.302C76.8721 106.51 78.5848 109.612 79.9148 112.931C77.3693 112.655 75.0449 111.712 72.7204 110.772C67.3533 108.724 62.2032 106.234 57.3333 103.136C52.5739 99.8171 48.3671 95.776 44.4917 91.5139C41.1727 87.8042 38.6786 83.4316 36.7448 78.8971C35.6951 76.1859 34.8071 73.3643 34.4756 70.4834C34.1994 65.4477 34.2546 60.1911 36.3581 55.5383C38.13 50.3369 41.3937 45.5775 45.8769 42.4204C48.5328 40.5971 51.2992 38.8291 54.3972 37.9412Z" fill="#232425"/>
<path d="M78.4191 76.9595C84.5085 76.6832 90.5938 77.07 96.6279 76.6832C102.327 76.5175 108.029 76.9595 113.728 76.849C125.35 76.849 136.917 76.7385 148.539 76.9042C149.703 78.7867 150.532 80.8349 151.582 82.7726C156.894 93.2898 162.044 103.914 167.19 114.541C159.333 114.541 151.471 114.652 143.614 114.541C139.96 107.181 136.309 99.8211 132.71 92.4018C131.491 90.1326 130.496 87.753 129.166 85.539C128.227 85.4838 127.284 85.4838 126.344 85.4838C126.676 87.3662 127.785 89.0276 128.282 90.8509C129.612 95.555 128.945 100.977 125.792 104.853C121.53 110.386 114.612 112.821 108.025 114.151C104.426 114.979 100.72 114.979 97.0107 115.2C92.5276 115.2 88.0997 114.648 83.6718 113.87C82.3419 113.76 82.0104 112.264 81.4579 111.325C80.3529 108.724 78.9677 106.289 77.9692 103.633C83.0049 105.24 88.376 106.124 93.5773 105.24C96.8963 104.632 100.164 102.86 101.936 99.9277C103.376 97.7137 103.597 94.7815 102.599 92.3466C100.882 88.0292 96.2333 85.539 91.7501 85.2628C88.4865 85.2075 85.1636 84.9313 81.8999 84.7655C81.2921 84.213 81.0159 83.3803 80.6804 82.6621C79.9701 80.7796 78.9716 78.9524 78.4191 76.9595Z" fill="#232425"/>
<path d="M77.0894 123.673C80.7991 122.399 85.448 123.121 87.9934 126.274C88.7669 127.158 89.0431 128.322 89.1576 129.427C87.9934 129.317 86.8332 129.317 85.7834 128.819C85.0099 128.101 84.6784 126.937 83.68 126.495C81.7975 125.556 79.1416 125.556 77.7011 127.268C75.9292 129.427 75.9292 133.137 78.2536 134.905C79.8046 136.01 82.0185 136.345 83.676 135.457C84.3943 135.126 84.6705 134.352 84.8955 133.63C83.1235 133.354 81.2963 133.243 79.5283 132.746C79.5836 131.862 79.6941 130.974 79.9151 130.09C82.9025 130.422 85.8387 130.919 88.7708 131.531C88.9918 133.524 87.9421 135.461 86.7227 136.953C85.1717 138.725 82.571 139.001 80.3571 138.725C78.0879 138.504 75.9292 137.395 74.544 135.682C71.4461 132.083 72.6063 125.552 77.0894 123.673Z" fill="#232425"/>
<path d="M116.108 124.115C117.213 123.839 118.377 123.673 119.537 123.618C120.145 127.383 120.757 131.199 121.364 134.964L121.585 135.185C124.131 135.074 126.621 134.19 129.166 134.021C129.277 134.96 129.332 135.903 129.332 136.842C125.622 137.505 121.917 138.338 118.152 138.835C117.323 135.903 117.268 132.857 116.711 129.869C116.384 127.991 115.997 126.053 116.108 124.115Z" fill="#232425"/>
<path d="M95.2979 124.502C96.5173 124.447 97.7328 124.447 98.9523 124.613C100.614 128.101 101.884 131.807 103.38 135.406C103.988 136.791 104.544 138.228 104.931 139.723C103.712 139.834 102.441 139.834 101.221 139.613C100.835 138.618 100.393 137.675 99.9468 136.736C98.0091 136.57 96.0714 136.515 94.1337 136.57C93.6917 137.509 93.2497 138.508 92.8037 139.502C91.5843 139.558 90.424 139.613 89.2046 139.502C89.4256 138.563 89.7018 137.62 90.0886 136.736C91.9237 132.695 93.4707 128.543 95.2979 124.502ZM95.1321 133.8C96.4621 133.855 97.8433 133.855 99.1733 133.855C98.676 132.138 97.9538 130.426 97.2356 128.764C96.3516 130.37 95.6294 132.028 95.1321 133.8Z" fill="#232425"/>
<path d="M107.863 124.834C109.138 124.723 110.409 124.668 111.628 124.889C111.739 127.545 111.683 130.201 111.794 132.857C111.849 135.181 112.07 137.505 111.794 139.775C110.689 139.775 109.58 139.775 108.53 139.775C107.808 134.85 108.029 129.814 107.863 124.834Z" fill="#232425"/>
</svg>
