<svg width="71" height="69" viewBox="0 0 71 69" fill="none" xmlns="http://www.w3.org/2000/svg">
<path d="M40.8628 2.66541H29.2599C26.4059 2.66541 23.6237 3.56885 21.3139 5.24642L11.9256 12.0663C9.6158 13.7439 7.89692 16.1093 7.01502 18.8251L3.42997 29.8604C2.54808 32.5743 2.54808 35.5002 3.42997 38.2141L7.01502 49.2495C7.89692 51.9634 9.6158 54.3307 11.9256 56.0083L21.3139 62.8281C23.6237 64.5057 26.4041 65.4091 29.2599 65.4091H40.8628C43.7169 65.4091 46.499 64.5057 48.8089 62.8281L58.1972 56.0083C60.507 54.3307 62.2258 51.9652 63.1077 49.2495L66.6928 38.2141C67.5747 35.5002 67.5747 32.5743 66.6928 29.8604L63.1077 18.8251C62.2258 16.1111 60.507 13.7439 58.1972 12.0663L48.8089 5.24642C46.499 3.56885 43.7187 2.66541 40.8628 2.66541Z" fill="url(#paint0_linear_260_831)"/>
<path d="M41.4786 68.0782H28.64C25.6045 68.0782 22.702 67.1352 20.2449 65.3499L9.85798 57.8026C7.40269 56.0191 5.60837 53.5494 4.6708 50.6613L0.70318 38.4531C-0.234393 35.5667 -0.234393 32.5133 0.70318 29.6269L4.6708 17.4151C5.60837 14.527 7.40269 12.0591 9.85798 10.2738L20.2449 2.7283C22.702 0.942961 25.6045 0 28.64 0H41.4786C44.514 0 47.4166 0.942961 49.8737 2.7283L60.2606 10.2756C62.7159 12.0591 64.5102 14.5288 65.4496 17.4169L69.4172 29.6269C70.3548 32.5133 70.3548 35.5667 69.4172 38.4531L65.4496 50.6631C64.512 53.5512 62.7177 56.0191 60.2606 57.8044L49.8737 65.3517C47.4184 67.1352 44.514 68.08 41.4786 68.08V68.0782ZM28.64 0.738204C25.7608 0.738204 23.0074 1.63267 20.6796 3.32461L10.2926 10.8719C7.96308 12.5638 6.26216 14.906 5.37308 17.6433L1.40366 29.8533C0.514587 32.5923 0.514587 35.4859 1.40366 38.225L5.37129 50.435C6.26036 53.174 7.96308 55.5144 10.2908 57.2063L20.6778 64.7536C23.0074 66.4455 25.759 67.34 28.6382 67.34H41.4768C44.356 67.34 47.1094 66.4455 49.4372 64.7536L59.8241 57.2063C62.1537 55.5144 63.8546 53.1722 64.7437 50.435L68.7113 38.225C69.6004 35.4859 69.6004 32.5923 68.7113 29.8533L64.7437 17.6433C63.8546 14.9042 62.1537 12.5638 59.8241 10.8719L49.4372 3.32461C47.1076 1.63267 44.356 0.738204 41.4768 0.738204H28.6382H28.64Z" fill="url(#paint1_linear_260_831)"/>
<path d="M22.3499 8.4382L14.6392 14.0403C12.3294 15.7179 10.6105 18.0833 9.72863 20.7991L6.783 29.8623C5.90111 32.5762 5.90111 35.5021 6.783 38.216L9.72863 47.2792C10.6105 49.9931 12.3294 52.3604 14.6392 54.038L22.3499 59.6401C24.6597 61.3177 27.4401 62.2211 30.296 62.2211H39.8262C42.6802 62.2211 45.4624 61.3177 47.7722 59.6401L55.4829 54.038C57.7927 52.3604 59.5116 49.9949 60.3935 47.2792L63.3391 38.216C64.221 35.5021 64.221 32.5762 63.3391 29.8623L60.3935 20.7991C59.5116 18.0851 57.7927 15.7179 55.4829 14.0403L47.7722 8.4382C45.4624 6.76062 42.682 5.85718 39.8262 5.85718H30.296C27.4419 5.85718 24.6597 6.76062 22.3499 8.4382Z" fill="url(#paint2_linear_260_831)"/>
<path d="M42.0284 51.5971H28.0923C22.2532 51.5971 17.5024 46.8463 17.5024 41.0072V27.0711C17.5024 21.2319 22.2532 16.4812 28.0923 16.4812H42.0284C47.8676 16.4812 52.6183 21.2319 52.6183 27.0711V41.0072C52.6183 46.8463 47.8676 51.5971 42.0284 51.5971ZM28.0923 19.0802C23.6865 19.0802 20.1014 22.6652 20.1014 27.0711V41.0072C20.1014 45.413 23.6865 48.9981 28.0923 48.9981H42.0284C46.4343 48.9981 50.0193 45.413 50.0193 41.0072V27.0711C50.0193 22.6652 46.4343 19.0802 42.0284 19.0802H28.0923Z" fill="white"/>
<path d="M35.0593 43.1032C30.0607 43.1032 25.9961 39.0368 25.9961 34.04C25.9961 29.0432 30.0625 24.9768 35.0593 24.9768C40.0561 24.9768 44.1225 29.0432 44.1225 34.04C44.1225 39.0368 40.0561 43.1032 35.0593 43.1032ZM35.0593 27.574C31.494 27.574 28.5951 30.4747 28.5951 34.0382C28.5951 37.6017 31.4958 40.5024 35.0593 40.5024C38.6228 40.5024 41.5235 37.6017 41.5235 34.0382C41.5235 30.4747 38.6228 27.574 35.0593 27.574Z" fill="white"/>
<path d="M44.6184 26.5843C45.7056 26.5843 46.587 25.703 46.587 24.6158C46.587 23.5286 45.7056 22.6472 44.6184 22.6472C43.5312 22.6472 42.6499 23.5286 42.6499 24.6158C42.6499 25.703 43.5312 26.5843 44.6184 26.5843Z" fill="white"/>
<defs>
<linearGradient id="paint0_linear_260_831" x1="13.7433" y1="60.6548" x2="46.3194" y2="19.9818" gradientUnits="userSpaceOnUse">
<stop stop-color="#FEDA75"/>
<stop offset="0.23" stop-color="#FA7E1E"/>
<stop offset="0.44" stop-color="#D62976"/>
<stop offset="0.87" stop-color="#962FBF"/>
<stop offset="1" stop-color="#4F5BD5"/>
</linearGradient>
<linearGradient id="paint1_linear_260_831" x1="-0.000898058" y1="34.04" x2="70.1213" y2="34.04" gradientUnits="userSpaceOnUse">
<stop stop-color="#FEDA75"/>
<stop offset="0.23" stop-color="#FA7E1E"/>
<stop offset="0.44" stop-color="#D62976"/>
<stop offset="0.87" stop-color="#962FBF"/>
<stop offset="1" stop-color="#4F5BD5"/>
</linearGradient>
<linearGradient id="paint2_linear_260_831" x1="51.7093" y1="70.4491" x2="20.4514" y2="2.09431" gradientUnits="userSpaceOnUse">
<stop stop-color="#FEDA75"/>
<stop offset="0.23" stop-color="#FA7E1E"/>
<stop offset="0.44" stop-color="#D62976"/>
<stop offset="0.87" stop-color="#962FBF"/>
<stop offset="1" stop-color="#4F5BD5"/>
</linearGradient>
</defs>
</svg>
