<svg width="272" height="107" viewBox="0 0 272 107" fill="none" xmlns="http://www.w3.org/2000/svg">
<path fill-rule="evenodd" clip-rule="evenodd" d="M136 4.69234C153.783 4.69234 168.203 19.1119 168.203 36.8951C168.203 54.6782 154.032 68.8435 136.462 69.0874L151.328 42.2466H161.45L166.931 32.3481H141.492L136.01 42.2466H145.509L130.867 68.6826C115.528 66.2222 103.803 52.9238 103.803 36.8899C103.803 22.3509 113.447 10.0595 126.683 6.05748L112.128 32.3429L106.647 42.2414H132.086L137.568 32.3429H117.952L133.197 4.81173C134.121 4.73387 135.055 4.68715 136 4.68715V4.69234ZM136 0C156.373 0 172.895 16.5218 172.895 36.8951C172.895 57.2684 156.373 73.7902 136 73.7902C115.627 73.7902 99.105 57.2684 99.105 36.8951C99.105 16.5218 115.627 0 136 0Z" fill="#1268B3"/>
<path d="M0 106.6H13.8382L14.6636 102.904H5.7668L9.33796 86.8342H4.39647L0 106.6ZM29.6697 101.467L30.1524 106.6H35.3379L32.6232 86.8342H26.2698L15.001 106.6H20.2591L23.0049 101.467H29.6645H29.6697ZM24.4531 98.2433L26.7526 93.9921C27.3703 92.8502 28.0243 91.3242 28.6056 90.1199H28.6731C28.7769 91.3242 28.9119 92.9073 29.0157 93.9921L29.4621 98.2433H24.4479H24.4531ZM37.2273 106.6H42.1376L43.8557 98.7987H45.3662C47.3231 98.7987 48.2833 99.5306 48.491 101.934C48.7297 104.368 48.9737 106.071 49.1761 106.595H54.2578C53.8477 105.775 53.6401 103.195 53.365 100.994C53.1262 99.2036 52.5397 97.8851 51.1693 97.3868V97.2674C54.1228 96.4473 56.4223 94.6306 56.4223 91.6979C56.4223 89.85 55.3582 88.5887 53.8477 87.8257C52.2334 86.9744 49.9703 86.6837 47.7695 86.6837C45.5686 86.6837 43.1342 86.8913 41.5874 87.2132L37.2273 106.595V106.6ZM45.8126 90.177C46.2227 90.0888 46.8092 90.0317 47.7331 90.0317C49.69 90.0317 51.268 90.7376 51.268 92.3208C51.268 94.2569 49.3111 95.6324 46.6327 95.6324H44.572L45.8074 90.177H45.8126ZM55.9759 105.484C57.0763 106.19 59.3757 106.865 62.6043 106.927C67.7534 106.927 72.0098 104.633 72.0098 100.236C72.0098 97.8903 70.2242 96.276 67.4109 95.0147C65.454 94.0752 64.0473 93.3745 64.0473 92.2273C64.0473 91.1425 65.2515 90.1459 67.551 90.1459C69.4715 90.1147 71.1222 90.6753 71.8748 91.0231L73.4216 87.535C72.425 87.0367 70.7796 86.5072 67.9611 86.5072C62.9158 86.5072 58.8307 88.9416 58.8307 92.9281C58.8307 95.5078 61.1665 97.0339 63.6373 98.1758C65.7654 99.1153 66.762 99.8472 66.762 100.963C66.762 102.515 65.0128 103.278 63.0871 103.278C60.9589 103.278 59.002 102.723 57.6265 102.017L55.9811 105.479L55.9759 105.484ZM89.3517 94.6617H81.109L82.0692 90.4366H90.7895L91.6148 86.8291H77.9167L73.5202 106.595H87.7011L88.4901 102.988H79.2559L80.32 98.2069H88.5575L89.3465 94.6565L89.3517 94.6617ZM95.2587 106.595L96.7691 99.6759C97.4543 96.5667 98.0045 93.7793 98.2796 91.8484L98.3834 91.8173C99.0011 94.2517 99.6188 96.0373 100.652 98.7104L103.88 106.6H108.998L113.358 86.8342H108.76L107.182 94.0181C106.528 96.9197 106.221 99.0894 106.117 101.114H106.014C105.463 98.944 104.846 96.8937 103.922 94.3711L100.865 86.8342H95.0614L90.6649 106.6H95.2638L95.2587 106.595ZM139.519 106.595C138.216 105.303 137.049 104.015 136.156 102.899C138.798 100.787 140.381 98.2381 141.616 95.2171H137.085C136.363 96.9768 135.367 98.7935 133.893 100.231C132.963 99.1465 131.697 97.6775 130.804 96.4473V96.3591C134.51 94.8953 136.54 93.1928 136.54 90.9037C136.54 88.2669 134.137 86.5072 130.669 86.5072C126.413 86.5072 123.423 88.9728 123.423 92.165C123.423 93.3693 123.973 94.5112 124.695 95.5078L124.658 95.5961C121.674 96.7691 119.094 98.6741 119.094 101.695C119.094 104.892 121.944 106.917 126.236 106.917C129.019 106.917 130.975 106.18 132.418 105.24C132.865 105.707 133.207 106.149 133.69 106.59H139.524L139.519 106.595ZM127.607 103.751C125.307 103.751 124.103 102.489 124.103 100.963C124.103 99.4371 125.338 98.4976 126.371 97.854C127.711 99.6448 129.288 101.493 130.456 102.811C129.771 103.34 128.878 103.751 127.643 103.751H127.607ZM130.249 89.2375C131.552 89.2375 132.138 90.0265 132.138 90.94C132.138 92.4038 130.659 93.4938 128.873 94.1946C128.256 93.4627 127.845 92.6685 127.845 91.7602C127.845 90.3224 128.91 89.2375 130.212 89.2375H130.249ZM152.018 106.595H156.965L160.5 90.5248H166.682L167.507 86.8291H150.305L149.449 90.5248H155.558L152.023 106.595H152.018ZM178.423 86.5072C175.091 86.5072 172.142 87.5609 169.978 89.3206C167.263 91.5474 165.722 95.0978 165.722 98.6741C165.722 103.278 169.085 106.917 175.096 106.917C178.563 106.917 181.48 105.858 183.645 104.067C186.287 101.84 187.766 98.3471 187.766 94.7396C187.766 90.0161 184.538 86.502 178.428 86.502L178.423 86.5072ZM177.842 90.0265C181.48 90.0265 182.513 92.4038 182.513 94.8642C182.513 97.1532 181.517 100.408 179.7 101.96C178.636 102.837 177.26 103.398 175.823 103.398C172.459 103.398 170.98 101.316 170.98 98.5288C170.98 96.1515 172.007 93.1045 173.866 91.5214C174.93 90.613 176.305 90.0265 177.847 90.0265H177.842ZM192.609 86.8291L190.17 97.854C189.962 98.7935 189.827 99.7589 189.827 100.61C189.827 104.835 192.744 106.948 197.519 106.922C203.8 106.922 206.894 104.041 208.233 98.0616L210.74 86.8291H205.799L203.255 98.2381C202.43 101.903 200.717 103.372 198.142 103.372C195.91 103.372 194.779 102.141 194.779 100.558C194.779 99.6811 194.846 98.8869 195.018 98.2121L197.561 86.8342H192.62L192.609 86.8291ZM210.226 106.356C211.358 106.564 213.455 106.74 216.066 106.74C219.912 106.74 222.829 106.237 224.786 105.121C226.608 104.093 227.947 102.541 227.947 100.429C227.947 98.3159 226.54 96.7068 224.308 96.1203V96.0321C226.815 95.4144 228.98 93.8312 228.98 91.3397C228.98 89.6683 227.848 88.407 226.302 87.7322C224.755 86.9433 222.969 86.6785 220.566 86.6785C218.163 86.6785 216.138 86.8862 214.488 87.1457L210.231 106.351L210.226 106.356ZM218.739 90.1095C219.118 90.0213 219.803 89.9642 220.659 89.9642C222.549 89.9642 223.919 90.5819 223.919 92.0145C223.919 93.6859 222.066 94.6825 219.351 94.6825H217.706L218.734 90.1095H218.739ZM216.953 97.7605H218.5C220.799 97.7605 222.725 98.3471 222.725 100.314C222.725 102.515 220.286 103.424 217.607 103.424C216.886 103.424 216.304 103.392 215.718 103.335L216.953 97.7657V97.7605ZM229.556 106.585H234.466L236.185 98.7831H237.695C239.652 98.7831 240.612 99.515 240.82 101.918C241.059 104.353 241.303 106.055 241.505 106.579H246.587C246.177 105.759 245.969 103.18 245.694 100.979C245.455 99.188 244.868 97.8696 243.498 97.3712V97.2519C246.452 96.4317 248.751 94.615 248.751 91.6823C248.751 89.8344 247.687 88.5731 246.177 87.8101C244.562 86.9588 242.299 86.6681 240.098 86.6681C237.897 86.6681 235.463 86.8758 233.916 87.1976L229.556 106.579V106.585ZM238.141 90.1614C238.551 90.0732 239.138 90.0161 240.062 90.0161C242.019 90.0161 243.597 90.722 243.597 92.3052C243.597 94.2413 241.64 95.6168 238.962 95.6168H236.901L238.136 90.1614H238.141ZM262.657 86.4969C259.324 86.4969 256.376 87.5506 254.212 89.3102C251.497 91.537 249.955 95.0874 249.955 98.6637C249.955 103.268 253.319 106.906 259.33 106.906C262.797 106.906 265.714 105.848 267.879 104.057C270.521 101.83 272 98.3367 272 94.7292C272 90.0057 268.771 86.4917 262.662 86.4917L262.657 86.4969ZM262.075 90.0161C265.714 90.0161 266.747 92.3934 266.747 94.8538C266.747 97.1429 265.75 100.397 263.934 101.949C262.87 102.827 261.494 103.387 260.051 103.387C256.688 103.387 255.208 101.306 255.208 98.5184C255.208 96.1411 256.236 93.0942 258.094 91.511C259.158 90.6027 260.534 90.0161 262.075 90.0161Z" fill="#231F20"/>
</svg>
