<svg width="152" height="151" viewBox="0 0 152 151" fill="none" xmlns="http://www.w3.org/2000/svg">
<path d="M0.637695 151H151.638V0H0.637695V151Z" fill="#DC857B"/>
<path d="M0.732422 150.9L151.523 150.906L151.537 0.108171L0.732422 0.09375V150.9Z" fill="#A5312E"/>
<path d="M67.2618 87.1846C67.698 86.7628 67.698 86.4648 67.7917 85.6944C67.8626 85.0443 67.9491 84.4879 68.0453 83.8497C68.2159 82.5987 68.3806 81.4499 68.538 80.2253C68.8732 77.8374 71.3668 58.9843 71.6323 58.375L71.8595 89.7816L42.7629 89.7996C42.8962 90.1914 44.1268 91.8089 44.4368 92.244L63.0859 92.2512L60.1177 94.6379C57.5918 96.8731 54.5214 100.549 53.3149 103.96C53.6442 104.231 54.2186 104.352 54.6224 104.554C55.0406 104.755 55.3999 105.021 55.7976 105.229C56.2278 104.522 56.6004 103.574 57.0173 102.823C58.1529 100.827 59.4111 99.2922 60.9829 97.7324C61.3374 97.3911 61.5069 97.1195 61.8926 96.8287C64.5375 94.7508 64.9245 94.2064 68.5368 92.5901C69.6231 92.1226 70.5761 92.2356 71.8775 92.25L71.8895 96.0631C67.5946 97.0173 64.0268 100.094 61.8349 103.528C61.2341 104.483 60.2811 106.384 60.0853 107.564L62.7759 108.272C63.1544 107.564 63.2998 106.584 64.177 105.151C65.4208 103.119 66.7919 101.771 68.7747 100.471C69.3371 100.097 71.1937 99.1192 71.9135 99.0435L71.9448 102.745C70.8464 103.238 69.6327 104.584 69.0271 105.569C68.2508 106.826 67.7893 108.43 67.7893 110.25L84.2549 110.193C84.3943 108.519 83.7947 106.75 83.0424 105.551C81.8095 103.568 80.7808 103.328 80.049 102.652L80.0298 99.0086C81.8744 99.2994 84.4508 101.168 85.745 102.444C86.5538 103.24 87.0837 103.878 87.7735 104.966C88.2914 105.767 88.998 107.158 89.2131 108.13L91.9722 107.385C90.4196 101.859 85.5744 97.462 80.0178 96.0283L80.0057 92.2199C82.6891 92.1743 83.0809 92.1502 85.7018 93.6464C86.4865 94.1079 87.1859 94.4985 87.8684 94.9912L89.9017 96.5715C90.4208 96.9633 91.6201 98.2071 92.144 98.7563C92.8314 99.4701 94.3359 101.606 94.8334 102.432C95.1939 103.02 95.8008 104.417 96.1156 104.794C96.5891 104.68 98.3892 103.929 98.6933 103.719C96.779 99.684 94.0199 95.9826 90.4196 93.3496L89.2444 92.5036C89.0869 92.4146 89.2143 92.5228 89.0545 92.3834L88.8466 92.131L107.408 92.1238L109.082 89.6734L79.9805 89.7359L79.9541 58.8569C80.0935 59.2391 80.1632 60.013 80.2317 60.424L83.1686 80.0282C83.4077 81.6265 83.9004 86.0357 84.3943 87.0704C86.5153 87.2231 89.3765 87.0392 91.5804 87.02C93.9562 87.0067 96.362 87.0007 98.7365 86.9935C101.768 86.9815 106.447 86.8301 109.321 86.9178C110.514 86.9755 110.636 87.0897 111.172 85.156C112.334 81.0124 113.08 77.3435 112.915 72.647C112.657 65.7478 110.566 59.203 106.871 53.6173C106.169 52.5634 104.597 50.3594 103.788 49.5542C101.705 47.4848 100.998 46.408 98.2186 44.3398C92.8579 40.3632 85.6128 36.9839 76.9354 36.8264C76.9174 39.4535 77.0243 42.131 77.0243 44.8217C77.0436 47.5449 77.0556 50.2644 77.0688 52.9852C77.1697 69.21 77.1325 85.4577 77.2647 101.696L74.7003 101.671C74.5621 96.3095 74.675 90.8644 74.5933 85.4769C74.5236 80.0823 74.5104 74.6828 74.4599 69.305L74.3073 44.9154C74.2893 42.2475 74.3337 39.4931 74.2953 36.824C66.1106 36.9767 58.1842 40.5975 53.2524 44.4672C51.9198 45.5091 50.5618 46.6676 49.4683 47.8237C49.1727 48.1373 48.9576 48.4305 48.6355 48.7057C48.1933 49.0903 48.1488 49.2706 47.7691 49.6527C45.3309 52.1536 42.4516 57.3187 41.0817 60.8951C37.9933 68.9 38.0883 76.9817 40.5578 85.293C40.6587 85.6716 40.7921 86.1968 40.9615 86.5825C41.2391 87.169 41.3401 87.3276 42.1236 87.3084C50.3215 87.1317 59.0242 87.2579 67.2606 87.181L67.2618 87.1846Z" fill="#FBFCFC"/>
<path d="M42.7054 84.1526C49.3303 84.292 57.1305 84.1898 63.9069 84.1274C64.9235 84.1274 64.8791 83.7164 65.0052 82.8259C65.1891 81.564 65.5484 80.1111 65.8008 78.8661L72.9184 43.3832C73.1767 42.0865 73.5625 40.6012 73.7259 39.3153C66.6467 39.5064 59.3332 42.6862 54.2044 46.8214L52.1711 48.5303C51.944 48.7827 51.8431 48.9377 51.5967 49.1612L50.3205 50.4062C49.96 50.7836 49.5683 51.3124 49.2282 51.7173C48.8244 52.18 48.4699 52.6163 48.0974 53.115C45.003 57.4413 43.1897 61.1547 41.9399 66.5962C40.9485 70.9105 40.9353 75.7295 41.7633 80.1472C42.0409 81.5628 42.4458 82.8379 42.7042 84.1514L42.7054 84.1526Z" fill="#A5312E"/>
<path d="M109.027 83.7861C109.797 81.7215 110.352 77.8494 110.468 75.4459C110.808 67.2752 108.136 58.8569 103.369 52.8951C102.643 51.9865 101.916 51.0672 101.171 50.25C100.843 49.8715 100.275 49.404 99.9527 49.0615C98.1273 47.1603 95.1459 45.026 92.8856 43.7305C88.4898 41.2333 83.4751 39.6133 77.564 39.2972C77.6144 40.1685 80.6018 53.7831 80.8734 55.045L85.9013 78.6185C86.1669 79.9513 86.4757 81.2203 86.7221 82.5338C87.0513 84.3088 86.6151 83.9928 90.0892 83.9735C96.3909 83.9291 102.701 83.8474 109.029 83.7837L109.027 83.7861Z" fill="#A5312E"/>
<path d="M24.8517 116.743C20.5893 117.135 17.6716 118.025 16.3894 121.531C15.2393 124.664 15.392 130.171 15.5001 133.873C15.702 141.237 18.7014 143.687 25.2002 143.914C27.2467 143.978 29.7991 144.017 31.8323 143.884C35.6525 143.638 38.7793 142.791 40.1805 139.065C41.3125 136.096 41.1034 130.26 41.0217 126.723C40.8498 119.738 38.2746 117.047 31.3264 116.707C29.5082 116.624 26.635 116.587 24.8529 116.744L24.8517 116.743Z" fill="#FBFCFC"/>
<path d="M40.2241 14.8717L41.9053 14.8897C41.9558 17.4001 41.9113 19.9587 41.9113 22.4595C41.9113 24.7777 41.6529 27.5141 42.9532 29.0848C44.5454 31.004 46.4213 30.5785 49.0794 30.5785C50.2414 30.5785 56.0276 30.6446 56.6585 30.5329L56.6849 27.2461C55.7873 27.019 50.084 27.2773 48.2839 27.1572C47.3502 27.1091 46.6676 26.9432 46.402 26.1477C45.991 24.9784 46.1869 16.8437 46.1869 14.9113C47.0137 14.7947 49.1863 14.8476 50.102 14.8705C51.2328 14.9113 51.8265 15.8775 52.1738 16.8497C52.9825 19.2592 51.4864 21.8803 49.0986 20.4322L47.9306 24.3919C49.5853 24.7693 50.5755 24.9784 52.2699 24.4388C54.8403 23.606 56.8039 21.4044 56.709 18.6319C56.6585 16.768 55.9387 16.1107 55.351 14.8981L72.5737 14.8729V17.8484C69.8579 17.8736 63.2714 17.5227 61.1684 18.3255C57.7196 19.6438 56.8676 23.5964 58.2507 26.1885C58.9141 27.4552 59.9367 28.4526 61.3511 29.0307C62.9493 29.6772 64.7303 29.6556 66.3405 29.0379C67.6552 28.5103 68.8665 27.3675 69.4349 26.1885C70.5032 24.0663 69.954 22.8561 69.5298 21.2421L72.5737 21.2337V30.5653L76.8301 30.5785L76.8361 14.8729H78.6675L78.6927 11.4971L40.2506 11.4899L40.2241 14.8693V14.8717Z" fill="#FBFCFC"/>
<path d="M126.432 11.4695L112.91 11.4984V14.8488C114.722 15.1324 118.884 14.5736 119.705 15.0856C121.234 16.0422 121.839 18.4228 120.677 20.0272C119.99 21.015 118.094 21.0955 117.337 19.9346V17.2487L113.061 17.2043C113.036 19.377 113.061 21.527 113.061 23.6685C113.061 25.9194 112.997 27.4408 114.058 29.0956C115.12 30.7396 116.497 30.6507 118.978 30.6507C121.164 30.6507 123.38 30.6807 125.541 30.6434V27.2641C123.62 27.2353 121.707 27.2641 119.787 27.2605C119.003 27.2605 117.811 27.3398 117.521 26.7293C117.267 26.1874 117.337 24.577 117.337 23.9016C118.145 24.1348 118.487 24.6239 120.21 24.5073C121.138 24.4364 122.061 24.1215 122.749 23.7021C124.392 22.6782 123.381 22.6782 125.043 22.6891C126.103 22.6891 127.354 22.6194 128.415 22.7047C128.529 24.3499 128.27 29.7085 128.491 30.5774H132.666C132.919 29.3516 132.471 15.8871 132.774 14.8717L135.231 14.8693L135.288 30.5629L139.544 30.5761L139.55 14.8957L141.325 14.8681V11.5128L139.992 11.4659C140.384 10.5309 140.844 9.87358 140.433 8.55406C139.581 5.87296 136.006 4.64837 133.201 4.65438C130.423 4.65799 126.881 5.84171 126.002 8.50719C125.561 9.84234 126.015 10.4937 126.432 11.4659V11.4695Z" fill="#FBFCFC"/>
<path d="M105.541 128.604L93.9577 128.579L93.9265 134.395L99.6537 134.407C100.21 139.228 94.317 138.159 90.7816 138.159C85.0532 138.159 85.8235 135.955 85.8235 130.341C85.8235 124.346 85.2551 122.528 90.7816 122.528C92.4676 122.528 95.5488 122.363 97.0341 122.603C99.4471 122.996 99.6177 124.624 99.7126 126.354C100.4 126.538 104.518 126.43 105.541 126.405C105.56 123.021 104.505 119.231 101.24 117.791C97.534 116.168 87.8002 116.168 84.1759 117.88C79.1553 120.236 80.0073 127.708 80.0325 133.164C80.083 143.913 85.326 144.053 95.133 143.926C102.231 143.826 104.922 141.715 105.496 134.996C105.609 133.581 105.705 129.963 105.541 128.604Z" fill="#FBFCFC"/>
<path d="M95.6689 11.4539L80.959 11.4983V14.856L96.8682 14.8741L96.8874 17.4446L86.3654 17.4482L86.3462 20.8275C88.1535 20.854 89.1185 20.5631 89.9705 21.8767C91.6949 24.5229 89.187 28.395 87.1729 26.5911C85.9484 25.5084 86.1239 24.8474 86.0614 22.9823C85.803 22.9823 81.829 22.8777 81.6211 23.1024C81.0455 23.8091 81.6331 27.2737 83.5594 28.973C84.9991 30.236 86.9951 31.1806 89.5907 30.6398C92.863 29.9536 95.0344 27.0466 94.865 23.8788C94.8025 22.5268 94.4047 21.8827 93.9493 20.8636L96.867 20.8287L96.8862 30.5521L101.111 30.5809L101.168 14.8921L103.953 14.8861L103.973 30.5677L108.242 30.5809L108.254 14.8753L110.483 14.8729V11.4995L109.252 11.4767C109.655 10.5357 110.078 9.86997 109.7 8.5853C108.879 5.89097 105.299 4.66278 102.483 4.66278C100.184 4.66278 98.3391 5.30932 96.849 6.37047C95.717 7.20088 94.8782 8.5853 95.1558 10.1368C95.2639 10.6992 95.5343 11.0381 95.6869 11.4539H95.6677H95.6689Z" fill="#FBFCFC"/>
<path d="M26.7274 8.3113C30.0369 8.25242 31.4898 8.33053 32.1074 11.4911L24.3012 11.4983L24.2892 14.8741H25.8105L25.8178 23.8776L24.1955 23.8848C23.8662 23.2503 23.8987 21.7409 22.5972 20.4646C22.9325 19.5333 23.4048 19.1451 23.5694 17.816C24.2195 12.3876 17.4936 9.14412 12.9849 12.5547C11.8925 13.3803 10.376 15.4605 10.7425 17.6741L14.791 17.6862C14.9184 14.177 17.8613 14.6541 18.8395 15.6336C19.5089 16.3066 19.7552 17.4494 19.1748 18.4385C18.5115 19.5657 17.7664 19.347 16.3208 19.3951V22.7612C17.9875 22.784 18.771 22.4703 19.4848 23.749C20.761 26.0203 18.0007 28.4923 15.8089 27.037C14.8367 26.3953 14.5278 25.4387 14.8367 23.9461L10.4853 23.9389C10.3207 27.7532 12.7782 30.3562 16.024 30.9439C19.0054 31.4799 22.0048 30.1027 23.3831 27.5778C24.0465 26.34 23.2822 26.5575 25.8214 26.5575V30.5809H30.0718L30.097 14.8753H32.6614L32.6734 30.5665L36.9298 30.5798V14.8837L38.5413 14.8717V11.4983L36.6775 11.4911C36.4371 10.686 35.8183 9.54069 35.4589 8.68505C34.8833 7.37754 34.8978 6.87281 33.9749 6.03519C32.3898 4.6051 29.1681 4.96443 26.725 5.00529L26.731 8.3113H26.7274Z" fill="#FBFCFC"/>
<path d="M138.002 133.916L132.223 133.91C131.888 136.025 132.147 137.365 129.866 138.002C128.635 138.33 124.928 138.154 123.418 138.154C121.133 138.154 119.509 138.141 118.675 136.405C118.093 135.21 118.291 131.788 118.291 130.259C118.291 128.73 118.114 125.407 118.694 124.221C119.521 122.541 121.233 122.529 123.525 122.529C125.054 122.529 128.527 122.365 129.803 122.667C131.913 123.179 132.064 124.48 132.216 126.799L138.007 126.811C138.07 125.156 137.679 122.94 137.149 121.556C135.146 116.237 129.184 116.692 123.62 116.706C119.598 116.706 116.326 117.286 114.368 119.687C112.391 122.126 112.5 126.627 112.5 130.259C112.5 139 112.808 143.883 123.418 143.926C127.296 143.938 131.168 144.173 134.332 142.555C135.626 141.88 136.542 140.793 137.129 139.22C137.597 137.989 138.127 135.424 138.001 133.915L138.002 133.916Z" fill="#FBFCFC"/>
<path d="M67.5394 127.227C67.5575 127.259 67.5839 127.259 67.5959 127.322C67.6212 127.453 67.7089 127.289 67.7089 128.236L67.6332 131.243C67.6332 134.502 67.4625 140.957 67.6332 143.508H73.2787C73.4434 139.954 73.2859 133.769 73.2859 129.753L73.203 125.143C73.3989 123.33 71.9977 120.848 70.8801 119.521C70.4187 118.965 69.4201 118.22 68.6053 117.766C66.1803 116.408 60.6225 116.313 58.3621 117.266C56.979 117.867 55.9119 118.889 54.9397 119.881C54.7751 120.038 54.566 120.196 54.4157 120.379C54.1622 120.682 54.2583 120.707 53.9158 120.909V116.715L48.4722 116.703V143.596H54.2451C54.2956 140.331 54.2451 137.033 54.2451 133.768C54.2451 130.503 53.8401 127.68 55.5646 125.243C56.8648 123.374 59.1324 122.135 62.4983 122.438C65.2586 122.677 67.3051 124.471 67.5382 127.225L67.5394 127.227Z" fill="#FBFCFC"/>
<path d="M24.3413 122.567C21.7636 122.908 21.3911 124.278 21.2962 126.924C21.2337 129.286 21.2337 131.863 21.3154 134.213C21.3599 135.489 21.4091 136.304 22.0917 137.086C23.3487 138.539 26.3925 138.154 28.528 138.154C32.8733 138.154 35.0772 138.76 35.1913 133.676C35.2418 131.307 35.2671 128.692 35.1853 126.317C35.1096 123.98 34.4331 122.603 31.6476 122.528C30.5985 122.509 25.0611 122.476 24.3413 122.565V122.567Z" fill="#A5312E"/>
<path d="M63.3144 21.4332C60.4976 22.2095 61.6152 26.6656 64.4199 25.8977C65.4618 25.6105 66.2501 24.452 65.9605 23.1061C65.7214 22.0113 64.641 21.0631 63.3156 21.4332H63.3144Z" fill="#892823"/>
<path d="M101.814 8.19713C100.759 8.40864 99.5585 9.16454 99.9058 10.4047C100.044 10.8446 100.55 11.3962 100.974 11.4695C101.422 11.5548 102.641 11.4911 103.171 11.4983C104.055 11.5007 104.251 11.4983 104.732 10.9203C105.881 9.54309 104.055 7.74047 101.814 8.19713Z" fill="#892823"/>
<path d="M132.413 8.23319C129.741 8.82685 130.429 11.3662 131.882 11.4983C132.507 11.5392 133.443 11.4983 134.105 11.4983C134.894 11.5008 135.216 11.2808 135.544 10.8061C136.517 9.48301 134.805 7.70923 132.412 8.2368V8.23319H132.413Z" fill="#892823"/>
<path d="M125.852 19.2953L128.415 19.2917L128.434 14.9173L124.733 14.8705C124.972 15.5014 125.364 15.8775 125.622 16.7236C125.951 17.8436 125.724 18.2798 125.85 19.2941L125.852 19.2953Z" fill="#8E191B"/>
<path d="M67.5396 127.227L67.5132 143.612L73.3426 143.637C73.4808 142.84 73.3799 129.673 73.3799 127.43C73.3799 126.862 73.5637 125.504 73.2032 125.15L73.2861 129.754C73.2861 133.771 73.4435 139.955 73.2789 143.51H67.6526C67.4627 140.958 67.6334 134.504 67.6334 131.244L67.7091 128.238C67.7091 127.291 67.6201 127.461 67.5961 127.323C67.5841 127.259 67.5576 127.259 67.5396 127.228V127.227Z" fill="#DCA9A4"/>
</svg>
