<svg width="225" height="155" viewBox="0 0 225 155" fill="none" xmlns="http://www.w3.org/2000/svg">
<rect x="164" y="50" width="61" height="24" rx="4" fill="#263467"/>
<rect x="164" y="88" width="61" height="24" rx="4" fill="#589BD9"/>
<path d="M179.923 54.9829C181.383 54.9829 182.545 55.2813 183.408 55.878C184.272 56.4621 184.703 57.3381 184.703 58.5062C184.703 59.3696 184.487 60.0933 184.056 60.6773C183.637 61.2487 183.059 61.6804 182.323 61.9724C181.599 62.2517 180.767 62.3914 179.828 62.3914L179.39 60.9059C180.545 60.9059 181.567 61.0646 182.456 61.382C183.357 61.6994 184.068 62.1565 184.589 62.7532C185.11 63.3373 185.37 64.042 185.37 64.8672C185.37 65.629 185.23 66.2766 184.951 66.8098C184.684 67.3304 184.316 67.7557 183.846 68.0858C183.389 68.4033 182.869 68.6381 182.285 68.7905C181.701 68.9302 181.097 69 180.475 69H175.809V54.9829H179.923ZM180.247 60.7154C180.793 60.7154 181.193 60.5504 181.447 60.2203C181.713 59.8901 181.847 59.5156 181.847 59.0966C181.847 58.6141 181.681 58.2523 181.351 58.011C181.034 57.7698 180.602 57.6492 180.056 57.6492H178.571V60.7154H180.247ZM180.342 66.4289C180.748 66.4289 181.116 66.3781 181.447 66.2766C181.777 66.1623 182.037 65.9909 182.227 65.7624C182.418 65.5211 182.513 65.2227 182.513 64.8672C182.513 64.4609 182.399 64.1562 182.17 63.9531C181.942 63.7372 181.643 63.5912 181.275 63.515C180.92 63.4262 180.545 63.3817 180.152 63.3817H178.571V66.4289H180.342ZM190.616 63.8198C190.616 64.2641 190.749 64.6895 191.016 65.0958C191.283 65.5021 191.632 65.8322 192.063 66.0861C192.508 66.3401 192.99 66.467 193.511 66.467C194.082 66.467 194.59 66.3401 195.034 66.0861C195.479 65.8322 195.828 65.5021 196.082 65.0958C196.349 64.6895 196.482 64.2641 196.482 63.8198V54.9829H199.205V63.8769C199.205 64.9053 198.951 65.8195 198.443 66.6194C197.936 67.4066 197.25 68.0287 196.387 68.4858C195.523 68.9302 194.565 69.1524 193.511 69.1524C192.47 69.1524 191.517 68.9302 190.654 68.4858C189.803 68.0287 189.124 67.4066 188.616 66.6194C188.108 65.8195 187.854 64.9053 187.854 63.8769V54.9829H190.616V63.8198ZM206.173 64.6387L201.012 54.9829H204.421L208.039 62.2581L207.221 62.3152L210.782 54.9829H214.191L208.935 64.6387V69H206.173V64.6387Z" fill="white"/>
<path d="M179.294 96.3729C178.761 96.0809 178.215 95.8396 177.656 95.6492C177.11 95.4587 176.596 95.3635 176.113 95.3635C175.517 95.3635 175.047 95.4841 174.704 95.7254C174.361 95.9666 174.19 96.3285 174.19 96.8109C174.19 97.141 174.317 97.4394 174.571 97.706C174.837 97.96 175.174 98.1885 175.58 98.3917C175.999 98.5948 176.431 98.7789 176.875 98.944C177.282 99.0963 177.681 99.2804 178.075 99.4963C178.481 99.6994 178.843 99.9597 179.161 100.277C179.478 100.582 179.732 100.969 179.922 101.439C180.113 101.896 180.208 102.461 180.208 103.134C180.208 103.845 180.024 104.505 179.656 105.115C179.288 105.724 178.748 106.219 178.037 106.6C177.326 106.968 176.45 107.152 175.409 107.152C174.876 107.152 174.33 107.102 173.771 107C173.225 106.886 172.685 106.721 172.152 106.505C171.619 106.276 171.105 105.991 170.609 105.648L171.828 103.496C172.158 103.737 172.514 103.953 172.895 104.143C173.288 104.321 173.682 104.461 174.076 104.562C174.469 104.664 174.831 104.715 175.161 104.715C175.491 104.715 175.821 104.67 176.152 104.581C176.494 104.48 176.774 104.315 176.99 104.086C177.218 103.858 177.332 103.54 177.332 103.134C177.332 102.855 177.237 102.601 177.047 102.372C176.869 102.144 176.621 101.934 176.304 101.744C175.999 101.553 175.663 101.388 175.295 101.248C174.863 101.083 174.418 100.893 173.961 100.677C173.504 100.461 173.073 100.201 172.666 99.8962C172.273 99.5788 171.949 99.1916 171.695 98.7345C171.454 98.2647 171.333 97.6934 171.333 97.0204C171.333 96.2078 171.511 95.5032 171.866 94.9064C172.235 94.3097 172.749 93.8399 173.409 93.4971C174.069 93.1416 174.831 92.9448 175.694 92.9067C176.824 92.9067 177.739 93.04 178.437 93.3067C179.148 93.5733 179.783 93.8907 180.341 94.2589L179.294 96.3729ZM182.913 92.9829H192.473V95.6492H185.674V98.6393H191.692V101.306H185.674V104.334H192.74V107H182.913V92.9829ZM195.597 92.9829H198.358V104.334H204.948V107H195.597V92.9829ZM207.798 92.9829H210.559V104.334H217.149V107H207.798V92.9829Z" fill="white"/>
<g clip-path="url(#clip0_98_1986)">
<path d="M102.233 119.912L118.947 110.297V73.7505L102.233 83.3505V119.912Z" fill="#2B6A94"/>
<path d="M91.7593 63.8003L94.8941 65.5657L111.594 55.9511L108.473 54.1858L91.7593 63.8003Z" fill="#3FA2E5"/>
<path d="M102.233 119.912L91.7593 113.916V63.8004L94.8941 65.5657L102.233 83.3504V119.912Z" fill="#2F75A3"/>
<path d="M102.233 83.3504L94.894 65.5657L111.593 55.9511L118.947 73.7505L102.233 83.3504Z" fill="#3685BA"/>
<path d="M101.325 77.6896L96.5347 66.1201L110.949 57.8332L115.739 69.4028L101.325 77.6896Z" fill="#2B6A94"/>
<path d="M116.325 70.8471L117.292 73.1815L102.877 81.4684L101.925 79.134L116.325 70.8471Z" fill="#2B6A94"/>
<path d="M102.907 75.1803L113.19 69.3298L109.338 60.3572L99.0542 66.2076L102.907 75.1803Z" fill="#F6F6F6"/>
<path d="M108.913 61.3785L107.36 62.2684L107.873 63.4356L109.425 62.5602L108.913 61.3785Z" fill="#E75221"/>
<path d="M107.038 62.4435L105.485 63.3335L105.998 64.5152L107.55 63.6253L107.038 62.4435Z" fill="#C6C6C6"/>
<path d="M110.231 64.4423L108.678 65.3323L109.176 66.514L110.744 65.6241L110.231 64.4423Z" fill="#3685BA"/>
<path d="M108.356 65.5219L106.803 66.4119L107.301 67.5791L108.869 66.6891L108.356 65.5219Z" fill="#C6C6C6"/>
<path d="M105.368 64.3694L106.525 67.1122C106.605 67.2909 106.618 67.4923 106.561 67.6797C106.505 67.8671 106.383 68.0281 106.217 68.1335L102.365 70.3219C102.285 70.3652 102.197 70.3908 102.107 70.3971C102.016 70.4034 101.925 70.3902 101.841 70.3583C101.756 70.3264 101.679 70.2767 101.615 70.2125C101.551 70.1483 101.502 70.0712 101.471 69.9864L100.328 67.3019C100.248 67.1232 100.235 66.9218 100.292 66.7344C100.348 66.5469 100.47 66.3859 100.636 66.2806L104.489 64.0921C104.563 64.0475 104.647 64.0192 104.733 64.0091C104.82 63.9989 104.908 64.0073 104.991 64.0335C105.074 64.0597 105.15 64.1032 105.215 64.1611C105.28 64.219 105.332 64.29 105.368 64.3694Z" fill="#6AC6D0"/>
<path d="M110.89 65.9888L109.337 66.8788L109.85 68.0459L111.403 67.156L110.89 65.9888Z" fill="#C6C6C6"/>
<path d="M107.14 68.1189L103.712 70.0739L104.225 71.2556L107.653 69.3006L107.14 68.1189Z" fill="#E75221"/>
<path d="M103.39 70.249L101.837 71.1389L102.35 72.3207L103.903 71.4307L103.39 70.249Z" fill="#C6C6C6"/>
<path d="M111.564 67.5207L109.997 68.4107L110.509 69.5924L112.062 68.7025L111.564 67.5207Z" fill="#E75221"/>
<path d="M109.689 68.5858L108.122 69.4757L108.634 70.6575L110.187 69.7675L109.689 68.5858Z" fill="#C6C6C6"/>
<path d="M105.939 70.7304L104.372 71.6058L104.884 72.7875L106.437 71.8976L105.939 70.7304Z" fill="#3685BA"/>
<path d="M104.064 71.7955L102.497 72.6709L103.009 73.8526L104.562 72.9626L104.064 71.7955Z" fill="#C6C6C6"/>
<g opacity="0.2">
<path d="M115.373 94.2051V95.6641L106.217 100.931V99.5449L115.373 94.2051ZM115.373 96.4227L106.217 101.69V103.149L115.373 97.7504V96.4227ZM115.373 98.6404L106.217 103.907V105.366L115.373 100.099V98.6404ZM115.373 100.858L106.217 106.125V107.584L115.373 102.317V100.858ZM115.373 103.076L106.217 108.342V109.728L115.373 104.462V103.076ZM115.373 105.293L106.217 110.56V112.019L115.373 106.752V105.293Z" fill="#1D1D1B"/>
</g>
<path d="M111.461 129.147L0 116.513V107.19L111.461 119.97V129.147Z" fill="#2B6A94"/>
<path d="M2.25613 119.635L61.5245 153.702C63.2073 154.557 65.0698 155.003 66.9592 155.003C68.8485 155.003 70.711 154.557 72.3938 153.702L109.206 132.576C112.136 130.84 112.136 128.053 109.206 126.317L49.8789 92.2209C48.194 91.3722 46.3323 90.9299 44.4442 90.9299C42.5561 90.9299 40.6944 91.3722 39.0096 92.2209L2.25613 113.361C-0.746836 115.083 -0.746836 117.884 2.25613 119.635Z" fill="#2B6A94"/>
<path d="M2.25613 110.327L61.5245 144.437C63.2073 145.293 65.0698 145.739 66.9592 145.739C68.8485 145.739 70.711 145.293 72.3938 144.437L109.206 123.282C112.136 121.561 112.136 118.759 109.206 117.038L49.8789 82.9419C48.196 82.0864 46.3336 81.6403 44.4442 81.6403C42.5548 81.6403 40.6924 82.0864 39.0096 82.9419L2.25613 104.068C-0.746836 105.789 -0.746836 108.59 2.25613 110.327Z" fill="#398CC4"/>
<path d="M73.2873 104.403L58.2285 95.737V0L73.2873 8.66623V104.403Z" fill="#2B6A94"/>
<path d="M39.2585 123.968L73.2873 104.403V8.66623L24.1997 19.5647L39.2585 123.968Z" fill="#29678F"/>
<path d="M100.314 95.7224L105.353 92.8483L82.6182 79.7614L77.5645 82.6501L100.314 95.7224Z" fill="#DADADA"/>
<path d="M63.165 82.6501V121.677C63.165 123.953 64.6299 126.229 67.7061 127.98C71.1102 129.702 74.8745 130.6 78.6926 130.6C82.5107 130.6 86.275 129.702 89.6791 127.98C92.7113 126.229 94.2202 123.953 94.2202 121.677V82.6501H63.165Z" fill="#2B6A94"/>
<path d="M73.4774 111.114V118.511L50.728 105.425V98.0422L73.4774 111.114Z" fill="#575756"/>
<path d="M105.353 92.8483V100.231L73.4775 118.511V111.129L105.353 92.8483Z" fill="#3C3C3B"/>
<path d="M78.5169 100.129V108.226L55.7676 95.1535V87.0416L78.5169 100.129Z" fill="#878787"/>
<path d="M101.559 86.8811L78.5169 100.128L76.4807 98.9467L74.4153 97.765L72.2766 96.5394L70.2258 95.3577L68.0724 94.1176L66.0216 92.9358L63.8829 91.7103L61.8175 90.5285L59.6641 89.2884L57.6133 88.1067L55.7676 87.0416L78.8099 73.8088L80.641 74.8739L82.7064 76.0556L84.8451 77.2812L86.9106 78.4629L89.0493 79.6884L91.1001 80.8702L93.2534 82.1103L95.3042 83.2921L97.4576 84.5322L99.5084 85.714L101.559 86.8811Z" fill="#DADADA"/>
<path d="M101.559 86.8811V94.993L78.5312 108.24V100.128L101.559 86.8811Z" fill="#B2B2B2"/>
<path d="M99.5082 85.714L76.4805 98.9467L74.415 97.765L97.4573 84.5322L99.5082 85.714Z" fill="#575756"/>
<path d="M95.3041 83.2921L72.2764 96.5394L70.2256 95.3577L93.2532 82.1103L95.3041 83.2921Z" fill="#575756"/>
<path d="M91.1 80.8702L68.0723 94.1176L66.0215 92.9358L89.0491 79.6884L91.1 80.8702Z" fill="#575756"/>
<path d="M86.9105 78.4629L63.8828 91.7103L61.8174 90.5285L84.845 77.2812L86.9105 78.4629Z" fill="#575756"/>
<path d="M82.7064 76.0556L59.6641 89.2884L57.6133 88.1066L80.6409 74.8739L82.7064 76.0556Z" fill="#575756"/>
<path d="M76.4659 100.289L76.4805 98.9467L74.415 97.765V99.1072L76.4659 100.289Z" fill="#3C3C3B"/>
<path d="M72.2764 97.8817V96.5395L70.2256 95.3577V96.6999L72.2764 97.8817Z" fill="#3C3C3B"/>
<path d="M68.0723 95.4598V94.1176L66.0215 92.9358V94.2781L68.0723 95.4598Z" fill="#3C3C3B"/>
<path d="M63.8828 93.0525V91.7103L61.8174 90.5285V91.8708L63.8828 93.0525Z" fill="#3C3C3B"/>
<path d="M59.6641 90.6307V89.2884L57.6133 88.1067V89.4489L59.6641 90.6307Z" fill="#3C3C3B"/>
<path d="M73.4774 111.114L78.5165 108.226L55.7672 95.1534L50.728 98.0422L73.4774 111.114Z" fill="#DADADA"/>
<path d="M64.7761 64.1943C64.7761 59.8174 61.6266 57.9353 57.7447 60.1529C55.7006 61.4822 53.9999 63.2727 52.7807 65.3793C51.5616 67.4858 50.8583 69.8489 50.728 72.2769C50.728 76.7413 53.8628 78.5504 57.7447 76.3182C59.7908 74.9898 61.4937 73.1997 62.7153 71.0933C63.937 68.9868 64.643 66.6233 64.7761 64.1943Z" fill="#DADADA"/>
<path d="M60.1465 64.1263L55.3638 72.3769L59.9561 75.0176L64.7389 66.767L60.1465 64.1263Z" fill="#3C3C3B"/>
<path d="M61.129 66.2952C61.129 64.1505 59.6641 63.2751 57.7452 64.3548C56.7598 64.9937 55.9398 65.8552 55.3519 66.8693C54.7639 67.8833 54.4245 69.0213 54.3613 70.1906C54.3613 72.3353 55.8262 73.2106 57.7452 72.131C58.7305 71.4921 59.5505 70.6306 60.1385 69.6165C60.7265 68.6025 61.0658 67.4645 61.129 66.2952Z" fill="#3C3C3B"/>
<path d="M65.7286 68.9359C65.7286 66.7912 64.2637 65.9158 62.3448 66.9955C61.357 67.6318 60.5351 68.4927 59.9468 69.5073C59.3585 70.5219 59.0206 71.6612 58.9609 72.8313C58.9609 74.976 60.4258 75.8514 62.3448 74.7717C66.4171 72.4374 65.7286 73.6192 65.7286 68.9359Z" fill="#DADADA"/>
<path d="M64.5201 68.239L61.1362 74.0763L64.1428 75.8052L67.5267 69.9678L64.5201 68.239Z" fill="#9D9D9C"/>
<path d="M65.2159 69.7821C65.2159 68.3231 64.1465 67.6374 62.8135 68.3961C62.1193 68.8507 61.5418 69.461 61.1271 70.178C60.7125 70.895 60.4723 71.6988 60.4258 72.525C60.4258 73.9839 61.4951 74.6696 62.8135 73.911C63.5128 73.4606 64.0951 72.8516 64.5127 72.134C64.9303 71.4163 65.1712 70.6104 65.2159 69.7821Z" fill="#9D9D9C"/>
<path d="M68.2188 71.4891C68.2188 70.0301 67.1495 69.359 65.8311 70.1177C65.1323 70.5721 64.5507 71.184 64.1333 71.9038C63.716 72.6236 63.4746 73.4312 63.4287 74.2611C63.4287 75.7201 64.5127 76.3912 65.8311 75.6325C66.528 75.1774 67.1074 74.565 67.5222 73.8451C67.9371 73.1252 68.1757 72.318 68.2188 71.4891Z" fill="#DADADA"/>
<path d="M66.8638 71.4032L65.0547 74.524L68.6449 76.5884L70.454 73.4676L66.8638 71.4032Z" fill="#9D9D9C"/>
<path d="M67.2227 72.2186C67.2227 71.4015 66.6514 71.066 65.9483 71.4745C65.5781 71.7221 65.2696 72.0505 65.0462 72.4348C64.8228 72.8191 64.6905 73.2491 64.6592 73.6921C64.6592 74.5091 65.2451 74.8301 65.9483 74.4216C66.3193 74.1797 66.628 73.8542 66.8494 73.4715C67.0707 73.0888 67.1986 72.6596 67.2227 72.2186Z" fill="#9D9D9C"/>
<path d="M70.8262 74.2757C70.8262 73.4733 70.2403 73.1377 69.5371 73.5462C69.1669 73.789 68.8588 74.1146 68.6376 74.4972C68.4163 74.8797 68.2879 75.3085 68.2627 75.7492C68.2627 76.5662 68.834 76.9018 69.5371 76.4933C69.9073 76.2457 70.2158 75.9173 70.4392 75.533C70.6626 75.1487 70.7949 74.7186 70.8262 74.2757Z" fill="#DADADA"/>
<path d="M71.3682 73.4003C71.3682 71.9413 70.3282 71.3286 69.0537 72.0727C68.3756 72.5079 67.8109 73.0972 67.406 73.7922C67.0011 74.4871 66.7675 75.2679 66.7246 76.0702C66.7246 77.5292 67.7647 78.1419 69.0537 77.4125C69.727 76.9699 70.287 76.3765 70.6889 75.6798C71.0908 74.9832 71.3234 74.2025 71.3682 73.4003Z" fill="#706F6F"/>
<path d="M74.7681 71.8612L69.4141 81.0974L71.6722 82.3958L77.0263 73.1597L74.7681 71.8612Z" fill="#3C3C3B"/>
<path d="M75.8653 74.3049C75.8653 71.8976 74.1661 70.9201 72.0713 72.1164C70.972 72.8356 70.0574 73.8016 69.401 74.9367C68.7446 76.0719 68.3648 77.3446 68.292 78.6526C68.292 81.0599 69.9912 82.0374 72.0713 80.841C73.175 80.1252 74.0937 79.1603 74.7529 78.0247C75.4121 76.8891 75.7932 75.6147 75.8653 74.3049Z" fill="#3C3C3B"/>
<path d="M78.1212 75.6034C78.1212 73.1961 76.422 72.2186 74.3272 73.4149C73.2279 74.1341 72.3133 75.1001 71.6569 76.2352C71.0005 77.3704 70.6206 78.6431 70.5479 79.9511C70.5479 82.3584 72.2471 83.3359 74.3272 82.1249C75.4298 81.4114 76.3479 80.449 77.0071 79.3159C77.6663 78.1828 78.048 76.9109 78.1212 75.6034Z" fill="#706F6F"/>
<path d="M76.6856 76.4642C76.6856 75.0052 75.6456 74.3924 74.3711 75.1219C73.6935 75.5612 73.1295 76.1534 72.7248 76.8505C72.3201 77.5477 72.0862 78.33 72.042 79.1341C72.042 80.593 73.082 81.2058 74.3711 80.4617C75.0449 80.0231 75.6055 79.4327 76.0076 78.7382C76.4097 78.0437 76.642 77.2647 76.6856 76.4642Z" fill="#DADADA"/>
<path d="M75.4551 77.1644C75.4551 76.4787 74.9717 76.2015 74.3711 76.5517C74.0464 76.75 73.7744 77.0232 73.5781 77.3482C73.3818 77.6732 73.2669 78.0406 73.2432 78.4191C73.2432 79.1049 73.7266 79.3821 74.3272 79.0465C74.6521 78.845 74.924 78.569 75.1202 78.2417C75.3164 77.9143 75.4312 77.545 75.4551 77.1644Z" fill="#3C3C3B"/>
<path d="M68.0869 84.3279L75.6749 88.6756V93.4465L68.0869 89.0842V84.3279Z" fill="#9D9D9C"/>
<path d="M84.2444 75.0344L91.8177 79.3967L75.6749 88.6756L68.0869 84.3279L84.2444 75.0344Z" fill="#DADADA"/>
<path d="M91.8176 84.1674V79.3966L75.6748 88.6756V93.4464L91.8176 84.1674Z" fill="#878787"/>
<path d="M83.7169 76.4641H75.6455V81.731H83.7169V76.4641Z" fill="#878787"/>
<path d="M79.6885 84.0361C81.9214 84.0361 83.7316 82.9975 83.7316 81.7164C83.7316 80.4352 81.9214 79.3966 79.6885 79.3966C77.4556 79.3966 75.6455 80.4352 75.6455 81.7164C75.6455 82.9975 77.4556 84.0361 79.6885 84.0361Z" fill="#878787"/>
<path d="M79.6885 78.7839C81.9214 78.7839 83.7316 77.7453 83.7316 76.4642C83.7316 75.183 81.9214 74.1444 79.6885 74.1444C77.4556 74.1444 75.6455 75.183 75.6455 76.4642C75.6455 77.7453 77.4556 78.7839 79.6885 78.7839Z" fill="#DADADA"/>
<path d="M79.6885 77.6605C80.8373 77.6605 81.7686 77.1249 81.7686 76.4641C81.7686 75.8034 80.8373 75.2678 79.6885 75.2678C78.5397 75.2678 77.6084 75.8034 77.6084 76.4641C77.6084 77.1249 78.5397 77.6605 79.6885 77.6605Z" fill="#878787"/>
<path d="M79.9522 74.0131H78.9268V77.1353H79.9522V74.0131Z" fill="#3C3C3B"/>
<path d="M79.8056 76.9164C79.846 76.9352 79.8802 76.9651 79.9042 77.0026C79.9281 77.04 79.9409 77.0835 79.9409 77.128C79.9409 77.1724 79.9281 77.2159 79.9042 77.2534C79.8802 77.2909 79.846 77.3207 79.8056 77.3395C79.6922 77.3972 79.5667 77.4272 79.4394 77.4272C79.312 77.4272 79.1865 77.3972 79.0731 77.3395C79.0263 77.3272 78.9848 77.2997 78.9553 77.2614C78.9257 77.2232 78.9097 77.1763 78.9097 77.128C78.9097 77.0797 78.9257 77.0328 78.9553 76.9945C78.9848 76.9562 79.0263 76.9288 79.0731 76.9164C79.1865 76.8588 79.312 76.8287 79.4394 76.8287C79.5667 76.8287 79.6922 76.8588 79.8056 76.9164Z" fill="#3C3C3B"/>
<path d="M79.8056 73.7942C79.846 73.813 79.8802 73.8429 79.9042 73.8804C79.9281 73.9178 79.9409 73.9613 79.9409 74.0058C79.9409 74.0502 79.9281 74.0937 79.9042 74.1312C79.8802 74.1687 79.846 74.1985 79.8056 74.2173C79.6922 74.275 79.5667 74.305 79.4394 74.305C79.312 74.305 79.1865 74.275 79.0731 74.2173C79.0263 74.205 78.9848 74.1775 78.9553 74.1393C78.9257 74.101 78.9097 74.0541 78.9097 74.0058C78.9097 73.9575 78.9257 73.9106 78.9553 73.8723C78.9848 73.834 79.0263 73.8066 79.0731 73.7942C79.1865 73.7366 79.312 73.7065 79.4394 73.7065C79.5667 73.7065 79.6922 73.7366 79.8056 73.7942Z" fill="#575756"/>
<path d="M81.8858 73.7359H77.1397L76.3633 68.6879H82.6475L81.8858 73.7359Z" fill="#9D9D9C"/>
<path d="M81.1828 72.773C81.3828 72.8433 81.5559 72.9737 81.6783 73.1462C81.8008 73.3186 81.8665 73.5247 81.8665 73.7359C81.8665 73.9471 81.8008 74.1531 81.6783 74.3256C81.5559 74.498 81.3828 74.6284 81.1828 74.6988C80.6646 74.958 80.0927 75.093 79.5129 75.093C78.933 75.093 78.3611 74.958 77.8429 74.6988C77.6357 74.6359 77.4543 74.5083 77.3254 74.335C77.1965 74.1616 77.127 73.9516 77.127 73.7359C77.127 73.5202 77.1965 73.3101 77.3254 73.1368C77.4543 72.9634 77.6357 72.8359 77.8429 72.773C78.3611 72.5137 78.933 72.3788 79.5129 72.3788C80.0927 72.3788 80.6646 72.5137 81.1828 72.773Z" fill="#9D9D9C"/>
<path d="M81.7247 67.4186C82.9552 68.1189 82.9552 69.2569 81.7247 69.9717C81.0419 70.3097 80.2898 70.4856 79.5274 70.4856C78.7649 70.4856 78.0128 70.3097 77.3301 69.9717C76.0996 69.2569 76.0996 68.1189 77.3301 67.4186C78.0108 67.0739 78.7637 66.8942 79.5274 66.8942C80.2911 66.8942 81.0439 67.0739 81.7247 67.4186Z" fill="#3C3C3B"/>
<path d="M81.8712 63.7566H77.1396V67.8417H81.8712V63.7566Z" fill="#DADADA"/>
<path d="M79.5127 69.1839C80.8233 69.1839 81.8858 68.5765 81.8858 67.8271C81.8858 67.0778 80.8233 66.4703 79.5127 66.4703C78.2021 66.4703 77.1396 67.0778 77.1396 67.8271C77.1396 68.5765 78.2021 69.1839 79.5127 69.1839Z" fill="#DADADA"/>
<path d="M79.5127 65.1134C80.8233 65.1134 81.8858 64.5059 81.8858 63.7566C81.8858 63.0072 80.8233 62.3997 79.5127 62.3997C78.2021 62.3997 77.1396 63.0072 77.1396 63.7566C77.1396 64.5059 78.2021 65.1134 79.5127 65.1134Z" fill="#9D9D9C"/>
<path d="M83.9366 58.3876H75.0889V64.1505H83.9366V58.3876Z" fill="#9D9D9C"/>
<path d="M82.6332 62.356C83.0089 62.484 83.335 62.7258 83.566 63.0476C83.7969 63.3694 83.921 63.755 83.921 64.1505C83.921 64.546 83.7969 64.9316 83.566 65.2534C83.335 65.5752 83.0089 65.817 82.6332 65.945C81.6639 66.4346 80.5925 66.6898 79.5057 66.6898C78.4189 66.6898 77.3474 66.4346 76.3782 65.945C76.0025 65.817 75.6763 65.5752 75.4454 65.2534C75.2145 64.9316 75.0903 64.546 75.0903 64.1505C75.0903 63.755 75.2145 63.3694 75.4454 63.0476C75.6763 62.7258 76.0025 62.484 76.3782 62.356C77.3474 61.8664 78.4189 61.6112 79.5057 61.6112C80.5925 61.6112 81.6639 61.8664 82.6332 62.356Z" fill="#9D9D9C"/>
<path d="M82.6331 56.5931C83.0141 56.7178 83.3458 56.9591 83.581 57.2827C83.8162 57.6062 83.9428 57.9955 83.9428 58.3949C83.9428 58.7943 83.8162 59.1836 83.581 59.5071C83.3458 59.8307 83.0141 60.072 82.6331 60.1967C81.6638 60.6863 80.5924 60.9415 79.5056 60.9415C78.4188 60.9415 77.3473 60.6863 76.3781 60.1967C76.004 60.0649 75.6802 59.8209 75.4512 59.4982C75.2221 59.1755 75.0991 58.7901 75.0991 58.3949C75.0991 57.9997 75.2221 57.6143 75.4512 57.2916C75.6802 56.9689 76.004 56.7249 76.3781 56.5931C77.3473 56.1035 78.4188 55.8483 79.5056 55.8483C80.5924 55.8483 81.6638 56.1035 82.6331 56.5931Z" fill="#9D9D9C"/>
<path d="M85.7677 49.5317H73.2578V57.6727H85.7677V49.5317Z" fill="#3C3C3B"/>
<path d="M83.9369 55.1341C86.3686 56.5931 86.3686 58.8107 83.9369 60.2259C82.573 60.9074 81.0682 61.2623 79.5423 61.2623C78.0164 61.2623 76.5116 60.9074 75.1477 60.2259C72.7014 58.7669 72.7014 56.5347 75.1477 55.1341C76.5116 54.4526 78.0164 54.0977 79.5423 54.0977C81.0682 54.0977 82.573 54.4526 83.9369 55.1341Z" fill="#3C3C3B"/>
<path d="M83.9369 46.9931C86.3686 48.4521 86.3686 50.6697 83.9369 52.0703C82.5751 52.7586 81.0695 53.1172 79.5423 53.1172C78.0152 53.1172 76.5096 52.7586 75.1477 52.0703C72.7014 50.6114 72.7014 48.3937 75.1477 46.9931C76.5116 46.3116 78.0164 45.9568 79.5423 45.9568C81.0682 45.9568 82.573 46.3116 83.9369 46.9931Z" fill="#9D9D9C"/>
<path d="M101.325 32.0388H92.7993V46.3658H101.325V32.0388Z" fill="#2F75A3"/>
<path d="M84.6839 57.2788L99.3326 48.8168C101.164 47.781 101.764 46.2199 100.885 44.8193L94.6889 35.0151L58.2285 14.0352L24.1997 19.5647V33.5561L60.6602 54.5652L77.7258 58.1542C80.0771 58.6723 82.5359 58.363 84.6839 57.2788Z" fill="#2F75A3"/>
<path d="M84.6839 43.229L99.3326 34.7816C101.164 33.7458 101.764 32.1847 100.885 30.7841L94.645 20.9653L58.2285 0L24.1997 19.5647L60.6602 40.5299L77.7258 44.119C80.0784 44.64 82.5399 44.3252 84.6839 43.229Z" fill="#398CC4"/>
<path d="M60.6599 40.5299L39.2582 28.2309L24.1994 19.5647L15.7179 42.5287C11.367 54.3224 9.14042 66.7883 9.14063 79.3529V106.65L24.1994 115.258L39.2582 124.012V42.3099L60.6599 54.5651V40.5299Z" fill="#2B6A94"/>
<path opacity="0.2" d="M11.0449 105.556V79.2945C11.0645 66.9683 13.2764 54.7429 17.5782 43.1853L25.2834 22.3367L58.8288 41.6388V51.2825L37.3539 38.9834V120.685L11.0449 105.556Z" fill="#1D1D1B"/>
<path d="M85.8849 29.471H73.1406V32.5494H85.8849V29.471Z" fill="#3C3C3B"/>
<path d="M84.0099 29.9525C86.5002 31.4114 86.5002 33.702 84.0099 35.1318C82.616 35.8436 81.0719 36.2148 79.5055 36.2148C77.939 36.2148 76.395 35.8436 75.001 35.1318C72.5107 33.6728 72.5107 31.3823 75.001 29.9525C76.397 29.2475 77.9402 28.8802 79.5055 28.8802C81.0707 28.8802 82.6139 29.2475 84.0099 29.9525Z" fill="#3C3C3B"/>
<path d="M84.0099 26.8741C86.5002 28.333 86.5002 30.6236 84.0099 32.0534C82.6139 32.7583 81.0707 33.1257 79.5055 33.1257C77.9402 33.1257 76.397 32.7583 75.001 32.0534C72.5107 30.5944 72.5107 28.3039 75.001 26.8741C76.397 26.1691 77.9402 25.8018 79.5055 25.8018C81.0707 25.8018 82.6139 26.1691 84.0099 26.8741Z" fill="#DADADA"/>
<path d="M82.267 26.0716C82.6032 26.1796 82.8964 26.391 83.1044 26.6755C83.3124 26.9599 83.4245 27.3027 83.4245 27.6546C83.4245 28.0065 83.3124 28.3493 83.1044 28.6337C82.8964 28.9182 82.6032 29.1296 82.267 29.2376C81.4111 29.6695 80.4651 29.8946 79.5057 29.8946C78.5462 29.8946 77.6003 29.6695 76.7444 29.2376C76.4082 29.1296 76.1149 28.9182 75.907 28.6337C75.699 28.3493 75.5869 28.0065 75.5869 27.6546C75.5869 27.3027 75.699 26.9599 75.907 26.6755C76.1149 26.391 76.4082 26.1796 76.7444 26.0716C77.5982 25.6328 78.5449 25.4038 79.5057 25.4038C80.4664 25.4038 81.4132 25.6328 82.267 26.0716Z" fill="#9D9D9C"/>
<path d="M59.492 104.579L57.8428 105.528L61.754 112.275L63.4031 111.326L59.492 104.579Z" fill="#3C3C3B"/>
<path d="M58.6826 106.373C58.6826 104.622 59.9131 103.907 61.4366 104.783C62.2449 105.302 62.9175 106.006 63.3989 106.835C63.8803 107.665 64.1567 108.596 64.2052 109.553C64.2052 111.304 62.9747 112.019 61.4366 111.144C60.635 110.618 59.9684 109.913 59.4901 109.084C59.0118 108.256 58.7353 107.327 58.6826 106.373Z" fill="#3C3C3B"/>
<path d="M57.042 107.321C57.042 105.556 58.2725 104.856 59.7959 105.731C60.5999 106.252 61.2694 106.953 61.7504 107.78C62.2314 108.606 62.5103 109.534 62.5645 110.487C62.5645 112.252 61.3194 112.953 59.7959 112.077C58.9939 111.556 58.3266 110.854 57.8481 110.027C57.3696 109.201 57.0934 108.274 57.042 107.321Z" fill="#706F6F"/>
<path d="M57.1299 108.488C57.1299 107.409 57.877 107.029 58.8145 107.511C59.3077 107.83 59.7185 108.261 60.0137 108.768C60.3089 109.275 60.4802 109.844 60.5137 110.429C60.5137 111.508 59.752 111.888 58.8145 111.406C58.3224 111.087 57.9132 110.656 57.6204 110.149C57.3276 109.642 57.1595 109.073 57.1299 108.488Z" fill="#3C3C3B"/>
<path d="M56.3486 105.243L55.5874 105.68L60.4727 114.108L61.2339 113.67L56.3486 105.243Z" fill="#706F6F"/>
<path d="M55.3428 107.482C55.3428 105.279 56.8955 104.389 58.7999 105.497C59.8045 106.15 60.6408 107.029 61.2414 108.063C61.8419 109.097 62.1898 110.257 62.2569 111.45C62.2569 113.638 60.7042 114.528 58.7999 113.434C57.7953 112.782 56.9589 111.903 56.3583 110.869C55.7578 109.835 55.4099 108.674 55.3428 107.482Z" fill="#575756"/>
<path d="M54.5811 107.963C54.5811 105.76 56.1338 104.885 58.0381 105.979C59.0424 106.624 59.8809 107.495 60.4864 108.521C61.0918 109.547 61.4474 110.7 61.5245 111.888C61.5245 114.076 59.9718 114.966 58.0674 113.872C57.0631 113.227 56.2246 112.356 55.6192 111.33C55.0137 110.304 54.6582 109.151 54.5811 107.963Z" fill="#9D9D9C"/>
<path d="M55.5771 108.488C55.5771 106.927 56.6758 106.3 58.0381 107.029C58.7505 107.498 59.3428 108.125 59.7676 108.863C60.1924 109.6 60.4379 110.426 60.4844 111.275C60.4844 112.821 59.3858 113.463 58.0381 112.734C57.319 112.272 56.7207 111.645 56.2927 110.907C55.8648 110.169 55.6195 109.34 55.5771 108.488Z" fill="#DADADA"/>
<path d="M57.5254 109.612C57.5254 109.291 57.7598 109.159 58.0381 109.32C58.1845 109.416 58.306 109.546 58.3925 109.698C58.4791 109.85 58.5283 110.021 58.5361 110.195C58.5361 110.516 58.3164 110.648 58.0381 110.487C57.8897 110.391 57.7661 110.262 57.677 110.11C57.5879 109.958 57.536 109.787 57.5254 109.612Z" fill="#575756"/>
<path d="M54.7937 106.971L51.1528 109.064L51.8486 110.265L55.4895 108.171L54.7937 106.971Z" fill="#3C3C3B"/>
<path d="M54.6689 107.277C54.6689 106.971 54.8887 106.84 55.1524 107C55.2966 107.092 55.4169 107.217 55.5034 107.364C55.59 107.511 55.6404 107.676 55.6504 107.846C55.6504 108.153 55.4307 108.284 55.1524 108.124C55.01 108.031 54.892 107.906 54.8079 107.759C54.7238 107.612 54.6762 107.447 54.6689 107.277Z" fill="#3C3C3B"/>
<path d="M51.021 109.422C51.021 109.116 51.2407 108.984 51.519 109.145C51.6614 109.237 51.7794 109.363 51.8635 109.51C51.9476 109.657 51.9952 109.822 52.0025 109.991C52.0025 110.297 51.7827 110.429 51.519 110.268C51.3748 110.176 51.2545 110.052 51.168 109.905C51.0814 109.758 51.031 109.592 51.021 109.422Z" fill="#575756"/>
<path d="M94.2706 94.4975L88.4258 104.58L90.8869 105.995L96.7317 95.9127L94.2706 94.4975Z" fill="#3C3C3B"/>
<path d="M95.465 97.1522C95.465 94.5261 93.6192 93.461 91.334 94.7741C90.1326 95.558 89.1329 96.612 88.4153 97.8512C87.6978 99.0904 87.2826 100.48 87.2031 101.908C87.2031 104.535 89.0635 105.6 91.334 104.287C92.5371 103.504 93.5381 102.451 94.2558 101.211C94.9735 99.9716 95.3878 98.581 95.465 97.1522Z" fill="#3C3C3B"/>
<path d="M97.9259 98.5674C97.9259 95.9413 96.0802 94.8762 93.795 96.1893C92.5919 96.9715 91.5909 98.0251 90.8732 99.2646C90.1555 100.504 89.7412 101.895 89.6641 103.324C89.6641 105.95 91.5098 107.015 93.795 105.702C94.998 104.92 95.999 103.866 96.7167 102.626C97.4345 101.387 97.8487 99.9962 97.9259 98.5674Z" fill="#706F6F"/>
<path d="M97.7799 100.318C97.7799 98.7133 96.6373 98.0568 95.2456 98.8592C94.5061 99.3375 93.8909 99.9835 93.4504 100.744C93.0099 101.505 92.7566 102.359 92.7114 103.236C92.7114 104.841 93.8394 105.497 95.2456 104.695C95.9835 104.215 96.5975 103.569 97.0378 102.808C97.4781 102.048 97.7323 101.195 97.7799 100.318Z" fill="#3C3C3B"/>
<path d="M98.9493 95.4829L91.647 108.08L92.7887 108.737L100.091 96.1395L98.9493 95.4829Z" fill="#706F6F"/>
<path d="M100.461 98.8154C100.461 95.5327 98.1461 94.2051 95.2896 95.8975C93.7893 96.8774 92.541 98.1945 91.6454 99.7429C90.7498 101.291 90.2318 103.027 90.1333 104.812C90.1333 108.094 92.4478 109.422 95.2896 107.73C96.7968 106.756 98.051 105.44 98.9497 103.891C99.8485 102.342 100.366 100.602 100.461 98.8154Z" fill="#575756"/>
<path d="M101.603 99.472C101.603 96.1893 99.2887 94.8616 96.4322 96.554C94.9294 97.5314 93.6793 98.8479 92.7834 100.397C91.8874 101.946 91.3709 103.683 91.2759 105.468C91.2759 108.751 93.5757 110.079 96.4322 108.386C97.9385 107.411 99.1921 106.096 100.091 104.547C100.989 102.997 101.508 101.259 101.603 99.472Z" fill="#9D9D9C"/>
<path d="M100.109 100.333C100.109 97.9984 98.4683 97.0501 96.4322 98.2172C95.3654 98.9121 94.4779 99.8474 93.8416 100.947C93.2054 102.048 92.8383 103.281 92.77 104.549C92.77 106.883 94.4107 107.817 96.4322 106.665C97.5017 105.971 98.392 105.037 99.0309 103.937C99.6697 102.836 100.039 101.602 100.109 100.333Z" fill="#DADADA"/>
<path d="M97.1939 101.996C97.1939 101.514 96.857 101.325 96.4321 101.573C96.2136 101.715 96.032 101.907 95.9021 102.133C95.7723 102.358 95.6979 102.612 95.6851 102.871C95.6851 103.353 96.022 103.542 96.4321 103.309C96.6537 103.165 96.8381 102.971 96.9705 102.743C97.1028 102.515 97.1793 102.259 97.1939 101.996Z" fill="#575756"/>
<path d="M101.249 98.0389L100.209 99.8331L105.664 102.97L106.704 101.176L101.249 98.0389Z" fill="#3C3C3B"/>
<path d="M101.471 98.5236C101.471 98.0567 101.149 97.8671 100.739 98.1005C100.524 98.2391 100.346 98.4264 100.219 98.6471C100.091 98.8678 100.019 99.1155 100.006 99.3698C100.006 99.8221 100.329 100.012 100.739 99.7783C100.953 99.643 101.131 99.4583 101.259 99.24C101.386 99.0216 101.459 98.7759 101.471 98.5236Z" fill="#3C3C3B"/>
<path d="M106.935 101.646C106.935 101.194 106.613 101.004 106.203 101.237C105.989 101.373 105.81 101.557 105.683 101.776C105.555 101.994 105.482 102.24 105.47 102.492C105.47 102.959 105.792 103.149 106.203 102.915C106.417 102.777 106.595 102.589 106.723 102.368C106.85 102.148 106.923 101.9 106.935 101.646Z" fill="#575756"/>
<path d="M142.795 74.0715C142.944 74.7023 143.013 75.3493 143 75.9973C143 79.0611 142.37 83.0587 141.74 89.3176C141.345 91.1413 137.653 91.0975 137.522 89.3176C136.994 82.7085 137.756 92.3522 136.511 76.435L135.852 72.2186L135.603 70.5554L135.5 70.0301L135.222 68.2648L134.636 64.5153C133.889 60.4156 139.616 59.5986 140.495 64.0922L141.272 67.3602L141.653 68.9943L141.77 69.5195L142.092 71.0952L142.795 74.0715Z" fill="#29406A"/>
<path opacity="0.3" d="M137.404 88.3693C137.729 90.3985 138.435 92.3486 139.485 94.1176C139.792 84.2988 140.949 78.8131 140.744 75.8514C140.656 74.9614 140.29 73.4295 138.195 65.2301C137.8 67.4623 135.764 68.1481 135.368 70.3657C134.782 72.8945 134.624 75.5029 134.9 78.0836C135.104 79.1492 135.373 80.2016 135.705 81.2349C136.379 83.5887 136.945 85.9668 137.404 88.3693Z" fill="#1D1D1B"/>
<path d="M125.729 62.1955C125.923 62.4516 126.181 62.6528 126.476 62.7791H126.564C127.256 63.0309 127.997 63.1159 128.728 63.0272C129.459 62.9384 130.158 62.6784 130.768 62.2685C131.014 62.155 131.218 61.9673 131.351 61.7319C131.484 61.4966 131.538 61.2256 131.508 60.9574C131.477 60.6892 131.362 60.4376 131.179 60.2381C130.997 60.0387 130.755 59.9017 130.49 59.8466C130.191 59.7229 129.875 59.6442 129.553 59.6131C129.377 59.5981 129.201 59.5981 129.025 59.6131H128.747H128.307C127.578 59.6932 126.879 59.9485 126.271 60.3572C125.95 60.5774 125.709 60.8945 125.583 61.2618C125.567 61.3388 125.567 61.4181 125.583 61.4952C125.547 61.7386 125.599 61.9868 125.729 62.1955Z" fill="#FFBB7D"/>
<path d="M124.616 54.0253L130.578 53.325L131.501 60.9991L125.67 62.7791L124.616 54.0253Z" fill="#FFBB7D"/>
<path opacity="0.1" d="M125.539 61.5244C125.788 61.7724 125.685 61.9913 125.729 62.1955C125.773 62.3998 126.125 62.6186 126.476 62.7791C127.074 62.4615 127.59 62.0104 127.984 61.4612C128.378 60.912 128.639 60.2795 128.747 59.6132C128.806 59.222 128.836 58.827 128.835 58.4314L124.894 59.3068V61.5682L125.539 61.5244Z" fill="#21211F"/>
<path d="M122.36 57.629L122.873 57.7457C122.873 58.0958 122.873 59.5985 122.873 59.5985C122.873 60.4885 123.503 61.6557 124.572 61.5973H124.909H125.495H125.7C126.768 61.3355 127.689 60.6644 128.263 59.7299C128.502 59.3582 128.676 58.9487 128.776 58.5189C128.87 58.1424 128.905 57.7535 128.879 57.3663C129.758 57.3663 131.31 57.804 131.574 57.0454C131.945 55.9869 132.114 54.8685 132.072 53.7481C132.068 53.4046 132.029 53.0624 131.955 52.7268C131.091 48.8752 128.307 49.0211 126.55 49.094C125.74 49.1408 124.957 49.4057 124.287 49.8605C123.616 50.3153 123.082 50.9429 122.741 51.6764C122.359 52.5339 122.178 53.4671 122.214 54.4047C122.288 54.6145 122.376 54.8192 122.477 55.0174L121.935 56.8995C121.911 56.9751 121.903 57.055 121.912 57.134C121.92 57.213 121.945 57.2893 121.985 57.358C122.025 57.4267 122.079 57.4863 122.144 57.533C122.208 57.5797 122.282 57.6123 122.36 57.629Z" fill="#FFBB7D"/>
<path d="M131.164 58.3584C127.648 59.2776 129.465 55.1341 129.465 55.1341C129.465 55.1341 128.718 56.4472 128.454 56.8119C127.868 56.8119 127.868 56.8119 127.341 56.8119C126.96 52.435 127.736 50.3341 122.858 51.5743C121.877 51.4575 121.203 48.4229 127.165 48.3354C128.373 48.232 129.577 48.5684 130.555 49.282C131.532 49.9956 132.217 51.0381 132.482 52.2162C133.054 54.711 133.2 57.5998 131.164 58.3584Z" fill="black"/>
<path d="M130.08 55.4405C130.08 56.2721 129.45 57.235 128.923 57.2642C128.395 57.2934 128.41 56.6077 128.366 55.8053C128.366 55.2654 128.176 54.5068 128.761 54.3463C129.347 54.1858 130.036 54.2588 130.08 55.4405Z" fill="#FFBB7D"/>
<path d="M138.766 84.6197C138.348 85.1337 137.855 85.5814 137.302 85.9474L136.994 86.1516C136.563 86.4267 136.112 86.6705 135.646 86.8811C134.703 87.329 133.723 87.6951 132.716 87.9753C130.823 88.5733 128.842 88.8495 126.857 88.7924H126.462C125.673 88.7796 124.921 88.4602 124.367 87.9024C124.307 87.8265 124.258 87.7431 124.22 87.6544C123.505 85.7426 123.013 83.755 122.755 81.731C122.55 80.5346 122.36 79.2653 122.184 77.9669C122.184 77.4854 122.052 77.0185 121.979 76.5079C121.364 71.7955 120.895 67.2143 120.646 66.0909L121.188 65.6824C121.188 65.6824 121.188 65.6824 121.276 65.6824C123.517 63.99 124.748 62.9979 126.344 61.9475C126.502 61.8288 126.669 61.7216 126.842 61.6265L127.209 61.3931L127.502 61.3055L132.116 60.0946C132.38 60.0946 136.51 61.0575 137.507 61.2472C137.756 62.8958 137.961 64.3256 138.136 65.6241C138.887 70.9888 139.23 76.4024 139.162 81.8185C139.327 82.7705 139.189 83.7501 138.766 84.6197Z" fill="#29406A"/>
<path d="M139.44 89.3322C139.089 89.2831 138.731 89.3289 138.404 89.465C138.076 89.601 137.792 89.8222 137.58 90.1054C137.384 90.3872 137.255 90.7094 137.202 91.0479C137.148 91.3864 137.172 91.7325 137.272 92.0604C137.369 92.4168 137.394 92.7887 137.346 93.1547C137.243 93.6069 136.804 94.1176 136.95 94.5407C136.981 94.6356 137.039 94.7193 137.117 94.7817C137.195 94.8441 137.29 94.8823 137.39 94.8916C137.49 94.9009 137.59 94.8809 137.678 94.8341C137.767 94.7873 137.839 94.7157 137.888 94.6282C138.178 94.2174 138.378 93.75 138.473 93.2568C138.635 92.9212 139.074 92.7024 139.25 92.3668C139.458 91.9096 139.509 91.397 139.396 90.9079L139.44 89.3322Z" fill="#FFD2A1"/>
<path d="M141.681 94.6428C141.974 95.2556 141.843 95.8975 141.374 95.9267C141.491 96.3352 141.037 96.9771 140.524 96.6416C140.407 97.0793 139.616 96.7583 139.367 96.3498C139.118 95.9413 138.927 95.7078 138.81 95.5328C138.588 95.1271 138.415 94.696 138.298 94.2489C138.145 93.7785 138.085 93.283 138.122 92.7899C138.014 91.5646 138.291 90.3363 138.913 89.2738C139.251 89.2258 139.596 89.2635 139.916 89.3833C140.236 89.5032 140.521 89.7013 140.744 89.9595C140.986 90.2199 141.169 90.5294 141.281 90.8669C141.392 91.2043 141.429 91.5617 141.388 91.9145C141.381 92.4911 141.538 93.0579 141.843 93.5486C142.311 94.3656 141.901 94.8325 141.681 94.6428Z" fill="#FFD2A1"/>
<path d="M141.681 94.6428C141.974 95.2556 141.843 95.8975 141.374 95.9267C141.491 96.3352 141.037 96.9771 140.524 96.6416C140.407 97.0793 139.616 96.7583 139.367 96.3498C139.118 95.9413 138.927 95.7078 138.81 95.5328C138.588 95.1271 138.415 94.696 138.298 94.2489C138.145 93.7785 138.085 93.283 138.122 92.7899C138.014 91.5646 138.291 90.3363 138.913 89.2738C139.251 89.2258 139.596 89.2635 139.916 89.3833C140.236 89.5032 140.521 89.7013 140.744 89.9595C140.986 90.2199 141.169 90.5294 141.281 90.8669C141.392 91.2043 141.429 91.5617 141.388 91.9145C141.381 92.4911 141.538 93.0579 141.843 93.5486C142.311 94.3656 141.901 94.8325 141.681 94.6428Z" fill="#FFBB7D"/>
<path d="M139.44 89.3322C139.089 89.2831 138.731 89.3289 138.404 89.465C138.076 89.601 137.792 89.8222 137.58 90.1054C137.384 90.3872 137.255 90.7094 137.202 91.0479C137.148 91.3864 137.172 91.7325 137.272 92.0604C137.369 92.4168 137.394 92.7887 137.346 93.1547C137.243 93.6069 136.804 94.1176 136.95 94.5407C136.981 94.6356 137.039 94.7193 137.117 94.7817C137.195 94.8441 137.29 94.8823 137.39 94.8916C137.49 94.9009 137.59 94.8809 137.678 94.8341C137.767 94.7873 137.839 94.7157 137.888 94.6282C138.178 94.2174 138.378 93.75 138.473 93.2568C138.635 92.9212 139.074 92.7024 139.25 92.3668C139.458 91.9096 139.509 91.397 139.396 90.9079L139.44 89.3322Z" fill="#FFCEA1"/>
<path d="M132.497 126.098C133.288 126.579 133.962 127.003 134.753 127.382C136.029 128.089 137.362 128.689 138.737 129.176C140.832 129.818 141.931 129.322 142.121 128.316C142.28 126.925 142.161 125.517 141.77 124.172L141.594 123.063L141.228 120.758L136.628 120.466L136.716 120.904L136.994 122.669V123.034H136.628L135.061 123.136L134.079 123.034C133.763 122.989 133.441 123.026 133.143 123.141C132.846 123.256 132.583 123.445 132.38 123.691C132.083 124.029 131.929 124.469 131.951 124.918C131.973 125.367 132.168 125.79 132.497 126.098Z" fill="#1D1D1B"/>
<path d="M120.119 132.634C122.093 133.862 124.189 134.884 126.374 135.683C127.046 135.914 127.761 135.998 128.469 135.931C128.773 135.903 129.061 135.782 129.292 135.583C129.523 135.384 129.686 135.118 129.758 134.823C129.918 133.432 129.799 132.023 129.406 130.679V127.572L127.224 127.309L124.514 126.93V128.972V129.541L122.595 129.658L121.598 129.556C121.282 129.518 120.96 129.56 120.663 129.677C120.367 129.794 120.104 129.983 119.899 130.227C119.615 130.578 119.478 131.025 119.519 131.475C119.56 131.924 119.775 132.34 120.119 132.634Z" fill="#1D1D1B"/>
<path d="M134.519 88.4714L134.431 88.8653L132.585 98.5236L131.691 103.221L130.373 110.122C130.988 123.253 130.153 115.112 130.769 128.097C130.755 128.515 130.619 128.92 130.377 129.263C130.135 129.605 129.797 129.869 129.406 130.023C128.807 130.241 128.164 130.312 127.531 130.227C126.463 130.103 125.449 129.69 124.601 129.03C124.078 128.628 123.736 128.035 123.649 127.382C123.649 125.441 122.785 114.047 122.58 110.487C122.58 110.283 122.58 110.108 122.58 109.962C122.569 109.806 122.569 109.65 122.58 109.495C122.565 109.301 122.565 109.106 122.58 108.911L124.206 92.0312V91.5352V91.2872V91.0391V90.7765V90.5285V90.2805V89.9012V89.3322H124.719H125.026L125.905 89.2446H126.594H126.872L131.267 88.8653H132.248H132.541L134.519 88.4714Z" fill="#29406A"/>
<path d="M129.904 89.3176L129.992 90.0471L131.076 98.4945L131.677 103.221L132.233 107.598C132.953 112.129 134.026 116.597 135.441 120.962C135.657 121.625 136.104 122.189 136.701 122.553L136.936 122.699C137.616 123.15 138.402 123.421 139.217 123.485C140.033 123.549 140.851 123.404 141.594 123.063C141.995 122.776 142.3 122.373 142.467 121.91C142.635 121.446 142.657 120.943 142.531 120.466C142.165 118.745 140.378 108.649 139.602 105.118L139.162 96.5249C139.176 96.4086 139.176 96.291 139.162 96.1747C139.29 95.4951 139.373 94.808 139.411 94.1176V94.03C139.411 93.8258 139.411 93.6361 139.411 93.4319V93.0671C139.455 92.2702 139.455 91.4714 139.411 90.6744C139.418 90.5481 139.418 90.4215 139.411 90.2951C139.411 89.9595 139.411 89.6386 139.309 89.3176C139.174 88.2271 138.934 87.1521 138.591 86.1079L137.302 86.5893L137.067 86.6769L135.691 87.1729L132.57 88.3401L131.457 88.7486L129.904 89.3176Z" fill="#29406A"/>
<path d="M138.766 84.6197C138.766 85.0283 138.766 85.4076 138.766 85.7869C138.736 85.9106 138.687 86.0289 138.62 86.1371C138.315 86.6417 137.9 87.0708 137.404 87.3918L137.257 87.4939C136.389 88.0852 135.455 88.5747 134.474 88.9529C133.059 89.5086 131.585 89.9002 130.08 90.12C129.223 90.262 128.355 90.3206 127.487 90.2951H127.106C126.168 90.287 125.256 89.986 124.499 89.4343C124.499 89.0842 124.499 88.3401 124.499 87.9754C124.499 87.6106 124.499 87.6398 124.499 87.6398C125.029 87.9226 125.603 88.1149 126.198 88.2088H126.725C128.831 88.3862 130.95 88.1279 132.951 87.4501C133.829 87.1797 134.682 86.8331 135.5 86.4143C135.977 86.1744 136.437 85.9014 136.877 85.5972C137.013 85.5118 137.145 85.4193 137.272 85.32C137.826 84.9033 138.319 84.4123 138.737 83.8611C138.766 84.0362 138.766 84.3134 138.766 84.6197Z" fill="#29406A"/>
<path d="M132.951 61.4368C132.819 62.6915 129.494 64.7049 125.246 62.5894C125.504 62.3426 125.721 62.0571 125.891 61.7432C126.069 61.4595 126.315 61.2234 126.606 61.0556C126.897 60.8878 127.225 60.7933 127.561 60.7803C130.08 60.4302 130.695 59.9925 131.252 58.9128C131.662 59.5694 133.083 60.2259 132.951 61.4368Z" fill="#29406A"/>
<path opacity="0.3" d="M132.38 123.749C132.1 124.084 131.957 124.511 131.978 124.946C132 125.381 132.185 125.793 132.497 126.098C133.288 126.579 133.962 127.003 134.753 127.382C135.576 126.047 136.208 124.603 136.628 123.093L135.06 123.195L134.079 123.093C133.763 123.048 133.441 123.084 133.143 123.199C132.846 123.314 132.583 123.504 132.38 123.749Z" fill="#1D1D1B"/>
<path opacity="0.3" d="M127.224 127.309C127.248 128.288 127.351 129.264 127.531 130.227C127.981 132.113 128.294 134.029 128.469 135.961C128.773 135.933 129.061 135.811 129.292 135.612C129.523 135.413 129.686 135.147 129.758 134.852C129.918 133.461 129.799 132.052 129.406 130.708V130.023C129.799 129.872 130.139 129.609 130.382 129.266C130.624 128.923 130.759 128.516 130.769 128.097C130.153 115.112 130.988 123.253 130.373 110.122L131.691 103.221L132.248 107.598C132.968 112.129 134.04 116.597 135.456 120.962C135.668 121.623 136.11 122.187 136.701 122.553V120.992C136.694 120.846 136.694 120.7 136.701 120.554C136.54 118.234 136.218 115.944 136.057 113.624C135.339 107.317 135.691 100.935 137.097 94.7449C137.097 94.6282 137.097 94.5115 137.097 94.3802C137.067 94.4808 137.027 94.5784 136.98 94.672C136.642 95.6454 136.061 96.5174 135.293 97.2064C134.524 97.8954 133.592 98.3787 132.585 98.6112C132.101 98.7024 131.604 98.7024 131.12 98.6112C130.642 98.5148 130.182 98.3424 129.758 98.1005C130.402 102.054 128.923 104.753 128.176 107.496C127.875 108.368 127.746 109.289 127.795 110.21C127.883 111.012 128.908 115.841 128.22 119.095C127.557 121.783 127.222 124.541 127.224 127.309Z" fill="#1D1D1B"/>
<path opacity="0.3" d="M133.479 82.2562C133.526 84.52 133.144 86.7724 132.351 88.8945C133.382 88.1751 134.532 87.6418 135.749 87.3188C133.493 81.1912 135.046 74.1882 133.098 68.0168C133.503 72.7518 133.63 77.5064 133.479 82.2562Z" fill="#1D1D1B"/>
<path d="M110.07 72.0289C110.42 72.116 110.789 72.0878 111.122 71.9484C111.455 71.809 111.733 71.5659 111.915 71.2556C112.089 70.9384 112.19 70.5874 112.213 70.227C112.236 69.8666 112.179 69.5057 112.047 69.1693C111.785 68.497 111.386 67.886 110.875 67.3748C109.344 66.0684 107.959 64.6009 106.744 62.9979C106.642 62.8083 106.495 62.604 106.29 62.6186C106.085 62.6332 105.866 63.1584 105.909 63.4064C106.041 64.3839 107.594 66.0326 107.492 66.0472C106.979 66.2952 107.14 66.4994 107.037 66.8496C106.803 66.8496 106.437 67.404 106.583 67.6374C106.276 67.7979 106.305 68.2502 106.305 68.3669C106.305 68.8484 106.144 69.0088 106.305 69.4757C106.466 69.9426 107.081 70.3949 107.462 70.8325C107.667 71.0514 108.034 71.0952 108.136 70.8325C108.611 71.0883 109.062 71.3862 109.484 71.7225C109.664 71.8508 109.861 71.9538 110.07 72.0289Z" fill="#FFBB7D"/>
<path opacity="0.3" d="M127.531 90.0325C127.482 90.0872 127.438 90.1458 127.399 90.2076C127.04 90.7356 126.754 91.3099 126.549 91.9145C124.06 98.2577 122.769 105.004 122.741 111.815C122.741 111.392 122.638 110.969 122.58 110.545C122.521 110.122 122.58 110.166 122.58 110.02C122.569 109.865 122.569 109.709 122.58 109.553C122.565 109.359 122.565 109.164 122.58 108.97L124.206 92.0896V91.5936V91.3455V91.0975V90.8349V90.5869V90.3389V89.9595V89.3905C124.206 89.0404 124.206 88.2963 124.206 87.9316C124.146 87.8557 124.097 87.7723 124.059 87.6835C123.344 85.7717 122.852 83.7841 122.594 81.7602C122.018 82.3294 121.25 82.6665 120.439 82.7069C119.628 82.7473 118.831 82.4881 118.2 81.979L117.599 81.3079C118.26 81.4837 118.96 81.4376 119.591 81.1766C119.766 81.1291 119.929 81.05 120.075 80.9431C121.031 80.2067 121.724 79.1838 122.052 78.0252C122.126 77.8502 122.199 77.6605 122.257 77.4854L122.433 77.0185C123.341 74.6142 124.423 72.2786 125.671 70.0301C125.524 71.1535 125.378 72.2623 125.275 73.3857C124.967 76.3037 124.806 79.1194 124.748 81.9936C124.689 83.1491 124.748 84.3076 124.923 85.4513C125.1 86.4281 125.437 87.3695 125.92 88.238C126.029 88.4664 126.156 88.686 126.3 88.8945C126.388 89.0404 126.491 89.1717 126.593 89.3176C126.889 89.5769 127.202 89.8157 127.531 90.0325Z" fill="#1D1D1B"/>
<path d="M118.449 78.39L119.694 68.1772V67.8854C119.872 67.0615 120.36 66.3363 121.056 65.8577C121.753 65.3791 122.607 65.1831 123.443 65.3096C124.28 65.4361 125.037 65.8756 125.56 66.5385C126.082 67.2015 126.331 68.0379 126.256 68.8775L124.513 78.5796C124.059 80.2428 123.532 81.9936 121.701 81.7018C120.832 81.6827 120.004 81.3254 119.397 80.7064C118.789 80.0873 118.449 79.2558 118.449 78.39Z" fill="#29406A"/>
<path d="M123.049 81.41L122.917 81.5559L122.829 81.6435C122.252 82.2127 121.485 82.5498 120.674 82.5902C119.863 82.6306 119.065 82.3714 118.434 81.8623C118.434 81.8623 111.96 77.0769 109.337 71.6496C109.513 71.1827 111.081 69.5195 112.179 69.6508C112.247 69.6357 112.317 69.6357 112.384 69.6508L118.962 74.2465L122.067 76.4058L122.609 76.7851C122.943 77.0599 123.219 77.3975 123.422 77.7788C123.625 78.16 123.751 78.5773 123.791 79.0068C123.832 79.4364 123.788 79.8697 123.66 80.2821C123.533 80.6944 123.325 81.0777 123.049 81.41Z" fill="#29406A"/>
</g>
<defs>
<clipPath id="clip0_98_1986">
<rect width="143" height="155" fill="white"/>
</clipPath>
</defs>
</svg>
