<svg width="71" height="69" viewBox="0 0 71 69" fill="none" xmlns="http://www.w3.org/2000/svg">
<path d="M40.8892 2.52905H29.2363C26.37 2.52905 23.5758 3.43639 21.2561 5.12119L11.8273 11.9704C9.50759 13.6552 7.7813 16.0309 6.89561 18.7583L3.29513 29.8412C2.40944 32.5668 2.40944 35.5053 3.29513 38.2309L6.89561 49.3137C7.7813 52.0394 9.50759 54.4168 11.8273 56.1016L21.2561 62.9508C23.5758 64.6356 26.3682 65.543 29.2363 65.543H40.8892C43.7555 65.543 46.5497 64.6356 48.8694 62.9508L58.2981 56.1016C60.6179 54.4168 62.3442 52.0412 63.2299 49.3137L66.8304 38.2309C67.716 35.5053 67.716 32.5668 66.8304 29.8412L63.2299 18.7583C62.3442 16.0327 60.6179 13.6552 58.2981 11.9704L48.8694 5.12119C46.5497 3.43639 43.7573 2.52905 40.8892 2.52905Z" fill="url(#paint0_linear_260_855)"/>
<path d="M41.5098 68.0737H28.6158C25.598 68.0737 22.7136 67.1357 20.273 65.3625L9.84136 57.7828C7.40075 56.0096 5.61674 53.5545 4.68415 50.6864L0.699443 38.4238C-0.233148 35.5539 -0.233148 32.5198 0.699443 29.6517L4.68415 17.3873C5.61674 14.5174 7.39895 12.0642 9.84136 10.2892L20.2712 2.71119C22.7136 0.938003 25.598 0 28.6158 0H41.5098C44.5276 0 47.412 0.938003 49.8526 2.71119L60.2843 10.291C62.7249 12.0642 64.5089 14.5192 65.4415 17.3891L69.4262 29.6517C70.3588 32.5216 70.3588 35.5557 69.4262 38.4238L65.4415 50.6882C64.5089 53.5581 62.7267 56.0114 60.2843 57.7846L49.8526 65.3643C47.412 67.1375 44.5258 68.0755 41.5098 68.0755V68.0737ZM28.6158 0.443747C25.6918 0.443747 22.8976 1.35108 20.5328 3.07015L10.1011 10.6481C7.73627 12.3654 6.00998 14.7429 5.10625 17.5244L1.11974 29.787C0.216011 32.5667 0.216011 35.5052 1.11974 38.2849L5.10445 50.5493C6.00818 53.3291 7.73446 55.7065 10.0993 57.4256L20.531 65.0054C22.8958 66.7244 25.69 67.6318 28.614 67.6318H41.508C44.4302 67.6318 47.2262 66.7244 49.591 65.0054L60.0227 57.4256C62.3875 55.7083 64.1156 53.3291 65.0176 50.5493L69.0023 38.2849C69.906 35.5052 69.906 32.5667 69.0023 29.787L65.0176 17.5244C64.1138 14.7447 62.3875 12.3672 60.0227 10.6481L49.591 3.06835C47.2262 1.35108 44.4302 0.441944 41.508 0.441944H28.614L28.6158 0.443747Z" fill="url(#paint1_linear_260_855)"/>
<path d="M22.2978 8.32651L14.5538 13.9527C12.2341 15.6375 10.5078 18.0132 9.6221 20.7406L6.66378 29.8428C5.77809 32.5685 5.77809 35.5069 6.66378 38.2326L9.6221 47.3348C10.5078 50.0604 12.2341 52.4379 14.5538 54.1227L22.2978 59.7489C24.6175 61.4337 27.4099 62.341 30.278 62.341H39.8492C42.7155 62.341 45.5097 61.4337 47.8295 59.7489L55.5734 54.1227C57.8931 52.4379 59.6194 50.0622 60.5051 47.3348L63.4634 38.2326C64.3491 35.5069 64.3491 32.5685 63.4634 29.8428L60.5051 20.7406C59.6194 18.015 57.8931 15.6375 55.5734 13.9527L47.8295 8.32651C45.5097 6.64171 42.7174 5.73438 39.8492 5.73438H30.278C27.4117 5.73438 24.6175 6.64171 22.2978 8.32651Z" fill="url(#paint2_linear_260_855)"/>
<path d="M35.3284 51.1104C32.711 51.1104 30.1117 50.5043 27.7811 49.3553L17.7246 51.0473L20.4033 42.3311C18.9963 39.8039 18.2567 36.9484 18.2567 34.037C18.2567 24.6227 25.9159 16.9653 35.3302 16.9653C44.7445 16.9653 52.4036 24.6245 52.4036 34.037C52.4036 43.4495 44.7445 51.1104 35.3302 51.1104H35.3284ZM28.1815 46.7956L28.5477 46.9886C30.6221 48.0781 32.9653 48.6536 35.3266 48.6536C43.3862 48.6536 49.9432 42.0966 49.9432 34.037C49.9432 25.9774 43.3862 19.4222 35.3266 19.4222C27.267 19.4222 20.7118 25.9792 20.7118 34.037C20.7118 36.6886 21.4297 39.2862 22.7862 41.5482L23.0676 42.0172L21.2403 47.9627L28.1779 46.7956H28.1815Z" fill="white"/>
<path d="M27.6959 24.2186C27.8582 24.0761 28.7006 23.5367 29.4528 23.8308C30.1996 24.1212 30.8653 24.9455 31.392 25.5156C32.0612 26.2407 32.909 27.1048 32.992 28.142C33.0497 28.8707 32.4202 29.3181 31.9079 29.7095C31.3848 30.11 30.9717 30.6024 30.8111 31.2554C30.5189 32.4478 31.585 33.1801 31.6896 33.3262C32.155 33.9774 32.8441 34.542 33.4033 35.112C34.3088 36.0338 35.2161 36.9592 36.174 37.8286C36.9118 38.4979 37.9309 38.8911 38.8671 38.368C39.2532 38.1533 39.5779 37.8178 39.8611 37.4859C40.0234 37.2965 40.1695 36.9917 40.3698 36.8419C40.4527 36.7788 40.7882 36.1944 41.5621 36.4649C42.2097 36.6922 42.8104 37.2406 43.3389 37.6609C43.7628 37.9982 44.1885 38.3373 44.5817 38.7125C44.8668 38.9831 45.3917 39.4052 45.4728 39.8129C45.6749 40.8266 45.3448 41.3696 44.6719 42.0839C43.7935 43.0147 42.8266 43.7723 41.5837 44.1349C37.8137 45.2298 34.6948 41.5554 32.2434 39.2465C30.1582 37.2839 28.0639 35.2203 26.3935 32.8843C25.3743 31.4592 24.9595 29.861 25.1759 28.1203C25.3779 26.4914 26.509 25.2684 27.6941 24.224L27.6959 24.2186Z" fill="white"/>
<defs>
<linearGradient id="paint0_linear_260_855" x1="1.68068" y1="73.0921" x2="49.5278" y2="17.1132" gradientUnits="userSpaceOnUse">
<stop stop-color="#34AF13"/>
<stop offset="1" stop-color="#34C94B"/>
</linearGradient>
<linearGradient id="paint1_linear_260_855" x1="-0.000450963" y1="34.0369" x2="70.1261" y2="34.0369" gradientUnits="userSpaceOnUse">
<stop stop-color="#34AF13"/>
<stop offset="1" stop-color="#34C94B"/>
</linearGradient>
<linearGradient id="paint2_linear_260_855" x1="74.4236" y1="3.4038" x2="34.3294" y2="34.6086" gradientUnits="userSpaceOnUse">
<stop stop-color="#34AF13"/>
<stop offset="1" stop-color="#34C94B"/>
</linearGradient>
</defs>
</svg>
