<svg width="242" height="177" viewBox="0 0 242 177" fill="none" xmlns="http://www.w3.org/2000/svg">
<path d="M235.33 107.897L232.951 105.624L230.822 107.853C230.151 107.427 229.406 107.112 228.615 106.917L228.546 103.915L225.257 103.991L225.322 106.864C224.332 107.074 223.415 107.478 222.615 108.04L220.386 105.909L218.113 108.288L220.411 110.484C220.085 111.062 219.836 111.685 219.675 112.345L216.672 112.413L216.748 115.702L219.621 115.637C219.831 116.627 220.235 117.544 220.797 118.344L218.934 120.292L221.313 122.565L223.24 120.548C223.978 120.964 224.789 121.258 225.652 121.4L225.718 124.274L229.007 124.199L228.939 121.197C229.849 120.93 230.684 120.493 231.412 119.923L233.654 122.066L235.927 119.687L233.496 117.364C233.812 116.724 234.037 116.033 234.157 115.306L237.03 115.241L236.955 111.951L233.953 112.02C233.762 111.369 233.485 110.757 233.133 110.194L235.33 107.897ZM229.873 114.032C229.91 115.695 228.589 117.078 226.927 117.116C225.264 117.153 223.881 115.832 223.843 114.17C223.805 112.507 225.127 111.124 226.789 111.086C228.452 111.048 229.835 112.37 229.873 114.032Z" fill="#E1E3E6"/>
<path d="M228.619 90.9077L227.318 89.6659L226.154 90.8841C225.788 90.6507 225.381 90.4789 224.949 90.3729L224.911 88.7322L223.113 88.7729L223.149 90.3432C222.608 90.458 222.107 90.6789 221.67 90.986L220.452 89.8215L219.209 91.1218L220.465 92.3212C220.287 92.6371 220.151 92.9781 220.063 93.3384L218.422 93.3755L218.463 95.1734L220.033 95.1374C220.148 95.6784 220.369 96.1797 220.676 96.6168L219.658 97.6815L220.959 98.9238L222.012 97.8215C222.415 98.0486 222.858 98.2094 223.33 98.2872L223.366 99.858L225.164 99.8167L225.127 98.176C225.624 98.0303 226.08 97.7917 226.478 97.4799L227.704 98.6512L228.946 97.351L227.618 96.0815C227.79 95.7316 227.914 95.3541 227.979 94.9567L229.55 94.9212L229.508 93.1233L227.868 93.1609C227.764 92.8053 227.612 92.4706 227.42 92.163L228.619 90.9077ZM225.636 94.2612C225.657 95.1698 224.935 95.9259 224.026 95.9463C223.117 95.9666 222.361 95.2444 222.341 94.3363C222.32 93.4277 223.043 92.6716 223.951 92.6512C224.859 92.6304 225.616 93.352 225.636 94.2612Z" fill="#E1E3E6"/>
<path d="M45.6955 21.72C46.3174 21.4876 46.9101 21.1717 47.4584 20.7717L49.7968 22.6552L51.861 20.0929L49.6223 18.2897C49.9706 17.6406 50.2129 16.9555 50.3524 16.2553L53.6954 15.895L53.3435 12.6234L50.2594 12.9561C50.0296 12.06 49.6343 11.2057 49.0751 10.4391L50.9586 8.10022L48.3962 6.036L46.5931 8.27463C45.8218 7.86106 44.9994 7.59997 44.1613 7.48038L43.8626 4.7065L40.5911 5.05899L40.8803 7.73834C39.9477 8.03077 39.0678 8.51119 38.2981 9.1681L36.06 7.36498L33.9958 9.92736L36.3347 11.8109C36.0605 12.4323 35.8778 13.0783 35.7838 13.7352L32.6245 14.0756L32.9765 17.3472L36.0422 17.0166C36.3342 17.9493 36.8151 18.8292 37.472 19.5989L35.6689 21.837L38.2313 23.9012L40.1148 21.5628C40.8605 21.8913 41.6427 22.0949 42.4344 22.166L42.7644 25.2307L46.0359 24.8787L45.6955 21.72ZM41.2083 17.1461C39.9132 16.1028 39.7085 14.201 40.7514 12.9059C41.7947 11.6109 43.6965 11.4062 44.9916 12.449C46.2866 13.4918 46.4913 15.3942 45.4485 16.6892C44.4057 17.9842 42.5033 18.1889 41.2083 17.1461Z" fill="#E1E3E6"/>
<path d="M59.9517 9.29813C60.2916 9.17124 60.6154 8.99839 60.9151 8.78012L62.1929 9.80935L63.3209 8.40884L62.0974 7.42346C62.288 7.0689 62.4201 6.69448 62.4963 6.3112L64.3235 6.11433L64.1308 4.32635L62.4452 4.50807C62.3198 4.01826 62.1037 3.55142 61.7982 3.13262L62.8274 1.8543L61.4269 0.726367L60.4415 1.94986C60.0201 1.72375 59.5705 1.58119 59.1125 1.51592L58.9491 0L57.1611 0.19269L57.3193 1.65691C56.8097 1.8167 56.3287 2.07936 55.9084 2.43811L54.6849 1.45273L53.557 2.85325L54.8353 3.88249C54.6854 4.22191 54.5857 4.57491 54.534 4.93418L52.8076 5.12008L53.0003 6.90806L54.6755 6.72738C54.8353 7.23704 55.0979 7.71798 55.4567 8.13834L54.4713 9.36183L55.8718 10.4898L56.9011 9.21196C57.3089 9.39108 57.7361 9.50282 58.169 9.54146L58.3491 11.2167L60.1371 11.0245L59.9517 9.29813ZM57.4995 6.7984C56.7919 6.22817 56.6797 5.18901 57.2499 4.48092C57.8201 3.77335 58.8593 3.66108 59.5674 4.23131C60.2755 4.80155 60.3872 5.8407 59.817 6.54879C59.2467 7.25636 58.2071 7.36811 57.4995 6.7984Z" fill="#E1E3E6"/>
<path d="M117.701 176.704C182.706 176.704 235.403 173.37 235.403 169.257C235.403 165.144 182.706 161.81 117.701 161.81C52.6967 161.81 0 165.144 0 169.257C0 173.37 52.6967 176.704 117.701 176.704Z" fill="#E1E3E6"/>
<path d="M98.9676 166.528C106.088 157.348 123.648 132.317 113.898 120.025C110.182 115.339 101.891 117.196 100.4 135.421C99.354 148.197 94.5911 161.03 92.3311 166.528H98.9676Z" fill="#D2D3D4"/>
<path d="M95.6129 166.528C100.229 158.691 103.433 150.394 105.431 144.297C108.122 136.084 109.268 129.976 109.279 129.916C109.32 129.698 109.176 129.488 108.957 129.448C108.739 129.407 108.53 129.551 108.49 129.769C108.478 129.83 107.34 135.895 104.663 144.06C102.644 150.219 99.3857 158.636 94.6792 166.528H95.6129V166.528Z" fill="#C4C4C4"/>
<path d="M146.056 113.858C143.254 105.665 131.043 104.185 120.185 128.329C112.704 144.962 100.297 159.934 94.418 166.528H108.524C124.71 155.433 152.601 132.996 146.056 113.858Z" fill="#E1E3E6"/>
<path d="M134.753 124.324C134.475 124.162 134.119 124.257 133.959 124.535C133.914 124.613 129.425 132.337 121.819 142.182C116.412 149.181 108.531 158.385 99.0664 166.528H100.839C109.931 158.542 117.501 149.676 122.751 142.877C130.4 132.973 134.921 125.195 134.965 125.117C135.127 124.84 135.031 124.483 134.753 124.324Z" fill="#D2D3D4"/>
<path d="M22.7159 162.153C22.6699 163.843 23.026 165.483 23.66 166.934H39.3069C43.2991 163.304 44.4656 157.344 41.8223 152.5C40.6463 150.346 38.861 148.654 36.1523 148.333C27.672 147.325 33.6286 140.91 30.5122 135.785C26.9242 129.881 20.7018 132.163 18.5065 127.502C15.4517 121.019 6.48043 117.629 5.57391 125.464C4.66739 133.299 11.7013 136.053 9.13943 141.632C6.57756 147.21 8.29035 153.011 13.6052 154.062C18.9227 155.113 22.8939 155.589 22.7159 162.153Z" fill="#D2D3D4"/>
<path d="M37.0628 166.933L14.3042 131.649C14.1209 131.365 13.7418 131.283 13.4572 131.466C13.1731 131.649 13.0906 132.029 13.2739 132.313L35.6043 166.933H37.0628Z" fill="#C4C4C4"/>
<path d="M26.3948 141.534C31.7734 145.543 35.9551 148.194 32.2559 155.431C30.3113 159.233 30.3457 163.705 31.8282 166.934H53.3106C56.849 164.071 59.0062 159.651 58.7451 154.838C58.58 151.805 57.4887 148.963 54.6344 147.16C45.7002 141.512 55.7738 137.523 55.0265 130.137C54.1675 121.628 46.0005 120.859 46.0344 114.481C46.0798 105.611 37.8679 97.0403 32.6763 105.308C27.4852 113.575 33.8731 120.403 28.0361 125.268C22.2001 130.133 21.0189 137.525 26.3948 141.534Z" fill="#E1E3E6"/>
<path d="M44.0123 166.933H45.5413L39.1293 116.873C39.076 116.458 38.6964 116.163 38.2813 116.217C37.8661 116.27 37.5716 116.65 37.6249 117.065L44.0123 166.933Z" fill="#D2D3D4"/>
<path d="M83.5826 164.186C69.8312 130.543 65.5811 106.741 71.3017 95.1207C71.5299 94.6575 71.3393 94.0967 70.8756 93.8685C70.4119 93.6403 69.8516 93.8314 69.6234 94.2946C66.1826 101.284 66.074 112.205 69.2996 126.754C71.6536 137.374 75.7737 149.94 81.5638 164.186H83.5826Z" fill="#D2D3D4"/>
<path d="M67.5051 113.545C67.5051 113.545 60.0936 116.027 56.2383 102.826C56.2383 102.826 68.6607 102.244 67.5051 113.545Z" fill="#E1E3E6"/>
<path d="M69.1407 120.453C69.1407 120.453 66.2498 113.192 79.2153 108.608C79.2153 108.608 80.4884 120.978 69.1407 120.453Z" fill="#E1E3E6"/>
<path d="M68.6538 100.279C68.6538 100.279 63.5071 94.3969 74.2031 85.7521C74.2031 85.7521 79.5274 96.9906 68.6538 100.279Z" fill="#E1E3E6"/>
<path d="M72.0021 134.453C72.0021 134.453 65.8674 139.295 57.7739 128.177C57.7739 128.177 69.2668 123.427 72.0021 134.453Z" fill="#E1E3E6"/>
<path d="M74.7345 141.238C74.7345 141.238 70.6311 134.586 82.6091 127.829C82.6091 127.829 86.0018 139.793 74.7345 141.238Z" fill="#E1E3E6"/>
<path d="M77.5516 150.901C77.5516 150.901 71.5099 155.859 63.207 144.896C63.207 144.896 74.608 139.929 77.5516 150.901Z" fill="#E1E3E6"/>
<path d="M160.315 165.613C182.727 137.002 193.313 115.264 190.982 102.523C190.889 102.015 191.225 101.528 191.733 101.435C192.241 101.342 192.728 101.679 192.821 102.186C194.223 109.849 191.347 120.385 184.273 133.502C179.109 143.076 171.716 154.04 162.257 166.164L160.315 165.613Z" fill="#D2D3D4"/>
<path d="M189.604 121.283C189.604 121.283 196.057 125.694 203.369 114.047C203.369 114.047 191.577 110.097 189.604 121.283Z" fill="#E1E3E6"/>
<path d="M186.146 127.483C186.146 127.483 190.909 121.287 179.687 113.338C179.687 113.338 175.086 124.891 186.146 127.483Z" fill="#E1E3E6"/>
<path d="M192.12 108.208C192.12 108.208 198.677 103.954 190.747 92.7186C190.747 92.7186 182.558 102.077 192.12 108.208Z" fill="#E1E3E6"/>
<path d="M179.571 140.171C179.571 140.171 184.151 146.504 194.972 138.017C194.972 138.017 185.212 130.31 179.571 140.171Z" fill="#E1E3E6"/>
<path d="M175.091 145.953C175.091 145.953 180.854 140.673 171.175 130.903C171.175 130.903 164.646 141.487 175.091 145.953Z" fill="#E1E3E6"/>
<path d="M169.744 154.479C169.744 154.479 174.203 160.898 185.182 152.618C185.182 152.618 175.57 144.728 169.744 154.479Z" fill="#E1E3E6"/>
<path d="M36.7281 53.64H1.44678V169.338H36.7281V53.64Z" fill="#0459BF"/>
<path d="M46.5279 53.64H11.2466V169.338H46.5279V53.64Z" fill="#0270D2"/>
<path d="M41.6609 81.3751H18.7367C17.9487 81.3751 17.3096 80.5531 17.3096 79.5391V61.7276C17.3096 60.7136 17.9487 59.8916 18.7367 59.8916H41.6604C42.4484 59.8916 43.0875 60.7136 43.0875 61.7276V79.5391C43.088 80.5531 42.4489 81.3751 41.6609 81.3751Z" fill="#0459BF"/>
<path d="M34.7369 65.2634H26.3317C26.0105 65.2634 25.7505 64.9287 25.7505 64.5161V64.089C25.7505 63.6765 26.0105 63.3417 26.3317 63.3417H34.7374C35.0585 63.3417 35.3186 63.6765 35.3186 64.089V64.5161C35.3181 64.9287 35.058 65.2634 34.7369 65.2634Z" fill="#1E91D7"/>
<path d="M41.6609 108.734H18.7367C17.9487 108.734 17.3096 107.912 17.3096 106.898V89.0873C17.3096 88.0732 17.9487 87.2513 18.7367 87.2513H41.6604C42.4484 87.2513 43.0875 88.0732 43.0875 89.0873V106.899C43.088 107.912 42.4489 108.734 41.6609 108.734Z" fill="#0459BF"/>
<path d="M34.7369 92.6225H26.3317C26.0105 92.6225 25.7505 92.2878 25.7505 91.8753V91.4481C25.7505 91.0356 26.0105 90.7009 26.3317 90.7009H34.7374C35.0585 90.7009 35.3186 91.0356 35.3186 91.4481V91.8753C35.3181 92.2878 35.058 92.6225 34.7369 92.6225Z" fill="#1E91D7"/>
<path d="M41.6609 136.094H18.7367C17.9487 136.094 17.3096 135.272 17.3096 134.258V116.446C17.3096 115.432 17.9487 114.61 18.7367 114.61H41.6604C42.4484 114.61 43.0875 115.432 43.0875 116.446V134.258C43.088 135.272 42.4489 136.094 41.6609 136.094Z" fill="#0459BF"/>
<path d="M34.7369 119.982H26.3317C26.0105 119.982 25.7505 119.647 25.7505 119.234V118.807C25.7505 118.395 26.0105 118.06 26.3317 118.06H34.7374C35.0585 118.06 35.3186 118.395 35.3186 118.807V119.234C35.3181 119.647 35.058 119.982 34.7369 119.982Z" fill="#1E91D7"/>
<path d="M41.6609 163.453H18.7367C17.9487 163.453 17.3096 162.631 17.3096 161.617V143.806C17.3096 142.791 17.9487 141.97 18.7367 141.97H41.6604C42.4484 141.97 43.0875 142.791 43.0875 143.806V161.617C43.088 162.631 42.4489 163.453 41.6609 163.453Z" fill="#0459BF"/>
<path d="M34.7369 147.341H26.3317C26.0105 147.341 25.7505 147.007 25.7505 146.594V146.167C25.7505 145.754 26.0105 145.42 26.3317 145.42H34.7374C35.0585 145.42 35.3186 145.754 35.3186 146.167V146.594C35.3181 147.007 35.058 147.341 34.7369 147.341Z" fill="#1E91D7"/>
<path d="M28.8274 41.9533H15.3789V43.886H28.8274V41.9533Z" fill="#3C3C48"/>
<path d="M27.3744 43.886H16.8335V53.7031H27.3744V43.886Z" fill="#3C3C48"/>
<path d="M27.3744 43.886V44.2489L16.8335 45.6656V43.886H27.3744Z" fill="#1A100E"/>
<path d="M26.844 40.2207C26.6873 40.4541 26.5327 40.6708 26.3881 40.8682C25.9233 41.4985 25.5526 41.9188 25.5233 41.9528C25.5223 41.9538 25.5212 41.9538 25.5212 41.9538H18.6858C18.6858 41.9538 18.6847 41.9538 18.6837 41.9528C18.6544 41.9188 18.2837 41.4985 17.8189 40.8682C17.6738 40.6708 17.5192 40.4541 17.3625 40.2207C16.5244 38.97 15.6388 37.2813 15.8816 35.9956C15.9558 35.6003 16.0722 35.3262 16.2163 35.1424C16.2915 35.0484 16.3719 34.9774 16.4592 34.9262C17.197 34.4959 18.3281 35.5016 18.6853 35.4693C19.1678 35.4254 18.3829 33.0165 17.2628 31.3069C16.2158 29.7084 15.5344 27.5722 16.8163 26.8025C16.8628 26.7748 16.9103 26.7492 16.9615 26.7257C17.008 26.7027 17.0565 26.6829 17.1088 26.6641C18.773 26.0505 19.3427 28.2855 20.044 27.9784C20.7333 27.6761 18.6221 20.5403 21.9422 20.5257C21.9933 20.5247 22.0482 20.5268 22.1035 20.5294C22.1583 20.5268 22.2126 20.5247 22.2649 20.5257C25.5844 20.5398 23.4727 27.6761 24.162 27.9784C24.8638 28.286 25.4335 26.051 27.0972 26.6641C27.1494 26.6829 27.1975 26.7027 27.2445 26.7257C27.2957 26.7497 27.3432 26.7748 27.3896 26.8025C28.6716 27.5722 27.9896 29.7084 26.9442 31.3069C25.8246 33.0165 25.0393 35.4254 25.5207 35.4693C25.8789 35.5016 27.0095 34.4954 27.7468 34.9262C27.834 34.9774 27.9145 35.0484 27.9896 35.1424C28.1338 35.3262 28.2502 35.6003 28.3244 35.9956C28.5677 37.2813 27.6821 38.97 26.844 40.2207Z" fill="#0270D2"/>
<path d="M22.2656 20.5252V41.9538H21.9429V20.5252C21.9946 20.5242 22.0494 20.5263 22.1042 20.5294C22.1591 20.5268 22.2128 20.5242 22.2656 20.5252Z" fill="#0459BF"/>
<path d="M22.2262 32.8035L22.1046 32.909L21.9818 33.0145L21.9432 32.969L16.6821 26.8939L16.8179 26.802C16.8644 26.7748 16.9114 26.7492 16.9631 26.7257L21.9432 32.4761L22.1046 32.6625L22.2262 32.8035Z" fill="#0459BF"/>
<path d="M22.2261 41.5857L22.1044 41.6912L21.9817 41.7967L21.9431 41.7512L16.2178 35.1419C16.2919 35.0484 16.3729 34.9774 16.4601 34.9267L21.9431 41.2583L22.1044 41.4447L22.2261 41.5857Z" fill="#0459BF"/>
<path d="M27.5255 26.8939L22.2655 32.968L22.2258 33.0145L22.1042 32.909L21.9814 32.8035L22.1042 32.6625L22.2655 32.475L27.2446 26.7262C27.2963 26.7503 27.3438 26.7759 27.3898 26.8025L27.5255 26.8939Z" fill="#0459BF"/>
<path d="M27.9898 35.1419L22.2655 41.7502L22.2258 41.7967L22.1042 41.6912L21.9814 41.5857L22.1042 41.4447L22.2655 41.2572L27.7475 34.9267C27.8347 34.9774 27.9156 35.0484 27.9898 35.1419Z" fill="#0459BF"/>
<path d="M26.388 40.8682C25.9232 41.4985 25.5525 41.9189 25.5233 41.9528C25.5222 41.9538 25.5212 41.9538 25.5212 41.9538H18.6857C18.6857 41.9538 18.6846 41.9538 18.6836 41.9528C18.6544 41.9189 18.2836 41.4985 17.8188 40.8682H26.388Z" fill="#0459BF"/>
<path d="M153.643 74.4936C151.313 78.2367 143.631 87.1223 141.015 87.9938C137.609 89.1285 127.681 90.1938 122.528 90.7097C121.598 90.8027 123.575 95.3437 123.575 95.3437C123.575 95.3437 136.332 95.8987 142.088 94.2711C143.716 93.8105 147.566 91.7411 153.098 86.9348C154.776 85.4774 158.482 82.6936 159.543 80.2273C160.764 77.3887 156.987 74.4273 153.643 74.4936Z" fill="#0270D2"/>
<path d="M172.322 135.304L173.014 138.294L179.928 168.154C180.074 168.779 180.63 169.221 181.272 169.221H182.202C183.081 169.221 183.735 168.41 183.549 167.551L176.865 136.653L176.441 134.695L172.322 135.304Z" fill="#0270D2"/>
<path d="M176.441 134.694L172.322 135.303L173.014 138.294C174.488 137.776 175.768 137.215 176.865 136.652L176.441 134.694Z" fill="#0459BF"/>
<path d="M157.38 136.007L157.392 140.641L157.464 168.094C157.466 168.718 157.943 169.221 158.529 169.221H160.18C160.765 169.221 161.238 168.723 161.246 168.106L161.549 140.517L161.599 136.007H157.38Z" fill="#0270D2"/>
<path d="M161.599 136.007H157.38L157.392 140.641C158.851 140.649 160.237 140.605 161.549 140.517L161.599 136.007Z" fill="#0459BF"/>
<path d="M137.313 169.221H138.243C138.884 169.221 139.442 168.779 139.585 168.154L146.348 138.95L147.192 135.304L143.074 134.695L142.468 137.493L135.964 167.551C135.779 168.41 136.433 169.221 137.313 169.221Z" fill="#0270D2"/>
<path d="M142.468 137.493C143.711 138.034 145.005 138.525 146.348 138.95L147.191 135.304L143.074 134.695L142.468 137.493Z" fill="#0459BF"/>
<path d="M136.983 130.745C137.164 131.78 137.778 132.802 138.858 133.745C142.234 136.698 150.191 138.877 163.862 138.26C181.975 137.443 187.617 126.855 187.002 105.652C186.844 100.179 186.406 92.6533 182.109 89.2601C179.755 87.4006 176.083 86.0079 173.066 86.5014C170.894 86.857 169.984 88.5604 169.491 91.1103C168.162 98 169.907 111.058 158.137 120.269C158.053 120.335 157.968 120.4 157.882 120.465C152.917 124.176 146.262 124.279 140.06 125.386C139.44 125.773 138.864 126.244 138.343 126.823C137.23 128.058 136.75 129.412 136.983 130.745Z" fill="#0270D2"/>
<path d="M136.983 130.745C145.158 132.985 164.126 135.072 169.458 128.249C177.966 117.361 178.918 95.0314 174.396 91.9186C172.488 90.6053 171.536 90.6351 169.49 91.1092C168.162 97.999 169.906 111.057 158.137 120.268C158.052 120.334 157.968 120.399 157.881 120.464C152.917 124.175 146.262 124.278 140.059 125.385C139.44 125.772 138.864 126.243 138.343 126.822C137.23 128.058 136.75 129.412 136.983 130.745Z" fill="#0459BF"/>
<path d="M122.698 157.793L122.23 162.922C122.23 162.922 120.578 163.916 117.93 163.445L118.364 157.449L122.698 157.793Z" fill="#FCBB8C"/>
<path d="M118.864 162.723C118.864 162.723 117.962 161.475 117.231 161.517C116.5 161.56 110.799 165.959 108.863 166.302C106.927 166.645 107.023 169.052 107.783 169.326C108.649 169.638 122.965 169.37 122.965 169.37C122.965 169.37 123.509 164.277 123.037 162.899C122.565 161.522 120.37 163.07 118.864 162.723Z" fill="#0459BF"/>
<path d="M115.704 165.805C115.771 165.827 115.848 165.822 115.916 165.785C116.047 165.713 116.094 165.548 116.022 165.417C115.998 165.374 115.423 164.341 114.635 163.93C113.587 163.381 112.755 163.966 112.72 163.991C112.599 164.079 112.571 164.248 112.659 164.369C112.746 164.49 112.915 164.518 113.036 164.43C113.059 164.414 113.638 164.02 114.385 164.409C115.027 164.744 115.543 165.669 115.549 165.679C115.583 165.742 115.639 165.786 115.704 165.805Z" fill="white"/>
<path d="M116.521 165.056C116.589 165.077 116.665 165.072 116.733 165.035C116.864 164.963 116.911 164.798 116.839 164.667C116.815 164.623 116.24 163.591 115.452 163.179C114.403 162.631 113.572 163.216 113.537 163.241C113.416 163.328 113.388 163.497 113.476 163.619C113.563 163.74 113.732 163.767 113.853 163.68C113.876 163.664 114.455 163.27 115.202 163.659C115.847 163.996 116.36 164.919 116.365 164.928C116.4 164.992 116.457 165.036 116.521 165.056Z" fill="white"/>
<path d="M114.602 166.408C114.67 166.429 114.746 166.424 114.814 166.387C114.945 166.315 114.992 166.151 114.92 166.02C114.896 165.976 114.321 164.943 113.533 164.532C112.484 163.983 111.653 164.568 111.618 164.593C111.497 164.681 111.469 164.85 111.557 164.971C111.644 165.092 111.813 165.12 111.934 165.032C111.957 165.016 112.536 164.622 113.283 165.011C113.927 165.348 114.441 166.271 114.446 166.281C114.481 166.344 114.538 166.388 114.602 166.408Z" fill="white"/>
<path d="M147.813 114.512C147.813 114.512 122.69 114.487 119.611 117.011C115.447 120.427 117.807 159.396 117.807 159.396C119.901 160.049 121.761 160.104 123.532 159.933C123.532 159.933 124.145 146.014 125.554 139.272C125.948 137.384 129.087 130.3 129.045 122.183L148.452 118.501L147.813 114.512Z" fill="#1A100E"/>
<path d="M168.433 121.728C166.882 122.456 163.774 122.502 160.328 122.013C159.695 121.924 159.049 121.816 158.401 121.692C157.074 121.44 155.73 121.114 154.437 120.724C153.57 120.464 152.728 120.175 151.925 119.86C147.776 118.23 144.721 115.905 145.42 113.206C146.533 108.906 148.636 101.008 150.267 90.28C151.341 83.2043 152.756 77.4173 153.643 74.4936C154.241 72.5249 157.344 70.926 159.943 69.8811C160.187 69.7824 160.427 69.6889 160.66 69.6002C161.629 69.2325 162.275 69.021 162.275 69.021L168.05 69.5109C168.05 69.5109 168.788 69.7787 169.863 70.2503C170.079 70.3469 170.311 70.4487 170.552 70.5615C172.365 71.3986 174.772 72.6779 176.371 74.1772C179.235 76.8617 176.516 84.5061 176.446 88.8972C176.375 93.2857 174.822 118.732 168.433 121.728Z" fill="#1E91D7"/>
<path d="M158.612 120.957C158.541 121.209 158.471 121.454 158.401 121.692C157.075 121.44 155.73 121.114 154.438 120.724C153.571 120.464 152.728 120.175 151.926 119.86L159.943 69.8806C160.187 69.7819 160.428 69.6884 160.661 69.5997C161.63 69.232 162.276 69.0205 162.276 69.0205L168.051 69.5104C168.051 69.5104 168.788 69.7782 169.864 70.2498C167.809 80.5871 162.257 107.979 158.612 120.957Z" fill="white"/>
<path d="M147.156 158.663L147.334 163.844C147.334 163.844 146.053 164.793 143.405 164.321L142.323 158.75L147.156 158.663Z" fill="#FCBB8C"/>
<path d="M143.968 163.645C143.968 163.645 143.066 162.396 142.335 162.438C141.603 162.481 135.903 166.881 133.967 167.223C132.031 167.565 132.127 169.974 132.887 170.247C133.754 170.559 148.069 170.291 148.069 170.291C148.069 170.291 148.613 165.198 148.141 163.821C147.669 162.444 145.473 163.991 143.968 163.645Z" fill="#0459BF"/>
<path d="M140.808 166.727C140.875 166.749 140.952 166.743 141.02 166.706C141.15 166.634 141.198 166.47 141.126 166.339C141.102 166.295 140.527 165.263 139.739 164.851C138.691 164.303 137.859 164.888 137.824 164.913C137.703 165 137.675 165.169 137.763 165.291C137.85 165.412 138.019 165.439 138.14 165.352C138.163 165.336 138.742 164.942 139.489 165.331C140.131 165.666 140.647 166.591 140.652 166.6C140.687 166.663 140.743 166.707 140.808 166.727Z" fill="white"/>
<path d="M141.625 165.977C141.692 165.999 141.769 165.993 141.836 165.956C141.967 165.884 142.015 165.72 141.943 165.589C141.919 165.545 141.344 164.512 140.556 164.101C139.507 163.552 138.675 164.138 138.64 164.163C138.519 164.25 138.491 164.419 138.579 164.54C138.666 164.661 138.836 164.689 138.957 164.601C138.98 164.586 139.559 164.191 140.305 164.58C140.95 164.917 141.463 165.84 141.468 165.85C141.503 165.913 141.56 165.957 141.625 165.977Z" fill="white"/>
<path d="M139.706 167.33C139.774 167.351 139.85 167.346 139.918 167.309C140.049 167.237 140.096 167.072 140.024 166.941C140 166.897 139.425 165.865 138.637 165.453C137.588 164.905 136.757 165.49 136.722 165.515C136.601 165.602 136.573 165.771 136.661 165.893C136.748 166.014 136.917 166.041 137.038 165.954C137.061 165.938 137.641 165.544 138.387 165.933C139.032 166.27 139.545 167.193 139.55 167.202C139.585 167.266 139.642 167.31 139.706 167.33Z" fill="white"/>
<path d="M172.125 116.597C172.125 116.597 136.341 115.789 131.624 116.922C126.906 118.054 125.774 119.375 126.34 125.413C126.906 131.452 140.213 151.219 141.723 160.655L147.692 159.948C147.692 159.948 146.909 147.493 144.456 140.699C142.003 133.905 138.04 129.188 138.04 129.188C138.04 129.188 149.6 129.63 159.301 129.63C166.764 129.63 170.382 126.124 172.125 116.597Z" fill="#3C3C48"/>
<path d="M158.941 57.2556C158.941 57.2556 158.196 57.5506 158.129 56.1381C158.063 54.7256 158.651 54.5318 158.297 53.83C157.942 53.1287 157.736 52.2352 158.452 51.6791C159.168 51.123 157.93 49.4624 158.766 48.7455C159.601 48.029 160.875 47.9564 161.442 47.1193C162.009 46.2818 162.928 44.6677 165.31 44.8739C167.691 45.0802 168.315 47.0556 169.612 46.6426C170.908 46.2295 171.854 46.0274 173.241 47.1757C174.628 48.324 172.977 49.6227 174.288 50.4274C175.598 51.2321 174.366 53.2034 175.831 54.5261C176.935 55.523 175.458 58.9924 173.127 58.2833C170.796 57.5741 158.941 57.2556 158.941 57.2556Z" fill="#3C3C48"/>
<path d="M159.955 57.9036C159.955 57.9036 158.771 56.0608 157.692 57.4357C156.612 58.8107 157.681 63.1788 160.143 62.3094L159.955 57.9036Z" fill="#FB927E"/>
<path d="M159.717 60.9527C159.629 60.9464 159.552 60.8822 159.534 60.7914C159.259 59.4467 157.933 58.8138 157.92 58.8075C157.819 58.7605 157.775 58.6399 157.822 58.5391C157.869 58.4378 157.989 58.394 158.09 58.441C158.152 58.4697 159.614 59.1626 159.93 60.7109C159.953 60.8206 159.882 60.9271 159.772 60.9496C159.754 60.9527 159.735 60.9537 159.717 60.9527Z" fill="#E6765D"/>
<path d="M158.387 60.1887C158.349 60.1861 158.312 60.1731 158.28 60.1485C158.191 60.0812 158.173 59.9548 158.24 59.8655C158.251 59.8504 158.52 59.4994 159.041 59.3099C159.146 59.2718 159.262 59.3261 159.3 59.431C159.338 59.536 159.284 59.6519 159.179 59.69C158.775 59.8368 158.565 60.1057 158.563 60.1083C158.521 60.1658 158.453 60.1934 158.387 60.1887Z" fill="#E6765D"/>
<path d="M168.892 66.5824L168.584 70.8273C168.584 70.8273 166.485 72.2592 164.762 72.2821C163.041 72.3077 162.344 70.8252 162.344 70.8252L162.663 66.431L168.892 66.5824Z" fill="#FCBB8C"/>
<path d="M168.892 66.5824L168.756 68.466C167.514 69.6576 165.451 69.8279 162.465 69.1636L162.663 66.4315L168.892 66.5824Z" fill="#FB927E"/>
<path d="M174.157 56.0049C173.959 57.6488 173.652 59.7005 173.218 61.3271C173.11 61.7329 172.993 62.1135 172.869 62.4535C171.749 65.5167 169.126 70.7187 163.032 68.031C160.341 66.8446 159.284 63.6749 158.94 60.5036C158.706 58.3501 158.803 56.1982 158.943 54.6655C159.086 53.101 160.045 51.7308 161.464 51.0572C165.308 49.2316 169.148 50.2943 171.641 51.4661C173.373 52.2791 174.385 54.1099 174.157 56.0049Z" fill="#FCBB8C"/>
<path d="M163.068 58.6859C163.035 59.1391 162.775 59.4895 162.487 59.4686C162.199 59.4478 161.992 59.0634 162.025 58.6107C162.058 58.1574 162.318 57.807 162.606 57.8279C162.894 57.8488 163.101 58.2331 163.068 58.6859Z" fill="#3C3C48"/>
<path d="M169.177 59.1287C169.144 59.582 168.884 59.9323 168.595 59.9115C168.307 59.8906 168.1 59.5062 168.133 59.053C168.166 58.5997 168.426 58.2493 168.715 58.2702C169.002 58.2911 169.209 58.6754 169.177 59.1287Z" fill="#3C3C48"/>
<path d="M171.023 56.5465C171.023 56.5465 168.93 55.5386 167.218 56.135L167.317 57.0702C167.317 57.0702 169.768 57.0404 170.959 57.6269C171.095 57.2796 171.137 56.9219 171.023 56.5465Z" fill="#3C3C48"/>
<path d="M161.235 55.8415C161.235 55.8415 163.469 55.1407 165.088 55.9841L164.854 56.9015C164.854 56.9015 162.415 56.5162 161.142 56.9277C161.057 56.5621 161.067 56.1992 161.235 55.8415Z" fill="#3C3C48"/>
<path d="M165.788 62.3396C166.128 62.3642 166.475 62.2566 166.529 62.2389C166.635 62.2044 166.693 62.09 166.658 61.984C166.624 61.878 166.51 61.8201 166.404 61.8545C166.216 61.9151 165.771 61.9992 165.589 61.8723C165.554 61.8477 165.508 61.8007 165.503 61.6775C165.481 60.9678 165.845 58.6216 165.849 58.5981C165.866 58.488 165.791 58.3846 165.68 58.3673C165.57 58.3501 165.467 58.4258 165.45 58.536C165.434 58.6342 165.076 60.9433 165.099 61.69C165.108 61.971 165.244 62.1245 165.357 62.2039C165.481 62.29 165.634 62.3282 165.788 62.3396Z" fill="#FB927E"/>
<path d="M162.978 63.1652C163.082 64.0065 163.52 65.5715 165.365 65.7052C167.215 65.8394 167.834 64.4827 168.082 63.5349L162.978 63.1652Z" fill="white"/>
<path d="M165.264 66.7563C165.786 66.7939 166.248 66.5621 166.267 66.5522C166.367 66.5015 166.406 66.3798 166.355 66.2801C166.305 66.1803 166.182 66.1412 166.083 66.1918C166.08 66.1934 165.7 66.3824 165.293 66.3532C164.92 66.326 164.578 66.0864 164.575 66.0837C164.485 66.0185 164.358 66.0388 164.293 66.1292C164.228 66.2195 164.248 66.3459 164.339 66.4112C164.356 66.4237 164.771 66.7203 165.264 66.7563Z" fill="#FB927E"/>
<path d="M174.157 56.005C173.959 57.6488 173.652 59.7005 173.218 61.3271L171.665 61.1506C171.665 61.1506 171.638 59.7099 171.805 58.8096C171.971 57.9094 172.78 56.5663 172.222 55.9856C170.82 54.5272 171.576 54.4655 171.116 53.1778C170.737 52.1146 167.989 51.3674 166.328 52.0133C164.59 52.6901 162.909 52.2034 162.166 52.3199C161.422 52.4342 160.357 53.3705 160.557 54.3319C160.759 55.2911 159.911 55.8055 159.644 56.7653C159.378 57.725 159.814 60.3919 159.814 60.3919L158.94 60.5031C158.707 58.3496 158.804 56.1976 158.943 54.665C159.087 53.1005 160.045 51.7303 161.465 51.0567C165.309 49.2311 169.148 50.2938 171.642 51.4655C173.373 52.2791 174.385 54.1099 174.157 56.005Z" fill="#3C3C48"/>
<path d="M172.308 60.288C172.352 59.3229 172.967 58.4561 173.885 58.1579C174.422 57.9835 174.978 58.0196 175.331 58.6352C176.201 60.1511 174.488 64.396 172.178 63.1814L172.308 60.288Z" fill="#FCBB8C"/>
<path d="M172.795 61.9C172.883 61.9062 172.968 61.854 172.999 61.7668C173.465 60.4759 174.869 60.0404 174.883 60.0363C174.99 60.0039 175.051 59.8916 175.019 59.7846C174.987 59.6775 174.874 59.6169 174.768 59.6488C174.702 59.6681 173.155 60.1433 172.619 61.63C172.582 61.7349 172.636 61.8509 172.741 61.8885C172.759 61.8947 172.777 61.8984 172.795 61.9Z" fill="#FB927E"/>
<path d="M174.22 61.336C174.258 61.3386 174.296 61.3313 174.331 61.312C174.43 61.2582 174.466 61.1355 174.412 61.0378C174.403 61.0216 174.188 60.6357 173.699 60.3731C173.601 60.3203 173.478 60.3569 173.425 60.4556C173.373 60.5538 173.409 60.6765 173.508 60.7292C173.886 60.9323 174.056 61.229 174.057 61.2321C174.092 61.2937 174.154 61.3313 174.22 61.336Z" fill="#FB927E"/>
<path d="M166.454 58.3417L166.43 58.6733C166.382 59.3412 166.597 59.9866 167.036 60.4911C167.469 60.9887 168.068 61.288 168.724 61.3355L168.804 61.3412C169.374 61.3705 169.908 61.1788 170.393 60.772C170.88 60.3616 171.186 59.7459 171.234 59.0822L171.262 58.6906C171.27 58.582 171.257 58.477 171.226 58.3778C171.191 58.2577 171.131 58.1491 171.051 58.0561C170.904 57.8869 170.695 57.7736 170.454 57.7559L167.388 57.5339C167.041 57.5089 166.728 57.6895 166.566 57.9736C166.507 58.077 166.468 58.1945 166.457 58.3193C166.455 58.3261 166.455 58.3344 166.454 58.3417ZM166.815 58.3679C166.836 58.0859 167.081 57.8744 167.362 57.8948L170.427 58.1167C170.709 58.1371 170.921 58.3814 170.901 58.6634L170.872 59.0551C170.831 59.6216 170.572 60.147 170.159 60.4937C169.747 60.8394 169.298 61.0023 168.823 60.9788L168.75 60.9736C168.19 60.9329 167.68 60.678 167.309 60.2524C166.935 59.8216 166.751 59.2702 166.792 58.6989L166.815 58.3679Z" fill="white"/>
<path d="M160.316 57.8968L160.292 58.2284C160.244 58.8963 160.46 59.5417 160.899 60.0462C161.332 60.5438 161.93 60.843 162.586 60.8906L162.668 60.8963C163.236 60.9255 163.771 60.7339 164.255 60.3266C164.742 59.9162 165.049 59.301 165.098 58.6368L165.126 58.2451C165.126 58.2394 165.126 58.2342 165.126 58.2284C165.133 58.1104 165.115 57.995 165.076 57.889C164.963 57.572 164.673 57.3365 164.317 57.3104L161.251 57.0885C160.982 57.0692 160.733 57.1747 160.558 57.3543C160.474 57.4425 160.407 57.548 160.367 57.665C160.339 57.7386 160.322 57.8164 160.316 57.8968ZM160.678 57.9229C160.698 57.641 160.944 57.4295 161.224 57.4498L164.291 57.6718C164.572 57.6921 164.784 57.9365 164.764 58.2185L164.736 58.6102C164.694 59.1767 164.434 59.7015 164.022 60.0488C163.61 60.3945 163.161 60.5574 162.687 60.5334L162.612 60.5282C162.053 60.4874 161.542 60.2326 161.173 59.807C160.797 59.3762 160.612 58.8248 160.654 58.2535L160.678 57.9229Z" fill="white"/>
<path d="M171.088 58.2478L171.238 58.5673C171.24 58.5663 171.491 58.4404 171.588 58.4039C171.908 58.2817 172.645 58.0326 173.708 58.2248C174.01 58.1146 174.278 58.0394 174.542 58.0859L174.551 58.0598C172.996 57.5449 171.811 57.9183 171.413 58.0822C171.327 58.1156 171.098 58.2425 171.088 58.2478Z" fill="white"/>
<path d="M166.695 58.3726L166.839 58.0399C166.818 58.031 166.323 57.8196 165.766 57.7794C165.172 57.7365 164.777 57.8911 164.76 57.8979L164.894 58.2347C164.897 58.2337 165.234 58.1047 165.739 58.1412C166.234 58.1762 166.691 58.3705 166.695 58.3726Z" fill="white"/>
<path d="M158.237 56.8848L158.241 56.9021C158.48 56.9386 158.7 57.0639 158.888 57.2117C159.71 57.2796 160.502 57.737 160.512 57.7423L160.695 57.4295C160.641 57.3981 159.353 56.6545 158.237 56.8848Z" fill="white"/>
<path d="M172.649 59.1538C172.649 59.1538 172.562 63.3652 172.372 64.3261C172.182 65.2869 171.374 67.6446 169.216 68.3918C167.058 69.1396 166.208 70.1751 164.784 69.8675C163.933 69.6843 162.617 68.5401 161.36 67.7918C159.787 66.8555 159.296 64.1093 159.028 63.2065C158.76 62.3036 158.939 60.5026 158.939 60.5026L159.813 60.3913C159.813 60.3913 160.066 63.2968 161.312 64.8033C162.121 65.7809 164.267 67.3986 165.818 67.1093C167.368 66.82 170.04 65.4963 170.88 63.9428C171.721 62.3892 171.665 61.149 171.665 61.149L172.649 59.1538Z" fill="#3C3C48"/>
<path d="M133.399 93.9056C133.399 93.9056 127.699 93.1891 124.868 94.3964C122.037 95.6037 118.514 96.316 118.672 97.4293C118.831 98.5426 122.648 97.4309 122.648 97.4309C122.648 97.4309 122.878 99.4199 125.263 100.972C127.649 102.525 134.593 99.7123 134.593 99.7123L133.399 93.9056Z" fill="#FCBB8C"/>
<path d="M175.99 73.8404C171.584 77.5156 158.012 88.7541 154.845 89.809C150.721 91.1829 139.705 93.3009 133.467 93.9259C132.341 94.0387 134.145 99.7248 134.145 99.7248C134.145 99.7248 149.175 99.3792 156.142 97.4084C158.114 96.8507 167.064 92.0335 173.288 87.244C175.42 85.6032 176.784 85.0158 178.069 82.0304C179.548 78.5944 178.174 75.8999 175.99 73.8404Z" fill="#0270D2"/>
<path d="M161.296 106.144H75.6667C74.8882 106.144 74.2568 105.513 74.2568 104.734V103.097C74.2568 102.318 74.8882 101.687 75.6667 101.687H161.296C162.074 101.687 162.705 102.318 162.705 103.097V104.734C162.706 105.513 162.075 106.144 161.296 106.144Z" fill="#5C5C69"/>
<path d="M81.1157 106.144C83.2828 108.335 86.2228 109.566 89.288 109.566H142.965C146.03 109.566 148.97 108.335 151.137 106.144L151.205 106.076L81.1157 106.144Z" fill="#1A100E"/>
<path d="M128.568 169.368H105.178C105.178 166.969 107.123 165.024 109.522 165.024H109.562C109.562 165.024 114.527 164.376 114.527 160.321V109.567H119.219V160.321C119.219 164.376 124.184 165.024 124.184 165.024H124.224C126.623 165.024 128.568 166.969 128.568 169.368Z" fill="#3C3C48"/>
<path d="M119.219 109.567V111.116L114.527 111.974V109.567H119.219Z" fill="#1A100E"/>
<path d="M141.45 101.686H116.544C115.926 101.686 115.425 101.185 115.425 100.567V99.2674C115.425 98.6496 115.926 98.1483 116.544 98.1483H141.45C142.068 98.1483 142.569 98.6491 142.569 99.2674V100.567C142.569 101.185 142.068 101.686 141.45 101.686Z" fill="#1A100E"/>
<path d="M115.455 101.779L109.907 81.0017C109.597 79.8398 110.473 78.6999 111.675 78.6999H123.828C124.648 78.6999 125.368 79.2456 125.59 80.0351L131.672 101.686L115.455 101.779Z" fill="#3C3C48"/>
<path d="M125.591 80.0356L131.622 101.508H133.01L126.979 80.0356C126.756 79.2456 126.037 78.6999 125.217 78.6999H123.828C124.649 78.6999 125.367 79.2456 125.591 80.0356Z" fill="#1A100E"/>
<path d="M122.466 91.1191C122.781 92.4836 121.932 93.5896 120.567 93.5896C119.203 93.5896 117.841 92.4836 117.525 91.1191C117.209 89.7547 118.06 88.6486 119.424 88.6486C120.789 88.6492 122.15 89.7552 122.466 91.1191Z" fill="#5C5C69"/>
<path d="M105.082 88.7682L104.984 89.8972L104.817 91.7995L104.785 92.1646L104.644 93.7834L104.489 95.5437L104.482 95.6262L104.306 97.6439L104.151 99.4413L103.957 101.672H97.7576L97.7122 101.161L97.5247 98.9922L97.4099 97.6841L97.224 95.5437L97.2203 95.5082L97.1054 94.2037L96.93 92.1646L96.9164 92.0173L96.8031 90.7197L96.6323 88.7682H105.082Z" fill="#1E91D7"/>
<path d="M104.785 92.1646L104.644 93.7834L104.489 95.5437H97.2242L97.2205 95.5082L97.1056 94.2037L96.9302 92.1646H104.785Z" fill="#E1E3E6"/>
<path d="M105.515 87.1186H96.1987V88.7682H105.515V87.1186Z" fill="#0270D2"/>
<path d="M104.814 87.1186H96.9009V86.4894C96.9009 86.0633 97.2466 85.7176 97.6727 85.7176H104.042C104.468 85.7176 104.814 86.0633 104.814 86.4894V87.1186Z" fill="#0459BF"/>
<path d="M56.9808 135.163L51.9944 136.505L51.9683 131.86L56.6314 130.4L56.9808 135.163Z" fill="#FCBB8C"/>
<path d="M52.1587 135.311C52.1587 135.311 53.5321 136.243 53.5096 137.032C53.4872 137.821 48.9285 144.099 48.6209 146.195C48.3133 148.291 46.7655 147.954 45.9666 147.607C45.1676 147.26 45.5368 131.013 45.5368 131.013C45.5368 131.013 50.3394 130.358 51.8376 130.823C53.3357 131.288 51.7384 133.701 52.1587 135.311Z" fill="#0459BF"/>
<path d="M48.9385 138.811C48.9135 138.739 48.9166 138.656 48.9547 138.583C49.0283 138.44 49.2038 138.383 49.3469 138.456C49.3949 138.481 50.5249 139.068 50.9928 139.903C51.6168 141.014 51.0127 141.929 50.9866 141.967C50.8962 142.101 50.715 142.136 50.5819 142.045C50.4487 141.955 50.4137 141.774 50.504 141.641C50.5202 141.616 50.927 140.98 50.4842 140.188C50.103 139.507 49.0905 138.98 49.0806 138.975C49.0111 138.939 48.9625 138.88 48.9385 138.811Z" fill="white"/>
<path d="M49.7207 137.907C49.6957 137.835 49.6988 137.752 49.7369 137.679C49.8106 137.536 49.986 137.479 50.1291 137.552C50.1771 137.577 51.3072 138.164 51.775 138.999C52.3991 140.112 51.7954 141.025 51.7693 141.064C51.679 141.197 51.4978 141.232 51.3646 141.141C51.2314 141.052 51.1959 140.87 51.2868 140.737C51.303 140.712 51.7098 140.075 51.267 139.284C50.8842 138.6 49.8738 138.076 49.8633 138.071C49.7933 138.036 49.7442 137.976 49.7207 137.907Z" fill="white"/>
<path d="M48.3245 140.017C48.2989 139.944 48.3026 139.862 48.3402 139.788C48.4138 139.645 48.5893 139.588 48.7324 139.662C48.7804 139.687 49.9104 140.273 50.3783 141.109C51.0023 142.221 50.3981 143.135 50.372 143.174C50.2817 143.307 50.1005 143.342 49.9673 143.252C49.8342 143.161 49.7992 142.98 49.8895 142.847C49.9057 142.822 50.312 142.185 49.8697 141.394C49.4869 140.71 48.476 140.186 48.466 140.181C48.3976 140.145 48.3485 140.085 48.3245 140.017Z" fill="white"/>
<path d="M68.2598 131.972C66.5376 132.588 64.8775 133.155 63.3423 133.66C58.2708 135.331 54.5669 136.346 54.5669 136.346V130.482C54.5669 130.482 58.8348 128.315 63.6802 125.526C65.1877 124.657 66.7506 123.729 68.2598 122.788C72.5522 120.107 76.4018 117.314 77.2519 115.478L68.2065 102.114L65.8097 98.5718C65.8097 98.5718 72.09 93.3901 80.0743 93.586C80.0743 93.586 81.1866 95.4606 82.7704 98.2935C85.372 102.95 89.2466 110.197 91.538 115.956C93.773 121.574 79.6853 127.881 68.2598 131.972Z" fill="#3C3C48"/>
<path d="M67.2505 125.953L67.0024 125.494C73.4118 122.038 77.71 117.76 79.2609 116.081C79.4588 115.867 79.4823 115.548 79.3178 115.305L68.5732 99.4606L69.0056 99.1677L79.7502 115.012C80.0515 115.457 80.0076 116.042 79.6447 116.435C78.076 118.133 73.7288 122.46 67.2505 125.953Z" fill="#1A100E"/>
<path d="M68.2602 122.788V131.972C66.5381 132.588 64.878 133.154 63.3428 133.66L63.6812 125.525C65.1887 124.657 66.7511 123.729 68.2602 122.788Z" fill="#1A100E"/>
<path d="M82.7708 98.2935L68.2069 102.113L65.8101 98.5713C65.8101 98.5713 72.0904 93.3896 80.0747 93.5854C80.0747 93.5854 81.187 95.4606 82.7708 98.2935Z" fill="#1A100E"/>
<path d="M58.207 158.244L58.1094 163.773L62.2937 163.623L62.7616 158.02L58.207 158.244Z" fill="#FCBB8C"/>
<path d="M59.9193 162.778C59.9193 162.778 62.0065 162.281 62.5794 162.307C63.1522 162.334 68.148 167.085 69.2101 167.864C70.7595 169.001 70.3762 170.588 68.9449 170.732C64.8055 171.146 57.8149 169.824 57.8149 169.824C57.8149 169.824 57.2911 165.111 57.6138 163.645C57.9355 162.178 58.7548 163.18 59.9193 162.778Z" fill="#0459BF"/>
<path d="M63.2267 166.879C63.1526 166.893 63.0732 166.879 63.0069 166.832C62.8784 166.74 62.8481 166.562 62.9395 166.433C62.9698 166.39 63.6988 165.376 64.5761 165.04C65.7426 164.591 66.5452 165.306 66.5792 165.337C66.6956 165.443 66.704 165.624 66.5975 165.741C66.4915 165.857 66.3103 165.866 66.1938 165.759C66.1719 165.74 65.6121 165.256 64.7808 165.574C64.0659 165.848 63.4121 166.756 63.4053 166.765C63.3609 166.826 63.2962 166.866 63.2267 166.879Z" fill="white"/>
<path d="M62.4601 165.992C62.386 166.007 62.3066 165.992 62.2403 165.945C62.1118 165.853 62.0815 165.675 62.1729 165.546C62.2032 165.504 62.9322 164.489 63.8095 164.153C64.9771 163.704 65.7786 164.419 65.8126 164.45C65.929 164.556 65.9374 164.737 65.8314 164.854C65.7254 164.97 65.5442 164.979 65.4277 164.872C65.4058 164.852 64.8455 164.368 64.0147 164.686C63.2972 164.962 62.646 165.869 62.6392 165.878C62.5943 165.94 62.5296 165.979 62.4601 165.992Z" fill="white"/>
<path d="M64.3102 167.645C64.2361 167.659 64.1567 167.645 64.0904 167.598C63.9619 167.506 63.9316 167.328 64.023 167.199C64.0533 167.156 64.7823 166.142 65.6595 165.805C66.8272 165.356 67.6287 166.072 67.6627 166.103C67.7791 166.209 67.7875 166.39 67.6809 166.506C67.5749 166.623 67.3937 166.631 67.2773 166.525C67.2554 166.505 66.6945 166.021 65.8643 166.339C65.1468 166.614 64.4956 167.521 64.4893 167.53C64.4444 167.592 64.3797 167.632 64.3102 167.645Z" fill="white"/>
<path d="M66.9891 95.4027C66.9891 95.4027 67.0288 96.5943 67.0805 98.5719C67.0951 99.0951 67.1108 99.6737 67.1264 100.303C67.2904 106.941 67.5207 118.95 67.2919 127.511C66.9713 139.513 64.0847 159.485 64.0847 159.485L58.9714 159.847L58.4654 159.88L57.2534 159.967C57.2534 159.967 56.8058 147.572 56.7635 136.773C56.7353 129.652 55.4038 112.935 54.4993 102.384C54.0325 96.9437 53.6826 93.1405 53.6826 93.1405L66.9891 95.4027Z" fill="#3C3C48"/>
<path d="M66.9891 95.4027C66.9891 95.4027 67.0288 96.5943 67.0805 98.5718C67.0951 99.0951 67.1108 99.6737 67.1264 100.303C64.8225 100.99 58.3917 101.974 54.4993 102.384C54.0325 96.9442 53.6826 93.1411 53.6826 93.1411L66.9891 95.4027Z" fill="#1A100E"/>
<path d="M57.1311 99.5327C57.1687 99.9374 60.7389 138.347 58.9713 159.846L58.4653 159.879C60.2449 138.444 56.6684 99.9802 56.6313 99.5802L57.1311 99.5327Z" fill="#1A100E"/>
<path d="M106.945 41.9236C106.803 41.393 106.626 40.3643 107.087 39.6024C107.739 38.5288 108.024 36.8875 108.906 35.3158C109.69 33.9273 110.121 34.8876 109.788 36.1544C109.453 37.4212 109.962 37.7518 109.962 37.7518L110.967 36.5847C111.313 37.297 111.694 37.9962 112.072 38.6938C112.644 39.7518 113.219 40.8076 113.8 41.8598C111.738 43.5909 109.053 44.9711 109.053 44.9711L106.62 47.0812L104.497 44.5293L106.945 41.9236Z" fill="#FCBB8C"/>
<path d="M113.146 35.627C111.665 35.1278 110.64 37.4766 110.64 37.4766C110.64 37.4766 110.155 38.8964 110.367 39.3721C110.724 40.1726 111.509 38.5768 111.509 38.5768C111.509 38.5768 110.3 40.5554 110.9 40.7497C111.5 40.9439 111.99 39.933 111.99 39.933C111.99 39.933 111.078 41.4374 111.551 41.7758C112.025 42.1142 113.018 40.7763 113.018 40.7763C113.018 40.7763 112.147 42.2499 112.5 42.2886C112.852 42.3272 113.352 42.2969 113.899 41.7225C114.212 41.394 114.371 40.9434 114.378 40.6149C114.381 40.4181 114.387 40.0823 114.301 39.9053C114.211 39.7189 113.988 39.8844 114.27 39.1883C114.27 39.1883 114.398 38.0734 113.605 38.2917C113.605 38.2917 114.042 37.051 113.462 36.9398C113.462 36.9398 113.906 35.8829 113.146 35.627Z" fill="#FCBB8C"/>
<path d="M108.407 45.9726C108.407 45.9726 97.2109 61.4879 95.0532 61.8472C87.5989 63.0916 76.0596 54.454 76.0596 54.454L76.7034 43.6917C76.7034 43.6917 87.5754 51.0431 92.8835 54.876C92.9608 54.9308 93.0349 54.9841 93.1081 55.0379C93.1081 55.0379 93.202 54.9282 93.3822 54.723C94.0574 53.9569 95.9357 51.8666 98.5597 49.2911C102.124 45.7899 105.582 42.4468 105.582 42.4468L108.407 45.9726Z" fill="#1E91D7"/>
<path d="M93.6901 58.6342C93.6729 58.7778 93.5439 58.878 93.4003 58.8613C93.2567 58.8431 93.1548 58.7136 93.1731 58.5705C93.1768 58.5444 93.4358 56.3653 92.8833 54.876C92.9606 54.9308 93.0347 54.9841 93.1078 55.0379C93.1078 55.0379 93.2018 54.9282 93.382 54.723C93.9642 56.3355 93.7058 58.5224 93.6901 58.6342Z" fill="#0270D2"/>
<path d="M61.7945 39.6865L50.793 44.6447C50.793 44.6447 51.3538 67.9746 51.2739 77.4738C51.194 86.9729 53.0217 97.9933 53.0217 97.9933C53.0217 97.9933 71.1756 100.702 81.8962 95.139C81.8962 95.139 79.0889 75.691 78.0868 63.5355C77.4894 56.2854 76.7036 43.6927 76.7036 43.6927L68.0477 39.4546L61.7945 39.6865Z" fill="#1E91D7"/>
<path d="M67.7432 47.4598C64.6195 47.2713 61.938 43.7773 61.8216 43.6243C61.748 43.5272 61.7673 43.3888 61.8644 43.3152C61.9615 43.2416 62.0999 43.2604 62.1735 43.358C62.2017 43.3951 65.0101 47.0541 68.0393 47.0264C68.1605 47.0248 68.2607 47.123 68.2623 47.2452C68.2633 47.3669 68.1657 47.4666 68.0435 47.4682C67.9432 47.4682 67.8424 47.4656 67.7432 47.4598Z" fill="#0270D2"/>
<path d="M59.8273 88.4967C59.7171 88.4899 59.6267 88.4016 59.6205 88.2883C59.6137 88.1667 59.7071 88.0628 59.8288 88.056C67.9541 87.6137 72.1384 73.8482 72.1797 73.7093C72.2141 73.5923 72.3374 73.526 72.4543 73.5605C72.5713 73.5955 72.6376 73.7182 72.6032 73.8351C72.4308 74.4148 68.2857 88.0382 59.8528 88.4972C59.8445 88.4972 59.8356 88.4972 59.8273 88.4967Z" fill="#0270D2"/>
<path d="M63.2958 84.4643C63.2216 84.4602 63.1517 84.4184 63.1141 84.3484C63.0566 84.2408 63.0968 84.1072 63.2044 84.0497C67.6556 81.6623 68.5292 77.8007 68.5375 77.762C68.5631 77.643 68.6796 77.5657 68.7992 77.5923C68.9182 77.6179 68.9945 77.7349 68.9694 77.8539C68.9344 78.02 68.0535 81.9505 63.4133 84.4393C63.3757 84.4586 63.335 84.4664 63.2958 84.4643Z" fill="#0270D2"/>
<path d="M56.0666 23.4406C56.0666 23.4406 55.3642 21.1628 55.5491 19.2015C55.7339 17.2401 57.2164 15.7629 58.7052 15.4125C60.1945 15.0621 63.1522 13.4072 67.7459 14.9185C72.3401 16.4292 72.5265 18.885 70.1433 20.6516L56.0666 23.4406Z" fill="#3C3C48"/>
<path d="M71.893 24.403C72.1645 29.0004 68.6575 32.9471 64.0601 33.2186C59.4628 33.4902 55.9552 29.9309 55.6837 25.3336C55.4121 20.7362 58.48 16.8417 63.0774 16.5702C67.6747 16.2991 71.6215 19.8062 71.893 24.403Z" fill="#3C3C48"/>
<path d="M70.6318 26.815C70.6318 26.815 71.8464 24.979 72.9128 26.3748C73.9791 27.7706 72.8464 32.1461 70.3838 31.2395L70.6318 26.815Z" fill="#FB927E"/>
<path d="M70.8299 29.8824C70.9187 29.8771 70.9965 29.8134 71.0164 29.7226C71.3104 28.3753 72.6519 27.7565 72.6654 27.7503C72.7678 27.7043 72.8132 27.5842 72.7673 27.4818C72.7213 27.3795 72.6012 27.3335 72.4994 27.3795C72.4367 27.4077 70.9579 28.0845 70.6195 29.6359C70.5955 29.7455 70.6649 29.8536 70.7751 29.8777C70.7934 29.8818 70.8122 29.8834 70.8299 29.8824Z" fill="#E6765D"/>
<path d="M72.1766 29.1325C72.2142 29.1304 72.2518 29.1173 72.2842 29.0938C72.3751 29.0275 72.3949 28.9006 72.3286 28.8098C72.3176 28.7946 72.0529 28.4385 71.5312 28.2411C71.4268 28.2014 71.3093 28.2542 71.2691 28.3591C71.2294 28.4641 71.2821 28.5816 71.3871 28.6213C71.7907 28.7737 71.9986 29.0474 72.0001 29.05C72.043 29.1074 72.1103 29.1367 72.1766 29.1325Z" fill="#E6765D"/>
<path d="M61.543 35.4165L61.7952 39.6865C61.7952 39.6865 62.6625 41.2828 64.3936 41.3168C67.2787 41.3737 68.0479 39.4541 68.0479 39.4541L67.8056 35.3481L61.543 35.4165Z" fill="#FCBB8C"/>
<path d="M61.543 35.4165L61.6547 37.311C62.886 38.5251 64.9571 38.7241 67.9675 38.0964L67.8051 35.3476L61.543 35.4165Z" fill="#FB927E"/>
<path d="M57.2665 30.0771C57.3699 30.486 57.4817 30.8709 57.6023 31.2139C57.7224 31.5539 57.8587 31.9215 58.0169 32.3017C59.2957 35.3716 61.9307 39.2823 67.4121 36.9507C70.1333 35.7956 71.2377 32.6239 71.6267 29.4416C71.7197 28.6782 71.7709 27.9127 71.7939 27.1758C71.8356 25.8286 71.7792 24.5717 71.7019 23.5753C71.5771 22.0009 70.6325 20.6109 69.2158 19.9148C65.3772 18.0292 61.5046 19.0453 58.9824 20.1895C57.232 20.9837 56.1903 22.8098 56.3939 24.7168C56.5704 26.3711 56.8514 28.4369 57.2665 30.0771Z" fill="#FCBB8C"/>
<path d="M67.5013 27.5591C67.5284 28.015 67.7848 28.3706 68.0746 28.3534C68.3644 28.3362 68.5775 27.9529 68.5504 27.497C68.5237 27.0411 68.2668 26.6855 67.977 26.7027C67.6877 26.72 67.4746 27.1033 67.5013 27.5591Z" fill="#3C3C48"/>
<path d="M61.3572 27.9215C61.3839 28.3774 61.6408 28.733 61.9306 28.7158C62.2204 28.6986 62.4335 28.3153 62.4063 27.8594C62.3797 27.4035 62.1228 27.0479 61.8329 27.0651C61.5437 27.0824 61.3306 27.4657 61.3572 27.9215Z" fill="#3C3C48"/>
<path d="M69.5831 24.8928C69.5831 24.8928 67.3481 24.1586 65.709 24.9842L65.8954 25.7565C65.8954 25.7565 67.6928 25.2427 69.5152 25.8025C69.6061 25.4359 69.7471 25.2547 69.5831 24.8928Z" fill="#3C3C48"/>
<path d="M59.589 25.4829C59.589 25.4829 61.7221 24.4907 63.4469 25.1179L63.3524 25.9069C63.3524 25.9069 61.507 25.6077 59.7628 26.3779C59.6307 26.0249 59.4689 25.861 59.589 25.4829Z" fill="#3C3C48"/>
<path d="M64.7868 30.9779C64.4448 30.9983 64.097 30.885 64.0432 30.8667C63.9372 30.8301 63.8803 30.7152 63.9168 30.6087C63.9529 30.5027 64.0683 30.4458 64.1743 30.4818C64.3618 30.545 64.8087 30.6359 64.9926 30.5105C65.0281 30.486 65.0756 30.4395 65.0813 30.3158C65.1127 29.603 64.779 27.2401 64.7753 27.2166C64.7591 27.1053 64.8369 27.0025 64.9476 26.9868C65.0594 26.9706 65.1617 27.0484 65.1774 27.1591C65.1915 27.2578 65.52 29.5837 65.4871 30.3335C65.4745 30.616 65.3356 30.768 65.2213 30.8463C65.0965 30.9325 64.9419 30.969 64.7868 30.9779Z" fill="#FB927E"/>
<path d="M67.581 32.7805C67.4646 33.6244 67.004 35.1915 65.1476 35.3011C63.287 35.4108 62.6824 34.0395 62.4458 33.0839L67.581 32.7805Z" fill="white"/>
<path d="M70.9204 28.156C71.0243 27.3106 71.112 26.2218 70.9689 25.6745C70.7136 24.7069 69.8687 24.1785 70.0833 23.2187C70.2979 22.2547 69.2394 21.2986 68.4938 21.1738C67.7496 21.0464 66.0536 21.5137 64.3157 20.8109C62.6567 20.1388 59.8839 20.8532 59.4875 21.9158C59.0082 23.2025 59.7679 23.2766 58.3387 24.7216C57.7695 25.2975 58.5659 26.6589 58.7215 27.5659C58.792 27.9832 58.8108 28.1879 58.8207 28.6401L58.828 28.8693L57.0212 28.9758C56.7387 27.5717 56.5325 26.0176 56.393 24.7153C56.1889 22.8077 57.2327 20.9827 58.9826 20.1884C61.5048 19.0443 65.3758 18.0271 69.2165 19.9143C70.6326 20.6109 71.5783 21.9994 71.7005 23.5738C71.7961 24.7962 71.8587 26.4114 71.7486 28.1069L70.9204 28.156Z" fill="#3C3C48"/>
<path d="M57.8679 29.7095C57.8454 29.2369 57.7843 28.7659 57.6742 28.3053C57.5238 27.6756 57.305 27.109 56.6381 26.8824C56.1018 26.7001 55.542 26.7289 55.1786 27.3429C54.2841 28.8547 55.6428 33.3142 57.9817 32.1241L57.8679 29.7095Z" fill="#FCBB8C"/>
<path d="M57.4398 30.8343C57.3515 30.8223 57.279 30.7528 57.2664 30.6604C57.08 29.2938 55.7918 28.5711 55.7787 28.5643C55.6805 28.51 55.6445 28.3868 55.6983 28.2886C55.7521 28.1905 55.8753 28.1539 55.9735 28.2077C56.0341 28.2406 57.4544 29.0322 57.669 30.6056C57.6842 30.7168 57.6064 30.8192 57.4952 30.8343C57.4764 30.8364 57.4576 30.8364 57.4398 30.8343Z" fill="#FB927E"/>
<path d="M56.1565 29.9805C56.1189 29.9753 56.0829 29.9596 56.052 29.9335C55.9669 29.8604 55.9575 29.732 56.0306 29.6468C56.0426 29.6327 56.3351 29.2985 56.8708 29.1429C56.9779 29.1116 57.0912 29.1737 57.1225 29.2813C57.1539 29.3889 57.0917 29.5017 56.9842 29.533C56.5701 29.6531 56.3408 29.909 56.3392 29.9116C56.2922 29.9659 56.2228 29.9894 56.1565 29.9805Z" fill="#FB927E"/>
<path d="M65.8324 27.8448C65.7489 26.5069 66.7698 25.3503 68.1076 25.2667C69.4455 25.1832 70.6021 26.2035 70.6857 27.5419C70.7692 28.8798 69.7488 30.0364 68.4105 30.12C67.0726 30.2035 65.916 29.1831 65.8324 27.8448ZM66.211 27.8213C66.2815 28.9508 67.2575 29.8124 68.387 29.7419C69.5165 29.6714 70.3781 28.6954 70.3076 27.5659C70.2371 26.4364 69.2611 25.5748 68.1316 25.6453C67.0021 25.7158 66.1405 26.6923 66.211 27.8213Z" fill="white"/>
<path d="M59.2001 28.2589C59.1165 26.921 60.1369 25.7644 61.4753 25.6808C62.8131 25.5973 63.9698 26.6181 64.0533 27.956C64.1369 29.2939 63.1165 30.4505 61.7782 30.5341C60.4403 30.6176 59.2836 29.5972 59.2001 28.2589ZM59.5787 28.2354C59.6492 29.3649 60.6252 30.2265 61.7547 30.156C62.8842 30.0855 63.7458 29.1095 63.6748 27.98C63.6043 26.8505 62.6283 25.9889 61.4988 26.0594C60.3693 26.1299 59.5082 27.1059 59.5787 28.2354Z" fill="white"/>
<path d="M70.2266 26.7863C70.2747 26.7832 70.3217 26.7623 70.3561 26.7231C70.3666 26.7116 71.4021 25.5738 72.8689 25.8202C72.9718 25.838 73.0699 25.768 73.0872 25.6651C73.1044 25.5617 73.035 25.4641 72.9316 25.4469C71.2538 25.1644 70.1201 26.4181 70.0726 26.4714C70.0031 26.5497 70.0104 26.6693 70.0888 26.7388C70.1285 26.7738 70.1781 26.7894 70.2266 26.7863Z" fill="white"/>
<path d="M59.5173 27.4547C59.579 27.451 59.638 27.4171 59.6704 27.3591C59.7221 27.2683 59.6902 27.1523 59.5993 27.1006C59.5241 27.0578 57.7382 26.0573 56.2918 26.3894C56.19 26.4129 56.1262 26.5147 56.1492 26.6166C56.1727 26.7184 56.2735 26.7821 56.3764 26.7591C57.6777 26.4604 59.3946 27.4208 59.4119 27.4307C59.4453 27.4489 59.4818 27.4568 59.5173 27.4547Z" fill="white"/>
<path d="M63.8855 27.4192C63.8892 27.4129 64.3007 26.7774 64.8918 26.7403C65.4767 26.7038 65.9205 27.285 65.9252 27.2913L66.2291 27.0646C66.2061 27.0338 65.6605 26.3127 64.8683 26.3623C64.0819 26.4114 63.5858 27.1842 63.5654 27.2171L63.8855 27.4192Z" fill="white"/>
<path d="M47.4574 70.3521L48.178 71.0258C48.8219 71.6278 49.6657 71.7062 50.4924 71.4007C50.8579 71.2654 51.4663 70.9626 51.7357 70.9145C52.4924 70.7803 54.0161 70.1777 54.3822 70.4764C54.7482 70.7751 53.9085 71.5093 53.4866 71.7929C53.0083 72.114 52.3561 72.478 51.7796 72.6821C51.2031 72.8868 52.9968 74.526 53.5895 75.4304C54.1822 76.3349 54.8031 77.1077 54.3399 77.8665C53.8762 78.6252 53.3331 78.4727 53.3331 78.4727C53.3331 78.4727 53.0934 79.3228 51.8109 79.0137C51.8109 79.0137 51.436 79.715 50.613 79.5072C50.613 79.5072 50.0099 80.2764 49.2052 79.8748C48.4005 79.4732 45.9023 78.2069 44.2334 72.2639L47.4574 70.3521Z" fill="#FCBB8C"/>
<path d="M40.7701 54.8848C40.5883 54.9136 40.4071 54.9423 40.2244 54.971C40.2573 55.0399 40.2923 55.1157 40.3325 55.1982C41.8322 58.3574 47.9695 70.6795 47.9695 70.6795L43.9993 72.856C43.9993 72.856 35.1758 61.7595 32.4343 57.7856C29.6928 53.8128 30.9983 50.2713 34.061 49.5126C37.1252 48.7543 55.2086 43.3235 55.2086 43.3235C56.3966 46.2583 55.6682 50.9016 55.6682 50.9016C50.946 52.688 46.0755 54.03 40.7701 54.8848Z" fill="#1E91D7"/>
<path d="M40.2246 54.971C40.2575 55.0399 40.2925 55.1156 40.3327 55.1982C39.0784 54.1809 36.7713 53.7961 36.7442 53.7919C36.6021 53.77 36.505 53.6352 36.529 53.4932C36.5525 53.3506 36.6857 53.254 36.8277 53.2775C36.9478 53.2958 39.4204 53.7094 40.7703 54.8843C40.5886 54.9136 40.4074 54.9423 40.2246 54.971Z" fill="#0270D2"/>
<path d="M194.411 54.5235C192.884 59.688 189.812 64.7156 188.409 67.1213C187.904 67.9871 186.325 69.2347 185.373 69.549C182.819 70.3923 178.06 71.7292 174.271 72.5741C173.026 71.7673 171.675 71.079 170.552 70.561C170.311 70.4487 170.08 70.3469 169.863 70.2503C169.384 70.0404 168.971 69.8691 168.662 69.7464L168.748 68.5662L168.753 68.4958C169.082 68.3668 169.498 68.2101 169.978 68.0326L169.98 68.031C174.234 66.4697 183.605 63.3287 183.711 63.2791C183.875 63.2044 183.963 63.1642 183.963 63.1642C184.01 63.0509 184.057 62.937 184.104 62.8237C189.156 50.5272 189.612 43.3262 189.612 43.3262C193.695 47.5982 194.411 54.5235 194.411 54.5235Z" fill="#0270D2"/>
<path d="M185.985 64.9375C185.975 64.9506 185.964 64.9595 185.952 64.9689C185.835 65.0629 185.67 65.055 185.559 64.9584C184.904 64.3553 184.289 63.7955 183.71 63.2796C183.874 63.2049 183.962 63.1647 183.962 63.1647C184.009 63.0514 184.056 62.9376 184.103 62.8242C184.685 63.3412 185.305 63.9026 185.967 64.5109C186.094 64.6268 186.097 64.8148 185.985 64.9375Z" fill="#0459BF"/>
<path d="M209.138 162.748C208.877 163.776 207.139 163.745 205.504 163.338C205.504 163.338 203.525 150.57 203.123 143.943C202.82 138.951 202.872 133.244 202.872 133.244C202.381 128.91 201.765 124.575 201.165 120.33C200.919 118.586 200.674 116.857 200.439 115.15C200.219 113.521 200.005 111.907 199.817 110.325L209.499 111.317C209.509 112.111 209.52 112.967 209.535 113.865C209.561 115.594 209.593 117.468 209.624 119.374C209.723 125.484 209.833 131.849 209.89 134.225C209.958 136.983 209.138 162.748 209.138 162.748Z" fill="#FCBB8C"/>
<path d="M209.624 119.374C207.655 119.724 204.632 120.168 201.165 120.33C200.919 118.586 200.674 116.857 200.439 115.15C200.219 113.521 200.005 111.907 199.817 110.325L209.499 111.317C209.509 112.111 209.52 112.967 209.535 113.865C209.561 115.594 209.593 117.468 209.624 119.374Z" fill="#FB927E"/>
<path d="M206.899 162.742C206.899 162.742 208.94 162.2 209.504 162.211C210.068 162.223 213.843 166.453 215.115 166.704C217.422 167.158 217.421 170.761 216.017 170.938C211.955 171.451 205.008 169.727 205.008 169.727C205.008 169.727 204.373 165.103 204.653 163.652C204.933 162.202 205.764 163.167 206.899 162.742Z" fill="#0459BF"/>
<path d="M210.258 166.692C210.185 166.708 210.107 166.695 210.04 166.651C209.911 166.564 209.877 166.389 209.964 166.26C209.993 166.217 210.684 165.201 211.538 164.848C212.675 164.377 213.483 165.06 213.516 165.089C213.634 165.19 213.646 165.368 213.545 165.486C213.444 165.603 213.266 165.616 213.148 165.514C213.126 165.496 212.563 165.034 211.754 165.367C211.057 165.655 210.437 166.565 210.431 166.575C210.389 166.637 210.326 166.678 210.258 166.692Z" fill="white"/>
<path d="M209.481 165.84C209.409 165.856 209.33 165.843 209.264 165.799C209.135 165.712 209.101 165.537 209.188 165.408C209.217 165.365 209.908 164.349 210.762 163.995C211.899 163.523 212.706 164.207 212.74 164.236C212.858 164.338 212.87 164.516 212.768 164.633C212.667 164.751 212.489 164.764 212.371 164.661C212.349 164.643 211.786 164.181 210.977 164.515C210.277 164.804 209.66 165.713 209.654 165.722C209.612 165.785 209.55 165.825 209.481 165.84Z" fill="white"/>
<path d="M211.343 167.419C211.271 167.435 211.192 167.422 211.126 167.377C210.997 167.291 210.963 167.116 211.05 166.987C211.079 166.943 211.77 165.927 212.625 165.574C213.762 165.102 214.569 165.786 214.603 165.815C214.72 165.917 214.733 166.094 214.632 166.212C214.53 166.329 214.352 166.342 214.235 166.24C214.213 166.222 213.649 165.76 212.839 166.094C212.14 166.383 211.523 167.292 211.517 167.301C211.474 167.363 211.412 167.403 211.343 167.419Z" fill="white"/>
<path d="M196.219 109.954C195.786 111.844 195.321 113.917 194.815 116.126C194.517 117.432 194.204 118.779 193.88 120.163C192.851 124.591 191.692 129.38 190.402 134.158C190.402 134.158 189.744 139.583 188.569 146.116C187.389 152.648 185.54 164.262 185.54 164.262C183.483 164.899 181.52 164.695 180.7 163.097C180.7 163.097 183.003 137.239 183.321 134.492C183.629 131.87 184.538 124.575 185.342 118.147C185.577 116.262 185.807 114.455 186.005 112.863C186.198 111.317 186.371 109.97 186.496 108.957L196.219 109.954Z" fill="#FCBB8C"/>
<path d="M196.219 109.954C195.786 111.844 195.321 113.917 194.814 116.126C194.517 117.432 194.203 118.779 193.88 120.163C190.955 119.865 188.01 119.254 185.342 118.147C185.577 116.262 185.807 114.455 186.005 112.863C186.198 111.317 186.371 109.97 186.496 108.957L196.219 109.954Z" fill="#FB927E"/>
<path d="M182.243 163.972C182.243 163.972 181.44 162.646 180.703 162.629C179.966 162.612 173.891 166.562 171.921 166.748C169.952 166.934 169.852 169.357 170.593 169.694C171.437 170.077 185.817 170.971 185.817 170.971C185.817 170.971 186.776 165.907 186.415 164.487C186.053 163.068 183.725 164.441 182.243 163.972Z" fill="#0459BF"/>
<path d="M178.823 166.806C178.889 166.834 178.966 166.834 179.037 166.802C179.174 166.741 179.235 166.58 179.174 166.443C179.153 166.397 178.66 165.314 177.903 164.838C176.896 164.202 176.015 164.722 175.977 164.744C175.849 164.822 175.808 164.989 175.886 165.118C175.963 165.247 176.13 165.288 176.259 165.21C176.283 165.196 176.896 164.848 177.613 165.298C178.23 165.687 178.673 166.656 178.678 166.666C178.707 166.733 178.761 166.781 178.823 166.806Z" fill="white"/>
<path d="M179.704 166.121C179.77 166.148 179.847 166.149 179.918 166.117C180.055 166.056 180.116 165.894 180.055 165.757C180.034 165.711 179.541 164.629 178.784 164.153C177.776 163.517 176.895 164.036 176.858 164.059C176.73 164.137 176.689 164.304 176.766 164.433C176.844 164.562 177.011 164.603 177.14 164.525C177.164 164.51 177.777 164.162 178.495 164.613C179.114 165.003 179.554 165.971 179.559 165.981C179.588 166.047 179.641 166.095 179.704 166.121Z" fill="white"/>
<path d="M177.669 167.321C177.735 167.349 177.813 167.349 177.883 167.317C178.02 167.256 178.082 167.094 178.02 166.957C177.999 166.911 177.507 165.829 176.75 165.352C175.742 164.716 174.861 165.236 174.824 165.259C174.695 165.337 174.654 165.504 174.732 165.633C174.81 165.761 174.977 165.803 175.106 165.725C175.13 165.711 175.743 165.362 176.46 165.813C177.08 166.203 177.52 167.171 177.524 167.181C177.553 167.247 177.607 167.296 177.669 167.321Z" fill="white"/>
<path d="M214.442 50.935C211.297 53.3794 207.89 51.9674 203.601 49.4201C199.311 46.8729 201.864 51.4964 197.46 51.9663C193.056 52.4363 194.273 41.6917 194.331 36.2881C194.367 32.8991 193.307 28.5623 193.418 26.8537L193.42 26.8307C193.416 26.5461 193.422 26.2615 193.438 25.9826C193.673 21.8819 196.69 14.5618 205.5 16.3346C205.5 16.3346 212.819 17.66 213.186 24.9215C213.186 24.9215 213.318 28.2693 213.392 30.6918C213.603 37.5523 216.35 34.1638 215 42.4186C214.554 45.1502 218.12 48.0771 214.442 50.935Z" fill="#3C3C48"/>
<path d="M215.63 44.77C215.63 44.77 215.444 46.0494 215.002 48.2974C214.902 48.8076 214.79 49.3705 214.661 49.9789C214.545 50.535 214.416 51.124 214.278 51.7554C213.923 53.3376 213.495 55.1496 212.978 57.1496C212.829 57.7345 212.669 58.3339 212.506 58.9485C212.047 60.643 211.532 62.4498 210.956 64.3464C210.772 64.9375 210.584 65.537 210.394 66.149C210.011 67.3527 209.604 68.5918 209.172 69.8555C209.173 70.3673 209.194 70.9208 209.239 71.5083C209.275 72.0634 209.333 72.6493 209.402 73.2602C209.504 74.1688 209.635 75.1349 209.784 76.1427C209.901 76.8999 210.023 77.6806 210.154 78.4753C210.248 79.0487 210.345 79.6242 210.446 80.2075C210.734 81.9061 211.042 83.6502 211.327 85.3693C211.426 85.9479 211.515 86.5233 211.607 87.0899C211.889 88.8899 212.132 90.6366 212.291 92.2492C212.35 92.8481 212.397 93.4278 212.429 93.9865C212.461 94.4878 212.477 94.9724 212.485 95.433C212.485 95.433 190.404 96.7045 184.809 92.3562L184.886 92.0936L185.38 90.4372L186.857 85.48L187.353 83.8236L188.474 80.0508L188.842 78.8106L191.154 69.4644L189.612 43.3246L190.176 43.1674L193.787 42.157L193.868 42.1335L195.881 41.5711L196.206 41.4807L198.958 40.8604C198.958 40.8604 200.425 41.6766 205.81 40.9116C205.81 40.9116 206.963 41.2003 208.499 41.6672C208.67 41.7194 208.844 41.7732 209.02 41.828C210.19 42.192 211.513 42.6442 212.704 43.1413C213.833 43.6113 214.842 44.1241 215.475 44.64C215.529 44.6844 215.581 44.7262 215.63 44.77Z" fill="#1E91D7"/>
<path d="M206.789 74.7699H206.788C202.418 74.6085 198.751 72.4983 196.445 70.7563C193.951 68.8722 192.463 66.9971 192.448 66.9783C192.376 66.8869 192.392 66.7548 192.483 66.6827C192.575 66.6106 192.707 66.6268 192.779 66.7177C192.794 66.736 194.254 68.5756 196.708 70.4273C198.964 72.1297 202.547 74.1923 206.804 74.3495C206.92 74.3537 207.011 74.4513 207.007 74.5673C207.002 74.6832 206.905 74.7735 206.789 74.7699Z" fill="#0270D2"/>
<path d="M202.186 76.1072C198.392 75.984 194.68 73.6994 194.511 73.5944C194.412 73.5328 194.382 73.4033 194.444 73.3046C194.505 73.2059 194.635 73.1761 194.733 73.2372C194.777 73.2644 199.145 75.9511 203.105 75.6706C203.223 75.6612 203.322 75.75 203.33 75.8654C203.338 75.9814 203.25 76.0821 203.135 76.09C202.819 76.1124 202.502 76.1171 202.186 76.1072Z" fill="#0270D2"/>
<path d="M199.592 52.4728C199.493 52.4697 199.407 52.3966 199.391 52.2948C199.373 52.1799 199.451 52.0723 199.566 52.0546C204.929 51.2165 206.647 47.84 206.663 47.806C206.714 47.7016 206.841 47.6588 206.945 47.7099C207.049 47.7611 207.092 47.8875 207.041 47.9919C206.969 48.1387 205.208 51.5987 199.631 52.4708C199.618 52.4723 199.604 52.4734 199.592 52.4728Z" fill="#0270D2"/>
<path d="M195.88 41.5721C196.228 44.9288 197.301 48.9173 200.623 49.4974C204.637 50.1998 207.383 44.7235 208.5 41.6682C206.962 41.2008 205.368 40.7387 205.368 40.7387C199.984 41.5032 199.004 40.758 199.004 40.758L196.205 41.4818L195.88 41.5721Z" fill="#FCBB8C"/>
<path d="M201.535 46.1925C205.771 46.4703 207.127 41.3042 207.141 41.251C207.169 41.1387 207.101 41.0254 206.989 40.9967C206.877 40.9685 206.763 41.0363 206.735 41.1481C206.682 41.3559 205.398 46.2301 201.316 45.7517C197.745 45.3355 197.794 41.3439 197.798 41.1742C197.801 41.0588 197.711 40.9622 197.594 40.9601C197.479 40.9575 197.383 41.0489 197.38 41.1643C197.379 41.2097 197.315 45.7068 201.268 46.1674C201.358 46.1789 201.447 46.1867 201.535 46.1925Z" fill="white"/>
<path d="M214.252 114.557C205.243 117.932 189.323 117.515 179.746 110.932C179.689 110.485 179.795 109.551 180.033 108.258C181.166 102.062 185.29 87.6079 188.841 78.8116C195.245 80.8142 202.329 81.2215 210.323 79.4879C213.788 92.1719 213.862 106.078 214.104 112.209C214.144 113.214 214.188 114.009 214.252 114.557Z" fill="#3C3C48"/>
<path d="M214.252 114.557C205.243 117.932 189.323 117.515 179.746 110.932C179.689 110.485 179.795 109.551 180.033 108.258C183.516 110.3 189.231 112.739 197.271 113.328C204.91 113.887 210.521 113.085 214.104 112.209C214.144 113.214 214.188 114.009 214.252 114.557Z" fill="#1A100E"/>
<path d="M196.406 27.5252C196.406 27.5252 195.242 25.8333 194.211 27.1017C193.18 28.3696 194.256 32.3852 196.631 31.5779L196.406 27.5252Z" fill="#FB927E"/>
<path d="M195.614 31.2369C195.599 31.4703 195.397 31.6468 195.164 31.6312C194.93 31.616 194.754 31.4145 194.77 31.1816C194.785 30.9481 194.986 30.7717 195.219 30.7868C195.453 30.8025 195.63 31.004 195.614 31.2369Z" fill="white"/>
<path d="M196.205 30.3309C196.12 30.3252 196.045 30.2667 196.026 30.1831C195.747 28.9471 194.458 28.3685 194.445 28.3628C194.346 28.3194 194.303 28.2093 194.347 28.1163C194.391 28.0234 194.507 27.9821 194.605 28.0249C194.666 28.051 196.088 28.6839 196.409 30.1079C196.431 30.2087 196.364 30.3069 196.258 30.3278C196.241 30.3309 196.223 30.332 196.205 30.3309Z" fill="#E6765D"/>
<path d="M194.911 29.6328C194.875 29.6301 194.839 29.6186 194.808 29.5962C194.721 29.5346 194.702 29.4181 194.766 29.3356C194.777 29.322 195.033 28.9983 195.536 28.8223C195.636 28.7868 195.75 28.8364 195.787 28.933C195.825 29.0296 195.774 29.1362 195.672 29.1717C195.283 29.308 195.082 29.556 195.081 29.5586C195.04 29.6108 194.975 29.6369 194.911 29.6328Z" fill="#E6765D"/>
<path d="M205.653 36.3842L205.337 41.2029C205.337 41.2029 202.984 42.7841 201.227 42.8196C199.471 42.8572 199.003 40.758 199.003 40.758L199.297 36.2735L205.653 36.3842Z" fill="#FCBB8C"/>
<path d="M205.622 36.8562L205.496 38.7784C204.238 40.0024 202.126 40.3272 199.075 39.6703L199.266 36.7455L205.622 36.8562Z" fill="#FB927E"/>
<path d="M195.523 29.3069C195.548 29.7758 195.583 30.2536 195.636 30.7304C195.983 33.9001 197.744 37.415 200.209 38.1471C205.533 39.7283 208.056 35.6306 209.125 32.556C209.244 32.2145 209.091 31.804 209.193 31.3972C209.437 30.4333 209.903 29.3502 210.065 28.263C210.177 27.5095 210.269 26.7649 210.345 26.0918C210.558 24.1931 209.57 22.3706 207.89 21.5743C205.471 20.4234 201.749 19.3936 198.039 21.2547C196.668 21.9424 195.746 23.321 195.613 24.8876C195.512 26.085 195.439 27.6537 195.523 29.3069Z" fill="#FCBB8C"/>
<path d="M201.959 32.1643C202.06 32.1711 202.153 32.1043 202.177 32.003C202.204 31.8897 202.134 31.7769 202.021 31.7497L201.308 31.5816L202.474 29.0014C202.522 28.8959 202.475 28.7711 202.369 28.7231C202.263 28.6761 202.138 28.7221 202.091 28.8281L200.714 31.8735L201.924 32.1591C201.935 32.1617 201.947 32.1633 201.959 32.1643Z" fill="#FB927E"/>
<path d="M197.95 24.1649C195.774 24.99 196.281 27.5435 195.485 28.756C195.433 28.8348 195.384 28.8463 195.336 28.8009C195.244 27.1153 195.318 25.5158 195.421 24.296C195.557 22.6991 196.526 21.2955 197.969 20.5978C201.876 18.7085 205.801 19.767 208.354 20.9461C210.126 21.7623 211.171 23.6218 210.951 25.5571C210.872 26.2432 210.776 27.002 210.661 27.7701C210.297 27.9555 209.434 27.9946 209.361 28.556C209.168 30.0406 209.029 31.0557 208.723 30.9461C208.208 30.7607 208 28.9335 208.677 27.8061C208.677 27.8061 208.245 26.9884 206.327 26.1007C203.866 24.9623 201.531 23.3623 201.531 23.3623C201.531 23.3623 200.61 22.7221 200.283 22.0688C200.284 22.0688 199.607 23.5362 197.95 24.1649Z" fill="#3C3C48"/>
<path d="M199.858 28.5508C199.827 29.0129 199.564 29.3727 199.271 29.3534C198.977 29.3341 198.763 28.9435 198.793 28.4813C198.823 28.0187 199.086 27.6594 199.38 27.6787C199.674 27.6975 199.888 28.0881 199.858 28.5508Z" fill="#3C3C48"/>
<path d="M205.612 28.9278C205.581 29.3899 205.319 29.7492 205.024 29.7304C204.73 29.7111 204.517 29.3205 204.547 28.8583C204.577 28.3957 204.84 28.0364 205.134 28.0557C205.428 28.0751 205.642 28.4657 205.612 28.9278Z" fill="#3C3C48"/>
<path d="M197.908 26.1779C198.342 26.1226 199.216 26.0416 200.136 26.1346C200.378 26.1591 200.56 26.3544 200.514 26.5456L200.513 26.5503C200.476 26.7027 200.304 26.7957 200.111 26.768C199.486 26.6792 197.842 26.5821 197.062 26.7597C197.048 26.6474 197.13 26.5346 197.244 26.439C197.418 26.2933 197.655 26.2103 197.908 26.1779Z" fill="#3C3C48"/>
<path d="M206.589 26.8401C206.169 26.7226 205.315 26.5168 204.392 26.4761C204.149 26.4657 203.94 26.6328 203.958 26.8281L203.959 26.8333C203.973 26.9894 204.13 27.1059 204.325 27.1069C204.957 27.1095 206.597 27.25 207.344 27.5382C207.373 27.4291 207.309 27.3059 207.209 27.1946C207.057 27.0249 206.835 26.9085 206.589 26.8401Z" fill="#3C3C48"/>
<path d="M199.55 33.2615C199.657 34.0077 200.086 35.3951 201.828 35.5095C203.574 35.6238 204.145 34.4186 204.369 33.5774L199.55 33.2615Z" fill="white"/>
<path d="M201.72 36.7732C201.217 36.7403 200.791 36.4405 200.773 36.4275C200.68 36.3612 200.659 36.2327 200.725 36.1398C200.791 36.0473 200.919 36.0254 201.012 36.0912C201.016 36.0938 201.364 36.3361 201.747 36.3617C202.162 36.3889 202.548 36.1936 202.552 36.1915C202.653 36.1398 202.778 36.1795 202.83 36.2802C202.882 36.381 202.843 36.5053 202.742 36.5575C202.722 36.568 202.253 36.8082 201.72 36.7732Z" fill="#FB927E"/>
<path d="M209.424 28.3659C209.424 28.3659 211.018 26.6714 211.804 28.0202C212.591 29.3691 211.109 33.1027 209.038 32.0317L209.424 28.3659Z" fill="#FCBB8C"/>
<path d="M210.373 32.2051C210.358 32.4385 210.156 32.615 209.923 32.5993C209.689 32.5842 209.513 32.3826 209.528 32.1492C209.543 31.9158 209.744 31.7393 209.978 31.7544C210.211 31.7701 210.388 31.9716 210.373 32.2051Z" fill="white"/>
<path d="M209.581 30.8834C209.66 30.8886 209.735 30.8411 209.763 30.7633C210.171 29.6072 211.422 29.2098 211.435 29.2061C211.53 29.1769 211.583 29.0761 211.554 28.9805C211.525 28.8855 211.424 28.8317 211.329 28.8604C211.271 28.8782 209.892 29.3116 209.422 30.6432C209.389 30.7372 209.438 30.8406 209.532 30.8735C209.548 30.8787 209.565 30.8824 209.581 30.8834Z" fill="#FB927E"/>
<path d="M210.851 30.3706C210.884 30.3727 210.919 30.3659 210.95 30.3481C211.037 30.2996 211.069 30.1899 211.021 30.1027C211.013 30.0881 210.818 29.745 210.38 29.5132C210.292 29.4662 210.183 29.5001 210.136 29.5884C210.09 29.6766 210.123 29.7858 210.211 29.8322C210.55 30.0113 210.704 30.275 210.705 30.2777C210.736 30.3341 210.792 30.3669 210.851 30.3706Z" fill="#FB927E"/>
<path d="M154.445 72.9396C154.445 72.9396 154.677 74.5934 155.72 74.844C156.763 75.0941 155.421 72.2764 155.421 72.2764C155.421 72.2764 156.787 75.1422 157.672 74.9041C158.557 74.666 157.331 71.8514 157.331 71.8514C157.331 71.8514 158.939 74.7568 159.635 74.6419C160.331 74.5271 159.189 71.2634 159.189 71.2634C159.189 71.2634 160.299 73.0242 161 72.8466C161.521 72.7145 161.002 70.5793 160.315 69.6117C159.627 68.6441 158.548 69.8174 158.548 69.8174C158.548 69.8174 157.143 69.9469 156.876 70.5527C156.876 70.5527 155.552 70.5041 155.044 71.0702C155.044 71.0702 154.048 71.4905 154.445 72.9396Z" fill="#FCBB8C"/>
<path d="M160.023 69.6383C160.023 69.6383 160.817 68.396 162.123 69.4623C162.123 69.4623 161.499 69.7746 160.566 70.0279L160.023 69.6383Z" fill="#FCBB8C"/>
<path d="M212.904 53.8593C212.904 53.8593 215.112 52.7282 216.01 51.9413C219.089 49.2452 226.764 42.8938 229.541 36.9544C231.305 33.1821 235.624 15.2213 235.658 14.9566C235.659 14.954 235.659 14.9529 235.659 14.9529L232.331 13.7221C232.331 13.7221 232.327 13.7341 232.318 13.7587C232.318 13.7597 232.318 13.7597 232.318 13.7597C232.081 14.461 228.498 24.9795 225.192 31.4589C225.1 31.6406 225.007 31.8197 224.914 31.9941C224.741 32.3236 224.568 32.6406 224.398 32.944C224.323 33.0756 224.248 33.2056 224.172 33.334C224.07 33.5085 223.966 33.6803 223.86 33.8494C220.783 38.8144 216.863 41.334 215.85 41.9304C215.69 42.0243 213.203 43.4139 213.203 43.4139C211.51 49.0483 212.904 53.8593 212.904 53.8593Z" fill="#1E91D7"/>
<path d="M224.914 31.9946C225.59 32.404 226.314 32.8536 227.084 33.3398C227.21 33.415 227.374 33.392 227.472 33.2792C227.482 33.2682 227.492 33.2573 227.498 33.2421C227.586 33.1011 227.55 32.9163 227.404 32.8254C226.617 32.3293 225.88 31.8745 225.192 31.4589C225.099 31.6411 225.007 31.8202 224.914 31.9946Z" fill="#0459BF"/>
<path d="M232.818 14.4187C232.818 14.4187 231.529 13.0375 231.589 11.5389C231.648 10.0402 231.512 7.3843 232.523 6.19945C233.37 5.20833 232.89 7.94096 233.53 9.10231C233.53 9.10231 234.985 7.9514 235.896 6.89449C236.699 5.96499 238.429 4.36343 239.236 3.62766C239.457 3.4261 239.811 3.64489 239.719 3.92949C239.571 4.38954 239.124 5.12583 237.971 6.26943C237.971 6.26943 240.884 3.65221 241.531 3.94933C242.178 4.24646 238.476 7.45167 238.476 7.45167C238.476 7.45167 241.564 5.32113 241.952 5.77282C242.188 6.04802 239.294 8.76028 239.294 8.76028C239.294 8.76028 242.372 7.00623 241.929 7.9279C241.8 8.19631 235.938 12.3613 235.358 16.0088C235.358 16.0088 233.521 15.4694 232.818 14.4187Z" fill="#FCBB8C"/>
</svg>
